<?xml version="1.0" standalone="no"?>
<!DOCTYPE svg PUBLIC "-//W3C//DTD SVG 1.1//EN" "http://www.w3.org/Graphics/SVG/1.1/DTD/svg11.dtd" >
<svg xmlns="http://www.w3.org/2000/svg" xmlns:xlink="http://www.w3.org/1999/xlink" version="1.1">
<metadata>
Created by FontForge 20170731 at Fri Feb 21 03:08:18 2014
 By Aleksey,,,
2005 Albert-Jan Pool published by FSI FontShop International GmbH
</metadata>
<defs>
<font id="DINPro-BlackItalic" horiz-adv-x="528" >
  <font-face 
    font-family="DIN Pro Black"
    font-weight="900"
    font-style="italic"
    font-stretch="normal"
    units-per-em="1000"
    panose-1="2 11 10 4 2 1 1 1 1 2"
    ascent="800"
    descent="-200"
    x-height="538"
    cap-height="712"
    bbox="-169 -232 1207 1207"
    underline-thickness="102"
    underline-position="-333"
    slope="-11.31"
    unicode-range="U+000D-FEFF"
  />
<missing-glyph horiz-adv-x="550" 
d="M6 0v712h536v-712h-536zM108 102h332v508h-332v-508z" />
    <glyph glyph-name=".notdef" horiz-adv-x="550" 
d="M6 0v712h536v-712h-536zM108 102h332v508h-332v-508z" />
    <glyph glyph-name=".null" horiz-adv-x="0" 
 />
    <glyph glyph-name=".null" horiz-adv-x="0" 
 />
    <glyph glyph-name="nonmarkingreturn" horiz-adv-x="333" 
 />
    <glyph glyph-name="CR" unicode="&#xd;" horiz-adv-x="211" 
 />
    <glyph glyph-name="space" unicode=" " horiz-adv-x="211" 
 />
    <glyph glyph-name="exclam" unicode="!" horiz-adv-x="348" 
d="M378 712l-135 -475h-112l51 475h196zM253 161l-31 -161h-160l31 161h160z" />
    <glyph glyph-name="quotedbl" unicode="&#x22;" horiz-adv-x="464" 
d="M283 712l-47 -234h-139l46 234h140zM499 712l-47 -234h-140l47 234h140z" />
    <glyph glyph-name="numbersign" unicode="#" horiz-adv-x="689" 
d="M701 562l-28 -145h-78l-34 -98h59l-29 -145h-81l-61 -174h-168l62 174h-91l-62 -174h-167l61 174h-56l29 145h78l34 98h-59l29 145h81l55 158h167l-55 -158h91l55 158h168l-56 -158h56zM427 417h-91l-34 -98h91z" />
    <glyph glyph-name="dollar" unicode="$" horiz-adv-x="610" 
d="M634 627l-116 -102q-36 44 -109 46l-26 -139l27 -7q91 -23 128.5 -67.5t37.5 -117.5q0 -65 -24 -113.5t-64.5 -75t-81.5 -40t-86 -17.5l-21 -108h-119l20 111q-74 4 -124.5 26.5t-91.5 70.5l120 105q47 -54 143 -56l28 146l-24 6q-167 42 -167 175q0 106 69 172t183 76
l18 88h119l-17 -92q119 -11 178 -87zM409 216q0 27 -13 40t-42 20l-25 -134q36 8 58 28t22 46zM328 572q-32 -6 -55 -27t-23 -50q0 -36 54 -50z" />
    <glyph glyph-name="percent" unicode="%" horiz-adv-x="826" 
d="M778 253q0 -13 -3 -30l-17 -90q-26 -139 -165 -139q-53 0 -88.5 30t-35.5 84q0 13 3 30l17 90q26 139 165 139q53 0 88.5 -30t35.5 -84zM394 604q0 -14 -3 -30l-17 -90q-26 -139 -165 -139q-53 0 -88.5 30t-35.5 84q0 13 3 30l17 90q26 139 165 139q53 0 88.5 -30
t35.5 -84zM725 712l-465 -712h-123l465 712h123zM283 590q0 29 -28 29q-33 0 -40 -41l-17 -88q-2 -12 -2 -17q0 -29 28 -29q33 0 40 41l17 88q2 12 2 17zM667 239q0 29 -28 29q-33 0 -40 -41l-17 -88q-2 -12 -2 -17q0 -29 28 -29q33 0 40 41l17 88q2 12 2 17z" />
    <glyph glyph-name="ampersand" unicode="&#x26;" horiz-adv-x="682" 
d="M649 375q-31 -133 -123 -220l103 -155h-188l-34 51q-76 -57 -177 -57q-37 0 -69.5 8.5t-63 28t-48.5 57t-18 88.5q0 84 39.5 134.5t112.5 94.5q-42 67 -42 120q0 30 9.5 60t31.5 61.5t68.5 51.5t110.5 20q48 0 83 -13t52.5 -31t27.5 -42.5t12 -40.5t2 -33q0 -83 -95 -146
l-58 -38l63 -98q35 33 54 99h147zM333 167l-84 130q-63 -36 -63 -97q0 -29 18.5 -48t46.5 -19q41 0 82 34zM389 551q0 37 -36 37q-30 0 -42.5 -19.5t-12.5 -40.5q0 -23 21 -52l27 17q43 27 43 58z" />
    <glyph glyph-name="quotesingle" unicode="'" horiz-adv-x="249" 
d="M284 712l-47 -234h-140l46 234h141z" />
    <glyph glyph-name="parenleft" unicode="(" horiz-adv-x="340" 
d="M377 691q-47 -41 -64 -63q-21 -27 -32 -82l-76 -374q-8 -37 -8 -62q0 -43 49 -100l-119 -104q-51 64 -68.5 102t-17.5 87q0 31 10 81l75 376q20 99 52 143q34 47 111 111z" />
    <glyph glyph-name="parenright" unicode=")" horiz-adv-x="340" 
d="M336 617q0 -31 -10 -81l-75 -376q-20 -99 -52 -143q-34 -47 -111 -111l-88 115q47 41 64 63q21 27 32 82l76 374q8 37 8 62q0 43 -49 100l119 104q51 -64 68.5 -102t17.5 -87z" />
    <glyph glyph-name="asterisk" unicode="*" horiz-adv-x="481" 
d="M492 521l-111 -32l90 -72l-70 -78l-82 79l-17 -113l-102 20l27 112l-106 -42l-35 98l111 32l-90 72l70 78l82 -79l17 113l102 -20l-27 -112l106 42z" />
    <glyph glyph-name="plus" unicode="+" 
d="M502 368l-29 -146h-146l-31 -156h-146l31 156h-143l29 146h143l31 156h147l-32 -156h146z" />
    <glyph glyph-name="comma" unicode="," horiz-adv-x="282" 
d="M211 174l-45 -224l-190 -128l70 352h165z" />
    <glyph glyph-name="hyphen" unicode="-" horiz-adv-x="405" 
d="M379 368l-29 -146h-312l29 146h312z" />
    <glyph glyph-name="period" unicode="." horiz-adv-x="279" 
d="M208 180l-36 -180h-171l36 180h171z" />
    <glyph glyph-name="slash" unicode="/" horiz-adv-x="412" 
d="M522 786l-442 -860h-148l443 860h147z" />
    <glyph glyph-name="zero" unicode="0" 
d="M531 538q0 -25 -5 -50l-54 -272q-23 -116 -90.5 -169t-156.5 -53q-90 0 -140.5 52t-50.5 128q0 25 5 50l54 272q23 116 90.5 169t156.5 53q90 0 140.5 -52t50.5 -128zM376 525q0 27 -15 39.5t-36 12.5q-61 0 -76 -76l-56 -283q-4 -18 -4 -31q0 -27 15 -39.5t36 -12.5
q61 0 76 76l56 283q4 18 4 31z" />
    <glyph glyph-name="one" unicode="1" 
d="M475 712l-142 -712h-156l107 535l-168 -118l35 177l168 118h156z" />
    <glyph glyph-name="two" unicode="2" 
d="M532 533q0 -58 -26 -100t-81 -95l-203 -197h245l-29 -141h-444l29 140l293 288q33 33 45.5 52t12.5 44q0 53 -51 53q-62 0 -80 -71h-156q18 105 83.5 158.5t171.5 53.5q89 0 139.5 -48.5t50.5 -136.5z" />
    <glyph glyph-name="three" unicode="3" 
d="M527 540q0 -118 -100 -177q30 -21 43 -49t13 -76q0 -106 -71 -175t-168 -69q-98 0 -158.5 47.5t-60.5 128.5q0 12 4 42h154q-2 -9 -2 -22q0 -24 16.5 -39.5t47.5 -15.5q33 0 57 29t24 66q0 29 -16 47.5t-46 18.5h-22l27 136h22q32 0 55.5 28t23.5 60q0 28 -13.5 42.5
t-34.5 14.5q-27 0 -49.5 -17.5t-30.5 -51.5h-156q44 210 257 210q82 0 133 -52t51 -126z" />
    <glyph glyph-name="four" unicode="4" 
d="M503 246l-30 -149h-50l-20 -97h-148l19 97h-286l30 149l317 466h175l-317 -466h109l19 94h148l-19 -94h53z" />
    <glyph glyph-name="five" unicode="5" 
d="M557 712l-28 -141h-269l-23 -117q36 25 88 25q82 0 124.5 -49.5t42.5 -119.5q0 -38 -6 -67q-22 -122 -84 -184q-65 -65 -173 -65q-85 0 -137.5 49t-52.5 127q0 18 3 43h149q-1 -7 -1 -19q0 -59 51 -59q63 0 85 108q6 31 6 46q0 59 -51 59q-49 0 -75 -51h-142l83 415h410z
" />
    <glyph glyph-name="six" unicode="6" 
d="M485 240q0 -107 -66 -176.5t-177 -69.5q-106 0 -160.5 60t-54.5 136q0 54 19.5 98.5t66.5 116.5l203 307h173l-196 -288q13 3 34 3q69 0 113.5 -50.5t44.5 -136.5zM329 234q0 69 -64 69q-38 0 -60 -28.5t-22 -70.5q0 -69 64 -69q38 0 60 28.5t22 70.5z" />
    <glyph glyph-name="seven" unicode="7" 
d="M586 712l-28 -141l-319 -571h-174l319 571h-147l-22 -109h-148l50 250h469z" />
    <glyph glyph-name="eight" unicode="8" 
d="M534 520q0 -52 -29 -97t-72 -69q52 -49 52 -124q0 -104 -68 -170t-183 -66q-92 0 -151 50t-59 146q0 57 29 106t83 80q-48 50 -48 124q0 91 66.5 154.5t174.5 63.5q91 0 148 -54.5t57 -143.5zM327 227q0 27 -16 47.5t-46 20.5q-35 0 -59 -26t-24 -66q0 -27 16 -47.5
t46 -20.5q35 0 59 26t24 66zM376 516q0 24 -14 42.5t-41 18.5q-32 0 -54 -23.5t-22 -61.5q0 -24 14 -42.5t41 -18.5q32 0 54 23.5t22 61.5z" />
    <glyph glyph-name="nine" unicode="9" 
d="M539 522q0 -54 -19.5 -98.5t-66.5 -116.5l-203 -307h-173l196 288q-13 -3 -34 -3q-69 0 -113.5 50.5t-44.5 136.5q0 107 66 176.5t177 69.5q106 0 160.5 -60t54.5 -136zM383 508q0 69 -64 69q-38 0 -60 -28.5t-22 -70.5q0 -69 64 -69q38 0 60 28.5t22 70.5z" />
    <glyph glyph-name="colon" unicode=":" horiz-adv-x="301" 
d="M281 433l-36 -180h-171l36 180h171zM231 180l-36 -180h-171l36 180h171z" />
    <glyph glyph-name="semicolon" unicode=";" horiz-adv-x="301" 
d="M227 174l-45 -224l-191 -128l71 352h165zM281 433l-36 -180h-171l36 180h171z" />
    <glyph glyph-name="less" unicode="&#x3c;" 
d="M525 568l-34 -173l-266 -101l227 -111l-32 -161l-397 217l27 132z" />
    <glyph glyph-name="equal" unicode="=" 
d="M526 486l-29 -146h-435l29 146h435zM479 250l-29 -146h-435l29 146h435z" />
    <glyph glyph-name="greater" unicode="&#x3e;" 
d="M510 351l-27 -132l-475 -197l34 173l266 101l-227 111l32 161z" />
    <glyph glyph-name="question" unicode="?" horiz-adv-x="511" 
d="M533 552q0 -91 -76 -172l-82 -87q-21 -21 -27 -47l-2 -9h-156l5 23q15 68 58 111l82 82q41 41 41 81q0 19 -11 31.5t-30 12.5q-62 0 -74 -63h-156q18 106 85.5 154.5t167.5 48.5q71 0 123 -45.5t52 -120.5zM335 161l-32 -161h-159l31 161h160z" />
    <glyph glyph-name="at" unicode="@" horiz-adv-x="747" 
d="M747 535q0 -34 -10 -86l-90 -449h-141l8 41q-50 -47 -107 -47q-67 0 -104 38.5t-37 91.5q0 30 14 102q12 58 19 84.5t22.5 56.5t40.5 52q44 39 117 39q67 0 103 -43l7 36q5 23 5 40q0 40 -22 62q-26 25 -78 25h-116q-64 0 -98 -30q-35 -30 -48 -97l-54 -270
q-4 -20 -4 -38q0 -25 19 -50l-123 -107q-47 58 -47 124q0 36 6 66l55 278q28 137 84 195q68 69 217 69h152q110 0 164 -56q46 -47 46 -127zM550 279q0 49 -43 49q-30 0 -49 -22.5t-30 -79.5q-6 -34 -6 -53q0 -49 43 -49q30 0 49 22.5t30 79.5q6 34 6 53z" />
    <glyph glyph-name="A" unicode="A" horiz-adv-x="622" 
d="M569 0h-169l-10 112h-211l-55 -112h-177l388 712h129zM377 247l-22 210l-108 -210h130z" />
    <glyph glyph-name="B" unicode="B" horiz-adv-x="620" 
d="M616 545q0 -122 -107 -185q30 -24 45 -50t15 -70q0 -108 -70.5 -174t-176.5 -66h-307l143 712h269q88 0 138.5 -45.5t50.5 -121.5zM401 232q0 23 -13 39t-41 16h-108l-28 -140h106q40 0 62 24.5t22 60.5zM447 512q0 53 -51 53h-101l-27 -131h98q43 0 62 25.5t19 52.5z
" />
    <glyph glyph-name="C" unicode="C" horiz-adv-x="583" 
d="M600 491h-166q-2 81 -69 81q-41 0 -72 -31q-33 -33 -63 -185q-19 -95 -19 -140q0 -36 19.5 -56t52.5 -20q68 0 100 81h171q-38 -114 -112 -170.5t-172 -56.5q-107 0 -166.5 61t-59.5 147q0 59 19 154q15 77 25 116t31 85t51 78q78 83 207 83q109 0 166 -64t57 -163z" />
    <glyph glyph-name="D" unicode="D" horiz-adv-x="618" 
d="M613 510q0 -34 -23 -154q-27 -136 -46.5 -187.5t-63.5 -95.5q-73 -73 -203 -73h-262l143 712h239q100 0 158 -53t58 -149zM445 494q0 72 -76 72h-74l-84 -420h73q51 0 83 32q17 17 28 50.5t29 127.5q21 108 21 138z" />
    <glyph glyph-name="E" unicode="E" horiz-adv-x="581" 
d="M617 712l-29 -146h-293l-27 -134h253l-29 -146h-253l-28 -140h299l-29 -146h-466l143 712h459z" />
    <glyph glyph-name="F" unicode="F" horiz-adv-x="566" 
d="M617 712l-29 -146h-293l-28 -139h250l-29 -146h-251l-56 -281h-166l143 712h459z" />
    <glyph glyph-name="G" unicode="G" horiz-adv-x="615" 
d="M607 488h-166q-3 84 -72 84q-43 0 -74 -31q-20 -21 -33 -59.5t-32 -125.5t-19 -140q0 -36 20 -56t53 -20q43 0 74.5 31t42.5 83l3 15h-101l26 138h266l-18 -96q-15 -80 -38.5 -135t-65.5 -100q-78 -82 -202 -82q-113 0 -170 62t-57 146q0 61 19 154q25 128 45 180t64 99
q77 83 209 83q109 0 167.5 -64t58.5 -166z" />
    <glyph glyph-name="H" unicode="H" horiz-adv-x="647" 
d="M667 712l-143 -712h-166l58 287h-177l-58 -287h-166l143 712h166l-55 -278h177l55 278h166z" />
    <glyph glyph-name="I" unicode="I" horiz-adv-x="303" 
d="M324 712l-143 -712h-166l143 712h166z" />
    <glyph glyph-name="J" unicode="J" horiz-adv-x="490" 
d="M520 712l-96 -480q-12 -62 -39.5 -108.5t-56.5 -70.5t-65.5 -38t-60.5 -17.5t-48 -3.5q-70 0 -115 20t-80 63l119 102q30 -39 77 -39q84 0 104 98l95 474h166z" />
    <glyph glyph-name="K" unicode="K" horiz-adv-x="645" 
d="M721 712l-288 -307l163 -405h-182l-116 298l-74 -69l-45 -229h-164l143 712h164l-51 -255l245 255h205z" />
    <glyph glyph-name="L" unicode="L" horiz-adv-x="552" 
d="M500 146l-29 -146h-456l143 712h166l-113 -566h289z" />
    <glyph glyph-name="M" unicode="M" horiz-adv-x="767" 
d="M789 712l-143 -712h-166l70 351l-127 -176h-106l-65 176l-71 -351h-166l143 712h155l91 -314l222 314h163z" />
    <glyph glyph-name="N" unicode="N" horiz-adv-x="667" 
d="M688 712l-143 -712h-138l-151 370l-75 -370h-166l143 712h138l152 -371l74 371h166z" />
    <glyph glyph-name="O" unicode="O" horiz-adv-x="608" 
d="M599 510q0 -59 -19 -154q-15 -77 -25 -116t-31 -85t-51 -78q-78 -83 -205 -83q-106 0 -165 61t-59 147q0 59 19 154q15 77 25 116t31 85t51 78q78 83 205 83q106 0 165 -61t59 -147zM432 496q0 36 -19.5 56t-50.5 20q-41 0 -71 -33q-31 -34 -61 -183q-19 -95 -19 -140
q0 -36 19.5 -56t50.5 -20q41 0 71 33q31 34 61 183q19 95 19 140z" />
    <glyph glyph-name="P" unicode="P" horiz-adv-x="596" 
d="M614 514q0 -100 -72 -175t-198 -75h-110l-53 -264h-166l143 712h259q88 0 142.5 -53t54.5 -145zM447 499q0 66 -59 66h-93l-31 -154h87q49 0 72.5 30t23.5 58z" />
    <glyph glyph-name="Q" unicode="Q" horiz-adv-x="608" 
d="M599 510q0 -59 -19 -154q-14 -68 -22.5 -104t-25.5 -79t-40 -73l43 -55l-97 -85l-46 59q-57 -25 -124 -25q-106 0 -165 61t-59 147q0 59 19 154q15 77 25 116t31 85t51 78q78 83 205 83q106 0 165 -61t59 -147zM432 496q0 36 -19.5 56t-50.5 20q-41 0 -71 -33
q-31 -34 -61 -183q-19 -95 -19 -140q0 -36 19.5 -56t50.5 -20q12 0 18 1l-40 53l97 85l29 -39q9 28 28 116q19 95 19 140z" />
    <glyph glyph-name="R" unicode="R" horiz-adv-x="624" 
d="M615 506q0 -64 -39.5 -124t-114.5 -91l95 -291h-182l-75 270h-63l-55 -270h-166l143 712h253q105 0 154.5 -58t49.5 -148zM448 497q0 67 -65 67h-88l-32 -156h87q52 0 75 29t23 60z" />
    <glyph glyph-name="S" unicode="S" horiz-adv-x="565" 
d="M590 629l-116 -102q-37 46 -116 46q-48 0 -77.5 -24.5t-29.5 -53.5q0 -18 10.5 -29.5t20.5 -15t30 -9.5l54 -14q92 -23 129 -68t37 -124q0 -121 -85 -181t-210 -60q-90 0 -148 22.5t-104 75.5l120 105q49 -56 147 -56q48 0 80.5 23t32.5 54q0 27 -14 40t-46 21l-54 14
q-166 43 -166 175q0 115 81 182.5t211 67.5q144 0 213 -89z" />
    <glyph glyph-name="T" unicode="T" horiz-adv-x="557" 
d="M616 712l-30 -147h-163l-113 -565h-166l113 565h-170l30 147h499z" />
    <glyph glyph-name="U" unicode="U" horiz-adv-x="627" 
d="M659 712l-93 -463q-26 -131 -105.5 -193t-183.5 -62q-101 0 -164 58.5t-63 149.5q0 34 6 62l90 448h166l-92 -457q-4 -24 -4 -40q0 -32 17.5 -53t53.5 -21q91 0 116 122l90 449h166z" />
    <glyph glyph-name="V" unicode="V" horiz-adv-x="571" 
d="M662 712l-363 -712h-129l-81 712h164l38 -409l194 409h177z" />
    <glyph glyph-name="W" unicode="W" horiz-adv-x="864" 
d="M951 712l-324 -712h-135l-37 361l-186 -361h-135l-47 712h171l14 -386l188 386h118l34 -386l163 386h176z" />
    <glyph glyph-name="X" unicode="X" horiz-adv-x="610" 
d="M680 712l-264 -352l144 -360h-187l-74 224l-156 -224h-193l281 370l-134 342h186l65 -206l140 206h192z" />
    <glyph glyph-name="Y" unicode="Y" horiz-adv-x="585" 
d="M668 712l-288 -427l-57 -285h-166l58 290l-134 422h178l65 -266l161 266h183z" />
    <glyph glyph-name="Z" unicode="Z" horiz-adv-x="522" 
d="M579 712l-26 -127l-341 -438h260l-30 -147h-465l26 127l340 438h-247l29 147h454z" />
    <glyph glyph-name="bracketleft" unicode="[" horiz-adv-x="395" 
d="M456 786l-28 -140h-128l-116 -580h138l-28 -140h-293l171 860h284z" />
    <glyph glyph-name="backslash" unicode="\" horiz-adv-x="404" 
d="M337 -74h-140l-97 842h140z" />
    <glyph glyph-name="bracketright" unicode="]" horiz-adv-x="395" 
d="M430 786l-171 -860h-284l28 140h128l116 580h-138l28 140h293z" />
    <glyph glyph-name="asciicircum" unicode="^" horiz-adv-x="620" 
d="M587 375h-157l-56 177l-127 -177h-171l247 345h155z" />
    <glyph glyph-name="underscore" unicode="_" 
d="M459 -78l-20 -102h-528l20 102h528z" />
    <glyph glyph-name="grave" unicode="`" horiz-adv-x="522" 
d="M382 608h-108l-72 177h142z" />
    <glyph glyph-name="a" unicode="a" horiz-adv-x="513" 
d="M484 389q0 -20 -6 -50l-68 -339h-150l9 44q-49 -49 -117 -49q-70 0 -110 44t-40 103q0 83 48 129q55 54 157 54h112l4 19q3 12 3 23q0 47 -64 47q-63 0 -100 -43l-78 104q73 69 203 69q82 0 139.5 -38t57.5 -117zM298 221h-76q-32 0 -49.5 -18t-17.5 -43
q0 -17 12.5 -28.5t34.5 -11.5q39 0 67 28q19 19 26 58z" />
    <glyph glyph-name="b" unicode="b" horiz-adv-x="541" 
d="M517 395q0 -35 -17 -126q-16 -91 -33.5 -142t-50.5 -84q-49 -49 -133 -49q-81 0 -119 53l-9 -47h-150l142 712h156l-42 -213q40 45 113 45q59 0 101 -36.5t42 -112.5zM355 350q0 53 -47 53q-41 0 -59.5 -30t-33.5 -104q-11 -55 -11 -81q0 -53 47 -53q41 0 59.5 30
t33.5 104q11 55 11 81z" />
    <glyph glyph-name="c" unicode="c" horiz-adv-x="453" 
d="M470 472l-118 -104q-27 35 -57 35q-31 0 -54 -24q-34 -36 -48 -110q-7 -37 -7 -63q0 -71 54 -71q38 0 74 36l86 -113q-72 -64 -177 -64q-48 0 -90 18t-73 63t-31 110q0 41 8 84q50 275 273 275q101 0 160 -72z" />
    <glyph glyph-name="d" unicode="d" horiz-adv-x="541" 
d="M570 712l-142 -712h-150l9 45q-46 -51 -123 -51q-75 0 -108 44t-33 97q0 47 18 134q19 95 37 146t45 78q51 51 133 51q75 0 115 -49l43 217h156zM337 350q0 53 -47 53q-41 0 -59.5 -30t-33.5 -104q-11 -55 -11 -81q0 -53 47 -53q41 0 59.5 30t33.5 104q11 55 11 81z" />
    <glyph glyph-name="e" unicode="e" horiz-adv-x="533" 
d="M506 348q0 -53 -18 -129h-310q-2 -14 -2 -22q0 -33 20 -52.5t59 -19.5q63 0 115 50l78 -102q-82 -79 -212 -79q-36 0 -70 9t-66.5 29.5t-52 59.5t-19.5 93q0 98 30.5 178t94.5 130.5t152 50.5t144.5 -52.5t56.5 -143.5zM358 348q0 31 -16 49.5t-46 18.5q-71 0 -98 -94
h157q3 12 3 26z" />
    <glyph glyph-name="f" unicode="f" horiz-adv-x="340" 
d="M407 723l-26 -131h-49q-36 0 -44 -40l-7 -37h85l-24 -120h-85l-79 -395h-156l79 395h-47l24 120h47l11 55q30 153 186 153h85z" />
    <glyph glyph-name="g" unicode="g" horiz-adv-x="533" 
d="M527 538l-99 -499q-20 -104 -88 -161.5t-174 -57.5q-121 0 -187 74l108 94q34 -36 79 -36q47 0 73.5 26.5t33.5 61.5l8 39q-40 -45 -105 -45q-58 0 -102 37.5t-44 106.5q0 27 15 111q16 86 31.5 130.5t42.5 71.5q53 53 135 53q73 0 114 -53l9 47h150zM330 353
q0 50 -46 50q-34 0 -52 -24t-31 -91q-8 -43 -8 -63q0 -50 46 -50q34 0 52 24t31 91q8 43 8 63z" />
    <glyph glyph-name="h" unicode="h" horiz-adv-x="550" 
d="M517 396q0 -30 -7 -62l-67 -334h-156l65 325q3 14 3 27q0 25 -14 38t-31 13q-67 0 -83 -78l-65 -325h-156l142 712h156l-42 -209q52 41 120 41q51 0 93 -36t42 -112z" />
    <glyph glyph-name="i" unicode="i" horiz-adv-x="274" 
d="M264 515l-103 -515h-156l103 515h156zM303 712l-24 -121h-156l24 121h156z" />
    <glyph glyph-name="j" unicode="j" horiz-adv-x="274" 
d="M265 515l-107 -536q-15 -73 -61.5 -116t-119.5 -43h-93l27 132h51q16 0 27.5 11t14.5 28l105 524h156zM304 712l-24 -121h-156l24 121h156z" />
    <glyph glyph-name="k" unicode="k" horiz-adv-x="547" 
d="M589 538l-232 -232l141 -306h-178l-81 209l-45 -40l-33 -169h-156l142 712h156l-72 -362l176 188h182z" />
    <glyph glyph-name="l" unicode="l" horiz-adv-x="327" 
d="M298 712l-108 -542q-2 -12 -2 -15q0 -23 29 -23h57l-27 -132h-77q-65 0 -102.5 35.5t-37.5 89.5q0 24 4 44l108 543h156z" />
    <glyph glyph-name="m" unicode="m" horiz-adv-x="831" 
d="M798 396q0 -25 -7 -62l-67 -334h-156l65 325q3 13 3 27q0 25 -14 38t-31 13q-67 0 -83 -78l-65 -325h-156l65 325q3 14 3 27q0 25 -14 38t-31 13q-67 0 -83 -78l-65 -325h-156l107 538h149l-9 -47q53 53 132 53q70 0 106 -58q64 58 158 58q57 0 103 -38t46 -110z" />
    <glyph glyph-name="n" unicode="n" horiz-adv-x="550" 
d="M517 396q0 -30 -7 -62l-67 -334h-156l65 325q3 14 3 27q0 25 -14 38t-31 13q-67 0 -83 -78l-65 -325h-156l107 538h149l-9 -47q53 53 132 53q49 0 90.5 -36t41.5 -112z" />
    <glyph glyph-name="o" unicode="o" horiz-adv-x="522" 
d="M492 366q0 -42 -11 -97q-17 -83 -37 -129t-56 -82q-64 -64 -171 -64q-76 0 -131.5 46.5t-55.5 131.5q0 42 11 97q17 83 37 129t56 82q64 64 171 64q76 0 131.5 -46.5t55.5 -131.5zM337 347q0 56 -48 56q-30 0 -48 -18q-27 -26 -45 -116q-11 -55 -11 -78q0 -56 48 -56
q30 0 48 18q27 26 45 116q11 55 11 78z" />
    <glyph glyph-name="p" unicode="p" horiz-adv-x="541" 
d="M518 405q0 -45 -18 -136q-19 -95 -37 -146t-45 -78q-51 -51 -133 -51q-75 0 -115 49l-43 -217h-156l142 712h150l-9 -45q46 51 123 51q40 0 69 -14t44 -36t21.5 -44.5t6.5 -44.5zM355 350q0 53 -47 53q-41 0 -59.5 -30t-33.5 -104q-11 -55 -11 -81q0 -53 47 -53
q41 0 59.5 30t33.5 104q11 55 11 81z" />
    <glyph glyph-name="q" unicode="q" horiz-adv-x="541" 
d="M536 538l-142 -712h-156l42 213q-40 -45 -113 -45q-59 0 -101 36.5t-42 112.5q0 35 17 126q16 91 33.5 142t50.5 84q49 49 133 49q81 0 119 -53l9 47h150zM337 350q0 53 -47 53q-41 0 -59.5 -30t-33.5 -104q-11 -55 -11 -81q0 -53 47 -53q41 0 59.5 30t33.5 104
q11 55 11 81z" />
    <glyph glyph-name="r" unicode="r" horiz-adv-x="449" 
d="M495 493l-136 -121l-6 7q-6 7 -10.5 11t-14 8t-19.5 4q-28 0 -52 -21.5t-31 -58.5l-64 -322h-156l107 538h150l-9 -46q46 52 128 52q71 0 113 -51z" />
    <glyph glyph-name="s" unicode="s" horiz-adv-x="477" 
d="M473 474l-106 -94q-13 17 -39.5 26.5t-50.5 9.5q-36 0 -54 -11.5t-18 -29.5q0 -23 33 -29l68 -12q130 -23 130 -144q0 -81 -60 -137q-62 -59 -189 -59q-136 0 -212 82l111 98q39 -46 111 -46q39 0 61.5 13t22.5 31q0 26 -37 32l-68 12q-64 11 -95.5 45.5t-31.5 78.5
q0 84 57 141q63 63 184 63q118 0 183 -70z" />
    <glyph glyph-name="t" unicode="t" horiz-adv-x="348" 
d="M356 515l-24 -120h-80l-45 -227q-1 -4 -1 -12q0 -25 31 -25h49l-26 -131h-73q-65 0 -102.5 35.5t-37.5 89.5q0 24 4 44l45 226h-47l24 120h47l31 156h156l-31 -156h80z" />
    <glyph glyph-name="u" unicode="u" horiz-adv-x="550" 
d="M545 538l-107 -538h-149l9 47q-53 -53 -132 -53q-49 0 -90.5 36t-41.5 112q0 30 7 62l67 334h156l-65 -325q-3 -14 -3 -27q0 -25 14 -38t31 -13q67 0 83 78l65 325h156z" />
    <glyph glyph-name="v" unicode="v" horiz-adv-x="495" 
d="M549 538l-295 -538h-119l-81 538h154l30 -300l145 300h166z" />
    <glyph glyph-name="w" unicode="w" horiz-adv-x="738" 
d="M789 538l-255 -538h-118l-38 300l-155 -300h-122l-47 538h155l11 -284l143 284h110l33 -284l117 284h166z" />
    <glyph glyph-name="x" unicode="x" 
d="M568 538l-217 -269l128 -269h-180l-55 143l-103 -143h-193l230 276l-124 262h180l51 -137l93 137h190z" />
    <glyph glyph-name="y" unicode="y" horiz-adv-x="488" 
d="M546 538l-324 -602q-22 -41 -44 -62q-53 -54 -136 -54h-58l29 142h32q20 0 33.5 11.5t26.5 36.5l23 43l-75 485h154l30 -300l145 300h164z" />
    <glyph glyph-name="z" unicode="z" horiz-adv-x="467" 
d="M488 538l-23 -116l-249 -281h199l-28 -141h-409l24 116l245 281h-184l28 141h397z" />
    <glyph glyph-name="braceleft" unicode="{" horiz-adv-x="492" 
d="M553 786l-28 -140h-59q-46 0 -62 -15.5t-25 -62.5l-23 -112q-17 -85 -90 -97q52 -22 52 -81q0 -12 -3 -27l-21 -107q-5 -28 -5 -41q0 -22 14 -29.5t45 -7.5h71l-28 -140h-129q-67 0 -102 42t-35 94q0 20 3 33l25 123q4 20 4 31q0 18 -8 29q-14 18 -50 18h-55l28 140h55
q36 0 57 18q19 16 28 60l23 113q16 82 64 122q44 37 123 37h131z" />
    <glyph glyph-name="bar" unicode="|" horiz-adv-x="346" 
d="M355 786l-172 -860h-156l172 860h156z" />
    <glyph glyph-name="braceright" unicode="}" horiz-adv-x="492" 
d="M484 416l-28 -140h-55q-36 0 -57 -18q-19 -16 -28 -60l-23 -113q-16 -82 -64 -122q-44 -37 -123 -37h-131l28 140h59q46 0 62 15.5t25 62.5l23 112q17 85 90 97q-52 22 -52 81q0 12 3 27l21 107q5 28 5 41q0 22 -14 29.5t-45 7.5h-71l28 140h129q67 0 102 -42t35 -94
q0 -20 -3 -33l-25 -123q-4 -22 -4 -31q0 -18 8 -29q13 -18 50 -18h55z" />
    <glyph glyph-name="asciitilde" unicode="~" horiz-adv-x="614" 
d="M592 278q-91 -85 -192 -85q-58 0 -111 32q-41 25 -79 25q-56 0 -97 -41l-81 105q91 85 192 85q58 0 111 -32q41 -25 79 -25q56 0 97 41z" />
    <glyph glyph-name="uni00A0" unicode="&#xa0;" horiz-adv-x="211" 
 />
    <glyph glyph-name="exclamdown" unicode="&#xa1;" horiz-adv-x="348" 
d="M218 301l-51 -475h-196l135 475h112zM287 538l-31 -161h-160l31 161h160z" />
    <glyph glyph-name="cent" unicode="&#xa2;" horiz-adv-x="488" 
d="M522 551l-115 -95q-19 25 -43 33l-51 -252q34 8 59 34l84 -103q-36 -33 -70 -49.5t-82 -25.5l-19 -93h-120l20 98q-51 15 -93 68.5t-42 134.5q0 78 25.5 148.5t82 123t134.5 61.5l16 78h119l-16 -81q65 -19 111 -80zM282 490q-26 -12 -45 -49q-30 -59 -30 -127
q0 -57 26 -72z" />
    <glyph glyph-name="sterling" unicode="&#xa3;" horiz-adv-x="568" 
d="M597 638l-124 -107q-21 40 -71 40q-28 0 -48 -9t-31 -25.5t-16 -30.5t-9 -32l-15 -73h91l-24 -119h-90l-27 -135h275l-29 -147h-442l57 282h-57l23 119h57l16 77q24 112 88.5 176t193.5 64q122 0 182 -80z" />
    <glyph glyph-name="currency" unicode="&#xa4;" horiz-adv-x="674" 
d="M620 114l-103 -103l-72 72q-51 -27 -109 -27t-109 27l-72 -72l-103 103l72 72q-27 51 -27 109t27 109l-72 72l103 103l72 -72q51 27 109 27t109 -27l72 72l103 -103l-72 -72q27 -51 27 -109t-27 -109zM435 295q0 41 -29 70t-70 29t-70 -29t-29 -70t29 -70t70 -29t70 29
t29 70z" />
    <glyph glyph-name="yen" unicode="&#xa5;" horiz-adv-x="585" 
d="M668 712l-171 -254h62l-24 -118h-118l-37 -55l-9 -45h144l-24 -118h-143l-25 -122h-166l25 122h-142l24 118h141l10 50l-15 50h-116l23 118h55l-81 254h178l65 -266l161 266h183z" />
    <glyph glyph-name="brokenbar" unicode="&#xa6;" horiz-adv-x="346" 
d="M355 786l-70 -350h-156l70 350h156zM253 276l-70 -350h-156l70 350h156z" />
    <glyph glyph-name="section" unicode="&#xa7;" horiz-adv-x="490" 
d="M475 570q0 -15 -2 -27h-137q1 25 -9 33.5t-30 8.5q-25 0 -37 -14t-12 -33q0 -27 43 -46l45 -20q45 -20 73.5 -60.5t28.5 -91.5q0 -124 -105 -188q24 -21 35.5 -46t11.5 -71q0 -34 -11 -66t-35 -62.5t-69 -48.5t-106 -18q-70 0 -117.5 41t-47.5 106q0 9 2 33h142
q-2 -19 8 -31.5t33 -12.5q21 0 37 12.5t16 41.5q0 35 -45 56l-44 20q-103 47 -103 152q0 59 28.5 109.5t79.5 78.5q-42 42 -42 114q0 30 11 59.5t33.5 57t65 44.5t98.5 17q76 0 118.5 -40t42.5 -108zM296 301q0 27 -13 37.5t-30 10.5q-23 0 -37 -12q-22 -17 -30 -58
q-3 -21 -3 -22q0 -27 13 -37.5t30 -10.5q23 0 37 12q22 17 30 58q3 21 3 22z" />
    <glyph glyph-name="dieresis" unicode="&#xa8;" horiz-adv-x="522" 
d="M311 749l-28 -142h-127l28 142h127zM526 749l-28 -142h-127l28 142h127z" />
    <glyph glyph-name="copyright" unicode="&#xa9;" horiz-adv-x="781" 
d="M753 356q0 -142 -100.5 -243t-243.5 -101t-243.5 101t-100.5 243t100.5 243t243.5 101t243.5 -101t100.5 -243zM655 356q0 110 -70 181t-176 71t-176 -71t-70 -181t70 -181t176 -71t176 71t70 181zM543 223q-57 -49 -125 -49q-71 0 -121.5 46t-50.5 136t50.5 136
t121.5 46q68 0 125 -49l-64 -64q-32 26 -61 26q-34 0 -54.5 -24t-20.5 -71t20.5 -71t54.5 -24q29 0 61 26z" />
    <glyph glyph-name="ordfeminine" unicode="&#xaa;" horiz-adv-x="434" 
d="M450 594q0 -10 -5 -40l-55 -271h-120l8 35q-39 -39 -96 -39q-55 0 -86 35.5t-31 85.5q0 64 41 102q44 41 122 41h90l3 15q2 14 2 19q0 37 -51 37q-50 0 -80 -34l-62 83q59 55 162 55q66 0 112 -30.5t46 -93.5zM301 461h-61q-25 0 -40 -15t-15 -33q0 -34 40 -34
q31 0 53 22q12 12 20 47z" />
    <glyph glyph-name="guillemotleft" unicode="&#xab;" horiz-adv-x="638" 
d="M344 547l-40 -199l-95 -81l62 -82l-34 -176l-206 271zM638 547l-40 -199l-95 -81l62 -82l-34 -176l-206 271z" />
    <glyph glyph-name="logicalnot" unicode="&#xac;" 
d="M512 390l-60 -300h-146l31 155h-300l29 145h446z" />
    <glyph glyph-name="uni00AD" unicode="&#xad;" horiz-adv-x="405" 
d="M379 368l-29 -146h-312l29 146h312z" />
    <glyph glyph-name="registered" unicode="&#xae;" horiz-adv-x="781" 
d="M753 356q0 -142 -100.5 -243t-243.5 -101t-243.5 101t-100.5 243t100.5 243t243.5 101t243.5 -101t100.5 -243zM655 356q0 110 -70 181t-176 71t-176 -71t-70 -181t70 -181t176 -71t176 71t70 181zM570 176h-112l-54 134h-29v-134h-98v360h160q57 0 90 -34.5t33 -81.5
q0 -65 -58 -93zM462 420q0 15 -10.5 25.5t-27.5 10.5h-49v-72h49q17 0 27.5 10.5t10.5 25.5z" />
    <glyph glyph-name="macron" unicode="&#xaf;" horiz-adv-x="522" 
d="M505 722l-20 -99h-310l20 99h310z" />
    <glyph glyph-name="degree" unicode="&#xb0;" horiz-adv-x="462" 
d="M473 534q0 -81 -53.5 -134.5t-134.5 -53.5t-134.5 53.5t-53.5 134.5t53.5 134.5t134.5 53.5t134.5 -53.5t53.5 -134.5zM350 534q0 27 -19 46t-46 19t-46 -19t-19 -46t19 -46t46 -19t46 19t19 46z" />
    <glyph glyph-name="plusminus" unicode="&#xb1;" 
d="M531 511l-29 -145h-146l-31 -156h-146l31 156h-143l29 145h143l31 156h147l-32 -156h146zM459 145l-29 -145h-435l29 145h435z" />
    <glyph glyph-name="twosuperior" unicode="&#xb2;" horiz-adv-x="323" 
d="M362 600q0 -39 -20 -69t-61 -66l-95 -82h140l-19 -98h-278l20 98l170 154q33 30 33 53q0 28 -24 28q-28 0 -34 -33h-110q25 131 156 131q57 0 89.5 -30.5t32.5 -85.5z" />
    <glyph glyph-name="threesuperior" unicode="&#xb3;" horiz-adv-x="323" 
d="M366 600q0 -67 -57 -100q27 -26 27 -75q0 -66 -43 -105t-111 -39q-64 0 -97 28.5t-33 72.5q0 20 3 36h108q-6 -38 25 -38q17 0 27 12.5t10 31.5q0 33 -27 33h-13l18 93h11q22 0 31.5 14t9.5 28q0 26 -22 26q-13 0 -23 -9t-11 -25h-111q21 132 159 132q53 0 86 -32t33 -84
z" />
    <glyph glyph-name="acute" unicode="&#xb4;" horiz-adv-x="522" 
d="M521 785l-132 -177h-117l106 177h143z" />
    <glyph glyph-name="mu" unicode="&#xb5;" horiz-adv-x="555" 
d="M549 538l-107 -538h-149l9 47q-53 -53 -132 -53h-10l-34 -168h-156l142 712h156l-65 -325q-3 -14 -3 -27q0 -25 14 -38t31 -13q67 0 83 78l65 325h156z" />
    <glyph glyph-name="paragraph" unicode="&#xb6;" horiz-adv-x="672" 
d="M693 712l-178 -886h-155l148 740h-86l-148 -740h-156l99 492q-48 5 -95 52t-47 130q0 88 64.5 150t197.5 62h356z" />
    <glyph glyph-name="periodcentered" unicode="&#xb7;" horiz-adv-x="279" 
d="M248 381l-34 -172h-171l34 172h171z" />
    <glyph glyph-name="cedilla" unicode="&#xb8;" horiz-adv-x="522" 
d="M267 -52l-61 -142h-135l81 142h115z" />
    <glyph glyph-name="onesuperior" unicode="&#xb9;" horiz-adv-x="323" 
d="M335 712l-85 -427h-111l59 297l-105 -74l27 130l105 74h110z" />
    <glyph glyph-name="ordmasculine" unicode="&#xba;" horiz-adv-x="443" 
d="M449 576q0 -38 -8 -78q-21 -115 -75 -169q-51 -51 -137 -51q-61 0 -105 37.5t-44 105.5q0 32 9 77q12 65 28.5 102.5t45.5 66.5q51 51 137 51q61 0 105 -37t44 -105zM325 560q0 45 -38 45q-25 0 -40 -16q-21 -21 -34 -91q-9 -48 -9 -62q0 -45 38 -45q25 0 40 16
q21 21 34 91q9 48 9 62z" />
    <glyph glyph-name="guillemotright" unicode="&#xbb;" horiz-adv-x="638" 
d="M319 276l-313 -267l40 199l95 81l-62 82l34 176zM613 276l-313 -267l40 199l95 81l-62 82l34 176z" />
    <glyph glyph-name="onequarter" unicode="&#xbc;" horiz-adv-x="859" 
d="M335 712l-85 -427h-111l59 297l-105 -74l27 130l105 74h110zM741 712l-464 -712h-123l464 712h123zM826 156l-19 -99h-26l-11 -57h-104l12 57h-173l18 99l187 271h122l-188 -271h52l9 42h104l-9 -42h26z" />
    <glyph glyph-name="onehalf" unicode="&#xbd;" horiz-adv-x="859" 
d="M335 712l-85 -427h-111l59 297l-105 -74l27 130l105 74h110zM741 712l-464 -712h-123l464 712h123zM841 315q0 -39 -20 -69t-61 -66l-95 -82h140l-19 -98h-278l20 98l170 154q33 30 33 53q0 28 -24 28q-29 0 -34 -33h-110q25 131 156 131q57 0 89.5 -30.5t32.5 -85.5z
" />
    <glyph glyph-name="threequarters" unicode="&#xbe;" horiz-adv-x="859" 
d="M366 600q0 -67 -57 -100q27 -26 27 -75q0 -66 -43 -105t-111 -39q-64 0 -97 28.5t-33 72.5q0 20 3 36h108q-6 -38 25 -38q17 0 27 12.5t10 31.5q0 33 -27 33h-13l18 93h11q22 0 31.5 14t9.5 28q0 26 -22 26q-13 0 -23 -9t-11 -25h-111q21 132 159 132q53 0 86 -32t33 -84
zM741 712l-464 -712h-123l464 712h123zM826 156l-19 -99h-26l-11 -57h-104l12 57h-173l18 99l187 271h122l-188 -271h52l9 42h104l-9 -42h26z" />
    <glyph glyph-name="questiondown" unicode="&#xbf;" horiz-adv-x="511" 
d="M409 23q-18 -106 -85.5 -154.5t-167.5 -48.5q-71 0 -123 45.5t-52 120.5q0 91 76 172l82 87q21 21 27 47l2 9h156l-5 -23q-15 -68 -58 -111l-82 -82q-41 -41 -41 -81q0 -19 11 -31.5t30 -12.5q62 0 74 63h156zM370 538l-31 -161h-160l32 161h159z" />
    <glyph glyph-name="Agrave" unicode="&#xc0;" horiz-adv-x="622" 
d="M569 0h-169l-10 112h-211l-55 -112h-177l388 712h129zM377 247l-22 210l-108 -210h130zM462 780h-108l-72 177h142z" />
    <glyph glyph-name="Aacute" unicode="&#xc1;" horiz-adv-x="622" 
d="M569 0h-169l-10 112h-211l-55 -112h-177l388 712h129zM377 247l-22 210l-108 -210h130zM601 957l-132 -177h-117l106 177h143z" />
    <glyph glyph-name="Acircumflex" unicode="&#xc2;" horiz-adv-x="622" 
d="M569 0h-169l-10 112h-211l-55 -112h-177l388 712h129zM377 247l-22 210l-108 -210h130zM596 780h-109l-56 87l-93 -87h-120l165 179h120z" />
    <glyph glyph-name="Atilde" unicode="&#xc3;" horiz-adv-x="622" 
d="M569 0h-169l-10 112h-211l-55 -112h-177l388 712h129zM377 247l-22 210l-108 -210h130zM607 845q-58 -55 -119 -55q-42 0 -82 21q-30 16 -53 16q-33 0 -62 -29l-54 72q58 55 119 55q42 0 82 -21q30 -16 53 -16q33 0 62 29z" />
    <glyph glyph-name="Adieresis" unicode="&#xc4;" horiz-adv-x="622" 
d="M569 0h-169l-10 112h-211l-55 -112h-177l388 712h129zM377 247l-22 210l-108 -210h130zM391 921l-28 -142h-127l28 142h127zM606 921l-28 -142h-128l29 142h127z" />
    <glyph glyph-name="Aring" unicode="&#xc5;" horiz-adv-x="622" 
d="M569 0h-169l-10 112h-211l-55 -112h-177l388 712h129zM377 247l-22 210l-108 -210h130zM537 887q0 -56 -38.5 -94t-93.5 -38t-93.5 38t-38.5 94t38.5 94t93.5 38t93.5 -37.5t38.5 -94.5zM456 887q0 21 -15.5 36t-35.5 15t-35.5 -15t-15.5 -36t15.5 -36t35.5 -15t35.5 15
t15.5 36z" />
    <glyph glyph-name="AE" unicode="&#xc6;" horiz-adv-x="973" 
d="M1009 712l-29 -145h-294l-26 -135h252l-29 -145h-253l-28 -142h298l-29 -145h-464l31 157h-200l-108 -157h-183l494 712h568zM520 566l-187 -271h133z" />
    <glyph glyph-name="Ccedilla" unicode="&#xc7;" horiz-adv-x="583" 
d="M600 491h-166q-2 81 -69 81q-41 0 -72 -31q-33 -33 -63 -185q-19 -95 -19 -140q0 -36 19.5 -56t52.5 -20q68 0 100 81h171q-38 -114 -112 -170.5t-172 -56.5q-107 0 -166.5 61t-59.5 147q0 59 19 154q15 77 25 116t31 85t51 78q78 83 207 83q109 0 166 -64t57 -163z
M327 -52l-61 -142h-135l81 142h115z" />
    <glyph glyph-name="Egrave" unicode="&#xc8;" horiz-adv-x="581" 
d="M617 712l-29 -146h-293l-27 -134h253l-29 -146h-253l-28 -140h299l-29 -146h-466l143 712h459zM435 780h-108l-72 177h142z" />
    <glyph glyph-name="Eacute" unicode="&#xc9;" horiz-adv-x="581" 
d="M617 712l-29 -146h-293l-27 -134h253l-29 -146h-253l-28 -140h299l-29 -146h-466l143 712h459zM574 957l-132 -177h-117l106 177h143z" />
    <glyph glyph-name="Ecircumflex" unicode="&#xca;" horiz-adv-x="581" 
d="M617 712l-29 -146h-293l-27 -134h253l-29 -146h-253l-28 -140h299l-29 -146h-466l143 712h459zM569 780h-109l-56 87l-93 -87h-120l165 179h120z" />
    <glyph glyph-name="Edieresis" unicode="&#xcb;" horiz-adv-x="581" 
d="M617 712l-29 -146h-293l-27 -134h253l-29 -146h-253l-28 -140h299l-29 -146h-466l143 712h459zM364 921l-28 -142h-127l28 142h127zM579 921l-28 -142h-128l29 142h127z" />
    <glyph glyph-name="Igrave" unicode="&#xcc;" horiz-adv-x="303" 
d="M324 712l-143 -712h-166l143 712h166zM313 782h-108l-72 177h142z" />
    <glyph glyph-name="Iacute" unicode="&#xcd;" horiz-adv-x="303" 
d="M324 712l-143 -712h-166l143 712h166zM434 957l-132 -177h-117l106 177h143z" />
    <glyph glyph-name="Icircumflex" unicode="&#xce;" horiz-adv-x="303" 
d="M324 712l-143 -712h-166l143 712h166zM439 780h-109l-56 87l-93 -87h-120l165 179h120z" />
    <glyph glyph-name="Idieresis" unicode="&#xcf;" horiz-adv-x="303" 
d="M324 712l-143 -712h-166l143 712h166zM234 921l-28 -142h-127l28 142h127zM449 921l-28 -142h-128l29 142h127z" />
    <glyph glyph-name="Eth" unicode="&#xd0;" horiz-adv-x="645" 
d="M640 510q0 -34 -23 -154q-27 -136 -46.5 -187.5t-63.5 -95.5q-73 -73 -203 -73h-262l60 296h-62l25 126h62l58 290h239q100 0 158 -53t58 -149zM472 494q0 72 -76 72h-74l-29 -144h85l-25 -126h-85l-31 -150h74q51 0 83 32q17 17 28 50.5t29 127.5q21 108 21 138z" />
    <glyph glyph-name="Ntilde" unicode="&#xd1;" horiz-adv-x="667" 
d="M688 712l-143 -712h-138l-151 370l-75 -370h-166l143 712h138l152 -371l74 371h166zM603 845q-58 -55 -119 -55q-42 0 -82 21q-30 16 -53 16q-33 0 -62 -29l-54 72q58 55 119 55q42 0 82 -21q30 -16 53 -16q33 0 62 29z" />
    <glyph glyph-name="Ograve" unicode="&#xd2;" horiz-adv-x="608" 
d="M599 510q0 -59 -19 -154q-15 -77 -25 -116t-31 -85t-51 -78q-78 -83 -205 -83q-106 0 -165 61t-59 147q0 59 19 154q15 77 25 116t31 85t51 78q78 83 205 83q106 0 165 -61t59 -147zM432 496q0 36 -19.5 56t-50.5 20q-41 0 -71 -33q-31 -34 -61 -183q-19 -95 -19 -140
q0 -36 19.5 -56t50.5 -20q41 0 71 33q31 34 61 183q19 95 19 140zM452 780h-108l-72 177h142z" />
    <glyph glyph-name="Oacute" unicode="&#xd3;" horiz-adv-x="608" 
d="M599 510q0 -59 -19 -154q-15 -77 -25 -116t-31 -85t-51 -78q-78 -83 -205 -83q-106 0 -165 61t-59 147q0 59 19 154q15 77 25 116t31 85t51 78q78 83 205 83q106 0 165 -61t59 -147zM432 496q0 36 -19.5 56t-50.5 20q-41 0 -71 -33q-31 -34 -61 -183q-19 -95 -19 -140
q0 -36 19.5 -56t50.5 -20q41 0 71 33q31 34 61 183q19 95 19 140zM591 957l-132 -177h-117l106 177h143z" />
    <glyph glyph-name="Ocircumflex" unicode="&#xd4;" horiz-adv-x="608" 
d="M599 510q0 -59 -19 -154q-15 -77 -25 -116t-31 -85t-51 -78q-78 -83 -205 -83q-106 0 -165 61t-59 147q0 59 19 154q15 77 25 116t31 85t51 78q78 83 205 83q106 0 165 -61t59 -147zM432 496q0 36 -19.5 56t-50.5 20q-41 0 -71 -33q-31 -34 -61 -183q-19 -95 -19 -140
q0 -36 19.5 -56t50.5 -20q41 0 71 33q31 34 61 183q19 95 19 140zM586 780h-109l-56 87l-93 -87h-120l165 179h120z" />
    <glyph glyph-name="Otilde" unicode="&#xd5;" horiz-adv-x="608" 
d="M599 510q0 -59 -19 -154q-15 -77 -25 -116t-31 -85t-51 -78q-78 -83 -205 -83q-106 0 -165 61t-59 147q0 59 19 154q15 77 25 116t31 85t51 78q78 83 205 83q106 0 165 -61t59 -147zM432 496q0 36 -19.5 56t-50.5 20q-41 0 -71 -33q-31 -34 -61 -183q-19 -95 -19 -140
q0 -36 19.5 -56t50.5 -20q41 0 71 33q31 34 61 183q19 95 19 140zM597 845q-58 -55 -119 -55q-42 0 -82 21q-30 16 -53 16q-33 0 -62 -29l-54 72q58 55 119 55q42 0 82 -21q30 -16 53 -16q33 0 62 29z" />
    <glyph glyph-name="Odieresis" unicode="&#xd6;" horiz-adv-x="608" 
d="M599 510q0 -59 -19 -154q-15 -77 -25 -116t-31 -85t-51 -78q-78 -83 -205 -83q-106 0 -165 61t-59 147q0 59 19 154q15 77 25 116t31 85t51 78q78 83 205 83q106 0 165 -61t59 -147zM432 496q0 36 -19.5 56t-50.5 20q-41 0 -71 -33q-31 -34 -61 -183q-19 -95 -19 -140
q0 -36 19.5 -56t50.5 -20q41 0 71 33q31 34 61 183q19 95 19 140zM381 921l-28 -142h-127l28 142h127zM596 921l-28 -142h-128l29 142h127z" />
    <glyph glyph-name="multiply" unicode="&#xd7;" 
d="M524 425l-156 -135l102 -133l-114 -99l-101 135l-155 -136l-83 109l155 134l-102 135l115 99l101 -135l155 135z" />
    <glyph glyph-name="Oslash" unicode="&#xd8;" horiz-adv-x="612" 
d="M640 756l-78 -121q41 -55 41 -125q0 -59 -19 -154q-15 -77 -25 -116t-31 -85t-51 -78q-78 -83 -207 -83q-60 0 -109 22l-39 -60h-114l77 119q-41 55 -41 127q0 59 19 154q15 77 25 116t31 85t51 78q78 83 207 83q59 0 110 -23l39 61h114zM407 559q-17 13 -43 13
q-43 0 -73 -33q-31 -34 -61 -183q-10 -46 -15 -81l-2 -19zM433 455l-192 -304q19 -11 42 -11q43 0 73 33q31 34 61 183q13 71 14 81z" />
    <glyph glyph-name="Ugrave" unicode="&#xd9;" horiz-adv-x="627" 
d="M659 712l-93 -463q-26 -131 -105.5 -193t-183.5 -62q-101 0 -164 58.5t-63 149.5q0 34 6 62l90 448h166l-92 -457q-4 -24 -4 -40q0 -32 17.5 -53t53.5 -21q91 0 116 122l90 449h166zM466 780h-108l-72 177h142z" />
    <glyph glyph-name="Uacute" unicode="&#xda;" horiz-adv-x="627" 
d="M659 712l-93 -463q-26 -131 -105.5 -193t-183.5 -62q-101 0 -164 58.5t-63 149.5q0 34 6 62l90 448h166l-92 -457q-4 -24 -4 -40q0 -32 17.5 -53t53.5 -21q91 0 116 122l90 449h166zM605 957l-132 -177h-117l106 177h143z" />
    <glyph glyph-name="Ucircumflex" unicode="&#xdb;" horiz-adv-x="627" 
d="M659 712l-93 -463q-26 -131 -105.5 -193t-183.5 -62q-101 0 -164 58.5t-63 149.5q0 34 6 62l90 448h166l-92 -457q-4 -24 -4 -40q0 -32 17.5 -53t53.5 -21q91 0 116 122l90 449h166zM602 780h-109l-56 87l-93 -87h-120l165 179h120z" />
    <glyph glyph-name="Udieresis" unicode="&#xdc;" horiz-adv-x="627" 
d="M659 712l-93 -463q-26 -131 -105.5 -193t-183.5 -62q-101 0 -164 58.5t-63 149.5q0 34 6 62l90 448h166l-92 -457q-4 -24 -4 -40q0 -32 17.5 -53t53.5 -21q91 0 116 122l90 449h166zM395 921l-28 -142h-127l28 142h127zM610 921l-28 -142h-128l29 142h127z" />
    <glyph glyph-name="Yacute" unicode="&#xdd;" horiz-adv-x="585" 
d="M668 712l-288 -427l-57 -285h-166l58 290l-134 422h178l65 -266l161 266h183zM566 957l-132 -177h-117l106 177h143z" />
    <glyph glyph-name="Thorn" unicode="&#xde;" horiz-adv-x="596" 
d="M588 386q0 -100 -72 -175t-198 -75h-110l-27 -136h-166l143 712h166l-26 -128h93q88 0 142.5 -53t54.5 -145zM421 371q0 66 -59 66h-93l-31 -154h87q49 0 72.5 30t23.5 58z" />
    <glyph glyph-name="germandbls" unicode="&#xdf;" horiz-adv-x="557" 
d="M565 560q0 -39 -20.5 -78t-62.5 -60q40 -26 40 -75q0 -8 -2 -22l-28 -152q-17 -93 -63 -133t-135 -40h-60l26 131h19q23 0 37 12q14 11 20 40l26 135q2 12 2 16q0 32 -36 32h-23l24 120h25q24 0 38 16.5t14 38.5q0 14 -6 24q-12 18 -47 18q-42 0 -62 -18t-27 -55
l-102 -510h-157l105 524q12 59 35.5 98t59.5 59.5t75 28.5t91 8q88 0 141 -41t53 -117z" />
    <glyph glyph-name="agrave" unicode="&#xe0;" horiz-adv-x="513" 
d="M484 389q0 -20 -6 -50l-68 -339h-150l9 44q-49 -49 -117 -49q-70 0 -110 44t-40 103q0 83 48 129q55 54 157 54h112l4 19q3 12 3 23q0 47 -64 47q-63 0 -100 -43l-78 104q73 69 203 69q82 0 139.5 -38t57.5 -117zM298 221h-76q-32 0 -49.5 -18t-17.5 -43
q0 -17 12.5 -28.5t34.5 -11.5q39 0 67 28q19 19 26 58zM372 608h-108l-72 177h142z" />
    <glyph glyph-name="aacute" unicode="&#xe1;" horiz-adv-x="513" 
d="M484 389q0 -20 -6 -50l-68 -339h-150l9 44q-49 -49 -117 -49q-70 0 -110 44t-40 103q0 83 48 129q55 54 157 54h112l4 19q3 12 3 23q0 47 -64 47q-63 0 -100 -43l-78 104q73 69 203 69q82 0 139.5 -38t57.5 -117zM298 221h-76q-32 0 -49.5 -18t-17.5 -43
q0 -17 12.5 -28.5t34.5 -11.5q39 0 67 28q19 19 26 58zM511 785l-132 -177h-117l106 177h143z" />
    <glyph glyph-name="acircumflex" unicode="&#xe2;" horiz-adv-x="513" 
d="M484 389q0 -20 -6 -50l-68 -339h-150l9 44q-49 -49 -117 -49q-70 0 -110 44t-40 103q0 83 48 129q55 54 157 54h112l4 19q3 12 3 23q0 47 -64 47q-63 0 -100 -43l-78 104q73 69 203 69q82 0 139.5 -38t57.5 -117zM298 221h-76q-32 0 -49.5 -18t-17.5 -43
q0 -17 12.5 -28.5t34.5 -11.5q39 0 67 28q19 19 26 58zM506 608h-109l-56 87l-93 -87h-120l165 179h120z" />
    <glyph glyph-name="atilde" unicode="&#xe3;" horiz-adv-x="513" 
d="M484 389q0 -20 -6 -50l-68 -339h-150l9 44q-49 -49 -117 -49q-70 0 -110 44t-40 103q0 83 48 129q55 54 157 54h112l4 19q3 12 3 23q0 47 -64 47q-63 0 -100 -43l-78 104q73 69 203 69q82 0 139.5 -38t57.5 -117zM298 221h-76q-32 0 -49.5 -18t-17.5 -43
q0 -17 12.5 -28.5t34.5 -11.5q39 0 67 28q19 19 26 58zM515 665q-58 -55 -119 -55q-42 0 -82 21q-30 16 -53 16q-33 0 -62 -29l-54 72q58 55 119 55q42 0 82 -21q30 -16 53 -16q33 0 62 29z" />
    <glyph glyph-name="adieresis" unicode="&#xe4;" horiz-adv-x="513" 
d="M484 389q0 -20 -6 -50l-68 -339h-150l9 44q-49 -49 -117 -49q-70 0 -110 44t-40 103q0 83 48 129q55 54 157 54h112l4 19q3 12 3 23q0 47 -64 47q-63 0 -100 -43l-78 104q73 69 203 69q82 0 139.5 -38t57.5 -117zM298 221h-76q-32 0 -49.5 -18t-17.5 -43
q0 -17 12.5 -28.5t34.5 -11.5q39 0 67 28q19 19 26 58zM301 749l-28 -142h-127l28 142h127zM516 749l-28 -142h-127l28 142h127z" />
    <glyph glyph-name="aring" unicode="&#xe5;" horiz-adv-x="513" 
d="M484 389q0 -20 -6 -50l-68 -339h-150l9 44q-49 -49 -117 -49q-70 0 -110 44t-40 103q0 83 48 129q55 54 157 54h112l4 19q3 12 3 23q0 47 -64 47q-63 0 -100 -43l-78 104q73 69 203 69q82 0 139.5 -38t57.5 -117zM298 221h-76q-32 0 -49.5 -18t-17.5 -43
q0 -17 12.5 -28.5t34.5 -11.5q39 0 67 28q19 19 26 58zM470 725q0 -56 -38.5 -94t-93.5 -38t-93.5 38t-38.5 94t38.5 94t93.5 38t93.5 -37.5t38.5 -94.5zM389 725q0 21 -15.5 36t-35.5 15t-35.5 -15t-15.5 -36t15.5 -36t35.5 -15t35.5 15t15.5 36z" />
    <glyph glyph-name="ae" unicode="&#xe6;" horiz-adv-x="803" 
d="M775 349q0 -53 -18 -129h-310q-2 -20 -2 -23q0 -33 20 -52.5t59 -19.5q63 0 115 50l78 -102q-82 -79 -212 -79q-107 0 -164 65q-72 -65 -168 -65q-83 0 -127 41t-44 107q0 80 46 126q55 55 159 55h112l4 19q3 21 3 25q0 47 -64 47q-63 0 -100 -43l-78 104q73 69 203 69
q87 0 144 -44q64 44 143 44q89 0 145 -51.5t56 -143.5zM298 220h-76q-32 0 -49.5 -18t-17.5 -42q0 -17 12.5 -28.5t34.5 -11.5q39 0 67 28q19 19 26 57zM627 349q0 31 -16 49t-46 18q-71 0 -98 -93h157q3 12 3 26z" />
    <glyph glyph-name="ccedilla" unicode="&#xe7;" horiz-adv-x="453" 
d="M470 472l-118 -104q-27 35 -57 35q-31 0 -54 -24q-34 -36 -48 -110q-7 -37 -7 -63q0 -71 54 -71q38 0 74 36l86 -113q-72 -64 -177 -64q-48 0 -90 18t-73 63t-31 110q0 41 8 84q50 275 273 275q101 0 160 -72zM267 -52l-61 -142h-135l81 142h115z" />
    <glyph glyph-name="egrave" unicode="&#xe8;" horiz-adv-x="533" 
d="M505 348q0 -53 -18 -129h-310q-2 -14 -2 -22q0 -33 20 -52.5t59 -19.5q63 0 115 50l78 -102q-82 -79 -212 -79q-36 0 -70 9t-66.5 29.5t-52 59.5t-19.5 93q0 98 30.5 178t94.5 130.5t152 50.5t144.5 -52.5t56.5 -143.5zM357 348q0 31 -16 49.5t-46 18.5q-71 0 -98 -94
h157q3 12 3 26zM389 608h-108l-72 177h142z" />
    <glyph glyph-name="eacute" unicode="&#xe9;" horiz-adv-x="533" 
d="M505 348q0 -53 -18 -129h-310q-2 -14 -2 -22q0 -33 20 -52.5t59 -19.5q63 0 115 50l78 -102q-82 -79 -212 -79q-36 0 -70 9t-66.5 29.5t-52 59.5t-19.5 93q0 98 30.5 178t94.5 130.5t152 50.5t144.5 -52.5t56.5 -143.5zM357 348q0 31 -16 49.5t-46 18.5q-71 0 -98 -94
h157q3 12 3 26zM528 785l-132 -177h-117l106 177h143z" />
    <glyph glyph-name="ecircumflex" unicode="&#xea;" horiz-adv-x="533" 
d="M505 348q0 -53 -18 -129h-310q-2 -14 -2 -22q0 -33 20 -52.5t59 -19.5q63 0 115 50l78 -102q-82 -79 -212 -79q-36 0 -70 9t-66.5 29.5t-52 59.5t-19.5 93q0 98 30.5 178t94.5 130.5t152 50.5t144.5 -52.5t56.5 -143.5zM357 348q0 31 -16 49.5t-46 18.5q-71 0 -98 -94
h157q3 12 3 26zM523 608h-109l-56 87l-93 -87h-120l165 179h120z" />
    <glyph glyph-name="edieresis" unicode="&#xeb;" horiz-adv-x="533" 
d="M505 348q0 -53 -18 -129h-310q-2 -14 -2 -22q0 -33 20 -52.5t59 -19.5q63 0 115 50l78 -102q-82 -79 -212 -79q-36 0 -70 9t-66.5 29.5t-52 59.5t-19.5 93q0 98 30.5 178t94.5 130.5t152 50.5t144.5 -52.5t56.5 -143.5zM357 348q0 31 -16 49.5t-46 18.5q-71 0 -98 -94
h157q3 12 3 26zM318 749l-28 -142h-127l28 142h127zM533 749l-28 -142h-127l28 142h127z" />
    <glyph glyph-name="igrave" unicode="&#xec;" horiz-adv-x="274" 
d="M264 515l-103 -515h-156l103 515h156zM262 608h-108l-72 177h142z" />
    <glyph glyph-name="iacute" unicode="&#xed;" horiz-adv-x="274" 
d="M264 515l-103 -515h-156l103 515h156zM386 785l-132 -177h-117l106 177h143z" />
    <glyph glyph-name="icircumflex" unicode="&#xee;" horiz-adv-x="274" 
d="M264 515l-103 -515h-156l103 515h156zM391 608h-109l-56 87l-93 -87h-120l165 179h120z" />
    <glyph glyph-name="idieresis" unicode="&#xef;" horiz-adv-x="274" 
d="M264 515l-103 -515h-156l103 515h156zM186 749l-28 -142h-127l28 142h127zM401 749l-28 -142h-127l28 142h127z" />
    <glyph glyph-name="eth" unicode="&#xf0;" horiz-adv-x="522" 
d="M505 674l-21 -108h-41l15 -59q26 -103 26 -152q0 -41 -11 -96q-7 -34 -11 -51.5t-15 -50.5t-27.5 -59t-39.5 -47q-62 -57 -163 -57q-80 0 -130.5 46.5t-50.5 129.5q0 37 11 89q16 79 34.5 123t54.5 81q33 33 83 49q35 11 74 11l-11 43h-112l22 108h60l-12 49h162l12 -49
h91zM328 338q0 47 -41 47q-25 0 -42 -15q-23 -20 -42 -111q-11 -55 -11 -79q0 -47 41 -47q25 0 42 15q23 20 42 111q11 55 11 79z" />
    <glyph glyph-name="ntilde" unicode="&#xf1;" horiz-adv-x="550" 
d="M517 396q0 -30 -7 -62l-67 -334h-156l65 325q3 14 3 27q0 25 -14 38t-31 13q-67 0 -83 -78l-65 -325h-156l107 538h149l-9 -47q53 53 132 53q49 0 90.5 -36t41.5 -112zM538 665q-58 -55 -119 -55q-42 0 -82 21q-30 16 -53 16q-33 0 -62 -29l-54 72q58 55 119 55
q42 0 82 -21q30 -16 53 -16q33 0 62 29z" />
    <glyph glyph-name="ograve" unicode="&#xf2;" horiz-adv-x="522" 
d="M491 366q0 -42 -11 -97q-17 -83 -37 -129t-56 -82q-64 -64 -171 -64q-76 0 -131.5 46.5t-55.5 131.5q0 42 11 97q17 83 37 129t56 82q64 64 171 64q76 0 131.5 -46.5t55.5 -131.5zM336 347q0 56 -48 56q-30 0 -48 -18q-27 -26 -45 -116q-11 -55 -11 -78q0 -56 48 -56
q30 0 48 18q27 26 45 116q11 55 11 78zM382 608h-108l-72 177h142z" />
    <glyph glyph-name="oacute" unicode="&#xf3;" horiz-adv-x="522" 
d="M491 366q0 -42 -11 -97q-17 -83 -37 -129t-56 -82q-64 -64 -171 -64q-76 0 -131.5 46.5t-55.5 131.5q0 42 11 97q17 83 37 129t56 82q64 64 171 64q76 0 131.5 -46.5t55.5 -131.5zM336 347q0 56 -48 56q-30 0 -48 -18q-27 -26 -45 -116q-11 -55 -11 -78q0 -56 48 -56
q30 0 48 18q27 26 45 116q11 55 11 78zM521 785l-132 -177h-117l106 177h143z" />
    <glyph glyph-name="ocircumflex" unicode="&#xf4;" horiz-adv-x="522" 
d="M491 366q0 -42 -11 -97q-17 -83 -37 -129t-56 -82q-64 -64 -171 -64q-76 0 -131.5 46.5t-55.5 131.5q0 42 11 97q17 83 37 129t56 82q64 64 171 64q76 0 131.5 -46.5t55.5 -131.5zM336 347q0 56 -48 56q-30 0 -48 -18q-27 -26 -45 -116q-11 -55 -11 -78q0 -56 48 -56
q30 0 48 18q27 26 45 116q11 55 11 78zM516 608h-109l-56 87l-93 -87h-120l165 179h120z" />
    <glyph glyph-name="otilde" unicode="&#xf5;" horiz-adv-x="522" 
d="M491 366q0 -42 -11 -97q-17 -83 -37 -129t-56 -82q-64 -64 -171 -64q-76 0 -131.5 46.5t-55.5 131.5q0 42 11 97q17 83 37 129t56 82q64 64 171 64q76 0 131.5 -46.5t55.5 -131.5zM336 347q0 56 -48 56q-30 0 -48 -18q-27 -26 -45 -116q-11 -55 -11 -78q0 -56 48 -56
q30 0 48 18q27 26 45 116q11 55 11 78zM525 665q-58 -55 -119 -55q-42 0 -82 21q-30 16 -53 16q-33 0 -62 -29l-54 72q58 55 119 55q42 0 82 -21q30 -16 53 -16q33 0 62 29z" />
    <glyph glyph-name="odieresis" unicode="&#xf6;" horiz-adv-x="522" 
d="M491 366q0 -42 -11 -97q-17 -83 -37 -129t-56 -82q-64 -64 -171 -64q-76 0 -131.5 46.5t-55.5 131.5q0 42 11 97q17 83 37 129t56 82q64 64 171 64q76 0 131.5 -46.5t55.5 -131.5zM336 347q0 56 -48 56q-30 0 -48 -18q-27 -26 -45 -116q-11 -55 -11 -78q0 -56 48 -56
q30 0 48 18q27 26 45 116q11 55 11 78zM311 749l-28 -142h-127l28 142h127zM526 749l-28 -142h-127l28 142h127z" />
    <glyph glyph-name="divide" unicode="&#xf7;" 
d="M319 160l-29 -148h-149l30 148h148zM508 368l-29 -146h-447l29 146h447zM399 578l-30 -148h-148l29 148h149z" />
    <glyph glyph-name="oslash" unicode="&#xf8;" horiz-adv-x="526" 
d="M542 582l-80 -108q34 -45 34 -108q0 -42 -11 -97q-16 -81 -36.5 -128t-56.5 -83q-64 -64 -173 -64q-61 0 -101 25l-46 -63h-89l81 108q-34 45 -34 108q0 42 11 97q16 81 36.5 128t56.5 83q64 64 173 64q54 0 101 -25l46 63h88zM340 328l-136 -184q12 -9 31 -9
q40 0 60.5 32.5t34.5 101.5q9 46 10 59zM322 394q-12 9 -31 9q-40 0 -60.5 -32.5t-34.5 -101.5q-1 -7 -10 -59z" />
    <glyph glyph-name="ugrave" unicode="&#xf9;" horiz-adv-x="550" 
d="M544 538l-107 -538h-149l9 47q-53 -53 -132 -53q-49 0 -90.5 36t-41.5 112q0 30 7 62l67 334h156l-65 -325q-3 -14 -3 -27q0 -25 14 -38t31 -13q67 0 83 78l65 325h156zM387 608h-108l-72 177h142z" />
    <glyph glyph-name="uacute" unicode="&#xfa;" horiz-adv-x="550" 
d="M544 538l-107 -538h-149l9 47q-53 -53 -132 -53q-49 0 -90.5 36t-41.5 112q0 30 7 62l67 334h156l-65 -325q-3 -14 -3 -27q0 -25 14 -38t31 -13q67 0 83 78l65 325h156zM526 785l-132 -177h-117l106 177h143z" />
    <glyph glyph-name="ucircumflex" unicode="&#xfb;" horiz-adv-x="550" 
d="M544 538l-107 -538h-149l9 47q-53 -53 -132 -53q-49 0 -90.5 36t-41.5 112q0 30 7 62l67 334h156l-65 -325q-3 -14 -3 -27q0 -25 14 -38t31 -13q67 0 83 78l65 325h156zM521 608h-109l-56 87l-93 -87h-120l165 179h120z" />
    <glyph glyph-name="udieresis" unicode="&#xfc;" horiz-adv-x="550" 
d="M544 538l-107 -538h-149l9 47q-53 -53 -132 -53q-49 0 -90.5 36t-41.5 112q0 30 7 62l67 334h156l-65 -325q-3 -14 -3 -27q0 -25 14 -38t31 -13q67 0 83 78l65 325h156zM316 749l-28 -142h-127l28 142h127zM531 749l-28 -142h-127l28 142h127z" />
    <glyph glyph-name="yacute" unicode="&#xfd;" horiz-adv-x="488" 
d="M546 538l-324 -602q-22 -41 -44 -62q-53 -54 -136 -54h-58l29 142h32q20 0 33.5 11.5t26.5 36.5l23 43l-75 485h154l30 -300l145 300h164zM502 785l-132 -177h-117l106 177h143z" />
    <glyph glyph-name="thorn" unicode="&#xfe;" horiz-adv-x="541" 
d="M518 405q0 -45 -18 -136q-19 -95 -37 -146t-45 -78q-51 -51 -132 -51q-79 0 -115 46l-44 -214h-156l177 886h156l-42 -209q45 41 117 41q40 0 69 -14.5t43 -37.5t20.5 -44.5t6.5 -42.5zM355 350q0 53 -47 53q-41 0 -59.5 -30t-33.5 -104q-11 -55 -11 -81q0 -53 47 -53
q41 0 59.5 30t33.5 104q11 55 11 81z" />
    <glyph glyph-name="ydieresis" unicode="&#xff;" horiz-adv-x="488" 
d="M546 538l-324 -602q-22 -41 -44 -62q-53 -54 -136 -54h-58l29 142h32q20 0 33.5 11.5t26.5 36.5l23 43l-75 485h154l30 -300l145 300h164zM292 749l-28 -142h-127l28 142h127zM507 749l-28 -142h-127l28 142h127z" />
    <glyph glyph-name="Amacron" unicode="&#x100;" horiz-adv-x="622" 
d="M569 0h-169l-10 112h-211l-55 -112h-177l388 712h129zM377 247l-22 210l-108 -210h130zM582 888l-20 -99h-310l20 99h310z" />
    <glyph glyph-name="amacron" unicode="&#x101;" horiz-adv-x="513" 
d="M484 389q0 -20 -6 -50l-68 -339h-150l9 44q-49 -49 -117 -49q-70 0 -110 44t-40 103q0 83 48 129q55 54 157 54h112l4 19q3 12 3 23q0 47 -64 47q-63 0 -100 -43l-78 104q73 69 203 69q82 0 139.5 -38t57.5 -117zM298 221h-76q-32 0 -49.5 -18t-17.5 -43
q0 -17 12.5 -28.5t34.5 -11.5q39 0 67 28q19 19 26 58zM495 722l-20 -99h-310l20 99h310z" />
    <glyph glyph-name="Abreve" unicode="&#x102;" horiz-adv-x="622" 
d="M569 0h-169l-10 112h-211l-55 -112h-177l388 712h129zM377 247l-22 210l-108 -210h130zM595 925q-16 -82 -59 -118.5t-116 -36.5q-67 0 -103 34t-36 86q0 18 3 35h99q-1 -9 -1 -14q0 -20 14.5 -29.5t34.5 -9.5q51 0 62 53h102z" />
    <glyph glyph-name="abreve" unicode="&#x103;" horiz-adv-x="513" 
d="M484 389q0 -20 -6 -50l-68 -339h-150l9 44q-49 -49 -117 -49q-70 0 -110 44t-40 103q0 83 48 129q55 54 157 54h112l4 19q3 12 3 23q0 47 -64 47q-63 0 -100 -43l-78 104q73 69 203 69q82 0 139.5 -38t57.5 -117zM298 221h-76q-32 0 -49.5 -18t-17.5 -43
q0 -17 12.5 -28.5t34.5 -11.5q39 0 67 28q19 19 26 58zM495 753q-16 -82 -59 -118.5t-116 -36.5q-67 0 -103 34t-36 86q0 18 3 35h99q-1 -9 -1 -14q0 -20 14.5 -29.5t34.5 -9.5q51 0 62 53h102z" />
    <glyph glyph-name="Aogonek" unicode="&#x104;" horiz-adv-x="622" 
d="M569 0h-169l-10 112h-211l-55 -112h-177l388 712h129zM377 247l-22 210l-108 -210h130zM533 -52l-61 -142h-135l81 142h115z" />
    <glyph glyph-name="aogonek" unicode="&#x105;" horiz-adv-x="513" 
d="M484 389q0 -20 -6 -50l-68 -339h-150l9 44q-49 -49 -117 -49q-70 0 -110 44t-40 103q0 83 48 129q55 54 157 54h112l4 19q3 12 3 23q0 47 -64 47q-63 0 -100 -43l-78 104q73 69 203 69q82 0 139.5 -38t57.5 -117zM298 221h-76q-32 0 -49.5 -18t-17.5 -43
q0 -17 12.5 -28.5t34.5 -11.5q39 0 67 28q19 19 26 58zM374 -52l-61 -142h-135l81 142h115z" />
    <glyph glyph-name="Cacute" unicode="&#x106;" horiz-adv-x="583" 
d="M600 491h-166q-2 81 -69 81q-41 0 -72 -31q-33 -33 -63 -185q-19 -95 -19 -140q0 -36 19.5 -56t52.5 -20q68 0 100 81h171q-38 -114 -112 -170.5t-172 -56.5q-107 0 -166.5 61t-59.5 147q0 59 19 154q15 77 25 116t31 85t51 78q78 83 207 83q109 0 166 -64t57 -163z
M591 957l-132 -177h-117l106 177h143z" />
    <glyph glyph-name="cacute" unicode="&#x107;" horiz-adv-x="453" 
d="M470 472l-118 -104q-27 35 -57 35q-31 0 -54 -24q-34 -36 -48 -110q-7 -37 -7 -63q0 -71 54 -71q38 0 74 36l86 -113q-72 -64 -177 -64q-48 0 -90 18t-73 63t-31 110q0 41 8 84q50 275 273 275q101 0 160 -72zM525 785l-132 -177h-117l106 177h143z" />
    <glyph glyph-name="Ccircumflex" unicode="&#x108;" horiz-adv-x="583" 
d="M600 491h-166q-2 81 -69 81q-41 0 -72 -31q-33 -33 -63 -185q-19 -95 -19 -140q0 -36 19.5 -56t52.5 -20q68 0 100 81h171q-38 -114 -112 -170.5t-172 -56.5q-107 0 -166.5 61t-59.5 147q0 59 19 154q15 77 25 116t31 85t51 78q78 83 207 83q109 0 166 -64t57 -163z
M586 780h-109l-56 87l-93 -87h-120l165 179h120z" />
    <glyph glyph-name="ccircumflex" unicode="&#x109;" horiz-adv-x="453" 
d="M470 472l-118 -104q-27 35 -57 35q-31 0 -54 -24q-34 -36 -48 -110q-7 -37 -7 -63q0 -71 54 -71q38 0 74 36l86 -113q-72 -64 -177 -64q-48 0 -90 18t-73 63t-31 110q0 41 8 84q50 275 273 275q101 0 160 -72zM520 608h-109l-56 87l-93 -87h-120l165 179h120z" />
    <glyph glyph-name="Cdotaccent" unicode="&#x10a;" horiz-adv-x="583" 
d="M600 491h-166q-2 81 -69 81q-41 0 -72 -31q-33 -33 -63 -185q-19 -95 -19 -140q0 -36 19.5 -56t52.5 -20q68 0 100 81h171q-38 -114 -112 -170.5t-172 -56.5q-107 0 -166.5 61t-59.5 147q0 59 19 154q15 77 25 116t31 85t51 78q78 83 207 83q109 0 166 -64t57 -163z
M490 920l-27 -137h-128l28 137h127z" />
    <glyph glyph-name="cdotaccent" unicode="&#x10b;" horiz-adv-x="453" 
d="M470 472l-118 -104q-27 35 -57 35q-31 0 -54 -24q-34 -36 -48 -110q-7 -37 -7 -63q0 -71 54 -71q38 0 74 36l86 -113q-72 -64 -177 -64q-48 0 -90 18t-73 63t-31 110q0 41 8 84q50 275 273 275q101 0 160 -72zM423 748l-27 -137h-128l28 137h127z" />
    <glyph glyph-name="Ccaron" unicode="&#x10c;" horiz-adv-x="583" 
d="M600 491h-166q-2 81 -69 81q-41 0 -72 -31q-33 -33 -63 -185q-19 -95 -19 -140q0 -36 19.5 -56t52.5 -20q68 0 100 81h171q-38 -114 -112 -170.5t-172 -56.5q-107 0 -166.5 61t-59.5 147q0 59 19 154q15 77 25 116t31 85t51 78q78 83 207 83q109 0 166 -64t57 -163z
M629 959l-165 -179h-120l-94 179h110l56 -87l93 87h120z" />
    <glyph glyph-name="ccaron" unicode="&#x10d;" horiz-adv-x="453" 
d="M470 472l-118 -104q-27 35 -57 35q-31 0 -54 -24q-34 -36 -48 -110q-7 -37 -7 -63q0 -71 54 -71q38 0 74 36l86 -113q-72 -64 -177 -64q-48 0 -90 18t-73 63t-31 110q0 41 8 84q50 275 273 275q101 0 160 -72zM563 787l-165 -179h-120l-94 179h110l56 -87l93 87h120z" />
    <glyph glyph-name="Dcaron" unicode="&#x10e;" horiz-adv-x="618" 
d="M613 510q0 -34 -23 -154q-27 -136 -46.5 -187.5t-63.5 -95.5q-73 -73 -203 -73h-262l143 712h239q100 0 158 -53t58 -149zM445 494q0 72 -76 72h-74l-84 -420h73q51 0 83 32q17 17 28 50.5t29 127.5q21 108 21 138zM626 959l-165 -179h-120l-94 179h110l56 -87l93 87h120
z" />
    <glyph glyph-name="dcaron" unicode="&#x10f;" horiz-adv-x="541" 
d="M571 712l-142 -712h-150l9 45q-46 -51 -123 -51q-75 0 -108 44t-33 97q0 47 18 134q19 95 37 146t45 78q51 51 133 51q75 0 115 -49l43 217h156zM338 350q0 53 -47 53q-41 0 -59.5 -30t-33.5 -104q-11 -55 -11 -81q0 -53 47 -53q41 0 59.5 30t33.5 104q11 55 11 81z
M809 753l-97 -173h-110l67 173h140z" />
    <glyph glyph-name="Dcroat" unicode="&#x110;" horiz-adv-x="645" 
d="M640 510q0 -34 -23 -154q-27 -136 -46.5 -187.5t-63.5 -95.5q-73 -73 -203 -73h-262l60 296h-62l25 126h62l58 290h239q100 0 158 -53t58 -149zM472 494q0 72 -76 72h-74l-29 -144h85l-25 -126h-85l-31 -150h74q51 0 83 32q17 17 28 50.5t29 127.5q21 108 21 138z" />
    <glyph glyph-name="dcroat" unicode="&#x111;" horiz-adv-x="540" 
d="M605 664l-19 -96h-45l-113 -568h-150l9 45q-46 -51 -123 -51q-75 0 -108 44t-33 97q0 47 18 134q19 95 37 146t45 78q51 51 133 51q75 0 115 -49l14 73h-66l19 96h66l10 48h156l-10 -48h45zM337 350q0 53 -47 53q-41 0 -59.5 -30t-33.5 -104q-11 -55 -11 -81
q0 -53 47 -53q41 0 59.5 30t33.5 104q11 55 11 81z" />
    <glyph glyph-name="Emacron" unicode="&#x112;" horiz-adv-x="581" 
d="M617 712l-29 -146h-293l-27 -134h253l-29 -146h-253l-28 -140h299l-29 -146h-466l143 712h459zM555 888l-20 -99h-310l20 99h310z" />
    <glyph glyph-name="emacron" unicode="&#x113;" horiz-adv-x="533" 
d="M505 348q0 -53 -18 -129h-310q-2 -14 -2 -22q0 -33 20 -52.5t59 -19.5q63 0 115 50l78 -102q-82 -79 -212 -79q-36 0 -70 9t-66.5 29.5t-52 59.5t-19.5 93q0 98 30.5 178t94.5 130.5t152 50.5t144.5 -52.5t56.5 -143.5zM357 348q0 31 -16 49.5t-46 18.5q-71 0 -98 -94
h157q3 12 3 26zM512 722l-20 -99h-310l20 99h310z" />
    <glyph glyph-name="Ebreve" unicode="&#x114;" horiz-adv-x="581" 
d="M617 712l-29 -146h-293l-27 -134h253l-29 -146h-253l-28 -140h299l-29 -146h-466l143 712h459zM552 925q-16 -82 -59 -118.5t-116 -36.5q-67 0 -103 34t-36 86q0 18 3 35h99q-1 -9 -1 -14q0 -20 14.5 -29.5t34.5 -9.5q51 0 62 53h102z" />
    <glyph glyph-name="ebreve" unicode="&#x115;" horiz-adv-x="533" 
d="M506 348q0 -53 -18 -129h-310q-2 -14 -2 -22q0 -33 20 -52.5t59 -19.5q63 0 115 50l78 -102q-82 -79 -212 -79q-36 0 -70 9t-66.5 29.5t-52 59.5t-19.5 93q0 98 30.5 178t94.5 130.5t152 50.5t144.5 -52.5t56.5 -143.5zM358 348q0 31 -16 49.5t-46 18.5q-71 0 -98 -94
h157q3 12 3 26zM505 753q-16 -82 -59 -118.5t-116 -36.5q-67 0 -103 34t-36 86q0 18 3 35h99q-1 -9 -1 -14q0 -20 14.5 -29.5t34.5 -9.5q51 0 62 53h102z" />
    <glyph glyph-name="Edotaccent" unicode="&#x116;" horiz-adv-x="581" 
d="M617 712l-29 -146h-293l-27 -134h253l-29 -146h-253l-28 -140h299l-29 -146h-466l143 712h459zM473 920l-27 -137h-128l28 137h127z" />
    <glyph glyph-name="edotaccent" unicode="&#x117;" horiz-adv-x="533" 
d="M505 348q0 -53 -18 -129h-310q-2 -14 -2 -22q0 -33 20 -52.5t59 -19.5q63 0 115 50l78 -102q-82 -79 -212 -79q-36 0 -70 9t-66.5 29.5t-52 59.5t-19.5 93q0 98 30.5 178t94.5 130.5t152 50.5t144.5 -52.5t56.5 -143.5zM357 348q0 31 -16 49.5t-46 18.5q-71 0 -98 -94
h157q3 12 3 26zM426 748l-27 -137h-128l28 137h127z" />
    <glyph glyph-name="Eogonek" unicode="&#x118;" horiz-adv-x="581" 
d="M617 712l-29 -146h-293l-27 -134h253l-29 -146h-253l-28 -140h299l-29 -146h-466l143 712h459zM449 -52l-61 -142h-135l81 142h115z" />
    <glyph glyph-name="eogonek" unicode="&#x119;" horiz-adv-x="533" 
d="M505 348q0 -53 -18 -129h-310q-2 -14 -2 -22q0 -33 20 -52.5t59 -19.5q63 0 115 50l78 -102q-82 -79 -212 -79q-36 0 -70 9t-66.5 29.5t-52 59.5t-19.5 93q0 98 30.5 178t94.5 130.5t152 50.5t144.5 -52.5t56.5 -143.5zM357 348q0 31 -16 49.5t-46 18.5q-71 0 -98 -94
h157q3 12 3 26zM376 -52l-61 -142h-135l81 142h115z" />
    <glyph glyph-name="Ecaron" unicode="&#x11a;" horiz-adv-x="581" 
d="M617 712l-29 -146h-293l-27 -134h253l-29 -146h-253l-28 -140h299l-29 -146h-466l143 712h459zM612 959l-165 -179h-120l-94 179h110l56 -87l93 87h120z" />
    <glyph glyph-name="ecaron" unicode="&#x11b;" horiz-adv-x="533" 
d="M505 348q0 -53 -18 -129h-310q-2 -14 -2 -22q0 -33 20 -52.5t59 -19.5q63 0 115 50l78 -102q-82 -79 -212 -79q-36 0 -70 9t-66.5 29.5t-52 59.5t-19.5 93q0 98 30.5 178t94.5 130.5t152 50.5t144.5 -52.5t56.5 -143.5zM357 348q0 31 -16 49.5t-46 18.5q-71 0 -98 -94
h157q3 12 3 26zM566 787l-165 -179h-120l-94 179h110l56 -87l93 87h120z" />
    <glyph glyph-name="Gcircumflex" unicode="&#x11c;" horiz-adv-x="615" 
d="M607 488h-166q-3 84 -72 84q-43 0 -74 -31q-20 -21 -33 -59.5t-32 -125.5t-19 -140q0 -36 20 -56t53 -20q43 0 74.5 31t42.5 83l3 15h-101l26 138h266l-18 -96q-15 -80 -38.5 -135t-65.5 -100q-78 -82 -202 -82q-113 0 -170 62t-57 146q0 61 19 154q25 128 45 180t64 99
q77 83 209 83q109 0 167.5 -64t58.5 -166zM586 780h-109l-56 87l-93 -87h-120l165 179h120z" />
    <glyph glyph-name="gcircumflex" unicode="&#x11d;" horiz-adv-x="533" 
d="M528 538l-99 -499q-20 -104 -88 -161.5t-174 -57.5q-121 0 -187 74l108 94q34 -36 79 -36q47 0 73.5 26.5t33.5 61.5l8 39q-40 -45 -105 -45q-58 0 -102 37.5t-44 106.5q0 27 15 111q16 86 31.5 130.5t42.5 71.5q53 53 135 53q73 0 114 -53l9 47h150zM331 353
q0 50 -46 50q-34 0 -52 -24t-31 -91q-8 -43 -8 -63q0 -50 46 -50q34 0 52 24t31 91q8 43 8 63zM516 608h-109l-56 87l-93 -87h-120l165 179h120z" />
    <glyph glyph-name="Gbreve" unicode="&#x11e;" horiz-adv-x="615" 
d="M607 488h-166q-3 84 -72 84q-43 0 -74 -31q-20 -21 -33 -59.5t-32 -125.5t-19 -140q0 -36 20 -56t53 -20q43 0 74.5 31t42.5 83l3 15h-101l26 138h266l-18 -96q-15 -80 -38.5 -135t-65.5 -100q-78 -82 -202 -82q-113 0 -170 62t-57 146q0 61 19 154q25 128 45 180t64 99
q77 83 209 83q109 0 167.5 -64t58.5 -166zM585 925q-16 -82 -59 -118.5t-116 -36.5q-67 0 -103 34t-36 86q0 18 3 35h99q-1 -9 -1 -14q0 -20 14.5 -29.5t34.5 -9.5q51 0 62 53h102z" />
    <glyph glyph-name="gbreve" unicode="&#x11f;" horiz-adv-x="533" 
d="M528 538l-99 -499q-20 -104 -88 -161.5t-174 -57.5q-121 0 -187 74l108 94q34 -36 79 -36q47 0 73.5 26.5t33.5 61.5l8 39q-40 -45 -105 -45q-58 0 -102 37.5t-44 106.5q0 27 15 111q16 86 31.5 130.5t42.5 71.5q53 53 135 53q73 0 114 -53l9 47h150zM331 353
q0 50 -46 50q-34 0 -52 -24t-31 -91q-8 -43 -8 -63q0 -50 46 -50q34 0 52 24t31 91q8 43 8 63zM505 753q-16 -82 -59 -118.5t-116 -36.5q-67 0 -103 34t-36 86q0 18 3 35h99q-1 -9 -1 -14q0 -20 14.5 -29.5t34.5 -9.5q51 0 62 53h102z" />
    <glyph glyph-name="Gdotaccent" unicode="&#x120;" horiz-adv-x="615" 
d="M607 488h-166q-3 84 -72 84q-43 0 -74 -31q-20 -21 -33 -59.5t-32 -125.5t-19 -140q0 -36 20 -56t53 -20q43 0 74.5 31t42.5 83l3 15h-101l26 138h266l-18 -96q-15 -80 -38.5 -135t-65.5 -100q-78 -82 -202 -82q-113 0 -170 62t-57 146q0 61 19 154q25 128 45 180t64 99
q77 83 209 83q109 0 167.5 -64t58.5 -166zM490 920l-27 -137h-128l28 137h127z" />
    <glyph glyph-name="gdotaccent" unicode="&#x121;" horiz-adv-x="533" 
d="M528 538l-99 -499q-20 -104 -88 -161.5t-174 -57.5q-121 0 -187 74l108 94q34 -36 79 -36q47 0 73.5 26.5t33.5 61.5l8 39q-40 -45 -105 -45q-58 0 -102 37.5t-44 106.5q0 27 15 111q16 86 31.5 130.5t42.5 71.5q53 53 135 53q73 0 114 -53l9 47h150zM331 353
q0 50 -46 50q-34 0 -52 -24t-31 -91q-8 -43 -8 -63q0 -50 46 -50q34 0 52 24t31 91q8 43 8 63zM419 748l-27 -137h-128l28 137h127z" />
    <glyph glyph-name="Gcommaaccent" unicode="&#x122;" horiz-adv-x="615" 
d="M607 488h-166q-3 84 -72 84q-43 0 -74 -31q-20 -21 -33 -59.5t-32 -125.5t-19 -140q0 -36 20 -56t53 -20q43 0 74.5 31t42.5 83l3 15h-101l26 138h266l-18 -96q-15 -80 -38.5 -135t-65.5 -100q-78 -82 -202 -82q-113 0 -170 62t-57 146q0 61 19 154q25 128 45 180t64 99
q77 83 209 83q109 0 167.5 -64t58.5 -166zM327 -52l-61 -142h-137l81 142h117z" />
    <glyph glyph-name="gcommaaccent" unicode="&#x123;" horiz-adv-x="533" 
d="M528 538l-99 -499q-20 -104 -88 -161.5t-174 -57.5q-121 0 -187 74l108 94q34 -36 79 -36q47 0 73.5 26.5t33.5 61.5l8 39q-40 -45 -105 -45q-58 0 -102 37.5t-44 106.5q0 27 15 111q16 86 31.5 130.5t42.5 71.5q53 53 135 53q73 0 114 -53l9 47h150zM331 353
q0 50 -46 50q-34 0 -52 -24t-31 -91q-8 -43 -8 -63q0 -50 46 -50q34 0 52 24t31 91q8 43 8 63zM522 785l-132 -177h-117l106 177h143z" />
    <glyph glyph-name="Hcircumflex" unicode="&#x124;" horiz-adv-x="647" 
d="M667 712l-143 -712h-166l58 287h-177l-58 -287h-166l143 712h166l-55 -278h177l55 278h166zM610 780h-109l-56 87l-93 -87h-120l165 179h120z" />
    <glyph glyph-name="hcircumflex" unicode="&#x125;" horiz-adv-x="550" 
d="M518 396q0 -30 -7 -62l-67 -334h-156l65 325q3 14 3 27q0 25 -14 38t-31 13q-67 0 -83 -78l-65 -325h-156l142 712h156l-42 -209q52 41 120 41q51 0 93 -36t42 -112zM425 780h-109l-56 87l-93 -87h-120l165 179h120z" />
    <glyph glyph-name="Hbar" unicode="&#x126;" horiz-adv-x="746" 
d="M741 635l-26 -128h-64l-102 -507h-166l58 287h-177l-58 -287h-166l102 507h-64l26 128h64l15 77h166l-15 -77h177l15 77h166l-15 -77h64zM485 507h-177l-14 -73h177z" />
    <glyph glyph-name="hbar" unicode="&#x127;" horiz-adv-x="575" 
d="M541 396q0 -30 -7 -62l-67 -334h-156l65 325q3 14 3 27q0 25 -14 38t-31 13q-67 0 -83 -78l-65 -325h-156l113 568h-44l19 96h44l10 48h156l-10 -48h67l-19 -96h-67l-13 -65q52 41 120 41q51 0 93 -36t42 -112z" />
    <glyph glyph-name="Itilde" unicode="&#x128;" horiz-adv-x="303" 
d="M324 712l-143 -712h-166l143 712h166zM464 845q-58 -55 -119 -55q-42 0 -82 21q-30 16 -53 16q-33 0 -62 -29l-54 72q58 55 119 55q42 0 82 -21q30 -16 53 -16q33 0 62 29z" />
    <glyph glyph-name="itilde" unicode="&#x129;" horiz-adv-x="274" 
d="M264 515l-103 -515h-156l103 515h156zM402 665q-58 -55 -119 -55q-42 0 -82 21q-30 16 -53 16q-33 0 -62 -29l-54 72q58 55 119 55q42 0 82 -21q30 -16 53 -16q33 0 62 29z" />
    <glyph glyph-name="Imacron" unicode="&#x12a;" horiz-adv-x="303" 
d="M324 712l-143 -712h-166l143 712h166zM425 888l-20 -99h-310l20 99h310z" />
    <glyph glyph-name="imacron" unicode="&#x12b;" horiz-adv-x="274" 
d="M264 515l-103 -515h-156l103 515h156zM384 722l-20 -99h-310l20 99h310z" />
    <glyph glyph-name="Ibreve" unicode="&#x12c;" horiz-adv-x="303" 
d="M324 712l-143 -712h-166l143 712h166zM435 925q-16 -82 -59 -118.5t-116 -36.5q-67 0 -103 34t-36 86q0 18 3 35h99q-1 -9 -1 -14q0 -20 14.5 -29.5t34.5 -9.5q51 0 62 53h102z" />
    <glyph glyph-name="ibreve" unicode="&#x12d;" horiz-adv-x="274" 
d="M264 515l-103 -515h-156l103 515h156zM381 753q-16 -82 -59 -118.5t-116 -36.5q-67 0 -103 34t-36 86q0 18 3 35h99q-1 -9 -1 -14q0 -20 14.5 -29.5t34.5 -9.5q51 0 62 53h102z" />
    <glyph glyph-name="Iogonek" unicode="&#x12e;" horiz-adv-x="303" 
d="M324 712l-143 -712h-166l143 712h166zM136 -52l-61 -142h-135l81 142h115z" />
    <glyph glyph-name="iogonek" unicode="&#x12f;" horiz-adv-x="274" 
d="M265 515l-103 -515h-156l103 515h156zM304 712l-24 -121h-156l24 121h156zM118 -52l-61 -142h-135l81 142h115z" />
    <glyph glyph-name="Idotaccent" unicode="&#x130;" horiz-adv-x="303" 
d="M324 712l-143 -712h-166l143 712h166zM343 920l-27 -137h-128l28 137h127z" />
    <glyph glyph-name="dotlessi" unicode="&#x131;" horiz-adv-x="274" 
d="M264 515l-103 -515h-156l103 515h156z" />
    <glyph glyph-name="IJ" unicode="&#x132;" horiz-adv-x="793" 
d="M324 712l-143 -712h-166l143 712h166zM823 712l-96 -480q-12 -62 -39.5 -108.5t-56.5 -70.5t-65.5 -38t-60.5 -17.5t-48 -3.5q-70 0 -115 20t-80 63l119 102q30 -39 77 -39q84 0 104 98l95 474h166z" />
    <glyph glyph-name="ij" unicode="&#x133;" horiz-adv-x="548" 
d="M264 515l-103 -515h-156l103 515h156zM303 712l-24 -121h-156l24 121h156zM539 515l-107 -536q-15 -73 -61.5 -116t-119.5 -43h-93l27 132h51q16 0 27.5 11t14.5 28l105 524h156zM578 712l-24 -121h-156l24 121h156z" />
    <glyph glyph-name="Jcircumflex" unicode="&#x134;" horiz-adv-x="490" 
d="M520 712l-96 -480q-12 -62 -39.5 -108.5t-56.5 -70.5t-65.5 -38t-60.5 -17.5t-48 -3.5q-70 0 -115 20t-80 63l119 102q30 -39 77 -39q84 0 104 98l95 474h166zM631 780h-109l-56 87l-93 -87h-120l165 179h120z" />
    <glyph glyph-name="jcircumflex" unicode="&#x135;" horiz-adv-x="274" 
d="M265 515l-107 -536q-15 -73 -61.5 -116t-119.5 -43h-93l27 132h51q16 0 27.5 11t14.5 28l105 524h156zM391 608h-109l-56 87l-93 -87h-120l165 179h120z" />
    <glyph glyph-name="Kcommaaccent" unicode="&#x136;" horiz-adv-x="645" 
d="M721 712l-288 -307l163 -405h-182l-116 298l-74 -69l-45 -229h-164l143 712h164l-51 -255l245 255h205zM339 -52l-61 -142h-137l81 142h117z" />
    <glyph glyph-name="kcommaaccent" unicode="&#x137;" horiz-adv-x="547" 
d="M590 538l-232 -232l141 -306h-178l-81 209l-45 -40l-33 -169h-156l142 712h156l-72 -362l176 188h182zM300 -52l-61 -142h-137l81 142h117z" />
    <glyph glyph-name="kgreenlandic" unicode="&#x138;" horiz-adv-x="547" 
d="M589 538l-232 -232l141 -306h-178l-81 209l-45 -40l-33 -169h-156l108 538h155l-37 -188l176 188h182z" />
    <glyph glyph-name="Lacute" unicode="&#x139;" horiz-adv-x="552" 
d="M469 146l-29 -146h-456l143 712h166l-113 -566h289zM403 957l-132 -177h-117l106 177h143z" />
    <glyph glyph-name="lacute" unicode="&#x13a;" horiz-adv-x="327" 
d="M298 712l-108 -542q-2 -12 -2 -15q0 -23 29 -23h57l-27 -132h-77q-65 0 -102.5 35.5t-37.5 89.5q0 24 4 44l108 543h156zM415 957l-132 -177h-117l106 177h143z" />
    <glyph glyph-name="Lcommaaccent" unicode="&#x13b;" horiz-adv-x="552" 
d="M469 146l-29 -146h-456l143 712h166l-113 -566h289zM292 -52l-61 -142h-137l81 142h117z" />
    <glyph glyph-name="lcommaaccent" unicode="&#x13c;" horiz-adv-x="327" 
d="M298 712l-108 -542q-2 -12 -2 -15q0 -23 29 -23h57l-27 -132h-77q-65 0 -102.5 35.5t-37.5 89.5q0 24 4 44l108 543h156zM177 -52l-61 -142h-137l81 142h117z" />
    <glyph glyph-name="Lcaron" unicode="&#x13d;" horiz-adv-x="552" 
d="M469 146l-29 -146h-456l143 712h166l-113 -566h289zM570 712l-97 -173h-110l67 173h140z" />
    <glyph glyph-name="lcaron" unicode="&#x13e;" horiz-adv-x="327" 
d="M298 712l-108 -542q-2 -12 -2 -15q0 -23 29 -23h57l-27 -132h-77q-65 0 -102.5 35.5t-37.5 89.5q0 24 4 44l108 543h156zM535 753l-97 -173h-110l67 173h140z" />
    <glyph glyph-name="Ldot" unicode="&#x13f;" horiz-adv-x="552" 
d="M500 146l-29 -146h-456l143 712h166l-113 -566h289zM523 428l-27 -137h-128l28 137h127z" />
    <glyph glyph-name="ldot" unicode="&#x140;" horiz-adv-x="428" 
d="M298 712l-108 -542q-2 -12 -2 -15q0 -23 29 -23h57l-27 -132h-77q-65 0 -102.5 35.5t-37.5 89.5q0 24 4 44l108 543h156zM430 364l-27 -137h-128l28 137h127z" />
    <glyph glyph-name="Lslash" unicode="&#x141;" horiz-adv-x="574" 
d="M522 146l-29 -146h-456l44 218l-64 -37l29 146l64 37l70 348h166l-48 -241l121 71l-29 -147l-121 -70l-36 -179h289z" />
    <glyph glyph-name="lslash" unicode="&#x142;" horiz-adv-x="334" 
d="M328 542l-28 -139l-51 -30l-41 -203q-2 -12 -2 -15q0 -23 29 -23h57l-27 -132h-77q-65 0 -102.5 35.5t-37.5 89.5q0 24 4 44l22 111l-53 -31l27 139l53 30l59 294h155l-40 -200z" />
    <glyph glyph-name="Nacute" unicode="&#x143;" horiz-adv-x="667" 
d="M688 712l-143 -712h-138l-151 370l-75 -370h-166l143 712h138l152 -371l74 371h166zM597 957l-132 -177h-117l106 177h143z" />
    <glyph glyph-name="nacute" unicode="&#x144;" horiz-adv-x="550" 
d="M517 396q0 -30 -7 -62l-67 -334h-156l65 325q3 14 3 27q0 25 -14 38t-31 13q-67 0 -83 -78l-65 -325h-156l107 538h149l-9 -47q53 53 132 53q49 0 90.5 -36t41.5 -112zM534 785l-132 -177h-117l106 177h143z" />
    <glyph glyph-name="Ncommaaccent" unicode="&#x145;" horiz-adv-x="667" 
d="M688 712l-143 -712h-138l-151 370l-75 -370h-166l143 712h138l152 -371l74 371h166zM355 -52l-61 -142h-137l81 142h117z" />
    <glyph glyph-name="ncommaaccent" unicode="&#x146;" horiz-adv-x="550" 
d="M517 396q0 -30 -7 -62l-67 -334h-156l65 325q3 14 3 27q0 25 -14 38t-31 13q-67 0 -83 -78l-65 -325h-156l107 538h149l-9 -47q53 53 132 53q49 0 90.5 -36t41.5 -112zM291 -52l-61 -142h-137l81 142h117z" />
    <glyph glyph-name="Ncaron" unicode="&#x147;" horiz-adv-x="667" 
d="M688 712l-143 -712h-138l-151 370l-75 -370h-166l143 712h138l152 -371l74 371h166zM635 959l-165 -179h-120l-94 179h110l56 -87l93 87h120z" />
    <glyph glyph-name="ncaron" unicode="&#x148;" horiz-adv-x="550" 
d="M517 396q0 -30 -7 -62l-67 -334h-156l65 325q3 14 3 27q0 25 -14 38t-31 13q-67 0 -83 -78l-65 -325h-156l107 538h149l-9 -47q53 53 132 53q49 0 90.5 -36t41.5 -112zM572 787l-165 -179h-120l-94 179h110l56 -87l93 87h120z" />
    <glyph glyph-name="napostrophe" unicode="&#x149;" horiz-adv-x="550" 
d="M517 396q0 -30 -7 -62l-67 -334h-156l65 325q3 14 3 27q0 25 -14 38t-31 13q-67 0 -83 -78l-65 -325h-156l107 538h149l-9 -47q53 53 132 53q49 0 90.5 -36t41.5 -112zM158 762l-23 -117l-152 -98l43 215h132z" />
    <glyph glyph-name="Eng" unicode="&#x14a;" horiz-adv-x="667" 
d="M688 712l-150 -747q-15 -73 -61.5 -116t-119.5 -43h-93l27 132h42q17 0 28 11t14 28l13 68l-132 325l-75 -370h-166l143 712h138l152 -371l74 371h166z" />
    <glyph glyph-name="eng" unicode="&#x14b;" horiz-adv-x="550" 
d="M517 396q0 -30 -7 -62l-74 -369q-15 -73 -61.5 -116t-119.5 -43h-93l27 132h51q16 0 27.5 11t14.5 28l70 348q3 14 3 27q0 25 -14 38t-31 13q-67 0 -83 -78l-65 -325h-156l107 538h149l-9 -47q53 53 132 53q49 0 90.5 -36t41.5 -112z" />
    <glyph glyph-name="Omacron" unicode="&#x14c;" horiz-adv-x="608" 
d="M599 510q0 -59 -19 -154q-15 -77 -25 -116t-31 -85t-51 -78q-78 -83 -205 -83q-106 0 -165 61t-59 147q0 59 19 154q15 77 25 116t31 85t51 78q78 83 205 83q106 0 165 -61t59 -147zM432 496q0 36 -19.5 56t-50.5 20q-41 0 -71 -33q-31 -34 -61 -183q-19 -95 -19 -140
q0 -36 19.5 -56t50.5 -20q41 0 71 33q31 34 61 183q19 95 19 140zM572 888l-20 -99h-310l20 99h310z" />
    <glyph glyph-name="omacron" unicode="&#x14d;" horiz-adv-x="522" 
d="M491 366q0 -42 -11 -97q-17 -83 -37 -129t-56 -82q-64 -64 -171 -64q-76 0 -131.5 46.5t-55.5 131.5q0 42 11 97q17 83 37 129t56 82q64 64 171 64q76 0 131.5 -46.5t55.5 -131.5zM336 347q0 56 -48 56q-30 0 -48 -18q-27 -26 -45 -116q-11 -55 -11 -78q0 -56 48 -56
q30 0 48 18q27 26 45 116q11 55 11 78zM505 722l-20 -99h-310l20 99h310z" />
    <glyph glyph-name="Obreve" unicode="&#x14e;" horiz-adv-x="608" 
d="M599 510q0 -59 -19 -154q-15 -77 -25 -116t-31 -85t-51 -78q-78 -83 -205 -83q-106 0 -165 61t-59 147q0 59 19 154q15 77 25 116t31 85t51 78q78 83 205 83q106 0 165 -61t59 -147zM432 496q0 36 -19.5 56t-50.5 20q-41 0 -71 -33q-31 -34 -61 -183q-19 -95 -19 -140
q0 -36 19.5 -56t50.5 -20q41 0 71 33q31 34 61 183q19 95 19 140zM568 925q-16 -82 -59 -118.5t-116 -36.5q-67 0 -103 34t-36 86q0 18 3 35h99q-1 -9 -1 -14q0 -20 14.5 -29.5t34.5 -9.5q51 0 62 53h102z" />
    <glyph glyph-name="obreve" unicode="&#x14f;" horiz-adv-x="522" 
d="M492 366q0 -42 -11 -97q-17 -83 -37 -129t-56 -82q-64 -64 -171 -64q-76 0 -131.5 46.5t-55.5 131.5q0 42 11 97q17 83 37 129t56 82q64 64 171 64q76 0 131.5 -46.5t55.5 -131.5zM337 347q0 56 -48 56q-30 0 -48 -18q-27 -26 -45 -116q-11 -55 -11 -78q0 -56 48 -56
q30 0 48 18q27 26 45 116q11 55 11 78zM505 753q-16 -82 -59 -118.5t-116 -36.5q-67 0 -103 34t-36 86q0 18 3 35h99q-1 -9 -1 -14q0 -20 14.5 -29.5t34.5 -9.5q51 0 62 53h102z" />
    <glyph glyph-name="Ohungarumlaut" unicode="&#x150;" horiz-adv-x="608" 
d="M599 510q0 -59 -19 -154q-15 -77 -25 -116t-31 -85t-51 -78q-78 -83 -205 -83q-106 0 -165 61t-59 147q0 59 19 154q15 77 25 116t31 85t51 78q78 83 205 83q106 0 165 -61t59 -147zM432 496q0 36 -19.5 56t-50.5 20q-41 0 -71 -33q-31 -34 -61 -183q-19 -95 -19 -140
q0 -36 19.5 -56t50.5 -20q41 0 71 33q31 34 61 183q19 95 19 140zM475 957l-132 -177h-117l106 177h143zM697 957l-132 -177h-117l106 177h143z" />
    <glyph glyph-name="ohungarumlaut" unicode="&#x151;" horiz-adv-x="522" 
d="M491 366q0 -42 -11 -97q-17 -83 -37 -129t-56 -82q-64 -64 -171 -64q-76 0 -131.5 46.5t-55.5 131.5q0 42 11 97q17 83 37 129t56 82q64 64 171 64q76 0 131.5 -46.5t55.5 -131.5zM336 347q0 56 -48 56q-30 0 -48 -18q-27 -26 -45 -116q-11 -55 -11 -78q0 -56 48 -56
q30 0 48 18q27 26 45 116q11 55 11 78zM405 785l-132 -177h-117l106 177h143zM627 785l-132 -177h-117l106 177h143z" />
    <glyph glyph-name="OE" unicode="&#x152;" horiz-adv-x="907" 
d="M943 712l-29 -147h-294l-26 -132h252l-30 -147h-251l-28 -139h297l-29 -147h-444l7 38q-42 -44 -109 -44q-100 0 -157.5 61t-57.5 147q0 59 19 154q15 77 25 116t31 85t51 78q78 83 204 83q79 0 113 -44l7 38h449zM432 496q0 36 -19.5 56t-50.5 20q-41 0 -71 -33
q-31 -34 -61 -183q-19 -95 -19 -140q0 -36 19.5 -56t50.5 -20q41 0 71 33q31 34 61 183q19 95 19 140z" />
    <glyph glyph-name="oe" unicode="&#x153;" horiz-adv-x="823" 
d="M795 348q0 -53 -18 -129h-310q-2 -20 -2 -22q0 -33 20 -52.5t59 -19.5q63 0 115 50l78 -102q-82 -79 -212 -79q-93 0 -152 52q-64 -52 -157 -52q-76 0 -131.5 46.5t-55.5 131.5q0 42 11 97q16 81 36.5 128t56.5 83q64 64 171 64q81 0 136 -52q67 52 154 52q89 0 145 -52
t56 -144zM336 347q0 56 -48 56q-30 0 -48 -18q-27 -26 -45 -116q-11 -58 -11 -78q0 -56 48 -56q30 0 48 18q27 26 45 116q11 58 11 78zM647 348q0 31 -16 49.5t-46 18.5q-71 0 -98 -94h157q3 12 3 26z" />
    <glyph glyph-name="Racute" unicode="&#x154;" horiz-adv-x="624" 
d="M615 506q0 -64 -39.5 -124t-114.5 -91l95 -291h-182l-75 270h-63l-55 -270h-166l143 712h253q105 0 154.5 -58t49.5 -148zM448 497q0 67 -65 67h-88l-32 -156h87q52 0 75 29t23 60zM602 957l-132 -177h-117l106 177h143z" />
    <glyph glyph-name="racute" unicode="&#x155;" horiz-adv-x="449" 
d="M495 493l-136 -121l-6 7q-6 7 -10.5 11t-14 8t-19.5 4q-28 0 -52 -21.5t-31 -58.5l-64 -322h-156l107 538h150l-9 -46q46 52 128 52q71 0 113 -51zM461 785l-132 -177h-117l106 177h143z" />
    <glyph glyph-name="Rcommaaccent" unicode="&#x156;" horiz-adv-x="624" 
d="M615 506q0 -64 -39.5 -124t-114.5 -91l95 -291h-182l-75 270h-63l-55 -270h-166l143 712h253q105 0 154.5 -58t49.5 -148zM448 497q0 67 -65 67h-88l-32 -156h87q52 0 75 29t23 60zM323 -52l-61 -142h-137l81 142h117z" />
    <glyph glyph-name="rcommaaccent" unicode="&#x157;" horiz-adv-x="449" 
d="M495 493l-136 -121l-6 7q-6 7 -10.5 11t-14 8t-19.5 4q-28 0 -52 -21.5t-31 -58.5l-64 -322h-156l107 538h150l-9 -46q46 52 128 52q71 0 113 -51zM132 -52l-61 -142h-137l81 142h117z" />
    <glyph glyph-name="Rcaron" unicode="&#x158;" horiz-adv-x="624" 
d="M615 506q0 -64 -39.5 -124t-114.5 -91l95 -291h-182l-75 270h-63l-55 -270h-166l143 712h253q105 0 154.5 -58t49.5 -148zM448 497q0 67 -65 67h-88l-32 -156h87q52 0 75 29t23 60zM630 959l-165 -179h-120l-94 179h110l56 -87l93 87h120z" />
    <glyph glyph-name="rcaron" unicode="&#x159;" horiz-adv-x="449" 
d="M495 493l-136 -121l-6 7q-6 7 -10.5 11t-14 8t-19.5 4q-28 0 -52 -21.5t-31 -58.5l-64 -322h-156l107 538h150l-9 -46q46 52 128 52q71 0 113 -51zM493 787l-165 -179h-120l-94 179h110l56 -87l93 87h120z" />
    <glyph glyph-name="Sacute" unicode="&#x15a;" horiz-adv-x="565" 
d="M590 629l-116 -102q-37 46 -116 46q-48 0 -77.5 -24.5t-29.5 -53.5q0 -18 10.5 -29.5t20.5 -15t30 -9.5l54 -14q92 -23 129 -68t37 -124q0 -121 -85 -181t-210 -60q-90 0 -148 22.5t-104 75.5l120 105q49 -56 147 -56q48 0 80.5 23t32.5 54q0 27 -14 40t-46 21l-54 14
q-166 43 -166 175q0 115 81 182.5t211 67.5q144 0 213 -89zM582 957l-132 -177h-117l106 177h143z" />
    <glyph glyph-name="sacute" unicode="&#x15b;" horiz-adv-x="477" 
d="M473 474l-106 -94q-13 17 -39.5 26.5t-50.5 9.5q-36 0 -54 -11.5t-18 -29.5q0 -23 33 -29l68 -12q130 -23 130 -144q0 -81 -60 -137q-62 -59 -189 -59q-136 0 -212 82l111 98q39 -46 111 -46q39 0 61.5 13t22.5 31q0 26 -37 32l-68 12q-64 11 -95.5 45.5t-31.5 78.5
q0 84 57 141q63 63 184 63q118 0 183 -70zM513 785l-132 -177h-117l106 177h143z" />
    <glyph glyph-name="Scircumflex" unicode="&#x15c;" horiz-adv-x="565" 
d="M590 629l-116 -102q-37 46 -116 46q-48 0 -77.5 -24.5t-29.5 -53.5q0 -18 10.5 -29.5t20.5 -15t30 -9.5l54 -14q92 -23 129 -68t37 -124q0 -121 -85 -181t-210 -60q-90 0 -148 22.5t-104 75.5l120 105q49 -56 147 -56q48 0 80.5 23t32.5 54q0 27 -14 40t-46 21l-54 14
q-166 43 -166 175q0 115 81 182.5t211 67.5q144 0 213 -89zM577 780h-109l-56 87l-93 -87h-120l165 179h120z" />
    <glyph glyph-name="scircumflex" unicode="&#x15d;" horiz-adv-x="477" 
d="M473 474l-106 -94q-13 17 -39.5 26.5t-50.5 9.5q-36 0 -54 -11.5t-18 -29.5q0 -23 33 -29l68 -12q130 -23 130 -144q0 -81 -60 -137q-62 -59 -189 -59q-136 0 -212 82l111 98q39 -46 111 -46q39 0 61.5 13t22.5 31q0 26 -37 32l-68 12q-64 11 -95.5 45.5t-31.5 78.5
q0 84 57 141q63 63 184 63q118 0 183 -70zM508 608h-109l-56 87l-93 -87h-120l165 179h120z" />
    <glyph glyph-name="Scedilla" unicode="&#x15e;" horiz-adv-x="565" 
d="M590 629l-116 -102q-37 46 -116 46q-48 0 -77.5 -24.5t-29.5 -53.5q0 -18 10.5 -29.5t20.5 -15t30 -9.5l54 -14q92 -23 129 -68t37 -124q0 -121 -85 -181t-210 -60q-90 0 -148 22.5t-104 75.5l120 105q49 -56 147 -56q48 0 80.5 23t32.5 54q0 27 -14 40t-46 21l-54 14
q-166 43 -166 175q0 115 81 182.5t211 67.5q144 0 213 -89zM290 -52l-61 -142h-135l81 142h115z" />
    <glyph glyph-name="scedilla" unicode="&#x15f;" horiz-adv-x="477" 
d="M473 474l-106 -94q-13 17 -39.5 26.5t-50.5 9.5q-36 0 -54 -11.5t-18 -29.5q0 -23 33 -29l68 -12q130 -23 130 -144q0 -81 -60 -137q-62 -59 -189 -59q-136 0 -212 82l111 98q39 -46 111 -46q39 0 61.5 13t22.5 31q0 26 -37 32l-68 12q-64 11 -95.5 45.5t-31.5 78.5
q0 84 57 141q63 63 184 63q118 0 183 -70zM242 -52l-61 -142h-135l81 142h115z" />
    <glyph glyph-name="Scaron" unicode="&#x160;" horiz-adv-x="565" 
d="M590 629l-116 -102q-37 46 -116 46q-48 0 -77.5 -24.5t-29.5 -53.5q0 -18 10.5 -29.5t20.5 -15t30 -9.5l54 -14q92 -23 129 -68t37 -124q0 -121 -85 -181t-210 -60q-90 0 -148 22.5t-104 75.5l120 105q49 -56 147 -56q48 0 80.5 23t32.5 54q0 27 -14 40t-46 21l-54 14
q-166 43 -166 175q0 115 81 182.5t211 67.5q144 0 213 -89zM620 959l-165 -179h-120l-94 179h110l56 -87l93 87h120z" />
    <glyph glyph-name="scaron" unicode="&#x161;" horiz-adv-x="477" 
d="M473 474l-106 -94q-13 17 -39.5 26.5t-50.5 9.5q-36 0 -54 -11.5t-18 -29.5q0 -23 33 -29l68 -12q130 -23 130 -144q0 -81 -60 -137q-62 -59 -189 -59q-136 0 -212 82l111 98q39 -46 111 -46q39 0 61.5 13t22.5 31q0 26 -37 32l-68 12q-64 11 -95.5 45.5t-31.5 78.5
q0 84 57 141q63 63 184 63q118 0 183 -70zM551 787l-165 -179h-120l-94 179h110l56 -87l93 87h120z" />
    <glyph glyph-name="Tcommaaccent" unicode="&#x162;" horiz-adv-x="557" 
d="M616 712l-30 -147h-163l-113 -565h-166l113 565h-170l30 147h499zM274 -52l-61 -142h-135l81 142h115z" />
    <glyph glyph-name="tcommaaccent" unicode="&#x163;" horiz-adv-x="348" 
d="M356 515l-24 -120h-80l-45 -227q-1 -4 -1 -12q0 -25 31 -25h49l-26 -131h-73q-65 0 -102.5 35.5t-37.5 89.5q0 24 4 44l45 226h-47l24 120h47l31 156h156l-31 -156h80zM179 -52l-61 -142h-137l81 142h117z" />
    <glyph glyph-name="Tcaron" unicode="&#x164;" horiz-adv-x="557" 
d="M616 712l-30 -147h-163l-113 -565h-166l113 565h-170l30 147h499zM608 959l-165 -179h-120l-94 179h110l56 -87l93 87h120z" />
    <glyph glyph-name="tcaron" unicode="&#x165;" horiz-adv-x="348" 
d="M356 515l-24 -120h-80l-45 -227q-1 -4 -1 -12q0 -25 31 -25h49l-26 -131h-73q-65 0 -102.5 35.5t-37.5 89.5q0 24 4 44l45 226h-47l24 120h47l31 156h156l-31 -156h80zM553 753l-97 -173h-110l67 173h140z" />
    <glyph glyph-name="Tbar" unicode="&#x166;" horiz-adv-x="557" 
d="M616 712l-30 -147h-163l-29 -143h74l-25 -126h-74l-59 -296h-166l59 296h-73l25 126h73l29 143h-170l30 147h499z" />
    <glyph glyph-name="tbar" unicode="&#x167;" horiz-adv-x="348" 
d="M356 515l-24 -120h-80l-8 -39h79l-24 -121h-79l-13 -67q-1 -4 -1 -12q0 -25 31 -25h49l-26 -131h-73q-65 0 -102.5 35.5t-37.5 89.5q0 24 4 44l13 66h-48l24 121h48l8 39h-47l24 120h47l31 156h156l-31 -156h80z" />
    <glyph glyph-name="Utilde" unicode="&#x168;" horiz-adv-x="627" 
d="M659 712l-93 -463q-26 -131 -105.5 -193t-183.5 -62q-101 0 -164 58.5t-63 149.5q0 34 6 62l90 448h166l-92 -457q-4 -24 -4 -40q0 -32 17.5 -53t53.5 -21q91 0 116 122l90 449h166zM612 845q-58 -55 -119 -55q-42 0 -82 21q-30 16 -53 16q-33 0 -62 -29l-54 72
q58 55 119 55q42 0 82 -21q30 -16 53 -16q33 0 62 29z" />
    <glyph glyph-name="utilde" unicode="&#x169;" horiz-adv-x="550" 
d="M545 538l-107 -538h-149l9 47q-53 -53 -132 -53q-49 0 -90.5 36t-41.5 112q0 30 7 62l67 334h156l-65 -325q-3 -14 -3 -27q0 -25 14 -38t31 -13q67 0 83 78l65 325h156zM530 665q-58 -55 -119 -55q-42 0 -82 21q-30 16 -53 16q-33 0 -62 -29l-54 72q58 55 119 55
q42 0 82 -21q30 -16 53 -16q33 0 62 29z" />
    <glyph glyph-name="Umacron" unicode="&#x16a;" horiz-adv-x="627" 
d="M659 712l-93 -463q-26 -131 -105.5 -193t-183.5 -62q-101 0 -164 58.5t-63 149.5q0 34 6 62l90 448h166l-92 -457q-4 -24 -4 -40q0 -32 17.5 -53t53.5 -21q91 0 116 122l90 449h166zM586 888l-20 -99h-310l20 99h310z" />
    <glyph glyph-name="umacron" unicode="&#x16b;" horiz-adv-x="550" 
d="M544 538l-107 -538h-149l9 47q-53 -53 -132 -53q-49 0 -90.5 36t-41.5 112q0 30 7 62l67 334h156l-65 -325q-3 -14 -3 -27q0 -25 14 -38t31 -13q67 0 83 78l65 325h156zM510 722l-20 -99h-310l20 99h310z" />
    <glyph glyph-name="Ubreve" unicode="&#x16c;" horiz-adv-x="627" 
d="M659 712l-93 -463q-26 -131 -105.5 -193t-183.5 -62q-101 0 -164 58.5t-63 149.5q0 34 6 62l90 448h166l-92 -457q-4 -24 -4 -40q0 -32 17.5 -53t53.5 -21q91 0 116 122l90 449h166zM599 925q-16 -82 -59 -118.5t-116 -36.5q-67 0 -103 34t-36 86q0 18 3 35h99
q-1 -9 -1 -14q0 -20 14.5 -29.5t34.5 -9.5q51 0 62 53h102z" />
    <glyph glyph-name="ubreve" unicode="&#x16d;" horiz-adv-x="550" 
d="M544 538l-107 -538h-149l9 47q-53 -53 -132 -53q-49 0 -90.5 36t-41.5 112q0 30 7 62l67 334h156l-65 -325q-3 -14 -3 -27q0 -25 14 -38t31 -13q67 0 83 78l65 325h156zM510 753q-16 -82 -59 -118.5t-116 -36.5q-67 0 -103 34t-36 86q0 18 3 35h99q-1 -9 -1 -14
q0 -20 14.5 -29.5t34.5 -9.5q51 0 62 53h102z" />
    <glyph glyph-name="Uring" unicode="&#x16e;" horiz-adv-x="627" 
d="M659 712l-93 -463q-26 -131 -105.5 -193t-183.5 -62q-101 0 -164 58.5t-63 149.5q0 34 6 62l90 448h166l-92 -457q-4 -24 -4 -40q0 -32 17.5 -53t53.5 -21q91 0 116 122l90 449h166zM562 887q0 -56 -38.5 -94t-93.5 -38t-93.5 38t-38.5 94t38.5 94t93.5 38t93.5 -37.5
t38.5 -94.5zM481 887q0 21 -15.5 36t-35.5 15t-35.5 -15t-15.5 -36t15.5 -36t35.5 -15t35.5 15t15.5 36z" />
    <glyph glyph-name="uring" unicode="&#x16f;" horiz-adv-x="550" 
d="M544 538l-107 -538h-149l9 47q-53 -53 -132 -53q-49 0 -90.5 36t-41.5 112q0 30 7 62l67 334h156l-65 -325q-3 -14 -3 -27q0 -25 14 -38t31 -13q67 0 83 78l65 325h156zM485 725q0 -56 -38.5 -94t-93.5 -38t-93.5 38t-38.5 94t38.5 94t93.5 38t93.5 -37.5t38.5 -94.5z
M404 725q0 21 -15.5 36t-35.5 15t-35.5 -15t-15.5 -36t15.5 -36t35.5 -15t35.5 15t15.5 36z" />
    <glyph glyph-name="Uhungarumlaut" unicode="&#x170;" horiz-adv-x="627" 
d="M659 712l-93 -463q-26 -131 -105.5 -193t-183.5 -62q-101 0 -164 58.5t-63 149.5q0 34 6 62l90 448h166l-92 -457q-4 -24 -4 -40q0 -32 17.5 -53t53.5 -21q91 0 116 122l90 449h166zM489 957l-132 -177h-117l106 177h143zM711 957l-132 -177h-117l106 177h143z" />
    <glyph glyph-name="uhungarumlaut" unicode="&#x171;" horiz-adv-x="550" 
d="M544 538l-107 -538h-149l9 47q-53 -53 -132 -53q-49 0 -90.5 36t-41.5 112q0 30 7 62l67 334h156l-65 -325q-3 -14 -3 -27q0 -25 14 -38t31 -13q67 0 83 78l65 325h156zM410 785l-132 -177h-117l106 177h143zM632 785l-132 -177h-117l106 177h143z" />
    <glyph glyph-name="Uogonek" unicode="&#x172;" horiz-adv-x="627" 
d="M659 712l-93 -463q-26 -131 -105.5 -193t-183.5 -62q-101 0 -164 58.5t-63 149.5q0 34 6 62l90 448h166l-92 -457q-4 -24 -4 -40q0 -32 17.5 -53t53.5 -21q91 0 116 122l90 449h166zM424 -52l-61 -142h-135l81 142h115z" />
    <glyph glyph-name="uogonek" unicode="&#x173;" horiz-adv-x="550" 
d="M544 538l-107 -538h-149l9 47q-53 -53 -132 -53q-49 0 -90.5 36t-41.5 112q0 30 7 62l67 334h156l-65 -325q-3 -14 -3 -27q0 -25 14 -38t31 -13q67 0 83 78l65 325h156zM389 -52l-61 -142h-135l81 142h115z" />
    <glyph glyph-name="Wcircumflex" unicode="&#x174;" horiz-adv-x="864" 
d="M951 712l-324 -712h-135l-37 361l-186 -361h-135l-47 712h171l14 -386l188 386h118l34 -386l163 386h176zM721 780h-109l-56 87l-93 -87h-120l165 179h120z" />
    <glyph glyph-name="wcircumflex" unicode="&#x175;" horiz-adv-x="738" 
d="M789 538l-255 -538h-118l-38 300l-155 -300h-122l-47 538h155l11 -284l143 284h110l33 -284l117 284h166zM622 608h-109l-56 87l-93 -87h-120l165 179h120z" />
    <glyph glyph-name="Ycircumflex" unicode="&#x176;" horiz-adv-x="585" 
d="M668 712l-288 -427l-57 -285h-166l58 290l-134 422h178l65 -266l161 266h183zM556 780h-109l-56 87l-93 -87h-120l165 179h120z" />
    <glyph glyph-name="ycircumflex" unicode="&#x177;" horiz-adv-x="488" 
d="M546 538l-324 -602q-22 -41 -44 -62q-53 -54 -136 -54h-58l29 142h32q20 0 33.5 11.5t26.5 36.5l23 43l-75 485h154l30 -300l145 300h164zM490 608h-109l-56 87l-93 -87h-120l165 179h120z" />
    <glyph glyph-name="Ydieresis" unicode="&#x178;" horiz-adv-x="585" 
d="M668 712l-288 -427l-57 -285h-166l58 290l-134 422h178l65 -266l161 266h183zM358 921l-28 -142h-127l28 142h127zM573 921l-28 -142h-128l29 142h127z" />
    <glyph glyph-name="Zacute" unicode="&#x179;" horiz-adv-x="522" 
d="M579 712l-26 -127l-341 -438h260l-30 -147h-465l26 127l340 438h-247l29 147h454zM551 957l-132 -177h-117l106 177h143z" />
    <glyph glyph-name="zacute" unicode="&#x17a;" horiz-adv-x="467" 
d="M488 538l-23 -116l-249 -281h199l-28 -141h-409l24 116l245 281h-184l28 141h397zM491 785l-132 -177h-117l106 177h143z" />
    <glyph glyph-name="Zdotaccent" unicode="&#x17b;" horiz-adv-x="522" 
d="M579 712l-26 -127l-341 -438h260l-30 -147h-465l26 127l340 438h-247l29 147h454zM450 920l-27 -137h-128l28 137h127z" />
    <glyph glyph-name="zdotaccent" unicode="&#x17c;" horiz-adv-x="467" 
d="M488 538l-23 -116l-249 -281h199l-28 -141h-409l24 116l245 281h-184l28 141h397zM389 748l-27 -137h-128l28 137h127z" />
    <glyph glyph-name="Zcaron" unicode="&#x17d;" horiz-adv-x="522" 
d="M579 712l-26 -127l-341 -438h260l-30 -147h-465l26 127l340 438h-247l29 147h454zM589 959l-165 -179h-120l-94 179h110l56 -87l93 87h120z" />
    <glyph glyph-name="zcaron" unicode="&#x17e;" horiz-adv-x="467" 
d="M488 538l-23 -116l-249 -281h199l-28 -141h-409l24 116l245 281h-184l28 141h397zM529 787l-165 -179h-120l-94 179h110l56 -87l93 87h120z" />
    <glyph glyph-name="longs" unicode="&#x17f;" horiz-adv-x="274" 
d="M391 723l-26 -131h-49q-36 0 -44 -40l-110 -552h-156l114 570q30 153 186 153h85z" />
    <glyph glyph-name="uni018F" unicode="&#x18f;" horiz-adv-x="612" 
d="M604 510q0 -59 -19 -154q-15 -77 -25 -116t-31 -85t-51 -78q-78 -83 -205 -83q-107 0 -168 61t-61 147q0 64 18 154l11 51h354q10 64 10 89q0 36 -19.5 56t-50.5 20q-46 0 -76 -33q-16 -18 -28 -51h-171q27 93 78 147q78 83 210 83q106 0 165 -61t59 -147zM398 269h-183
q-4 -27 -4 -53q0 -35 21.5 -55.5t53.5 -20.5q41 0 71 33q23 24 41 96z" />
    <glyph glyph-name="florin" unicode="&#x192;" horiz-adv-x="419" 
d="M481 722l-26 -129h-75q-31 0 -44 -33l-56 -156h87l-24 -118h-106l-169 -460h-156l169 460h-48l23 118h69l58 160q33 91 85.5 124.5t133.5 33.5h79z" />
    <glyph glyph-name="uni01B5" unicode="&#x1b5;" horiz-adv-x="522" 
d="M579 712l-26 -127l-126 -162h23l-25 -126h-96l-117 -150h260l-30 -147h-465l26 127l132 170h-23l25 126h96l110 142h-247l29 147h454z" />
    <glyph glyph-name="uni01B6" unicode="&#x1b6;" horiz-adv-x="467" 
d="M488 538l-23 -116l-93 -105h20l-19 -96h-86l-71 -80h199l-28 -141h-409l24 116l91 105h-20l19 96h85l70 80h-184l28 141h397z" />
    <glyph glyph-name="uni01C4" unicode="&#x1c4;" horiz-adv-x="1140" 
d="M613 510q0 -34 -23 -154q-27 -136 -46.5 -187.5t-63.5 -95.5q-73 -73 -203 -73h-262l143 712h239q100 0 158 -53t58 -149zM445 494q0 72 -76 72h-74l-84 -420h73q51 0 83 32q17 17 28 50.5t29 127.5q21 108 21 138zM1197 712l-26 -127l-341 -438h260l-30 -147h-465
l26 127l340 438h-247l29 147h454zM1207 959l-165 -179h-120l-94 179h110l56 -87l93 87h120z" />
    <glyph glyph-name="uni01C5" unicode="&#x1c5;" horiz-adv-x="1126" 
d="M613 510q0 -34 -23 -154q-27 -136 -46.5 -187.5t-63.5 -95.5q-73 -73 -203 -73h-262l143 712h239q100 0 158 -53t58 -149zM445 494q0 72 -76 72h-74l-84 -420h73q51 0 83 32q17 17 28 50.5t29 127.5q21 108 21 138zM1106 538l-23 -116l-249 -281h199l-28 -141h-409
l24 116l245 281h-184l28 141h397zM1147 787l-165 -179h-120l-94 179h110l56 -87l93 87h120z" />
    <glyph glyph-name="uni01C6" unicode="&#x1c6;" horiz-adv-x="1049" 
d="M570 712l-142 -712h-150l9 45q-46 -51 -123 -51q-75 0 -108 44t-33 97q0 47 18 134q19 95 37 146t45 78q51 51 133 51q75 0 115 -49l43 217h156zM337 350q0 53 -47 53q-41 0 -59.5 -30t-33.5 -104q-11 -55 -11 -81q0 -53 47 -53q41 0 59.5 30t33.5 104q11 55 11 81z
M1029 538l-23 -116l-249 -281h199l-28 -141h-409l24 116l245 281h-184l28 141h397zM1070 787l-165 -179h-120l-94 179h110l56 -87l93 87h120z" />
    <glyph glyph-name="uni01C7" unicode="&#x1c7;" horiz-adv-x="1042" 
d="M500 146l-29 -146h-456l143 712h166l-113 -566h289zM1072 712l-96 -480q-12 -62 -39.5 -108.5t-56.5 -70.5t-65.5 -38t-60.5 -17.5t-48 -3.5q-70 0 -115 20t-80 63l119 102q30 -39 77 -39q84 0 104 98l95 474h166z" />
    <glyph glyph-name="uni01C8" unicode="&#x1c8;" horiz-adv-x="826" 
d="M500 146l-29 -146h-456l143 712h166l-113 -566h289zM817 515l-107 -536q-15 -73 -61.5 -116t-119.5 -43h-93l27 132h51q16 0 27.5 11t14.5 28l105 524h156zM856 712l-24 -121h-156l24 121h156z" />
    <glyph glyph-name="uni01C9" unicode="&#x1c9;" horiz-adv-x="601" 
d="M298 712l-108 -542q-2 -12 -2 -15q0 -23 29 -23h57l-27 -132h-77q-65 0 -102.5 35.5t-37.5 89.5q0 24 4 44l108 543h156zM592 515l-107 -536q-15 -73 -61.5 -116t-119.5 -43h-93l27 132h51q17 0 28 11t14 28l105 524h156zM631 712l-24 -121h-156l24 121h156z" />
    <glyph glyph-name="uni01CA" unicode="&#x1ca;" horiz-adv-x="1157" 
d="M688 712l-143 -712h-138l-151 370l-75 -370h-166l143 712h138l152 -371l74 371h166zM1187 712l-96 -480q-12 -62 -39.5 -108.5t-56.5 -70.5t-65.5 -38t-60.5 -17.5t-48 -3.5q-70 0 -115 20t-80 63l119 102q30 -39 77 -39q84 0 104 98l95 474h166z" />
    <glyph glyph-name="uni01CB" unicode="&#x1cb;" horiz-adv-x="941" 
d="M688 712l-143 -712h-138l-151 370l-75 -370h-166l143 712h138l152 -371l74 371h166zM932 515l-107 -536q-15 -73 -61.5 -116t-119.5 -43h-93l27 132h51q17 0 28 11t14 28l105 524h156zM971 712l-24 -121h-156l24 121h156z" />
    <glyph glyph-name="uni01CC" unicode="&#x1cc;" horiz-adv-x="824" 
d="M517 396q0 -30 -7 -62l-67 -334h-156l65 325q3 14 3 27q0 25 -14 38t-31 13q-67 0 -83 -78l-65 -325h-156l107 538h149l-9 -47q53 53 132 53q49 0 90.5 -36t41.5 -112zM815 515l-107 -536q-15 -73 -61.5 -116t-119.5 -43h-93l27 132h51q16 0 27.5 11t14.5 28l105 524h156
zM854 712l-24 -121h-156l24 121h156z" />
    <glyph glyph-name="uni01F1" unicode="&#x1f1;" horiz-adv-x="1140" 
d="M613 510q0 -34 -23 -154q-27 -136 -46.5 -187.5t-63.5 -95.5q-73 -73 -203 -73h-262l143 712h239q100 0 158 -53t58 -149zM445 494q0 72 -76 72h-74l-84 -420h73q51 0 83 32q17 17 28 50.5t29 127.5q21 108 21 138zM1197 712l-26 -127l-341 -438h260l-30 -147h-465
l26 127l340 438h-247l29 147h454z" />
    <glyph glyph-name="uni01F2" unicode="&#x1f2;" horiz-adv-x="1085" 
d="M613 510q0 -34 -23 -154q-27 -136 -46.5 -187.5t-63.5 -95.5q-73 -73 -203 -73h-262l143 712h239q100 0 158 -53t58 -149zM445 494q0 72 -76 72h-74l-84 -420h73q51 0 83 32q17 17 28 50.5t29 127.5q21 108 21 138zM1106 538l-23 -116l-249 -281h199l-28 -141h-409
l24 116l245 281h-184l28 141h397z" />
    <glyph glyph-name="uni01F3" unicode="&#x1f3;" horiz-adv-x="1008" 
d="M570 712l-142 -712h-150l9 45q-46 -51 -123 -51q-75 0 -108 44t-33 97q0 47 18 134q19 95 37 146t45 78q51 51 133 51q75 0 115 -49l43 217h156zM337 350q0 53 -47 53q-41 0 -59.5 -30t-33.5 -104q-11 -55 -11 -81q0 -53 47 -53q41 0 59.5 30t33.5 104q11 55 11 81z
M1029 538l-23 -116l-249 -281h199l-28 -141h-409l24 116l245 281h-184l28 141h397z" />
    <glyph glyph-name="Aringacute" unicode="&#x1fa;" horiz-adv-x="622" 
d="M569 0h-169l-10 112h-211l-55 -112h-177l388 712h129zM377 247l-22 210l-108 -210h130zM537 887q0 -56 -38.5 -94t-93.5 -38t-93.5 38t-38.5 94t38.5 94t93.5 38t93.5 -37.5t38.5 -94.5zM456 887q0 21 -15.5 36t-35.5 15t-35.5 -15t-15.5 -36t15.5 -36t35.5 -15t35.5 15
t15.5 36zM651 1207l-132 -177h-117l106 177h143z" />
    <glyph glyph-name="aringacute" unicode="&#x1fb;" horiz-adv-x="513" 
d="M484 389q0 -20 -6 -50l-68 -339h-150l9 44q-49 -49 -117 -49q-70 0 -110 44t-40 103q0 83 48 129q55 54 157 54h112l4 19q3 12 3 23q0 47 -64 47q-63 0 -100 -43l-78 104q73 69 203 69q82 0 139.5 -38t57.5 -117zM298 221h-76q-32 0 -49.5 -18t-17.5 -43
q0 -17 12.5 -28.5t34.5 -11.5q39 0 67 28q19 19 26 58zM470 725q0 -56 -38.5 -94t-93.5 -38t-93.5 38t-38.5 94t38.5 94t93.5 38t93.5 -37.5t38.5 -94.5zM389 725q0 21 -15.5 36t-35.5 15t-35.5 -15t-15.5 -36t15.5 -36t35.5 -15t35.5 15t15.5 36zM562 1044l-132 -177h-117
l106 177h143z" />
    <glyph glyph-name="AEacute" unicode="&#x1fc;" horiz-adv-x="973" 
d="M1009 712l-29 -145h-294l-26 -135h252l-29 -145h-253l-28 -142h298l-29 -145h-464l31 157h-200l-108 -157h-183l494 712h568zM520 566l-187 -271h133zM825 957l-132 -177h-117l106 177h143z" />
    <glyph glyph-name="aeacute" unicode="&#x1fd;" horiz-adv-x="803" 
d="M775 349q0 -53 -18 -129h-310q-2 -20 -2 -23q0 -33 20 -52.5t59 -19.5q63 0 115 50l78 -102q-82 -79 -212 -79q-107 0 -164 65q-72 -65 -168 -65q-83 0 -127 41t-44 107q0 80 46 126q55 55 159 55h112l4 19q3 21 3 25q0 47 -64 47q-63 0 -100 -43l-78 104q73 69 203 69
q87 0 144 -44q64 44 143 44q89 0 145 -51.5t56 -143.5zM298 220h-76q-32 0 -49.5 -18t-17.5 -42q0 -17 12.5 -28.5t34.5 -11.5q39 0 67 28q19 19 26 57zM627 349q0 31 -16 49t-46 18q-71 0 -98 -93h157q3 12 3 26zM646 785l-132 -177h-117l106 177h143z" />
    <glyph glyph-name="Oslashacute" unicode="&#x1fe;" horiz-adv-x="612" 
d="M640 756l-78 -121q41 -55 41 -125q0 -59 -19 -154q-15 -77 -25 -116t-31 -85t-51 -78q-78 -83 -207 -83q-60 0 -109 22l-39 -60h-114l77 119q-41 55 -41 127q0 59 19 154q15 77 25 116t31 85t51 78q78 83 207 83q59 0 110 -23l39 61h114zM407 559q-17 13 -43 13
q-43 0 -73 -33q-31 -34 -61 -183q-10 -46 -15 -81l-2 -19zM433 455l-192 -304q19 -11 42 -11q43 0 73 33q31 34 61 183q13 71 14 81zM591 957l-132 -177h-117l106 177h143z" />
    <glyph glyph-name="oslashacute" unicode="&#x1ff;" horiz-adv-x="526" 
d="M542 582l-80 -108q34 -45 34 -108q0 -42 -11 -97q-16 -81 -36.5 -128t-56.5 -83q-64 -64 -173 -64q-61 0 -101 25l-46 -63h-89l81 108q-34 45 -34 108q0 42 11 97q16 81 36.5 128t56.5 83q64 64 173 64q54 0 101 -25l46 63h88zM340 328l-136 -184q12 -9 31 -9
q40 0 60.5 32.5t34.5 101.5q9 46 10 59zM322 394q-12 9 -31 9q-40 0 -60.5 -32.5t-34.5 -101.5q-1 -7 -10 -59zM521 785l-132 -177h-117l106 177h143z" />
    <glyph glyph-name="Scommaaccent" unicode="&#x218;" horiz-adv-x="565" 
d="M590 629l-116 -102q-37 46 -116 46q-48 0 -77.5 -24.5t-29.5 -53.5q0 -18 10.5 -29.5t20.5 -15t30 -9.5l54 -14q92 -23 129 -68t37 -124q0 -121 -85 -181t-210 -60q-90 0 -148 22.5t-104 75.5l120 105q49 -56 147 -56q48 0 80.5 23t32.5 54q0 27 -14 40t-46 21l-54 14
q-166 43 -166 175q0 115 81 182.5t211 67.5q144 0 213 -89zM290 -52l-61 -142h-137l81 142h117z" />
    <glyph glyph-name="scommaaccent" unicode="&#x219;" horiz-adv-x="477" 
d="M473 474l-106 -94q-13 17 -39.5 26.5t-50.5 9.5q-36 0 -54 -11.5t-18 -29.5q0 -23 33 -29l68 -12q130 -23 130 -144q0 -81 -60 -137q-62 -59 -189 -59q-136 0 -212 82l111 98q39 -46 111 -46q39 0 61.5 13t22.5 31q0 26 -37 32l-68 12q-64 11 -95.5 45.5t-31.5 78.5
q0 84 57 141q63 63 184 63q118 0 183 -70zM242 -52l-61 -142h-137l81 142h117z" />
    <glyph glyph-name="uni021A" unicode="&#x21a;" horiz-adv-x="557" 
d="M616 712l-30 -147h-163l-113 -565h-166l113 565h-170l30 147h499zM275 -52l-61 -142h-137l81 142h117z" />
    <glyph glyph-name="uni021B" unicode="&#x21b;" horiz-adv-x="348" 
d="M356 515l-24 -120h-80l-45 -227q-1 -4 -1 -12q0 -25 31 -25h49l-26 -131h-73q-65 0 -102.5 35.5t-37.5 89.5q0 24 4 44l45 226h-47l24 120h47l31 156h156l-31 -156h80zM179 -52l-61 -142h-137l81 142h117z" />
    <glyph glyph-name="uni0237" unicode="&#x237;" horiz-adv-x="274" 
d="M265 515l-107 -536q-15 -73 -61.5 -116t-119.5 -43h-93l27 132h51q16 0 27.5 11t14.5 28l105 524h156z" />
    <glyph glyph-name="uni0259" unicode="&#x259;" horiz-adv-x="533" 
d="M27 190q0 53 18 129h310q2 14 2 22q0 33 -20 52.5t-59 19.5q-63 0 -115 -50l-78 102q82 79 212 79q36 0 70 -9t66.5 -29.5t52 -59.5t19.5 -93q0 -98 -30.5 -178t-94.5 -130.5t-152 -50.5t-144.5 52.5t-56.5 143.5zM175 190q0 -31 16 -49.5t46 -18.5q71 0 98 94h-157
q-3 -12 -3 -26z" />
    <glyph glyph-name="uni02BB" unicode="&#x2bb;" horiz-adv-x="263" 
d="M323 832l-53 -266h-156l29 146z" />
    <glyph glyph-name="afii57929" unicode="&#x2bc;" horiz-adv-x="263" 
d="M299 712l-29 -147l-180 -118l53 265h156z" />
    <glyph glyph-name="circumflex" unicode="&#x2c6;" horiz-adv-x="522" 
d="M516 608h-109l-56 87l-93 -87h-120l165 179h120z" />
    <glyph glyph-name="caron" unicode="&#x2c7;" horiz-adv-x="522" 
d="M559 787l-165 -179h-120l-94 179h110l56 -87l93 87h120z" />
    <glyph glyph-name="breve" unicode="&#x2d8;" horiz-adv-x="522" 
d="M506 753q-16 -82 -59 -118.5t-116 -36.5q-67 0 -103 34t-36 86q0 18 3 35h99q-1 -9 -1 -14q0 -20 14.5 -29.5t34.5 -9.5q51 0 62 53h102z" />
    <glyph glyph-name="dotaccent" unicode="&#x2d9;" horiz-adv-x="522" 
d="M419 748l-27 -137h-128l28 137h127z" />
    <glyph glyph-name="ring" unicode="&#x2da;" horiz-adv-x="522" 
d="M480 725q0 -56 -38.5 -94t-93.5 -38t-93.5 38t-38.5 94t38.5 94t93.5 38t93.5 -37.5t38.5 -94.5zM399 725q0 21 -15.5 36t-35.5 15t-35.5 -15t-15.5 -36t15.5 -36t35.5 -15t35.5 15t15.5 36z" />
    <glyph glyph-name="ogonek" unicode="&#x2db;" horiz-adv-x="522" 
d="M267 -52l-61 -142h-135l81 142h115z" />
    <glyph glyph-name="tilde" unicode="&#x2dc;" horiz-adv-x="522" 
d="M525 665q-58 -55 -119 -55q-42 0 -82 21q-30 16 -53 16q-33 0 -62 -29l-54 72q58 55 119 55q42 0 82 -21q30 -16 53 -16q33 0 62 29z" />
    <glyph glyph-name="hungarumlaut" unicode="&#x2dd;" horiz-adv-x="522" 
d="M405 785l-132 -177h-117l106 177h143zM627 785l-132 -177h-117l106 177h143z" />
    <glyph glyph-name="uni0394" unicode="&#x394;" horiz-adv-x="622" 
d="M569 0h-622l388 712h131zM392 137l-32 321l-166 -321h198z" />
    <glyph glyph-name="uni03A9" unicode="&#x3a9;" horiz-adv-x="608" 
d="M600 510q0 -50 -21 -154q-22 -110 -47 -155q-18 -33 -41 -54h51l-30 -147h-226l26 128q25 11 37 27q17 23 30 62t31 129q22 109 22 149q0 39 -19.5 57.5t-46.5 18.5q-46 0 -76 -33t-62 -192q-22 -113 -22 -152q0 -44 33 -66l-25 -128h-216l29 147h50q-24 43 -24 102
q0 50 11 107q16 77 26 116.5t31.5 86t52.5 77.5q40 40 94.5 61t107.5 21q105 0 164.5 -61t59.5 -147z" />
    <glyph glyph-name="uni03BC" unicode="&#x3bc;" horiz-adv-x="555" 
d="M550 538l-107 -538h-149l9 47q-53 -53 -132 -53h-10l-34 -168h-156l142 712h156l-65 -325q-3 -14 -3 -27q0 -25 14 -38t31 -13q67 0 83 78l65 325h156z" />
    <glyph glyph-name="pi" unicode="&#x3c0;" horiz-adv-x="584" 
d="M551 538l-108 -538h-156l82 410h-125l-82 -410h-156l108 538h437z" />
    <glyph glyph-name="uni0400" unicode="&#x400;" horiz-adv-x="581" 
d="M617 712l-29 -146h-293l-27 -134h253l-29 -146h-253l-28 -140h299l-29 -146h-466l143 712h459zM435 780h-108l-72 177h142z" />
    <glyph glyph-name="afii10023" unicode="&#x401;" horiz-adv-x="581" 
d="M617 712l-29 -146h-293l-27 -134h253l-29 -146h-253l-28 -140h299l-29 -146h-466l143 712h459zM364 921l-28 -142h-127l28 142h127zM579 921l-28 -142h-128l29 142h127z" />
    <glyph glyph-name="afii10051" unicode="&#x402;" horiz-adv-x="687" 
d="M650 250q0 -100 -72 -175t-198 -75h-38l30 147h15q49 0 72.5 30t23.5 58q0 66 -59 66h-86l-61 -301h-166l113 565h-137l30 147h496l-30 -147h-193l-23 -117h86q88 0 142.5 -53t54.5 -145z" />
    <glyph glyph-name="afii10052" unicode="&#x403;" horiz-adv-x="534" 
d="M598 712l-29 -146h-274l-114 -566h-166l143 712h440zM550 957l-132 -177h-117l106 177h143z" />
    <glyph glyph-name="afii10053" unicode="&#x404;" horiz-adv-x="583" 
d="M600 491h-166q-2 81 -69 81q-41 0 -72 -31q-26 -26 -47 -108h173l-27 -138h-173q-8 -46 -8 -79q0 -36 19.5 -56t52.5 -20q68 0 100 81h171q-38 -114 -112 -170.5t-172 -56.5q-107 0 -166.5 61t-59.5 147q0 59 19 154q15 77 25 116t31 85t51 78q78 83 207 83
q109 0 166 -64t57 -163z" />
    <glyph glyph-name="afii10054" unicode="&#x405;" horiz-adv-x="565" 
d="M590 629l-116 -102q-37 46 -116 46q-48 0 -77.5 -24.5t-29.5 -53.5q0 -18 10.5 -29.5t20.5 -15t30 -9.5l54 -14q92 -23 129 -68t37 -124q0 -121 -85 -181t-210 -60q-90 0 -148 22.5t-104 75.5l120 105q49 -56 147 -56q48 0 80.5 23t32.5 54q0 27 -14 40t-46 21l-54 14
q-166 43 -166 175q0 115 81 182.5t211 67.5q144 0 213 -89z" />
    <glyph glyph-name="afii10055" unicode="&#x406;" horiz-adv-x="303" 
d="M324 712l-143 -712h-166l143 712h166z" />
    <glyph glyph-name="afii10056" unicode="&#x407;" horiz-adv-x="303" 
d="M324 712l-143 -712h-166l143 712h166zM234 921l-28 -142h-127l28 142h127zM449 921l-28 -142h-128l29 142h127z" />
    <glyph glyph-name="afii10057" unicode="&#x408;" horiz-adv-x="490" 
d="M520 712l-96 -480q-12 -62 -39.5 -108.5t-56.5 -70.5t-65.5 -38t-60.5 -17.5t-48 -3.5q-70 0 -115 20t-80 63l119 102q30 -39 77 -39q84 0 104 98l95 474h166z" />
    <glyph glyph-name="afii10058" unicode="&#x409;" horiz-adv-x="946" 
d="M909 250q0 -100 -72 -175t-198 -75h-269l113 565h-123l-40 -195q-30 -147 -70.5 -228t-92.5 -111.5t-133 -30.5h-67l28 146h21q52 0 86 43.5t60 170.5l72 352h455l-53 -264h86q88 0 142.5 -53t54.5 -145zM742 235q0 66 -59 66h-86l-31 -154h80q49 0 72.5 30t23.5 58z" />
    <glyph glyph-name="afii10059" unicode="&#x40a;" horiz-adv-x="934" 
d="M897 250q0 -100 -72 -175t-198 -75h-269l61 301h-177l-61 -301h-166l143 712h166l-52 -264h177l52 264h166l-53 -264h86q88 0 142.5 -53t54.5 -145zM730 235q0 66 -59 66h-86l-31 -154h80q49 0 72.5 30t23.5 58z" />
    <glyph glyph-name="afii10060" unicode="&#x40b;" horiz-adv-x="709" 
d="M649 255q0 -31 -6 -61l-39 -194h-166l41 204q4 22 4 35q0 62 -62 62h-83l-61 -301h-166l113 565h-137l30 147h496l-30 -147h-193l-23 -117h86q90 0 143 -50.5t53 -142.5z" />
    <glyph glyph-name="afii10061" unicode="&#x40c;" horiz-adv-x="642" 
d="M697 712l-268 -335l144 -377h-195l-121 374l246 338h194zM324 712l-143 -712h-166l143 712h166zM621 957l-132 -177h-117l106 177h143z" />
    <glyph glyph-name="uni040D" unicode="&#x40d;" horiz-adv-x="667" 
d="M687 712l-143 -712h-166l74 357l-299 -357h-138l143 712h166l-71 -358l296 358h138zM495 780h-108l-72 177h142z" />
    <glyph glyph-name="afii10062" unicode="&#x40e;" horiz-adv-x="589" 
d="M672 712l-359 -578q-47 -76 -95.5 -105t-128.5 -29h-67l28 146h46q60 0 90 50l27 44l-124 472h178l54 -316l168 316h183zM568 892q-14 -82 -61 -114t-120 -32q-74 0 -111 32.5t-37 79.5q0 18 3 34h111q-1 -9 -1 -14q0 -19 12.5 -29t31.5 -10q45 0 57 53h115z" />
    <glyph glyph-name="afii10145" unicode="&#x40f;" horiz-adv-x="647" 
d="M667 712l-143 -712h-175l-28 -144h-159l28 144h-175l143 712h166l-113 -565h177l113 565h166z" />
    <glyph glyph-name="afii10017" unicode="&#x410;" horiz-adv-x="622" 
d="M569 0h-169l-10 112h-211l-55 -112h-177l388 712h129zM377 247l-22 210l-108 -210h130z" />
    <glyph glyph-name="afii10018" unicode="&#x411;" horiz-adv-x="603" 
d="M617 712l-29 -146h-293l-24 -118h93q88 0 142.5 -53t54.5 -145q0 -100 -72 -175t-198 -75h-276l143 712h459zM394 235q0 66 -59 66h-93l-31 -154h87q49 0 72.5 30t23.5 58z" />
    <glyph glyph-name="afii10019" unicode="&#x412;" horiz-adv-x="620" 
d="M616 545q0 -122 -107 -185q30 -24 45 -50t15 -70q0 -108 -70.5 -174t-176.5 -66h-307l143 712h269q88 0 138.5 -45.5t50.5 -121.5zM401 232q0 23 -13 39t-41 16h-108l-28 -140h106q40 0 62 24.5t22 60.5zM447 512q0 53 -51 53h-101l-27 -131h98q43 0 62 25.5t19 52.5z
" />
    <glyph glyph-name="afii10020" unicode="&#x413;" horiz-adv-x="534" 
d="M598 712l-29 -146h-274l-114 -566h-166l143 712h440z" />
    <glyph glyph-name="afii10021" unicode="&#x414;" horiz-adv-x="684" 
d="M675 712l-114 -565h81l-58 -291h-159l28 144h-337l-28 -144h-159l57 291h65q58 102 98 223t76 306l7 36h443zM480 566h-117l-8 -39q-43 -209 -137 -380h178z" />
    <glyph glyph-name="afii10022" unicode="&#x415;" horiz-adv-x="581" 
d="M617 712l-29 -146h-293l-27 -134h253l-29 -146h-253l-28 -140h299l-29 -146h-466l143 712h459z" />
    <glyph glyph-name="afii10024" unicode="&#x416;" horiz-adv-x="949" 
d="M1004 712l-258 -335l134 -377h-195l-111 374l236 338h194zM406 375l-260 -375h-201l292 377l-120 335h190zM641 712l-143 -712h-166l143 712h166z" />
    <glyph glyph-name="afii10025" unicode="&#x417;" horiz-adv-x="571" 
d="M566 535q0 -113 -106 -175q63 -44 63 -122q0 -112 -73 -178t-192 -66t-179.5 63.5t-60.5 163.5h166q0 -37 20 -59t60 -22q42 0 65 25t23 67q0 63 -69 63h-91l27 138h92q45 0 65.5 23t20.5 54q0 27 -17 44.5t-49 17.5q-73 0 -93 -81h-166q35 118 101.5 172.5t180.5 54.5
q96 0 154 -51.5t58 -131.5z" />
    <glyph glyph-name="afii10026" unicode="&#x418;" horiz-adv-x="667" 
d="M687 712l-143 -712h-166l74 357l-299 -357h-138l143 712h166l-71 -358l296 358h138z" />
    <glyph glyph-name="afii10027" unicode="&#x419;" horiz-adv-x="667" 
d="M687 712l-143 -712h-166l74 357l-299 -357h-138l143 712h166l-71 -358l296 358h138zM615 892q-14 -82 -61 -114t-120 -32q-74 0 -111 32.5t-37 79.5q0 18 3 34h111q-1 -9 -1 -14q0 -19 12.5 -29t31.5 -10q45 0 57 53h115z" />
    <glyph glyph-name="afii10028" unicode="&#x41a;" horiz-adv-x="642" 
d="M697 712l-268 -335l144 -377h-195l-121 374l246 338h194zM324 712l-143 -712h-166l143 712h166z" />
    <glyph glyph-name="afii10029" unicode="&#x41b;" horiz-adv-x="659" 
d="M679 712l-143 -712h-166l113 565h-123l-40 -195q-30 -147 -70.5 -228t-92.5 -111.5t-133 -30.5h-67l28 146h21q52 0 86 43.5t60 170.5l72 352h455z" />
    <glyph glyph-name="afii10030" unicode="&#x41c;" horiz-adv-x="769" 
d="M789 712l-143 -712h-166l70 351l-127 -176h-106l-65 176l-71 -351h-166l143 712h155l91 -314l222 314h163z" />
    <glyph glyph-name="afii10031" unicode="&#x41d;" horiz-adv-x="647" 
d="M667 712l-143 -712h-166l58 287h-177l-58 -287h-166l143 712h166l-55 -278h177l55 278h166z" />
    <glyph glyph-name="afii10032" unicode="&#x41e;" horiz-adv-x="608" 
d="M599 510q0 -59 -19 -154q-15 -77 -25 -116t-31 -85t-51 -78q-78 -83 -205 -83q-106 0 -165 61t-59 147q0 59 19 154q15 77 25 116t31 85t51 78q78 83 205 83q106 0 165 -61t59 -147zM432 496q0 36 -19.5 56t-50.5 20q-41 0 -71 -33q-31 -34 -61 -183q-19 -95 -19 -140
q0 -36 19.5 -56t50.5 -20q41 0 71 33q31 34 61 183q19 95 19 140z" />
    <glyph glyph-name="afii10033" unicode="&#x41f;" horiz-adv-x="647" 
d="M667 712l-143 -712h-166l113 565h-177l-113 -565h-166l143 712h509z" />
    <glyph glyph-name="afii10034" unicode="&#x420;" horiz-adv-x="596" 
d="M614 514q0 -100 -72 -175t-198 -75h-110l-53 -264h-166l143 712h259q88 0 142.5 -53t54.5 -145zM447 499q0 66 -59 66h-93l-31 -154h87q49 0 72.5 30t23.5 58z" />
    <glyph glyph-name="afii10035" unicode="&#x421;" horiz-adv-x="583" 
d="M600 491h-166q-2 81 -69 81q-41 0 -72 -31q-33 -33 -63 -185q-19 -95 -19 -140q0 -36 19.5 -56t52.5 -20q68 0 100 81h171q-38 -114 -112 -170.5t-172 -56.5q-107 0 -166.5 61t-59.5 147q0 59 19 154q15 77 25 116t31 85t51 78q78 83 207 83q109 0 166 -64t57 -163z" />
    <glyph glyph-name="afii10036" unicode="&#x422;" horiz-adv-x="557" 
d="M616 712l-30 -147h-163l-113 -565h-166l113 565h-170l30 147h499z" />
    <glyph glyph-name="afii10037" unicode="&#x423;" horiz-adv-x="589" 
d="M672 712l-359 -578q-47 -76 -95.5 -105t-128.5 -29h-67l28 146h46q60 0 90 50l27 44l-124 472h178l54 -316l168 316h183z" />
    <glyph glyph-name="afii10038" unicode="&#x424;" horiz-adv-x="828" 
d="M811 471q0 -54 -8 -99q-15 -83 -40.5 -132.5t-73.5 -90.5q-37 -32 -101.5 -51t-129.5 -19l-17 -85h-166l17 85q-104 6 -168.5 57t-64.5 147q0 54 8 99q15 83 40.5 132.5t73.5 90.5q37 32 101.5 51t129.5 19l15 73h166l-15 -73q104 -6 168.5 -57t64.5 -147zM643 442
q0 41 -27 62.5t-74 22.5l-60 -300q50 0 86 22q49 31 69 128q6 30 6 65zM388 527q-50 0 -86 -22q-49 -31 -69 -128q-6 -30 -6 -65q0 -41 27 -62.5t74 -22.5z" />
    <glyph glyph-name="afii10039" unicode="&#x425;" horiz-adv-x="610" 
d="M680 712l-264 -352l144 -360h-187l-74 224l-156 -224h-193l281 370l-134 342h186l65 -206l140 206h192z" />
    <glyph glyph-name="afii10040" unicode="&#x426;" horiz-adv-x="676" 
d="M667 712l-113 -565h76l-58 -291h-159l28 144h-426l143 712h166l-113 -565h177l113 565h166z" />
    <glyph glyph-name="afii10041" unicode="&#x427;" horiz-adv-x="618" 
d="M638 712l-143 -712h-166l50 253q-70 -15 -139 -15q-70 0 -115.5 36t-45.5 98q0 20 6 52l58 288h166l-51 -253q-4 -20 -4 -30q0 -43 61 -43q49 0 93 9l64 317h166z" />
    <glyph glyph-name="afii10042" unicode="&#x428;" horiz-adv-x="932" 
d="M952 712l-143 -712h-794l143 712h166l-113 -565h148l113 565h166l-113 -565h148l113 565h166z" />
    <glyph glyph-name="afii10043" unicode="&#x429;" horiz-adv-x="961" 
d="M952 712l-113 -565h76l-58 -291h-159l28 144h-711l143 712h166l-113 -565h148l113 565h166l-113 -565h148l113 565h166z" />
    <glyph glyph-name="afii10044" unicode="&#x42a;" horiz-adv-x="687" 
d="M650 250q0 -100 -72 -175t-198 -75h-269l113 565h-137l30 147h303l-53 -264h86q88 0 142.5 -53t54.5 -145zM483 235q0 66 -59 66h-86l-31 -154h80q49 0 72.5 30t23.5 58z" />
    <glyph glyph-name="afii10045" unicode="&#x42b;" horiz-adv-x="870" 
d="M554 250q0 -100 -72 -175t-198 -75h-269l143 712h166l-53 -264h86q88 0 142.5 -53t54.5 -145zM387 235q0 66 -59 66h-86l-31 -154h80q49 0 72.5 30t23.5 58zM890 712l-143 -712h-166l143 712h166z" />
    <glyph glyph-name="afii10046" unicode="&#x42c;" horiz-adv-x="591" 
d="M554 250q0 -100 -72 -175t-198 -75h-269l143 712h166l-53 -264h86q88 0 142.5 -53t54.5 -145zM387 235q0 66 -59 66h-86l-31 -154h80q49 0 72.5 30t23.5 58z" />
    <glyph glyph-name="afii10047" unicode="&#x42d;" horiz-adv-x="583" 
d="M574 510q0 -59 -19 -154q-16 -82 -24.5 -117.5t-29.5 -82.5t-51 -79q-78 -83 -206 -83q-113 0 -171 63t-58 164h171q2 -81 67 -81q42 0 73 31q26 27 48 124h-172l28 138h171q6 46 6 63q0 37 -18.5 56.5t-53.5 19.5q-67 0 -96 -81h-172q34 115 109 171t175 56
q105 0 164 -61t59 -147z" />
    <glyph glyph-name="afii10048" unicode="&#x42e;" horiz-adv-x="876" 
d="M867 510q0 -59 -19 -154q-15 -77 -25 -116t-31 -85t-51 -78q-78 -83 -205 -83q-106 0 -165 61t-59 147q0 34 7 84h-81l-57 -286h-166l143 712h166l-56 -280h79q31 140 91 203q78 83 205 83q106 0 165 -61t59 -147zM700 496q0 36 -19.5 56t-50.5 20q-41 0 -71 -33
q-31 -34 -61 -183q-19 -95 -19 -140q0 -36 19.5 -56t50.5 -20q41 0 71 33q31 34 61 183q19 95 19 140z" />
    <glyph glyph-name="afii10049" unicode="&#x42f;" horiz-adv-x="616" 
d="M636 712l-143 -712h-166l53 264h-64l-168 -264h-184l198 308q-65 54 -65 154t72 175t198 75h269zM440 565h-80q-49 0 -72.5 -30t-23.5 -58q0 -66 59 -66h86z" />
    <glyph glyph-name="afii10065" unicode="&#x430;" horiz-adv-x="513" 
d="M484 389q0 -20 -6 -50l-68 -339h-150l9 44q-49 -49 -117 -49q-70 0 -110 44t-40 103q0 83 48 129q55 54 157 54h112l4 19q3 12 3 23q0 47 -64 47q-63 0 -100 -43l-78 104q73 69 203 69q82 0 139.5 -38t57.5 -117zM298 221h-76q-32 0 -49.5 -18t-17.5 -43
q0 -17 12.5 -28.5t34.5 -11.5q39 0 67 28q19 19 26 58z" />
    <glyph glyph-name="afii10066" unicode="&#x431;" horiz-adv-x="509" 
d="M517 720l-29 -135q-112 0 -170 -17q-37 -11 -60.5 -35.5t-38.5 -73.5q46 55 127 55q71 0 102 -41.5t31 -120.5q0 -38 -11 -93q-17 -83 -36.5 -127.5t-56.5 -81.5q-56 -56 -164 -56q-79 0 -129 45.5t-50 127.5q0 45 14 115q35 177 67 254t78 114q48 38 123 54t203 16z
M321 334q0 46 -42 46q-25 0 -42 -17q-24 -24 -40 -104q-8 -40 -8 -75q0 -46 42 -46q25 0 42 17q24 24 40 104q8 40 8 75z" />
    <glyph glyph-name="afii10067" unicode="&#x432;" horiz-adv-x="539" 
d="M515 411q0 -93 -80 -139q22 -19 33.5 -38.5t11.5 -52.5q0 -82 -53 -131.5t-133 -49.5h-288l107 538h260q67 0 104.5 -34.5t37.5 -92.5zM321 175q0 40 -38 40h-78l-20 -99h77q28 0 43.5 17t15.5 42zM356 385q0 37 -36 37h-74l-18 -91h71q30 0 43.5 17.5t13.5 36.5z" />
    <glyph glyph-name="afii10068" unicode="&#x433;" horiz-adv-x="425" 
d="M465 538l-27 -141h-196l-80 -397h-156l107 538h352z" />
    <glyph glyph-name="afii10069" unicode="&#x434;" horiz-adv-x="568" 
d="M544 538l-80 -397h60l-51 -255h-146l23 114h-250l-23 -114h-146l51 255h50q41 79 65.5 153t51.5 209l7 35h388zM359 397h-82l-8 -40q-21 -101 -83 -216h122z" />
    <glyph glyph-name="afii10070" unicode="&#x435;" horiz-adv-x="533" 
d="M506 348q0 -53 -18 -129h-310q-2 -14 -2 -22q0 -33 20 -52.5t59 -19.5q63 0 115 50l78 -102q-82 -79 -212 -79q-36 0 -70 9t-66.5 29.5t-52 59.5t-19.5 93q0 98 30.5 178t94.5 130.5t152 50.5t144.5 -52.5t56.5 -143.5zM358 348q0 31 -16 49.5t-46 18.5q-71 0 -98 -94
h157q3 12 3 26z" />
    <glyph glyph-name="afii10072" unicode="&#x436;" horiz-adv-x="799" 
d="M528 538l-107 -538h-156l107 538h156zM478 283l186 255h179l-211 -252l116 -286h-180zM320 280l-194 -280h-187l230 295l-106 243h164z" />
    <glyph glyph-name="afii10073" unicode="&#x437;" horiz-adv-x="485" 
d="M458 398q0 -84 -82 -120q51 -31 51 -99q0 -86 -61.5 -135.5t-186.5 -49.5q-118 0 -195 81l101 99q42 -48 103 -48q80 0 80 52q0 38 -49 38h-67l22 114h68q30 0 46 11.5t16 31.5q0 42 -65 42q-35 0 -60 -11t-53 -37l-70 95q51 45 98 63t110 18q93 0 143.5 -38t50.5 -107z
" />
    <glyph glyph-name="afii10074" unicode="&#x438;" horiz-adv-x="559" 
d="M554 538l-107 -538h-156l52 260l-181 -260h-156l107 538h156l-51 -260l181 260h155z" />
    <glyph glyph-name="afii10075" unicode="&#x439;" horiz-adv-x="559" 
d="M554 538l-107 -538h-156l52 260l-181 -260h-156l107 538h156l-51 -260l181 260h155zM526 726q-14 -82 -61 -114t-120 -32q-74 0 -111 32.5t-37 79.5q0 18 3 34h111q-1 -9 -1 -14q0 -19 12.5 -29t31.5 -10q45 0 57 53h115z" />
    <glyph glyph-name="afii10076" unicode="&#x43a;" horiz-adv-x="542" 
d="M269 538l-107 -538h-156l107 538h156zM219 283l187 255h179l-212 -252l113 -286h-180z" />
    <glyph glyph-name="afii10077" unicode="&#x43b;" horiz-adv-x="552" 
d="M547 538l-107 -538h-156l78 397h-87l-21 -103q-35 -169 -86.5 -231.5t-141.5 -62.5h-73l25 128h16q16 0 24.5 1.5t22 10t23 26t20.5 51t21 83.5l48 238h394z" />
    <glyph glyph-name="afii10078" unicode="&#x43c;" horiz-adv-x="655" 
d="M650 538l-107 -538h-156l54 268l-100 -143h-81l-44 143l-54 -268h-156l107 538h150l69 -237l161 237h157z" />
    <glyph glyph-name="afii10079" unicode="&#x43d;" horiz-adv-x="541" 
d="M536 538l-107 -538h-156l41 204h-112l-41 -204h-156l107 538h156l-38 -193h112l38 193h156z" />
    <glyph glyph-name="afii10080" unicode="&#x43e;" horiz-adv-x="522" 
d="M492 366q0 -42 -11 -97q-17 -83 -37 -129t-56 -82q-64 -64 -171 -64q-76 0 -131.5 46.5t-55.5 131.5q0 42 11 97q17 83 37 129t56 82q64 64 171 64q76 0 131.5 -46.5t55.5 -131.5zM337 347q0 56 -48 56q-30 0 -48 -18q-27 -26 -45 -116q-11 -55 -11 -78q0 -56 48 -56
q30 0 48 18q27 26 45 116q11 55 11 78z" />
    <glyph glyph-name="afii10081" unicode="&#x43f;" horiz-adv-x="571" 
d="M538 538l-108 -538h-156l79 397h-112l-79 -397h-156l108 538h424z" />
    <glyph glyph-name="afii10082" unicode="&#x440;" horiz-adv-x="541" 
d="M518 405q0 -45 -18 -136q-19 -95 -37 -146t-45 -78q-51 -51 -133 -51q-75 0 -115 49l-43 -217h-156l142 712h150l-9 -45q46 51 123 51q40 0 69 -14t44 -36t21.5 -44.5t6.5 -44.5zM355 350q0 53 -47 53q-41 0 -59.5 -30t-33.5 -104q-11 -55 -11 -81q0 -53 47 -53
q41 0 59.5 30t33.5 104q11 55 11 81z" />
    <glyph glyph-name="afii10083" unicode="&#x441;" horiz-adv-x="453" 
d="M470 472l-118 -104q-27 35 -57 35q-31 0 -54 -24q-34 -36 -48 -110q-7 -37 -7 -63q0 -71 54 -71q38 0 74 36l86 -113q-72 -64 -177 -64q-48 0 -90 18t-73 63t-31 110q0 41 8 84q50 275 273 275q101 0 160 -72z" />
    <glyph glyph-name="afii10084" unicode="&#x442;" horiz-adv-x="443" 
d="M486 538l-27 -141h-134l-80 -397h-156l80 397h-134l27 141h424z" />
    <glyph glyph-name="afii10085" unicode="&#x443;" horiz-adv-x="488" 
d="M546 538l-324 -602q-22 -41 -44 -62q-53 -54 -136 -54h-58l29 142h32q20 0 33.5 11.5t26.5 36.5l23 43l-75 485h154l30 -300l145 300h164z" />
    <glyph glyph-name="afii10086" unicode="&#x444;" horiz-adv-x="711" 
d="M683 355q0 -51 -9 -96q-14 -75 -36.5 -117t-63.5 -81q-29 -27 -84.5 -45.5t-110.5 -18.5l-34 -171h-156l34 172q-79 4 -137 54t-58 131q0 51 9 96q14 75 36.5 117t63.5 81q29 27 84.5 45.5t110.5 18.5l34 171h156l-34 -172q79 -4 137 -54t58 -131zM307 403q-38 0 -63 -20
q-34 -26 -53 -114q-6 -27 -6 -65q0 -33 18 -50.5t50 -18.5zM526 334q0 33 -18 50.5t-50 18.5l-54 -268q38 0 63 20q34 26 53 114q6 27 6 65z" />
    <glyph glyph-name="afii10087" unicode="&#x445;" 
d="M568 538l-217 -269l128 -269h-180l-55 143l-103 -143h-193l230 276l-124 262h180l51 -137l93 137h190z" />
    <glyph glyph-name="afii10088" unicode="&#x446;" horiz-adv-x="562" 
d="M538 538l-79 -397h60l-51 -255h-146l23 114h-339l107 538h156l-78 -397h112l79 397h156z" />
    <glyph glyph-name="afii10089" unicode="&#x447;" horiz-adv-x="518" 
d="M513 538l-107 -538h-156l35 180q-59 -13 -110 -13q-58 0 -92 31t-34 84q0 18 5 43l43 213h156l-34 -169q-3 -13 -3 -27q0 -36 41 -36q24 0 54 7l46 225h156z" />
    <glyph glyph-name="afii10090" unicode="&#x448;" horiz-adv-x="798" 
d="M793 538l-107 -538h-680l107 538h156l-78 -397h106l78 397h156l-78 -397h106l78 397h156z" />
    <glyph glyph-name="afii10091" unicode="&#x449;" horiz-adv-x="817" 
d="M793 538l-79 -397h60l-51 -255h-146l23 114h-594l107 538h156l-78 -397h106l78 397h156l-78 -397h106l78 397h156z" />
    <glyph glyph-name="afii10092" unicode="&#x44a;" horiz-adv-x="575" 
d="M534 198q0 -79 -57 -138.5t-156 -59.5h-260l79 397h-105l27 141h263l-37 -184h90q69 0 112.5 -42t43.5 -114zM381 184q0 45 -40 45h-78l-21 -104h74q34 0 49.5 20t15.5 39z" />
    <glyph glyph-name="afii10093" unicode="&#x44b;" horiz-adv-x="756" 
d="M478 198q0 -79 -57 -138.5t-156 -59.5h-260l108 538h156l-37 -184h90q69 0 112.5 -42t43.5 -114zM325 184q0 45 -40 45h-78l-21 -104h74q34 0 49.5 20t15.5 39zM751 538l-108 -538h-156l108 538h156z" />
    <glyph glyph-name="afii10094" unicode="&#x44c;" horiz-adv-x="519" 
d="M478 198q0 -79 -57 -138.5t-156 -59.5h-260l108 538h156l-37 -184h90q69 0 112.5 -42t43.5 -114zM325 184q0 45 -40 45h-78l-21 -104h74q34 0 49.5 20t15.5 39z" />
    <glyph glyph-name="afii10095" unicode="&#x44d;" horiz-adv-x="453" 
d="M422 349q0 -54 -9 -99q-28 -138 -86.5 -197t-167.5 -59q-67 0 -106.5 15.5t-78.5 52.5l109 107q34 -38 82 -38q36 0 59 24q22 23 30 64h-129l21 103h127q1 8 1 22q0 26 -17 44.5t-48 18.5q-45 0 -79 -37l-81 101q71 73 174 73q85 0 142 -50t57 -145z" />
    <glyph glyph-name="afii10096" unicode="&#x44e;" horiz-adv-x="763" 
d="M733 366q0 -42 -11 -97q-17 -83 -37 -129t-56 -82q-64 -64 -171 -64q-76 0 -131.5 46.5t-55.5 131.5q0 19 2 35h-70l-41 -207h-156l107 538h156l-39 -196h69q23 85 76 138q64 64 171 64q76 0 131.5 -46.5t55.5 -131.5zM578 347q0 56 -48 56q-30 0 -48 -18
q-27 -26 -45 -116q-11 -55 -11 -78q0 -56 48 -56q30 0 48 18q27 26 45 116q11 55 11 78z" />
    <glyph glyph-name="afii10097" unicode="&#x44f;" horiz-adv-x="534" 
d="M529 538l-107 -538h-156l36 184h-63l-106 -184h-165l143 215q-55 44 -55 125q0 79 57 138.5t156 59.5h260zM348 413h-74q-34 0 -49.5 -20t-15.5 -39q0 -45 40 -45h78z" />
    <glyph glyph-name="uni0450" unicode="&#x450;" horiz-adv-x="533" 
d="M506 348q0 -53 -18 -129h-310q-2 -14 -2 -22q0 -33 20 -52.5t59 -19.5q63 0 115 50l78 -102q-82 -79 -212 -79q-36 0 -70 9t-66.5 29.5t-52 59.5t-19.5 93q0 98 30.5 178t94.5 130.5t152 50.5t144.5 -52.5t56.5 -143.5zM358 348q0 31 -16 49.5t-46 18.5q-71 0 -98 -94
h157q3 12 3 26zM389 608h-108l-72 177h142z" />
    <glyph glyph-name="afii10071" unicode="&#x451;" horiz-adv-x="533" 
d="M506 348q0 -53 -18 -129h-310q-2 -14 -2 -22q0 -33 20 -52.5t59 -19.5q63 0 115 50l78 -102q-82 -79 -212 -79q-36 0 -70 9t-66.5 29.5t-52 59.5t-19.5 93q0 98 30.5 178t94.5 130.5t152 50.5t144.5 -52.5t56.5 -143.5zM358 348q0 31 -16 49.5t-46 18.5q-71 0 -98 -94
h157q3 12 3 26zM318 749l-28 -142h-127l28 142h127zM533 749l-28 -142h-127l28 142h127z" />
    <glyph glyph-name="afii10099" unicode="&#x452;" horiz-adv-x="548" 
d="M515 386q0 -30 -7 -62l-69 -345q-15 -73 -61.5 -116t-119.5 -43h-93l27 132h51q17 0 28 11t14 28l65 324q3 13 3 27q0 25 -14 38t-31 13q-67 0 -83 -78l-63 -315h-156l113 568h-44l19 96h44l10 48h156l-10 -48h180l-19 -96h-180l-15 -75q52 41 120 41q51 0 93 -36
t42 -112z" />
    <glyph glyph-name="afii10100" unicode="&#x453;" horiz-adv-x="425" 
d="M465 538l-27 -141h-196l-80 -397h-156l107 538h352zM469 785l-132 -177h-117l106 177h143z" />
    <glyph glyph-name="afii10101" unicode="&#x454;" horiz-adv-x="462" 
d="M479 471l-115 -101q-25 37 -68 37q-37 0 -61 -24q-20 -20 -32 -61h128l-21 -103h-128q-2 -10 -2 -23q0 -29 16 -47t48 -18q45 0 82 37l84 -110q-70 -64 -182 -64q-78 0 -138.5 48t-60.5 143q0 41 8 84q50 275 277 275q108 0 165 -73z" />
    <glyph glyph-name="afii10102" unicode="&#x455;" horiz-adv-x="477" 
d="M473 474l-106 -94q-13 17 -39.5 26.5t-50.5 9.5q-36 0 -54 -11.5t-18 -29.5q0 -23 33 -29l68 -12q130 -23 130 -144q0 -81 -60 -137q-62 -59 -189 -59q-136 0 -212 82l111 98q39 -46 111 -46q39 0 61.5 13t22.5 31q0 26 -37 32l-68 12q-64 11 -95.5 45.5t-31.5 78.5
q0 84 57 141q63 63 184 63q118 0 183 -70z" />
    <glyph glyph-name="afii10103" unicode="&#x456;" horiz-adv-x="274" 
d="M264 515l-103 -515h-156l103 515h156zM303 712l-24 -121h-156l24 121h156z" />
    <glyph glyph-name="afii10104" unicode="&#x457;" horiz-adv-x="274" 
d="M264 515l-103 -515h-156l103 515h156zM186 749l-28 -142h-127l28 142h127zM401 749l-28 -142h-127l28 142h127z" />
    <glyph glyph-name="afii10105" unicode="&#x458;" horiz-adv-x="274" 
d="M265 515l-107 -536q-15 -73 -61.5 -116t-119.5 -43h-93l27 132h51q16 0 27.5 11t14.5 28l105 524h156zM304 712l-24 -121h-156l24 121h156z" />
    <glyph glyph-name="afii10106" unicode="&#x459;" horiz-adv-x="798" 
d="M757 198q0 -79 -57 -138.5t-156 -59.5h-260l78 397h-87l-21 -103q-35 -169 -86.5 -231.5t-141.5 -62.5h-73l25 128h16q21 0 32.5 4t27 20t28 54.5t25.5 102.5l46 229h394l-36 -184h90q69 0 112.5 -42t43.5 -114zM604 184q0 45 -40 45h-78l-21 -104h74q34 0 49.5 20
t15.5 39z" />
    <glyph glyph-name="afii10107" unicode="&#x45a;" horiz-adv-x="787" 
d="M746 198q0 -79 -57 -138.5t-156 -59.5h-260l42 213h-112l-42 -213h-156l108 538h156l-37 -184h112l37 184h156l-37 -184h90q69 0 112.5 -42t43.5 -114zM593 184q0 45 -40 45h-78l-21 -104h74q34 0 49.5 20t15.5 39z" />
    <glyph glyph-name="afii10108" unicode="&#x45b;" horiz-adv-x="548" 
d="M515 386q0 -30 -7 -62l-65 -324h-156l63 315q3 13 3 27q0 25 -14 38t-31 13q-67 0 -83 -78l-63 -315h-156l113 568h-44l19 96h44l10 48h156l-10 -48h180l-19 -96h-180l-15 -75q52 41 120 41q51 0 93 -36t42 -112z" />
    <glyph glyph-name="afii10109" unicode="&#x45c;" horiz-adv-x="542" 
d="M269 538l-107 -538h-156l107 538h156zM219 283l187 255h179l-212 -252l113 -286h-180zM544 785l-132 -177h-117l106 177h143z" />
    <glyph glyph-name="uni045D" unicode="&#x45d;" horiz-adv-x="559" 
d="M554 538l-107 -538h-156l52 260l-181 -260h-156l107 538h156l-51 -260l181 260h155zM404 608h-108l-72 177h142z" />
    <glyph glyph-name="afii10110" unicode="&#x45e;" horiz-adv-x="488" 
d="M546 538l-324 -602q-22 -41 -44 -62q-53 -54 -136 -54h-58l29 142h32q20 0 33.5 11.5t26.5 36.5l23 43l-75 485h154l30 -300l145 300h164zM488 726q-14 -82 -61 -114t-120 -32q-74 0 -111 32.5t-37 79.5q0 18 3 34h111q-1 -9 -1 -14q0 -19 12.5 -29t31.5 -10q45 0 57 53
h115z" />
    <glyph glyph-name="afii10193" unicode="&#x45f;" horiz-adv-x="542" 
d="M537 538l-108 -538h-139l-23 -114h-146l23 114h-139l108 538h156l-79 -397h112l79 397h156z" />
    <glyph glyph-name="afii10146" unicode="&#x462;" horiz-adv-x="616" 
d="M579 250q0 -100 -72 -175t-198 -75h-269l107 532h-62l25 126h62l11 54h166l-11 -54h85l-25 -126h-85l-17 -84h86q88 0 142.5 -53t54.5 -145zM412 235q0 66 -59 66h-86l-31 -154h80q49 0 72.5 30t23.5 58z" />
    <glyph glyph-name="afii10194" unicode="&#x463;" horiz-adv-x="549" 
d="M508 198q0 -79 -57 -138.5t-156 -59.5h-260l80 400h-45l19 96h45l9 42h156l-9 -42h66l-19 -96h-66l-9 -46h90q69 0 112.5 -42t43.5 -114zM355 184q0 45 -40 45h-78l-21 -104h74q34 0 49.5 20t15.5 39z" />
    <glyph glyph-name="afii10147" unicode="&#x472;" horiz-adv-x="608" 
d="M599 510q0 -59 -19 -154q-15 -77 -25 -116t-31 -85t-51 -78q-78 -83 -205 -83q-106 0 -165 61t-59 147q0 59 19 154q15 77 25 116t31 85t51 78q78 83 205 83q106 0 165 -61t59 -147zM400 296h-181q-8 -46 -8 -80q0 -36 19.5 -56t50.5 -20q41 0 71 33q24 26 48 123z
M432 496q0 36 -19.5 56t-50.5 20q-41 0 -71 -33q-25 -26 -44 -105h179q6 35 6 62z" />
    <glyph glyph-name="afii10195" unicode="&#x473;" horiz-adv-x="522" 
d="M492 366q0 -42 -11 -97q-17 -83 -37 -129t-56 -82q-64 -64 -171 -64q-76 0 -131.5 46.5t-55.5 131.5q0 42 11 97q17 83 37 129t56 82q64 64 171 64q76 0 131.5 -46.5t55.5 -131.5zM314 219h-127q-2 -16 -2 -28q0 -56 48 -56q30 0 48 18q19 19 33 66zM337 347q0 56 -48 56
q-30 0 -48 -18q-19 -19 -33 -63h127q2 13 2 25z" />
    <glyph glyph-name="afii10148" unicode="&#x474;" horiz-adv-x="571" 
d="M712 712l-27 -141h-32q-62 0 -88 -50l-266 -521h-129l-81 712h164l38 -409l130 275q34 72 88 103t136 31h67z" />
    <glyph glyph-name="afii10196" unicode="&#x475;" horiz-adv-x="495" 
d="M565 538l-29 -142h-31q-20 0 -33.5 -11.5t-26.5 -36.5l-191 -348h-119l-81 538h154l30 -300l89 184q16 34 44 62q53 54 136 54h58z" />
    <glyph glyph-name="afii10050" unicode="&#x490;" horiz-adv-x="534" 
d="M627 856l-58 -290h-274l-114 -566h-166l143 712h280l29 144h160z" />
    <glyph glyph-name="afii10098" unicode="&#x491;" horiz-adv-x="425" 
d="M489 652l-51 -255h-196l-80 -397h-156l108 538h205l24 114h146z" />
    <glyph glyph-name="uni0492" unicode="&#x492;" horiz-adv-x="561" 
d="M625 712l-29 -146h-274l-29 -144h85l-25 -126h-86l-59 -296h-166l59 296h-61l25 126h62l58 290h440z" />
    <glyph glyph-name="uni0493" unicode="&#x493;" horiz-adv-x="454" 
d="M494 538l-27 -141h-196l-11 -54h66l-19 -96h-66l-50 -247h-156l49 247h-44l19 96h44l39 195h352z" />
    <glyph glyph-name="uni0496" unicode="&#x496;" horiz-adv-x="949" 
d="M909 147l-58 -291h-159l29 144h-36l-111 374l236 338h194l-258 -335l82 -230h81zM406 375l-260 -375h-201l292 377l-120 335h190zM641 712l-143 -712h-166l143 712h166z" />
    <glyph glyph-name="uni0497" unicode="&#x497;" horiz-adv-x="799" 
d="M776 141l-51 -255h-146l23 114h-34l-90 283l186 255h179l-211 -252l59 -145h85zM320 280l-194 -280h-187l230 295l-106 243h164zM528 538l-107 -538h-156l107 538h156z" />
    <glyph glyph-name="uni049A" unicode="&#x49a;" horiz-adv-x="642" 
d="M602 147l-58 -291h-159l28 144h-35l-121 374l246 338h194l-268 -335l88 -230h85zM324 712l-143 -712h-166l143 712h166z" />
    <glyph glyph-name="uni049B" unicode="&#x49b;" horiz-adv-x="541" 
d="M514 141l-51 -255h-146l23 114h-34l-87 283l187 255h179l-212 -252l57 -145h84zM269 538l-107 -538h-156l107 538h156z" />
    <glyph glyph-name="uni049C" unicode="&#x49c;" horiz-adv-x="730" 
d="M383 306l-25 -122h-102l25 122h-39l-61 -306h-166l143 712h166l-54 -268h38l26 122h102l-25 -122h28l152 268h194l-218 -335l94 -377h-195l-55 306h-28z" />
    <glyph glyph-name="uni049D" unicode="&#x49d;" horiz-adv-x="623" 
d="M363 220h-27l-21 -107h-93l21 107h-37l-44 -220h-156l107 538h156l-38 -193h36l22 106h94l-22 -106h27l99 193h179l-162 -252l63 -286h-180z" />
    <glyph glyph-name="uni04A2" unicode="&#x4a2;" horiz-adv-x="647" 
d="M630 147l-58 -291h-159l29 144h-84l58 287h-177l-58 -287h-166l143 712h166l-55 -278h177l55 278h166l-114 -565h77z" />
    <glyph glyph-name="uni04A3" unicode="&#x4a3;" horiz-adv-x="541" 
d="M525 141l-51 -255h-146l23 114h-78l41 204h-112l-41 -204h-156l107 538h156l-38 -193h112l38 193h156l-79 -397h68z" />
    <glyph glyph-name="uni04AE" unicode="&#x4ae;" horiz-adv-x="585" 
d="M668 712l-288 -427l-57 -285h-166l58 290l-134 422h178l65 -266l161 266h183z" />
    <glyph glyph-name="uni04AF" unicode="&#x4af;" horiz-adv-x="495" 
d="M549 538l-273 -518l-38 -194h-156l39 195l-67 517h154l35 -286l140 286h166z" />
    <glyph glyph-name="uni04B0" unicode="&#x4b0;" horiz-adv-x="585" 
d="M668 712l-285 -422h67l-25 -126h-69l-33 -164h-166l33 164h-78l25 126h78l-134 422h178l65 -266l161 266h183z" />
    <glyph glyph-name="uni04B1" unicode="&#x4b1;" horiz-adv-x="495" 
d="M549 538l-272 -516h54l-19 -96h-55l-19 -100h-156l20 100h-57l19 96h57l-67 516h154l35 -286l140 286h166z" />
    <glyph glyph-name="uni04B2" unicode="&#x4b2;" horiz-adv-x="610" 
d="M589 147l-58 -291h-159l29 144h-28l-74 224l-156 -224h-193l281 370l-134 342h186l65 -206l140 206h192l-264 -352l85 -213h88z" />
    <glyph glyph-name="uni04B3" unicode="&#x4b3;" 
d="M507 141l-51 -255h-146l23 114h-34l-55 143l-103 -143h-193l230 276l-124 262h180l51 -137l93 137h190l-217 -269l61 -128h95z" />
    <glyph glyph-name="uni04B6" unicode="&#x4b6;" horiz-adv-x="618" 
d="M600 147l-58 -291h-159l29 144h-83l50 253q-70 -15 -139 -15q-70 0 -115.5 36t-45.5 98q0 20 6 52l58 288h166l-51 -253q-4 -20 -4 -30q0 -43 61 -43q49 0 93 9l64 317h166l-114 -565h76z" />
    <glyph glyph-name="uni04B7" unicode="&#x4b7;" horiz-adv-x="518" 
d="M502 141l-51 -255h-146l23 114h-78l35 180q-59 -13 -110 -13q-58 0 -92 31t-34 84q0 18 5 43l43 213h156l-34 -169q-3 -13 -3 -27q0 -36 41 -36q24 0 54 7l46 225h156l-79 -397h68z" />
    <glyph glyph-name="uni04B8" unicode="&#x4b8;" horiz-adv-x="631" 
d="M143 712h166l-51 -253q-4 -20 -4 -30q0 -21 18 -32l23 106h122l-24 -113q10 1 28 5l64 317h166l-143 -712h-166l50 253q-13 -4 -28 -6l-25 -126h-122l23 117q-73 3 -117 38.5t-44 95.5q0 17 7 52z" />
    <glyph glyph-name="uni04B9" unicode="&#x4b9;" horiz-adv-x="551" 
d="M343 405l-20 -96q14 2 21 4l46 225h156l-107 -538h-156l35 180q-13 -4 -22 -5l-21 -107h-96l19 99q-70 2 -109.5 31.5t-39.5 83.5q0 24 5 43l43 213h156l-34 -169q-3 -13 -3 -27q0 -20 12 -28l18 91h97z" />
    <glyph glyph-name="uni04BA" unicode="&#x4ba;" horiz-adv-x="618" 
d="M15 0l143 712h166l-50 -253q71 15 139 15q70 0 115.5 -36t45.5 -98q0 -20 -6 -52l-58 -288h-166l51 253q4 20 4 30q0 43 -61 43q-50 0 -93 -9l-64 -317h-166z" />
    <glyph glyph-name="uni04BB" unicode="&#x4bb;" horiz-adv-x="518" 
d="M5 0l107 538h156l-35 -180q59 13 110 13q58 0 92 -31t34 -84q0 -18 -5 -43l-43 -213h-156l34 169q3 13 3 27q0 36 -41 36q-24 0 -54 -7l-46 -225h-156z" />
    <glyph glyph-name="uni04C0" unicode="&#x4c0;" horiz-adv-x="303" 
d="M324 712l-143 -712h-166l143 712h166z" />
    <glyph glyph-name="uni04CF" unicode="&#x4cf;" horiz-adv-x="275" 
d="M304 712l-143 -712h-156l143 712h156z" />
    <glyph glyph-name="uni04D8" unicode="&#x4d8;" horiz-adv-x="612" 
d="M604 510q0 -59 -19 -154q-15 -77 -25 -116t-31 -85t-51 -78q-78 -83 -205 -83q-107 0 -168 61t-61 147q0 64 18 154l11 51h354q10 64 10 89q0 36 -19.5 56t-50.5 20q-46 0 -76 -33q-16 -18 -28 -51h-171q27 93 78 147q78 83 210 83q106 0 165 -61t59 -147zM398 269h-183
q-4 -27 -4 -53q0 -35 21.5 -55.5t53.5 -20.5q41 0 71 33q23 24 41 96z" />
    <glyph glyph-name="afii10846" unicode="&#x4d9;" horiz-adv-x="533" 
d="M27 190q0 53 18 129h310q2 14 2 22q0 33 -20 52.5t-59 19.5q-63 0 -115 -50l-78 102q82 79 212 79q36 0 70 -9t66.5 -29.5t52 -59.5t19.5 -93q0 -98 -30.5 -178t-94.5 -130.5t-152 -50.5t-144.5 52.5t-56.5 143.5zM175 190q0 -31 16 -49.5t46 -18.5q71 0 98 94h-157
q-3 -12 -3 -26z" />
    <glyph glyph-name="uni04E2" unicode="&#x4e2;" horiz-adv-x="667" 
d="M687 712l-143 -712h-166l74 357l-299 -357h-138l143 712h166l-71 -358l296 358h138zM611 888l-20 -99h-310l20 99h310z" />
    <glyph glyph-name="uni04E3" unicode="&#x4e3;" horiz-adv-x="559" 
d="M554 538l-107 -538h-156l52 260l-181 -260h-156l107 538h156l-51 -260l181 260h155zM525 722l-20 -99h-310l20 99h310z" />
    <glyph glyph-name="uni04E8" unicode="&#x4e8;" horiz-adv-x="608" 
d="M599 510q0 -59 -19 -154q-15 -77 -25 -116t-31 -85t-51 -78q-78 -83 -205 -83q-106 0 -165 61t-59 147q0 59 19 154q15 77 25 116t31 85t51 78q78 83 205 83q106 0 165 -61t59 -147zM400 296h-181q-8 -46 -8 -80q0 -36 19.5 -56t50.5 -20q41 0 71 33q24 26 48 123z
M432 496q0 36 -19.5 56t-50.5 20q-41 0 -71 -33q-25 -26 -44 -105h179q6 35 6 62z" />
    <glyph glyph-name="uni04E9" unicode="&#x4e9;" horiz-adv-x="522" 
d="M492 366q0 -42 -11 -97q-17 -83 -37 -129t-56 -82q-64 -64 -171 -64q-76 0 -131.5 46.5t-55.5 131.5q0 42 11 97q17 83 37 129t56 82q64 64 171 64q76 0 131.5 -46.5t55.5 -131.5zM314 219h-127q-2 -16 -2 -28q0 -56 48 -56q30 0 48 18q19 19 33 66zM337 347q0 56 -48 56
q-30 0 -48 -18q-19 -19 -33 -63h127q2 13 2 25z" />
    <glyph glyph-name="uni04EE" unicode="&#x4ee;" horiz-adv-x="589" 
d="M672 712l-359 -578q-47 -76 -95.5 -105t-128.5 -29h-67l28 146h46q60 0 90 50l27 44l-124 472h178l54 -316l168 316h183zM573 888l-20 -99h-310l20 99h310z" />
    <glyph glyph-name="uni04EF" unicode="&#x4ef;" horiz-adv-x="488" 
d="M546 538l-324 -602q-22 -41 -44 -62q-53 -54 -136 -54h-58l29 142h32q20 0 33.5 11.5t26.5 36.5l23 43l-75 485h154l30 -300l145 300h164zM488 722l-20 -99h-310l20 99h310z" />
    <glyph glyph-name="Wgrave" unicode="&#x1e80;" horiz-adv-x="864" 
d="M951 712l-324 -712h-135l-37 361l-186 -361h-135l-47 712h171l14 -386l188 386h118l34 -386l163 386h176zM597 780h-108l-72 177h142z" />
    <glyph glyph-name="wgrave" unicode="&#x1e81;" horiz-adv-x="738" 
d="M789 538l-255 -538h-118l-38 300l-155 -300h-122l-47 538h155l11 -284l143 284h110l33 -284l117 284h166zM487 608h-108l-72 177h142z" />
    <glyph glyph-name="Wacute" unicode="&#x1e82;" horiz-adv-x="864" 
d="M951 712l-324 -712h-135l-37 361l-186 -361h-135l-47 712h171l14 -386l188 386h118l34 -386l163 386h176zM725 957l-132 -177h-117l106 177h143z" />
    <glyph glyph-name="wacute" unicode="&#x1e83;" horiz-adv-x="738" 
d="M789 538l-255 -538h-118l-38 300l-155 -300h-122l-47 538h155l11 -284l143 284h110l33 -284l117 284h166zM622 785l-132 -177h-117l106 177h143z" />
    <glyph glyph-name="Wdieresis" unicode="&#x1e84;" horiz-adv-x="864" 
d="M951 712l-324 -712h-135l-37 361l-186 -361h-135l-47 712h171l14 -386l188 386h118l34 -386l163 386h176zM523 921l-28 -142h-127l28 142h127zM738 921l-28 -142h-128l29 142h127z" />
    <glyph glyph-name="wdieresis" unicode="&#x1e85;" horiz-adv-x="738" 
d="M789 538l-255 -538h-118l-38 300l-155 -300h-122l-47 538h155l11 -284l143 284h110l33 -284l117 284h166zM423 749l-28 -142h-127l28 142h127zM638 749l-28 -142h-127l28 142h127z" />
    <glyph glyph-name="uni1E8A" unicode="&#x1e8a;" horiz-adv-x="610" 
d="M680 712l-264 -352l144 -360h-187l-74 224l-156 -224h-193l281 370l-134 342h186l65 -206l140 206h192zM490 920l-27 -137h-128l28 137h127z" />
    <glyph glyph-name="uni1E8B" unicode="&#x1e8b;" 
d="M568 538l-217 -269l128 -269h-180l-55 143l-103 -143h-193l230 276l-124 262h180l51 -137l93 137h190zM418 748l-27 -137h-128l28 137h127z" />
    <glyph glyph-name="Ygrave" unicode="&#x1ef2;" horiz-adv-x="585" 
d="M668 712l-288 -427l-57 -285h-166l58 290l-134 422h178l65 -266l161 266h183zM435 780h-108l-72 177h142z" />
    <glyph glyph-name="ygrave" unicode="&#x1ef3;" horiz-adv-x="488" 
d="M546 538l-324 -602q-22 -41 -44 -62q-53 -54 -136 -54h-58l29 142h32q20 0 33.5 11.5t26.5 36.5l23 43l-75 485h154l30 -300l145 300h164zM358 608h-108l-72 177h142z" />
    <glyph glyph-name="uni2007" unicode="&#x2007;" 
 />
    <glyph glyph-name="uni2008" unicode="&#x2008;" horiz-adv-x="279" 
 />
    <glyph glyph-name="uni200B" unicode="&#x200b;" horiz-adv-x="0" 
 />
    <glyph glyph-name="endash" unicode="&#x2013;" 
d="M502 368l-29 -146h-435l29 146h435z" />
    <glyph glyph-name="emdash" unicode="&#x2014;" horiz-adv-x="1038" 
d="M1013 368l-29 -146h-946l29 146h946z" />
    <glyph glyph-name="afii00208" unicode="&#x2015;" horiz-adv-x="1038" 
d="M1013 368l-29 -146h-946l29 146h946z" />
    <glyph glyph-name="quoteleft" unicode="&#x2018;" horiz-adv-x="263" 
d="M323 832l-53 -266h-156l29 146z" />
    <glyph glyph-name="quoteright" unicode="&#x2019;" horiz-adv-x="263" 
d="M299 712l-29 -147l-180 -118l53 265h156z" />
    <glyph glyph-name="quotesinglbase" unicode="&#x201a;" horiz-adv-x="263" 
d="M186 147l-29 -147l-179 -118l53 265h155z" />
    <glyph glyph-name="quotedblleft" unicode="&#x201c;" horiz-adv-x="485" 
d="M322 832l-53 -266h-155l29 146zM545 832l-54 -266h-155l29 146z" />
    <glyph glyph-name="quotedblright" unicode="&#x201d;" horiz-adv-x="485" 
d="M298 712l-29 -147l-179 -118l53 265h155zM521 712l-30 -147l-179 -118l53 265h156z" />
    <glyph glyph-name="quotedblbase" unicode="&#x201e;" horiz-adv-x="485" 
d="M185 147l-29 -147l-178 -118l53 265h154zM408 147l-30 -147l-179 -118l53 265h156z" />
    <glyph glyph-name="dagger" unicode="&#x2020;" horiz-adv-x="536" 
d="M546 538l-28 -140h-146l-79 -398h-156l80 398h-146l28 140h145l35 174h156l-35 -174h146z" />
    <glyph glyph-name="daggerdbl" unicode="&#x2021;" horiz-adv-x="536" 
d="M546 538l-28 -140h-146l-50 -250h146l-28 -140h-146l-36 -182h-156l37 182h-146l28 140h146l50 250h-146l28 140h145l35 174h156l-35 -174h146z" />
    <glyph glyph-name="bullet" unicode="&#x2022;" horiz-adv-x="447" 
d="M390 334q0 -68 -43 -110.5t-110 -42.5t-110 42.5t-43 110.5t43 110.5t110 42.5t110 -42.5t43 -110.5z" />
    <glyph glyph-name="ellipsis" unicode="&#x2026;" horiz-adv-x="854" 
d="M195 162l-32 -162h-162l33 162h161zM487 162l-33 -162h-161l32 162h162zM779 162l-32 -162h-162l33 162h161z" />
    <glyph glyph-name="perthousand" unicode="&#x2030;" horiz-adv-x="1180" 
d="M1131 253q0 -13 -3 -30l-17 -90q-26 -139 -165 -139q-53 0 -88.5 30t-35.5 84q0 13 3 30l17 90q26 139 165 139q53 0 88.5 -30t35.5 -84zM778 253q0 -13 -3 -30l-17 -90q-26 -139 -165 -139q-53 0 -88.5 30t-35.5 84q0 13 3 30l17 90q26 139 165 139q53 0 88.5 -30
t35.5 -84zM394 604q0 -14 -3 -30l-17 -90q-26 -139 -165 -139q-53 0 -88.5 30t-35.5 84q0 13 3 30l17 90q26 139 165 139q53 0 88.5 -30t35.5 -84zM725 712l-465 -712h-123l465 712h123zM667 239q0 29 -28 29q-33 0 -40 -41l-17 -88q-2 -12 -2 -17q0 -29 28 -29q33 0 40 41
l17 88q2 12 2 17zM1020 239q0 29 -28 29q-33 0 -40 -41l-17 -88q-2 -12 -2 -17q0 -29 28 -29q33 0 40 41l17 88q2 12 2 17zM283 590q0 29 -28 29q-33 0 -40 -41l-17 -88q-2 -12 -2 -17q0 -29 28 -29q33 0 40 41l17 88q2 12 2 17z" />
    <glyph glyph-name="guilsinglleft" unicode="&#x2039;" horiz-adv-x="345" 
d="M344 547l-40 -199l-95 -81l62 -82l-34 -176l-206 271z" />
    <glyph glyph-name="guilsinglright" unicode="&#x203a;" horiz-adv-x="345" 
d="M319 276l-313 -267l40 199l95 81l-62 82l34 176z" />
    <glyph glyph-name="fraction" unicode="&#x2044;" horiz-adv-x="213" 
d="M418 712l-464 -712h-123l464 712h123z" />
    <glyph glyph-name="uni2070" unicode="&#x2070;" horiz-adv-x="323" 
d="M363 603q0 -18 -3 -31l-30 -153q-14 -71 -55.5 -104.5t-98.5 -33.5q-59 0 -90.5 33.5t-31.5 79.5q0 13 3 31l31 153q14 71 55.5 104.5t98.5 33.5q59 0 90 -33.5t31 -79.5zM251 583q0 22 -23 22q-24 0 -31 -33l-28 -141q-2 -10 -2 -16q0 -23 23 -23q25 0 31 33l28 142
q2 10 2 16z" />
    <glyph glyph-name="uni2074" unicode="&#x2074;" horiz-adv-x="323" 
d="M348 441l-19 -99h-26l-11 -57h-104l12 57h-173l18 99l187 271h122l-188 -271h52l9 42h104l-9 -42h26z" />
    <glyph glyph-name="uni2075" unicode="&#x2075;" horiz-adv-x="323" 
d="M380 712l-20 -101h-160l-9 -48q18 11 45 11q51 0 78 -31t27 -74q0 -22 -3 -37q-13 -73 -50 -110q-42 -40 -110 -40q-52 0 -86.5 30.5t-34.5 80.5q0 18 2 29h106q-1 -6 -1 -13q0 -27 24 -27q25 0 36 50q3 15 3 22q0 27 -24 27q-23 0 -33 -26h-102l52 257h260z" />
    <glyph glyph-name="uni2076" unicode="&#x2076;" horiz-adv-x="323" 
d="M339 432q0 -65 -41 -108t-113 -43q-67 0 -101.5 38t-34.5 84q0 34 12 61.5t42 71.5l116 176h123l-114 -167q7 1 17 1q40 0 67 -30.5t27 -83.5zM228 428q0 31 -31 31q-17 0 -27 -12.5t-10 -33.5q0 -32 30 -32q17 0 27.5 13t10.5 34z" />
    <glyph glyph-name="uni2077" unicode="&#x2077;" horiz-adv-x="323" 
d="M396 712l-20 -99l-182 -328h-111l183 328h-92l-13 -67h-97l33 166h299z" />
    <glyph glyph-name="uni2078" unicode="&#x2078;" horiz-adv-x="323" 
d="M366 592q0 -29 -17 -55.5t-40 -41.5q28 -34 28 -70q0 -65 -42 -104.5t-113 -39.5q-60 0 -96.5 30.5t-36.5 90.5q0 70 62 109q-27 32 -27 75q0 53 41.5 91.5t108.5 38.5q59 0 95.5 -33.5t36.5 -90.5zM256 587q0 13 -7.5 21.5t-19.5 8.5q-15 0 -25 -10.5t-10 -28.5
q0 -13 7.5 -21.5t19.5 -8.5q15 0 25 10.5t10 28.5zM226 422q0 14 -8 23.5t-21 9.5q-16 0 -26.5 -11.5t-10.5 -30.5q0 -14 8 -23.5t21 -9.5q16 0 26.5 11.5t10.5 30.5z" />
    <glyph glyph-name="uni2079" unicode="&#x2079;" horiz-adv-x="323" 
d="M370 595q0 -34 -12 -62t-42 -72l-116 -176h-124l115 167q-7 -1 -17 -1q-41 0 -67.5 30.5t-26.5 83.5q0 66 41 108.5t112 42.5q67 0 102 -37.5t35 -83.5zM259 584q0 33 -30 33q-18 0 -28 -13t-10 -34q0 -33 30 -33q18 0 28 13t10 34z" />
    <glyph glyph-name="uni2080" unicode="&#x2080;" horiz-adv-x="323" 
d="M276 168q0 -18 -3 -31l-30 -153q-14 -71 -55.5 -104.5t-98.5 -33.5q-59 0 -90.5 33.5t-31.5 79.5q0 13 3 31l31 153q14 71 55.5 104.5t98.5 33.5q59 0 90 -33.5t31 -79.5zM164 148q0 22 -23 22q-24 0 -31 -33l-28 -141q-2 -10 -2 -16q0 -23 23 -23q25 0 31 33l28 142
q2 10 2 16z" />
    <glyph glyph-name="uni2081" unicode="&#x2081;" horiz-adv-x="323" 
d="M248 277l-85 -427h-111l59 297l-105 -74l27 130l105 74h110z" />
    <glyph glyph-name="uni2082" unicode="&#x2082;" horiz-adv-x="323" 
d="M275 165q0 -39 -20 -69t-61 -66l-95 -82h140l-19 -98h-278l20 98l170 154q33 30 33 53q0 28 -24 28q-29 0 -34 -33h-110q25 131 156 131q57 0 89.5 -30.5t32.5 -85.5z" />
    <glyph glyph-name="uni2083" unicode="&#x2083;" horiz-adv-x="323" 
d="M278 165q0 -67 -57 -100q27 -26 27 -75q0 -66 -43 -105t-111 -39q-64 0 -97 28.5t-33 72.5q0 19 3 36h108q-6 -38 25 -38q17 0 27 12.5t10 31.5q0 33 -27 33h-13l18 93h11q22 0 31.5 14t9.5 28q0 26 -22 26q-13 0 -23 -9t-11 -25h-111q21 132 159 132q53 0 86 -32t33 -84
z" />
    <glyph glyph-name="uni2084" unicode="&#x2084;" horiz-adv-x="323" 
d="M261 6l-19 -99h-26l-11 -57h-104l12 57h-173l18 99l187 271h122l-188 -271h52l9 42h104l-9 -42h26z" />
    <glyph glyph-name="uni2085" unicode="&#x2085;" horiz-adv-x="323" 
d="M293 277l-20 -101h-160l-9 -48q18 11 45 11q51 0 78 -31t27 -74q0 -22 -3 -37q-13 -73 -50 -110q-42 -40 -110 -40q-52 0 -86.5 30.5t-34.5 80.5q0 18 2 29h106q-1 -6 -1 -13q0 -27 24 -27q25 0 36 50q3 15 3 22q0 27 -24 27q-23 0 -33 -26h-102l52 257h260z" />
    <glyph glyph-name="uni2086" unicode="&#x2086;" horiz-adv-x="323" 
d="M252 -3q0 -65 -41 -108t-113 -43q-67 0 -101.5 38t-34.5 84q0 34 12 61.5t42 71.5l116 176h123l-114 -167q7 1 17 1q40 0 67 -30.5t27 -83.5zM141 -7q0 31 -31 31q-17 0 -27 -12.5t-10 -33.5q0 -32 30 -32q17 0 27.5 13t10.5 34z" />
    <glyph glyph-name="uni2087" unicode="&#x2087;" horiz-adv-x="323" 
d="M309 277l-20 -99l-182 -328h-111l183 328h-92l-13 -67h-97l33 166h299z" />
    <glyph glyph-name="uni2088" unicode="&#x2088;" horiz-adv-x="323" 
d="M279 157q0 -29 -17 -55.5t-40 -41.5q28 -34 28 -70q0 -65 -42 -104.5t-113 -39.5q-60 0 -96.5 30.5t-36.5 90.5q0 70 62 109q-27 32 -27 75q0 53 41.5 91.5t108.5 38.5q59 0 95.5 -33.5t36.5 -90.5zM169 152q0 13 -7.5 21.5t-19.5 8.5q-15 0 -25 -10.5t-10 -28.5
q0 -13 7.5 -21.5t19.5 -8.5q15 0 25 10.5t10 28.5zM139 -13q0 14 -8 23.5t-21 9.5q-16 0 -26.5 -11.5t-10.5 -30.5q0 -14 8 -23.5t21 -9.5q16 0 26.5 11.5t10.5 30.5z" />
    <glyph glyph-name="uni2089" unicode="&#x2089;" horiz-adv-x="323" 
d="M284 160q0 -34 -12 -62t-42 -72l-116 -176h-124l115 167q-7 -1 -17 -1q-41 0 -67.5 30.5t-26.5 83.5q0 66 41 108.5t112 42.5q67 0 102 -37.5t35 -83.5zM173 149q0 33 -30 33q-18 0 -28 -13t-10 -34q0 -33 30 -33q18 0 28 13t10 34z" />
    <glyph glyph-name="Euro" unicode="&#x20ac;" horiz-adv-x="654" 
d="M651 491h-166q-2 81 -69 81q-41 0 -72 -31q-19 -19 -31 -57h105l-19 -96h-111l-13 -62h111l-19 -96h-105v-14q0 -36 19.5 -56t52.5 -20q68 0 100 81h171q-38 -114 -112 -170.5t-172 -56.5q-107 0 -167 61t-60 147q0 14 2 28h-72l19 96h67l12 62h-66l19 96h69
q28 100 79 151q82 83 204 83q110 0 167 -64t57 -163z" />
    <glyph glyph-name="uni20B4" unicode="&#x20b4;" horiz-adv-x="665" 
d="M672 481l-18 -90h-67q-35 -35 -115 -62h170l-18 -90h-382q-13 -16 -13 -38q0 -29 26 -45.5t74 -16.5q87 0 147 47l9 7l92 -109l-8 -7q-98 -82 -262 -82q-111 0 -177.5 51t-66.5 133q0 37 5 60h-44l18 90h74q35 32 115 62h-177l18 90h389q12 13 12 33q0 29 -24 46t-73 17
q-77 0 -134 -48l-91 107q52 44 109 63t133 19q113 0 177.5 -49.5t64.5 -133.5q0 -33 -4 -54h41z" />
    <glyph glyph-name="afii61352" unicode="&#x2116;" horiz-adv-x="936" 
d="M646 712l-145 -712h-135l-118 389l-79 -389h-156l145 712h135l118 -389l79 389h156zM849 581q0 36 -33 36q-17 0 -29 -13q-16 -19 -27 -73q-6 -30 -6 -50q0 -36 33 -36q17 0 29 13q16 19 27 73q6 30 6 50zM958 596q0 -30 -7 -65q-20 -101 -63 -144t-116 -43
q-52 0 -89.5 31.5t-37.5 90.5q0 30 7 65q20 101 63 144t116 43q52 0 89.5 -31.5t37.5 -90.5zM905 310l-23 -112h-285l23 112h285z" />
    <glyph glyph-name="trademark" unicode="&#x2122;" horiz-adv-x="924" 
d="M950 712l-84 -427h-112l44 219l-89 -125h-94l-40 125l-44 -219h-111l84 427h109l69 -210l155 210h113zM445 712l-19 -99h-98l-66 -328h-110l66 328h-102l20 99h309z" />
    <glyph glyph-name="Omega" unicode="&#x2126;" horiz-adv-x="608" 
d="M600 510q0 -50 -21 -154q-22 -110 -47 -155q-18 -33 -41 -54h51l-30 -147h-226l26 128q25 11 37 27q17 23 30 62t31 129q22 109 22 149q0 39 -19.5 57.5t-46.5 18.5q-46 0 -76 -33t-62 -192q-22 -113 -22 -152q0 -44 33 -66l-25 -128h-216l29 147h50q-24 43 -24 102
q0 50 11 107q16 77 26 116.5t31.5 86t52.5 77.5q40 40 94.5 61t107.5 21q105 0 164.5 -61t59.5 -147z" />
    <glyph glyph-name="uni2150" unicode="&#x2150;" horiz-adv-x="859" 
d="M335 712l-85 -427h-111l59 297l-105 -74l27 130l105 74h110zM741 712l-464 -712h-123l464 712h123zM876 427l-20 -99l-182 -328h-111l183 328h-92l-13 -67h-97l33 166h299z" />
    <glyph glyph-name="uni2151" unicode="&#x2151;" horiz-adv-x="859" 
d="M335 712l-85 -427h-111l59 297l-105 -74l27 130l105 74h110zM741 712l-464 -712h-123l464 712h123zM849 310q0 -34 -12 -62t-42 -72l-116 -176h-124l115 167q-7 -1 -17 -1q-41 0 -67.5 30.5t-26.5 83.5q0 66 41 108.5t112 42.5q67 0 102 -37.5t35 -83.5zM738 299
q0 33 -30 33q-18 0 -28 -13t-10 -34q0 -33 30 -33q18 0 28 13t10 34z" />
    <glyph glyph-name="uni2152" unicode="&#x2152;" horiz-adv-x="1182" 
d="M335 712l-85 -427h-111l59 297l-105 -74l27 130l105 74h110zM741 712l-464 -712h-123l464 712h123zM815 427l-85 -427h-111l59 297l-105 -74l27 130l105 74h110zM1165 318q0 -18 -3 -31l-30 -153q-14 -71 -55.5 -104.5t-98.5 -33.5q-59 0 -90.5 33.5t-31.5 79.5
q0 13 3 31l31 153q14 71 55.5 104.5t98.5 33.5q59 0 90 -33.5t31 -79.5zM1053 298q0 22 -23 22q-24 0 -31 -33l-28 -141q-2 -10 -2 -16q0 -23 23 -23q25 0 31 33l28 142q2 10 2 16z" />
    <glyph glyph-name="onethird" unicode="&#x2153;" horiz-adv-x="859" 
d="M335 712l-85 -427h-111l59 297l-105 -74l27 130l105 74h110zM741 712l-464 -712h-123l464 712h123zM845 316q0 -67 -57 -100q27 -25 27 -75q0 -66 -43.5 -105t-110.5 -39q-64 0 -97 28.5t-33 72.5q0 20 3 36h108q-6 -38 25 -38q17 0 27 12.5t10 31.5q0 33 -27 33h-13
l18 93h11q22 0 31.5 14t9.5 28q0 26 -22 26q-13 0 -23 -9t-11 -25h-111q21 132 159 132q53 0 86 -32t33 -84z" />
    <glyph glyph-name="twothirds" unicode="&#x2154;" horiz-adv-x="859" 
d="M362 600q0 -39 -20 -69t-61 -66l-95 -82h140l-19 -98h-278l20 98l170 154q33 30 33 53q0 28 -24 28q-28 0 -34 -33h-110q25 131 156 131q57 0 89.5 -30.5t32.5 -85.5zM741 712l-464 -712h-123l464 712h123zM845 316q0 -67 -57 -100q27 -25 27 -75q0 -66 -43.5 -105
t-110.5 -39q-64 0 -97 28.5t-33 72.5q0 20 3 36h108q-6 -38 25 -38q17 0 27 12.5t10 31.5q0 33 -27 33h-13l18 93h11q22 0 31.5 14t9.5 28q0 26 -22 26q-13 0 -23 -9t-11 -25h-111q21 132 159 132q53 0 86 -32t33 -84z" />
    <glyph glyph-name="uni2155" unicode="&#x2155;" horiz-adv-x="859" 
d="M335 712l-85 -427h-111l59 297l-105 -74l27 130l105 74h110zM741 712l-464 -712h-123l464 712h123zM859 427l-20 -101h-160l-9 -48q18 11 45 11q51 0 78 -31t27 -74q0 -22 -3 -37q-13 -73 -50 -110q-42 -40 -110 -40q-52 0 -86.5 30.5t-34.5 80.5q0 18 2 29h106
q-1 -6 -1 -13q0 -27 24 -27q25 0 36 50q3 15 3 22q0 27 -24 27q-23 0 -33 -26h-102l52 257h260z" />
    <glyph glyph-name="uni2156" unicode="&#x2156;" horiz-adv-x="859" 
d="M362 600q0 -39 -20 -69t-61 -66l-95 -82h140l-19 -98h-278l20 98l170 154q33 30 33 53q0 28 -24 28q-28 0 -34 -33h-110q25 131 156 131q57 0 89.5 -30.5t32.5 -85.5zM741 712l-464 -712h-123l464 712h123zM859 427l-20 -101h-160l-9 -48q18 11 45 11q51 0 78 -31t27 -74
q0 -22 -3 -37q-13 -73 -50 -110q-42 -40 -110 -40q-52 0 -86.5 30.5t-34.5 80.5q0 18 2 29h106q-1 -6 -1 -13q0 -27 24 -27q25 0 36 50q3 15 3 22q0 27 -24 27q-23 0 -33 -26h-102l52 257h260z" />
    <glyph glyph-name="uni2157" unicode="&#x2157;" horiz-adv-x="859" 
d="M366 600q0 -67 -57 -100q27 -26 27 -75q0 -66 -43 -105t-111 -39q-64 0 -97 28.5t-33 72.5q0 20 3 36h108q-6 -38 25 -38q17 0 27 12.5t10 31.5q0 33 -27 33h-13l18 93h11q22 0 31.5 14t9.5 28q0 26 -22 26q-13 0 -23 -9t-11 -25h-111q21 132 159 132q53 0 86 -32t33 -84
zM741 712l-464 -712h-123l464 712h123zM859 427l-20 -101h-160l-9 -48q18 11 45 11q51 0 78 -31t27 -74q0 -22 -3 -37q-13 -73 -50 -110q-42 -40 -110 -40q-52 0 -86.5 30.5t-34.5 80.5q0 18 2 29h106q-1 -6 -1 -13q0 -27 24 -27q25 0 36 50q3 15 3 22q0 27 -24 27
q-23 0 -33 -26h-102l52 257h260z" />
    <glyph glyph-name="uni2158" unicode="&#x2158;" horiz-adv-x="859" 
d="M348 441l-19 -99h-26l-11 -57h-104l12 57h-173l18 99l187 271h122l-188 -271h52l9 42h104l-9 -42h26zM741 712l-464 -712h-123l464 712h123zM859 427l-20 -101h-160l-9 -48q18 11 45 11q51 0 78 -31t27 -74q0 -22 -3 -37q-13 -73 -50 -110q-42 -40 -110 -40
q-52 0 -86.5 30.5t-34.5 80.5q0 18 2 29h106q-1 -6 -1 -13q0 -27 24 -27q25 0 36 50q3 15 3 22q0 27 -24 27q-23 0 -33 -26h-102l52 257h260z" />
    <glyph glyph-name="uni2159" unicode="&#x2159;" horiz-adv-x="859" 
d="M335 712l-85 -427h-111l59 297l-105 -74l27 130l105 74h110zM741 712l-464 -712h-123l464 712h123zM818 147q0 -65 -41 -108t-113 -43q-67 0 -101.5 38t-34.5 84q0 34 12 61.5t42 71.5l116 176h123l-114 -167q7 1 17 1q40 0 67 -30.5t27 -83.5zM707 143q0 31 -31 31
q-17 0 -27 -12.5t-10 -33.5q0 -32 30 -32q17 0 27.5 13t10.5 34z" />
    <glyph glyph-name="uni215A" unicode="&#x215a;" horiz-adv-x="859" 
d="M380 712l-20 -101h-160l-9 -48q18 11 45 11q51 0 78 -31t27 -74q0 -22 -3 -37q-13 -73 -50 -110q-42 -40 -110 -40q-52 0 -86.5 30.5t-34.5 80.5q0 18 2 29h106q-1 -6 -1 -13q0 -27 24 -27q25 0 36 50q3 15 3 22q0 27 -24 27q-23 0 -33 -26h-102l52 257h260zM741 712
l-464 -712h-123l464 712h123zM818 147q0 -65 -41 -108t-113 -43q-67 0 -101.5 38t-34.5 84q0 34 12 61.5t42 71.5l116 176h123l-114 -167q7 1 17 1q40 0 67 -30.5t27 -83.5zM707 143q0 31 -31 31q-17 0 -27 -12.5t-10 -33.5q0 -32 30 -32q17 0 27.5 13t10.5 34z" />
    <glyph glyph-name="oneeighth" unicode="&#x215b;" horiz-adv-x="859" 
d="M335 712l-85 -427h-111l59 297l-105 -74l27 130l105 74h110zM741 712l-464 -712h-123l464 712h123zM845 307q0 -29 -17 -55.5t-40 -41.5q28 -34 28 -70q0 -65 -42 -104.5t-113 -39.5q-60 0 -96.5 30.5t-36.5 90.5q0 70 62 109q-27 32 -27 75q0 53 41.5 91.5t108.5 38.5
q59 0 95.5 -33.5t36.5 -90.5zM735 302q0 13 -7.5 21.5t-19.5 8.5q-15 0 -25 -10.5t-10 -28.5q0 -13 7.5 -21.5t19.5 -8.5q15 0 25 10.5t10 28.5zM705 137q0 14 -8 23.5t-21 9.5q-16 0 -26.5 -11.5t-10.5 -30.5q0 -14 8 -23.5t21 -9.5q16 0 26.5 11.5t10.5 30.5z" />
    <glyph glyph-name="threeeighths" unicode="&#x215c;" horiz-adv-x="859" 
d="M366 600q0 -67 -57 -100q27 -26 27 -75q0 -66 -43 -105t-111 -39q-64 0 -97 28.5t-33 72.5q0 20 3 36h108q-6 -38 25 -38q17 0 27 12.5t10 31.5q0 33 -27 33h-13l18 93h11q22 0 31.5 14t9.5 28q0 26 -22 26q-13 0 -23 -9t-11 -25h-111q21 132 159 132q53 0 86 -32t33 -84
zM741 712l-464 -712h-123l464 712h123zM845 307q0 -29 -17 -55.5t-40 -41.5q28 -34 28 -70q0 -65 -42 -104.5t-113 -39.5q-60 0 -96.5 30.5t-36.5 90.5q0 70 62 109q-27 32 -27 75q0 53 41.5 91.5t108.5 38.5q59 0 95.5 -33.5t36.5 -90.5zM735 302q0 13 -7.5 21.5t-19.5 8.5
q-15 0 -25 -10.5t-10 -28.5q0 -13 7.5 -21.5t19.5 -8.5q15 0 25 10.5t10 28.5zM705 137q0 14 -8 23.5t-21 9.5q-16 0 -26.5 -11.5t-10.5 -30.5q0 -14 8 -23.5t21 -9.5q16 0 26.5 11.5t10.5 30.5z" />
    <glyph glyph-name="fiveeighths" unicode="&#x215d;" horiz-adv-x="859" 
d="M380 712l-20 -101h-160l-9 -48q18 11 45 11q51 0 78 -31t27 -74q0 -22 -3 -37q-13 -73 -50 -110q-42 -40 -110 -40q-52 0 -86.5 30.5t-34.5 80.5q0 18 2 29h106q-1 -6 -1 -13q0 -27 24 -27q25 0 36 50q3 15 3 22q0 27 -24 27q-23 0 -33 -26h-102l52 257h260zM741 712
l-464 -712h-123l464 712h123zM845 307q0 -29 -17 -55.5t-40 -41.5q28 -34 28 -70q0 -65 -42 -104.5t-113 -39.5q-60 0 -96.5 30.5t-36.5 90.5q0 70 62 109q-27 32 -27 75q0 53 41.5 91.5t108.5 38.5q59 0 95.5 -33.5t36.5 -90.5zM735 302q0 13 -7.5 21.5t-19.5 8.5
q-15 0 -25 -10.5t-10 -28.5q0 -13 7.5 -21.5t19.5 -8.5q15 0 25 10.5t10 28.5zM705 137q0 14 -8 23.5t-21 9.5q-16 0 -26.5 -11.5t-10.5 -30.5q0 -14 8 -23.5t21 -9.5q16 0 26.5 11.5t10.5 30.5z" />
    <glyph glyph-name="seveneighths" unicode="&#x215e;" horiz-adv-x="859" 
d="M396 712l-20 -99l-182 -328h-111l183 328h-92l-13 -67h-97l33 166h299zM741 712l-464 -712h-123l464 712h123zM845 307q0 -29 -17 -55.5t-40 -41.5q28 -34 28 -70q0 -65 -42 -104.5t-113 -39.5q-60 0 -96.5 30.5t-36.5 90.5q0 70 62 109q-27 32 -27 75q0 53 41.5 91.5
t108.5 38.5q59 0 95.5 -33.5t36.5 -90.5zM735 302q0 13 -7.5 21.5t-19.5 8.5q-15 0 -25 -10.5t-10 -28.5q0 -13 7.5 -21.5t19.5 -8.5q15 0 25 10.5t10 28.5zM705 137q0 14 -8 23.5t-21 9.5q-16 0 -26.5 -11.5t-10.5 -30.5q0 -14 8 -23.5t21 -9.5q16 0 26.5 11.5t10.5 30.5z
" />
    <glyph glyph-name="uni215F" unicode="&#x215f;" horiz-adv-x="536" 
d="M335 712l-85 -427h-111l59 297l-105 -74l27 130l105 74h110zM741 712l-464 -712h-123l464 712h123z" />
    <glyph glyph-name="uni2189" unicode="&#x2189;" horiz-adv-x="859" 
d="M363 603q0 -18 -3 -31l-30 -153q-14 -71 -55.5 -104.5t-98.5 -33.5q-59 0 -90.5 33.5t-31.5 79.5q0 13 3 31l31 153q14 71 55.5 104.5t98.5 33.5q59 0 90 -33.5t31 -79.5zM251 583q0 22 -23 22q-24 0 -31 -33l-28 -141q-2 -10 -2 -16q0 -23 23 -23q25 0 31 33l28 142
q2 10 2 16zM741 712l-464 -712h-123l464 712h123zM845 316q0 -67 -57 -100q27 -25 27 -75q0 -66 -43.5 -105t-110.5 -39q-64 0 -97 28.5t-33 72.5q0 20 3 36h108q-6 -38 25 -38q17 0 27 12.5t10 31.5q0 33 -27 33h-13l18 93h11q22 0 31.5 14t9.5 28q0 26 -22 26
q-13 0 -23 -9t-11 -25h-111q21 132 159 132q53 0 86 -32t33 -84z" />
    <glyph glyph-name="arrowleft" unicode="&#x2190;" horiz-adv-x="1027" 
d="M978 218h-654l304 -300h-205l-377 377l377 377h205l-304 -300h654v-154z" />
    <glyph glyph-name="arrowup" unicode="&#x2191;" horiz-adv-x="1027" 
d="M890 180l-300 304v-655h-154v655l-300 -304v205l377 377l377 -377v-205z" />
    <glyph glyph-name="arrowright" unicode="&#x2192;" horiz-adv-x="1027" 
d="M980 295l-377 -377h-205l304 300h-655v154h655l-304 300h205z" />
    <glyph glyph-name="arrowdown" unicode="&#x2193;" horiz-adv-x="1027" 
d="M889 206l-377 -377l-377 377v205l300 -304v654h154v-654l300 304v-205z" />
    <glyph glyph-name="uni2196" unicode="&#x2196;" horiz-adv-x="1027" 
d="M885 -8l-109 -109l-463 463l2 -428l-145 145v535h535l145 -145l-428 2z" />
    <glyph glyph-name="uni2197" unicode="&#x2197;" horiz-adv-x="1027" 
d="M853 65l-145 -145l3 427l-463 -463l-109 109l463 463l-427 -3l145 145h533v-533z" />
    <glyph glyph-name="uni2198" unicode="&#x2198;" horiz-adv-x="1027" 
d="M815 -62h-533l-145 145l427 -3l-463 463l109 109l463 -463l-3 427l145 -145v-533z" />
    <glyph glyph-name="uni2199" unicode="&#x2199;" horiz-adv-x="1027" 
d="M888 83l-145 -145h-533v533l145 145l-3 -427l463 463l109 -109l-463 -463z" />
    <glyph glyph-name="partialdiff" unicode="&#x2202;" horiz-adv-x="533" 
d="M518 530q0 -31 -5 -61l-40 -210q-15 -79 -32.5 -124.5t-51.5 -79.5q-61 -61 -161 -61q-92 0 -141.5 48.5t-49.5 132.5q0 34 10 84q15 79 36 127.5t58 82.5q60 55 151 55q49 0 73 -20q1 7 1 15q0 67 -71 67q-55 0 -98 -35l-79 104q74 63 192 63q99 0 153.5 -50.5
t54.5 -137.5zM328 335q0 48 -44 48q-23 0 -39 -14q-24 -20 -42 -110q-11 -59 -11 -76q0 -48 44 -48q23 0 39 14q24 20 42 110q11 59 11 76z" />
    <glyph glyph-name="Delta" unicode="&#x2206;" horiz-adv-x="622" 
d="M569 0h-622l388 712h131zM392 137l-32 321l-166 -321h198z" />
    <glyph glyph-name="product" unicode="&#x220f;" horiz-adv-x="646" 
d="M677 760l-186 -934h-166l157 789h-176l-158 -789h-166l186 934h509z" />
    <glyph glyph-name="summation" unicode="&#x2211;" horiz-adv-x="525" 
d="M589 760l-29 -146h-272l79 -244l-31 -153l-170 -245h276l-29 -146h-468l25 128l246 359l-111 323l24 124h460z" />
    <glyph glyph-name="minus" unicode="&#x2212;" 
d="M502 368l-29 -146h-435l29 146h435z" />
    <glyph glyph-name="uni2219" unicode="&#x2219;" 
d="M417 334q0 -68 -42.5 -110.5t-110.5 -42.5t-110.5 42.5t-42.5 110.5t42.5 110.5t110.5 42.5t110.5 -42.5t42.5 -110.5z" />
    <glyph glyph-name="radical" unicode="&#x221a;" horiz-adv-x="585" 
d="M654 712l-29 -146h-84l-291 -566h-132l-64 538h163l22 -244l202 418h213z" />
    <glyph glyph-name="infinity" unicode="&#x221e;" horiz-adv-x="832" 
d="M793 295q0 -86 -51 -141t-147 -55q-94 0 -173 84q-79 -84 -173 -84q-96 0 -147 55t-51 141t51 141t147 55q94 0 173 -84q79 84 173 84q96 0 147 -55t51 -141zM318 290q-13 16 -21 24.5t-21.5 16.5t-26.5 8q-20 0 -34 -13t-14 -36t14 -36t34 -13q13 0 26.5 8t21.5 16.5
t21 24.5zM643 290q0 23 -14 36t-34 13q-13 0 -26.5 -8t-21.5 -16.5t-21 -24.5q13 -16 21 -24.5t21.5 -16.5t26.5 -8q20 0 34 13t14 36z" />
    <glyph glyph-name="integral" unicode="&#x222b;" horiz-adv-x="532" 
d="M552 722l-26 -131h-47q-36 0 -54 -15.5t-25 -49.5l-98 -488q-10 -52 -28.5 -90t-40 -60t-51.5 -34.5t-58 -16.5t-65 -4h-75l26 131h47q36 0 54 15.5t25 49.5l98 488q10 52 28.5 90t40 60t51.5 34.5t58 16.5t65 4h75z" />
    <glyph glyph-name="approxequal" unicode="&#x2248;" horiz-adv-x="614" 
d="M616 398q-91 -85 -192 -85q-58 0 -111 32q-41 25 -79 25q-56 0 -97 -41l-81 105q91 85 192 85q58 0 111 -32q41 -25 79 -25q56 0 97 41zM569 154q-91 -85 -192 -85q-58 0 -111 32q-41 25 -79 25q-56 0 -97 -41l-81 105q91 85 192 85q58 0 111 -32q41 -25 79 -25
q56 0 97 41z" />
    <glyph glyph-name="notequal" unicode="&#x2260;" horiz-adv-x="608" 
d="M615 556l-61 -70h51l-30 -146h-150l-80 -90h213l-29 -146h-312l-130 -148l-83 78l61 70h-51l30 146h150l80 90h-214l30 146h312l130 148z" />
    <glyph glyph-name="lessequal" unicode="&#x2264;" 
d="M566 718l-34 -171l-266 -101l228 -110l-32 -159l-397 217l26 127zM448 93l-30 -151l-397 217l30 151z" />
    <glyph glyph-name="greaterequal" unicode="&#x2265;" 
d="M531 507l-26 -127l-475 -197l34 171l265 100l-227 111l32 159zM492 296l-32 -163l-475 -197l32 163z" />
    <glyph glyph-name="dotmath" unicode="&#x22c5;" 
d="M366 381l-34 -172h-171l34 172h171z" />
    <glyph glyph-name="lozenge" unicode="&#x25ca;" horiz-adv-x="597" 
d="M569 315l-316 -349l-192 387l315 349zM396 334l-58 118l-104 -118l57 -118z" />
    <glyph glyph-name="fi" unicode="&#xfb01;" horiz-adv-x="601" 
d="M407 723l-26 -131h-49q-36 0 -44 -40l-7 -37h85l-24 -120h-85l-79 -395h-156l79 395h-47l24 120h47l11 55q30 153 186 153h85zM591 515l-103 -515h-156l103 515h156zM630 712l-24 -121h-156l24 121h156z" />
    <glyph glyph-name="fl" unicode="&#xfb02;" horiz-adv-x="659" 
d="M407 723l-26 -131h-49q-36 0 -44 -40l-7 -37h85l-24 -120h-85l-79 -395h-156l79 395h-47l24 120h47l11 55q30 153 186 153h85zM630 712l-108 -542q-2 -12 -2 -15q0 -23 29 -23h57l-27 -132h-77q-65 0 -102.5 35.5t-37.5 89.5q0 24 4 44l108 543h156z" />
    <glyph glyph-name="uniFEFF" unicode="&#xfeff;" horiz-adv-x="0" 
 />
    <glyph glyph-name="i.latn_TRK" horiz-adv-x="274" 
d="M264 515l-103 -515h-156l103 515h156zM303 712l-24 -121h-156l24 121h156z" />
    <glyph glyph-name="Ldot.latn_CAT" horiz-adv-x="552" 
d="M500 146l-29 -146h-456l143 712h166l-113 -566h289zM523 428l-27 -137h-128l28 137h127z" />
    <glyph glyph-name="ldot.latn_CAT" horiz-adv-x="428" 
d="M298 712l-108 -542q-2 -12 -2 -15q0 -23 29 -23h57l-27 -132h-77q-65 0 -102.5 35.5t-37.5 89.5q0 24 4 44l108 543h156zM430 364l-27 -137h-128l28 137h127z" />
    <glyph glyph-name="zero.numr" horiz-adv-x="323" 
d="M363 603q0 -18 -3 -31l-30 -153q-14 -71 -55.5 -104.5t-98.5 -33.5q-59 0 -90.5 33.5t-31.5 79.5q0 13 3 31l31 153q14 71 55.5 104.5t98.5 33.5q59 0 90 -33.5t31 -79.5zM251 583q0 22 -23 22q-24 0 -31 -33l-28 -141q-2 -10 -2 -16q0 -23 23 -23q25 0 31 33l28 142
q2 10 2 16z" />
    <glyph glyph-name="one.numr" horiz-adv-x="323" 
d="M335 712l-85 -427h-111l59 297l-105 -74l27 130l105 74h110z" />
    <glyph glyph-name="two.numr" horiz-adv-x="323" 
d="M362 600q0 -39 -20 -69t-61 -66l-95 -82h140l-19 -98h-278l20 98l170 154q33 30 33 53q0 28 -24 28q-28 0 -34 -33h-110q25 131 156 131q57 0 89.5 -30.5t32.5 -85.5z" />
    <glyph glyph-name="three.numr" horiz-adv-x="323" 
d="M366 600q0 -67 -57 -100q27 -26 27 -75q0 -66 -43 -105t-111 -39q-64 0 -97 28.5t-33 72.5q0 20 3 36h108q-6 -38 25 -38q17 0 27 12.5t10 31.5q0 33 -27 33h-13l18 93h11q22 0 31.5 14t9.5 28q0 26 -22 26q-13 0 -23 -9t-11 -25h-111q21 132 159 132q53 0 86 -32t33 -84
z" />
    <glyph glyph-name="four.numr" horiz-adv-x="323" 
d="M348 441l-19 -99h-26l-11 -57h-104l12 57h-173l18 99l187 271h122l-188 -271h52l9 42h104l-9 -42h26z" />
    <glyph glyph-name="five.numr" horiz-adv-x="323" 
d="M380 712l-20 -101h-160l-9 -48q18 11 45 11q51 0 78 -31t27 -74q0 -22 -3 -37q-13 -73 -50 -110q-42 -40 -110 -40q-52 0 -86.5 30.5t-34.5 80.5q0 18 2 29h106q-1 -6 -1 -13q0 -27 24 -27q25 0 36 50q3 15 3 22q0 27 -24 27q-23 0 -33 -26h-102l52 257h260z" />
    <glyph glyph-name="six.numr" horiz-adv-x="323" 
d="M339 432q0 -65 -41 -108t-113 -43q-67 0 -101.5 38t-34.5 84q0 34 12 61.5t42 71.5l116 176h123l-114 -167q7 1 17 1q40 0 67 -30.5t27 -83.5zM228 428q0 31 -31 31q-17 0 -27 -12.5t-10 -33.5q0 -32 30 -32q17 0 27.5 13t10.5 34z" />
    <glyph glyph-name="seven.numr" horiz-adv-x="323" 
d="M396 712l-20 -99l-182 -328h-111l183 328h-92l-13 -67h-97l33 166h299z" />
    <glyph glyph-name="eight.numr" horiz-adv-x="323" 
d="M366 592q0 -29 -17 -55.5t-40 -41.5q28 -34 28 -70q0 -65 -42 -104.5t-113 -39.5q-60 0 -96.5 30.5t-36.5 90.5q0 70 62 109q-27 32 -27 75q0 53 41.5 91.5t108.5 38.5q59 0 95.5 -33.5t36.5 -90.5zM256 587q0 13 -7.5 21.5t-19.5 8.5q-15 0 -25 -10.5t-10 -28.5
q0 -13 7.5 -21.5t19.5 -8.5q15 0 25 10.5t10 28.5zM226 422q0 14 -8 23.5t-21 9.5q-16 0 -26.5 -11.5t-10.5 -30.5q0 -14 8 -23.5t21 -9.5q16 0 26.5 11.5t10.5 30.5z" />
    <glyph glyph-name="nine.numr" horiz-adv-x="323" 
d="M370 595q0 -34 -12 -62t-42 -72l-116 -176h-124l115 167q-7 -1 -17 -1q-41 0 -67.5 30.5t-26.5 83.5q0 66 41 108.5t112 42.5q67 0 102 -37.5t35 -83.5zM259 584q0 33 -30 33q-18 0 -28 -13t-10 -34q0 -33 30 -33q18 0 28 13t10 34z" />
    <glyph glyph-name="zero.dnom" horiz-adv-x="323" 
d="M306 318q0 -18 -3 -31l-30 -153q-14 -71 -55.5 -104.5t-98.5 -33.5q-59 0 -90.5 33.5t-31.5 79.5q0 13 3 31l31 153q14 71 55.5 104.5t98.5 33.5q59 0 90 -33.5t31 -79.5zM194 298q0 22 -23 22q-24 0 -31 -33l-28 -141q-2 -10 -2 -16q0 -23 23 -23q25 0 31 33l28 142
q2 10 2 16z" />
    <glyph glyph-name="one.dnom" horiz-adv-x="323" 
d="M279 427l-85 -427h-111l59 297l-105 -74l27 130l105 74h110z" />
    <glyph glyph-name="two.dnom" horiz-adv-x="323" 
d="M305 315q0 -39 -20 -69t-61 -66l-95 -82h140l-19 -98h-278l20 98l170 154q33 30 33 53q0 28 -24 28q-29 0 -34 -33h-110q25 131 156 131q57 0 89.5 -30.5t32.5 -85.5z" />
    <glyph glyph-name="three.dnom" horiz-adv-x="323" 
d="M309 316q0 -67 -57 -100q27 -25 27 -75q0 -66 -43.5 -105t-110.5 -39q-64 0 -97 28.5t-33 72.5q0 20 3 36h108q-6 -38 25 -38q17 0 27 12.5t10 31.5q0 33 -27 33h-13l18 93h11q22 0 31.5 14t9.5 28q0 26 -22 26q-13 0 -23 -9t-11 -25h-111q21 132 159 132q53 0 86 -32
t33 -84z" />
    <glyph glyph-name="four.dnom" horiz-adv-x="323" 
d="M290 156l-19 -99h-26l-11 -57h-104l12 57h-173l18 99l187 271h122l-188 -271h52l9 42h104l-9 -42h26z" />
    <glyph glyph-name="five.dnom" horiz-adv-x="323" 
d="M323 427l-20 -101h-160l-9 -48q18 11 45 11q51 0 78 -31t27 -74q0 -22 -3 -37q-13 -73 -50 -110q-42 -40 -110 -40q-52 0 -86.5 30.5t-34.5 80.5q0 18 2 29h106q-1 -6 -1 -13q0 -27 24 -27q25 0 36 50q3 15 3 22q0 27 -24 27q-23 0 -33 -26h-102l52 257h260z" />
    <glyph glyph-name="six.dnom" horiz-adv-x="323" 
d="M282 147q0 -65 -41 -108t-113 -43q-67 0 -101.5 38t-34.5 84q0 34 12 61.5t42 71.5l116 176h123l-114 -167q7 1 17 1q40 0 67 -30.5t27 -83.5zM171 143q0 31 -31 31q-17 0 -27 -12.5t-10 -33.5q0 -32 30 -32q17 0 27.5 13t10.5 34z" />
    <glyph glyph-name="seven.dnom" horiz-adv-x="323" 
d="M340 427l-20 -99l-182 -328h-111l183 328h-92l-13 -67h-97l33 166h299z" />
    <glyph glyph-name="eight.dnom" horiz-adv-x="323" 
d="M309 307q0 -29 -17 -55.5t-40 -41.5q28 -34 28 -70q0 -65 -42 -104.5t-113 -39.5q-60 0 -96.5 30.5t-36.5 90.5q0 70 62 109q-27 32 -27 75q0 53 41.5 91.5t108.5 38.5q59 0 95.5 -33.5t36.5 -90.5zM199 302q0 13 -7.5 21.5t-19.5 8.5q-15 0 -25 -10.5t-10 -28.5
q0 -13 7.5 -21.5t19.5 -8.5q15 0 25 10.5t10 28.5zM169 137q0 14 -8 23.5t-21 9.5q-16 0 -26.5 -11.5t-10.5 -30.5q0 -14 8 -23.5t21 -9.5q16 0 26.5 11.5t10.5 30.5z" />
    <glyph glyph-name="nine.dnom" horiz-adv-x="323" 
d="M313 310q0 -34 -12 -62t-42 -72l-116 -176h-124l115 167q-7 -1 -17 -1q-41 0 -67.5 30.5t-26.5 83.5q0 66 41 108.5t112 42.5q67 0 102 -37.5t35 -83.5zM202 299q0 33 -30 33q-18 0 -28 -13t-10 -34q0 -33 30 -33q18 0 28 13t10 34z" />
    <glyph glyph-name="space.frac" horiz-adv-x="42" 
 />
    <glyph glyph-name="zero.osf" 
d="M508 423q0 -25 -5 -50l-31 -157q-23 -115 -91 -168.5t-156 -53.5q-90 0 -140.5 52t-50.5 128q0 25 5 50l31 157q23 116 90.5 169t156.5 53q90 0 140.5 -52t50.5 -128zM353 410q0 27 -15 39.5t-36 12.5q-61 0 -76 -76l-33 -168q-4 -18 -4 -31q0 -27 15 -39.5t36 -12.5
q61 0 76 76l33 168q4 18 4 31z" />
    <glyph glyph-name="one.osf" horiz-adv-x="452" 
d="M419 597l-119 -597h-156l84 420l-168 -118l35 177l168 118h156z" />
    <glyph glyph-name="two.osf" horiz-adv-x="552" 
d="M522 437q0 -54 -38 -103t-135 -120l-99 -73h233l-29 -141h-453l28 141l241 180q59 44 76.5 64t17.5 45q0 23 -13.5 37.5t-39.5 14.5q-61 0 -78 -71h-156q18 105 83.5 158.5t172.5 53.5q90 0 139.5 -53t49.5 -133z" />
    <glyph glyph-name="three.osf" horiz-adv-x="519" 
d="M497 425q0 -118 -100 -177q30 -21 43 -49t13 -76q0 -106 -71 -175t-168 -69q-98 0 -158.5 47.5t-60.5 128.5q0 12 4 42h154q-2 -9 -2 -22q0 -24 16.5 -39.5t47.5 -15.5q33 0 57 29t24 66q0 29 -16 47.5t-46 18.5h-22l27 136h22q32 0 55.5 28t23.5 60q0 28 -13.5 42.5
t-34.5 14.5q-27 0 -49.5 -17.5t-30.5 -51.5h-156q44 210 257 210q82 0 133 -52t51 -126z" />
    <glyph glyph-name="four.osf" horiz-adv-x="576" 
d="M539 182l-29 -148h-70l-31 -157h-148l31 157h-298l29 148l309 466h172l-309 -466h125l23 116h148l-23 -116h71z" />
    <glyph glyph-name="five.osf" horiz-adv-x="543" 
d="M547 597l-28 -141h-269l-23 -117q36 25 88 25q82 0 124.5 -49.5t42.5 -119.5q0 -39 -6 -67q-22 -121 -82 -182q-64 -67 -175 -67q-85 0 -137.5 49t-52.5 127q0 17 3 43h149q-1 -7 -1 -19q0 -59 51 -59q63 0 85 108q6 32 6 46q0 59 -51 59q-49 0 -75 -51h-142l83 415h410z
" />
    <glyph glyph-name="six.osf" horiz-adv-x="530" 
d="M493 247q0 -110 -68 -181.5t-182 -71.5q-110 0 -165.5 63t-55.5 149q0 57 24.5 110t69.5 117l208 295h169l-210 -292q20 6 45 6q26 0 52.5 -9t53 -29.5t43 -61t16.5 -95.5zM338 236q0 41 -20 61.5t-50 20.5q-35 0 -63 -27t-28 -75q0 -41 20 -61.5t50 -20.5q35 0 63 27
t28 75z" />
    <glyph glyph-name="seven.osf" horiz-adv-x="558" 
d="M592 597l-28 -141l-343 -571h-172l343 571h-164l-22 -109h-148l50 250h484z" />
    <glyph glyph-name="eight.osf" horiz-adv-x="547" 
d="M543 520q0 -52 -29 -97t-72 -69q52 -49 52 -124q0 -104 -68 -170t-183 -66q-92 0 -151 50t-59 146q0 57 29 106t83 80q-48 50 -48 124q0 91 66.5 154.5t174.5 63.5q91 0 148 -54.5t57 -143.5zM336 227q0 27 -16 47.5t-46 20.5q-35 0 -59 -26t-24 -66q0 -27 16 -47.5
t46 -20.5q35 0 59 26t24 66zM385 516q0 24 -14 42.5t-41 18.5q-32 0 -54 -23.5t-22 -61.5q0 -24 14 -42.5t41 -18.5q32 0 54 23.5t22 61.5z" />
    <glyph glyph-name="nine.osf" horiz-adv-x="530" 
d="M520 391q0 -57 -24.5 -110t-69.5 -117l-208 -295h-169l210 292q-20 -6 -45 -6q-26 0 -52.5 9t-53 29.5t-43 61t-16.5 95.5q0 110 68 181.5t182 71.5q110 0 165.5 -63t55.5 -149zM365 381q0 39 -20 60.5t-52 21.5q-34 0 -61.5 -27.5t-27.5 -74.5q0 -39 20 -60.5t52 -21.5
q34 0 61.5 27.5t27.5 74.5z" />
    <glyph glyph-name="zero.lf" 
d="M531 538q0 -25 -5 -50l-54 -272q-23 -116 -90.5 -169t-156.5 -53q-90 0 -140.5 52t-50.5 128q0 25 5 50l54 272q23 116 90.5 169t156.5 53q90 0 140.5 -52t50.5 -128zM376 525q0 27 -15 39.5t-36 12.5q-61 0 -76 -76l-56 -283q-4 -18 -4 -31q0 -27 15 -39.5t36 -12.5
q61 0 76 76l56 283q4 18 4 31z" />
    <glyph glyph-name="one.lf" horiz-adv-x="472" 
d="M448 712l-142 -712h-156l107 535l-168 -118l35 177l168 118h156z" />
    <glyph glyph-name="two.lf" horiz-adv-x="548" 
d="M538 533q0 -58 -26 -100t-81 -95l-203 -197h245l-29 -141h-444l29 140l293 288q33 33 45.5 52t12.5 44q0 53 -51 53q-62 0 -80 -71h-156q18 105 83.5 158.5t171.5 53.5q89 0 139.5 -48.5t50.5 -136.5z" />
    <glyph glyph-name="three.lf" 
d="M527 540q0 -118 -100 -177q30 -21 43 -49t13 -76q0 -106 -71 -175t-168 -69q-98 0 -158.5 47.5t-60.5 128.5q0 12 4 42h154q-2 -9 -2 -22q0 -24 16.5 -39.5t47.5 -15.5q33 0 57 29t24 66q0 29 -16 47.5t-46 18.5h-22l27 136h22q32 0 55.5 28t23.5 60q0 28 -13.5 42.5
t-34.5 14.5q-27 0 -49.5 -17.5t-30.5 -51.5h-156q44 210 257 210q82 0 133 -52t51 -126z" />
    <glyph glyph-name="four.lf" horiz-adv-x="558" 
d="M533 246l-30 -149h-60l-20 -97h-148l19 97h-286l30 149l317 466h175l-317 -466h109l19 94h148l-19 -94h63z" />
    <glyph glyph-name="five.lf" horiz-adv-x="540" 
d="M563 712l-28 -141h-269l-23 -117q36 25 88 25q82 0 124.5 -49.5t42.5 -119.5q0 -38 -6 -67q-22 -122 -84 -184q-65 -65 -173 -65q-85 0 -137.5 49t-52.5 127q0 18 3 43h149q-1 -7 -1 -19q0 -59 51 -59q63 0 85 108q6 31 6 46q0 59 -51 59q-49 0 -75 -51h-142l83 415h410z
" />
    <glyph glyph-name="six.lf" 
d="M485 240q0 -107 -66 -176.5t-177 -69.5q-106 0 -160.5 60t-54.5 136q0 54 19.5 98.5t66.5 116.5l203 307h173l-196 -288q13 3 34 3q69 0 113.5 -50.5t44.5 -136.5zM329 234q0 69 -64 69q-38 0 -60 -28.5t-22 -70.5q0 -69 64 -69q38 0 60 28.5t22 70.5z" />
    <glyph glyph-name="seven.lf" horiz-adv-x="558" 
d="M601 712l-28 -141l-319 -571h-174l319 571h-147l-22 -109h-148l50 250h469z" />
    <glyph glyph-name="eight.lf" horiz-adv-x="547" 
d="M543 520q0 -52 -29 -97t-72 -69q52 -49 52 -124q0 -104 -68 -170t-183 -66q-92 0 -151 50t-59 146q0 57 29 106t83 80q-48 50 -48 124q0 91 66.5 154.5t174.5 63.5q91 0 148 -54.5t57 -143.5zM336 227q0 27 -16 47.5t-46 20.5q-35 0 -59 -26t-24 -66q0 -27 16 -47.5
t46 -20.5q35 0 59 26t24 66zM385 516q0 24 -14 42.5t-41 18.5q-32 0 -54 -23.5t-22 -61.5q0 -24 14 -42.5t41 -18.5q32 0 54 23.5t22 61.5z" />
    <glyph glyph-name="nine.lf" 
d="M539 522q0 -54 -19.5 -98.5t-66.5 -116.5l-203 -307h-173l196 288q-13 -3 -34 -3q-69 0 -113.5 50.5t-44.5 136.5q0 107 66 176.5t177 69.5q106 0 160.5 -60t54.5 -136zM383 508q0 69 -64 69q-38 0 -60 -28.5t-22 -70.5q0 -69 64 -69q38 0 60 28.5t22 70.5z" />
    <glyph glyph-name="zero.tosf" 
d="M508 423q0 -25 -5 -50l-31 -157q-23 -115 -91 -168.5t-156 -53.5q-90 0 -140.5 52t-50.5 128q0 25 5 50l31 157q23 116 90.5 169t156.5 53q90 0 140.5 -52t50.5 -128zM353 410q0 27 -15 39.5t-36 12.5q-61 0 -76 -76l-33 -168q-4 -18 -4 -31q0 -27 15 -39.5t36 -12.5
q61 0 76 76l33 168q4 18 4 31z" />
    <glyph glyph-name="one.tosf" 
d="M457 597l-119 -597h-156l84 420l-168 -118l35 177l168 118h156z" />
    <glyph glyph-name="two.tosf" 
d="M510 437q0 -54 -38 -103t-135 -120l-99 -73h233l-29 -141h-453l28 141l241 180q59 44 76.5 64t17.5 45q0 23 -13.5 37.5t-39.5 14.5q-61 0 -78 -71h-156q18 105 83.5 158.5t172.5 53.5q90 0 139.5 -53t49.5 -133z" />
    <glyph glyph-name="three.tosf" 
d="M502 425q0 -118 -100 -177q30 -21 43 -49t13 -76q0 -106 -71 -175t-168 -69q-98 0 -158.5 47.5t-60.5 128.5q0 12 4 42h154q-2 -9 -2 -22q0 -24 16.5 -39.5t47.5 -15.5q33 0 57 29t24 66q0 29 -16 47.5t-46 18.5h-22l27 136h22q32 0 55.5 28t23.5 60q0 28 -13.5 42.5
t-34.5 14.5q-27 0 -49.5 -17.5t-30.5 -51.5h-156q44 210 257 210q82 0 133 -52t51 -126z" />
    <glyph glyph-name="four.tosf" 
d="M488 182l-29 -148h-51l-31 -157h-148l31 157h-285l29 148l317 466h175l-317 -466h109l23 116h148l-23 -116h52z" />
    <glyph glyph-name="five.tosf" 
d="M540 597l-28 -141h-269l-23 -117q36 25 88 25q82 0 124.5 -49.5t42.5 -119.5q0 -39 -6 -67q-22 -121 -82 -182q-64 -67 -175 -67q-85 0 -137.5 49t-52.5 127q0 17 3 43h149q-1 -7 -1 -19q0 -59 51 -59q63 0 85 108q6 32 6 46q0 59 -51 59q-50 0 -75 -51h-142l83 415h410z
" />
    <glyph glyph-name="six.tosf" 
d="M492 247q0 -110 -68 -181.5t-182 -71.5q-110 0 -165.5 63t-55.5 149q0 57 24.5 110t69.5 117l208 295h169l-210 -292q20 6 45 6q26 0 52.5 -9t53 -29.5t43 -61t16.5 -95.5zM337 236q0 41 -20 61.5t-50 20.5q-35 0 -63 -27t-28 -75q0 -41 20 -61.5t50 -20.5q35 0 63 27
t28 75z" />
    <glyph glyph-name="seven.tosf" 
d="M561 597l-28 -141l-319 -571h-172l319 571h-147l-22 -109h-148l50 250h467z" />
    <glyph glyph-name="eight.tosf" 
d="M534 520q0 -52 -29 -97t-72 -69q52 -49 52 -124q0 -104 -68 -170t-183 -66q-92 0 -151 50t-59 146q0 57 29 106t83 80q-48 50 -48 124q0 91 66.5 154.5t174.5 63.5q91 0 148 -54.5t57 -143.5zM327 227q0 27 -16 47.5t-46 20.5q-35 0 -59 -26t-24 -66q0 -27 16 -47.5
t46 -20.5q35 0 59 26t24 66zM376 516q0 24 -14 42.5t-41 18.5q-32 0 -54 -23.5t-22 -61.5q0 -24 14 -42.5t41 -18.5q32 0 54 23.5t22 61.5z" />
    <glyph glyph-name="nine.tosf" 
d="M519 391q0 -57 -24.5 -110t-69.5 -117l-208 -295h-169l210 292q-20 -6 -45 -6q-26 0 -52.5 9t-53 29.5t-43 61t-16.5 95.5q0 110 68 181.5t182 71.5q110 0 165.5 -63t55.5 -149zM364 381q0 39 -20 60.5t-52 21.5q-34 0 -61.5 -27.5t-27.5 -74.5q0 -39 20 -60.5t52 -21.5
q34 0 61.5 27.5t27.5 74.5z" />
    <glyph glyph-name="uni2007.tosf" 
 />
    <glyph glyph-name="hyphen.case" horiz-adv-x="405" 
d="M391 429l-29 -146h-312l29 146h312z" />
    <glyph glyph-name="exclamdown.case" horiz-adv-x="348" 
d="M251 475l-51 -475h-196l135 475h112zM320 712l-31 -161h-160l31 161h160z" />
    <glyph glyph-name="guillemotleft.case" horiz-adv-x="638" 
d="M360 625l-40 -199l-95 -81l62 -82l-34 -176l-206 271zM654 625l-40 -199l-95 -81l62 -82l-34 -176l-206 271z" />
    <glyph glyph-name="uni00AD.case" horiz-adv-x="405" 
d="M391 429l-29 -146h-312l29 146h312z" />
    <glyph glyph-name="guillemotright.case" horiz-adv-x="638" 
d="M335 354l-313 -267l40 199l95 81l-62 82l34 176zM629 354l-313 -267l40 199l95 81l-62 82l34 176z" />
    <glyph glyph-name="questiondown.case" horiz-adv-x="511" 
d="M444 197q-18 -106 -85.5 -154.5t-167.5 -48.5q-71 0 -123 45.5t-52 120.5q0 91 76 172l82 87q21 21 27 47l2 9h156l-5 -23q-15 -68 -58 -111l-82 -82q-41 -41 -41 -81q0 -19 11 -31.5t30 -12.5q62 0 74 63h156zM405 712l-31 -161h-160l32 161h159z" />
    <glyph glyph-name="endash.case" 
d="M514 429l-29 -146h-435l29 146h435z" />
    <glyph glyph-name="emdash.case" horiz-adv-x="1038" 
d="M1025 429l-29 -146h-946l29 146h946z" />
    <glyph glyph-name="afii00208.case" horiz-adv-x="1038" 
d="M1025 429l-29 -146h-946l29 146h946z" />
    <glyph glyph-name="guilsinglleft.case" horiz-adv-x="345" 
d="M360 625l-40 -199l-95 -81l62 -82l-34 -176l-206 271z" />
    <glyph glyph-name="guilsinglright.case" horiz-adv-x="345" 
d="M335 354l-313 -267l40 199l95 81l-62 82l34 176z" />
    <glyph glyph-name="caroncomma.ss01" horiz-adv-x="263" 
d="M775 762l-23 -117l-152 -98l43 215h132z" />
    <glyph glyph-name="commaaccent.ss01" horiz-adv-x="500" 
d="M267 -118q0 -51 -38 -82t-91 -31h-11l15 75q16 -1 26 7.5t10 21.5q0 23 -25 26l15 75q39 -2 69 -26t30 -66z" />
    <glyph glyph-name="commaturn.ss01" horiz-adv-x="500" 
d="M412 798l-15 -75q-16 1 -26 -7.5t-10 -21.5q0 -23 25 -26l-15 -75q-39 2 -69 26t-30 66q0 54 42 85.5t98 27.5z" />
    <glyph glyph-name="exclam.ss01" horiz-adv-x="348" 
d="M378 712l-135 -475h-112l51 475h196zM250 87q0 -37 -26.5 -63.5t-63.5 -26.5t-63.5 26.5t-26.5 63.5t26.5 64t63.5 27t63.5 -27t26.5 -64z" />
    <glyph glyph-name="period.ss01" horiz-adv-x="293" 
d="M212 97q0 -41 -29.5 -70.5t-70.5 -29.5t-70 29.5t-29 70.5t29 70.5t70 29.5t70.5 -29.5t29.5 -70.5z" />
    <glyph glyph-name="colon.ss01" horiz-adv-x="314" 
d="M285 347q0 -41 -29.5 -70.5t-70.5 -29.5t-70 29.5t-29 70.5t29 70.5t70 29.5t70.5 -29.5t29.5 -70.5zM235 97q0 -41 -29.5 -70.5t-70.5 -29.5t-70 29.5t-29 70.5t29 70.5t70 29.5t70.5 -29.5t29.5 -70.5z" />
    <glyph glyph-name="semicolon.ss01" horiz-adv-x="314" 
d="M237 174l-45 -224l-191 -128l70 352h166zM285 347q0 -41 -29.5 -70.5t-70.5 -29.5t-70 29.5t-29 70.5t29 70.5t70 29.5t70.5 -29.5t29.5 -70.5z" />
    <glyph glyph-name="question.ss01" horiz-adv-x="511" 
d="M533 552q0 -91 -76 -172l-82 -87q-21 -21 -27 -47l-2 -9h-156l5 23q15 68 58 111l82 82q41 41 41 81q0 19 -11 31.5t-30 12.5q-62 0 -74 -63h-156q18 106 85.5 154.5t167.5 48.5q71 0 123 -45.5t52 -120.5zM331 87q0 -37 -26.5 -63.5t-63.5 -26.5t-63.5 26.5t-26.5 63.5
t26.5 64t63.5 27t63.5 -27t26.5 -64z" />
    <glyph glyph-name="at.ss01" horiz-adv-x="966" 
d="M935 346q0 -125 -87 -214.5t-222 -89.5h-121l9 42q-49 -48 -109 -48q-67 0 -104 38t-37 93q0 32 14 100q12 57 18 81.5t22.5 56.5t41.5 54q44 39 117 39q69 0 104 -45l8 39h141l-73 -362q81 7 124 68.5t43 147.5q0 123 -80 194t-215 71q-152 0 -255 -101t-103 -250
q0 -166 95 -255.5t267 -89.5h87l-20 -96h-87q-209 0 -334 122.5t-125 318.5q0 195 136 324.5t339 129.5q182 0 294 -103t112 -265zM550 322q0 25 -13 39t-34 14q-26 0 -44 -15q-26 -21 -40 -93q-7 -42 -7 -55q0 -25 13 -39t34 -14q27 0 46 16q25 22 38 92q7 42 7 55z" />
    <glyph glyph-name="C.ss01" 
d="M559 632l-124 -105q-30 45 -73 45q-42 0 -69 -30q-19 -21 -31.5 -57.5t-31.5 -128.5q-19 -97 -19 -140q0 -76 72 -76q52 0 88 45l95 -117q-76 -74 -189 -74q-114 0 -174 61.5t-60 146.5q0 49 21 154q24 121 46.5 181.5t64.5 102.5q78 78 199 78q64 0 106.5 -20t78.5 -66z
" />
    <glyph glyph-name="G.ss01" horiz-adv-x="606" 
d="M576 622l-128 -105q-31 55 -81 55q-44 0 -73 -29q-23 -23 -34.5 -59t-30.5 -128q-19 -93 -19 -141q0 -75 72 -75q43 0 75 31t42 83l3 15h-99l26 138h264l-18 -96q-17 -88 -39 -140t-65 -95q-82 -82 -200 -82q-113 0 -170.5 62.5t-57.5 145.5q0 56 20 154q26 133 46 186
t61 94q82 82 209 82q129 0 197 -96z" />
    <glyph glyph-name="a.ss01" horiz-adv-x="541" 
d="M536 538l-107 -538h-150l9 45q-46 -51 -123 -51q-40 0 -69 14t-44 36t-21.5 44.5t-6.5 44.5q0 45 18 136q19 95 37 146t45 78q51 51 135 51q77 0 118 -52l9 46h150zM338 350q0 53 -47 53q-32 0 -50 -18q-26 -26 -43 -116q-11 -55 -11 -81q0 -53 47 -53q32 0 50 18
q26 26 43 116q11 55 11 81z" />
    <glyph glyph-name="i.ss01" horiz-adv-x="274" 
d="M264 515l-103 -515h-156l103 515h156zM307 661q0 -39 -28 -67t-67 -28t-67 28t-28 67t28 67t67 28t67 -28t28 -67z" />
    <glyph glyph-name="j.ss01" horiz-adv-x="274" 
d="M265 515l-107 -536q-15 -73 -61.5 -116t-119.5 -43h-93l27 132h51q16 0 27.5 11t14.5 28l105 524h156zM307 661q0 -39 -28 -67t-67 -28t-67 28t-28 67t28 67t67 28t67 -28t28 -67z" />
    <glyph glyph-name="exclamdown.ss01" horiz-adv-x="348" 
d="M218 301l-51 -475h-196l135 475h112zM279 451q0 -37 -26.5 -64t-63.5 -27t-63.5 27t-26.5 64t26.5 63.5t63.5 26.5t63.5 -26.5t26.5 -63.5z" />
    <glyph glyph-name="dieresis.ss01" horiz-adv-x="475" 
d="M303 676q0 -32 -22.5 -54t-53.5 -22t-53.5 22t-22.5 54t22.5 54t53.5 22t53.5 -22t22.5 -54zM526 676q0 -32 -22 -54t-54 -22t-54 22t-22 54t22 54t54 22t54 -22t22 -54z" />
    <glyph glyph-name="ordfeminine.ss01" horiz-adv-x="443" 
d="M486 713l-86 -430h-120l7 36q-39 -41 -98 -41q-61 0 -87 35t-26 79q0 33 15 106q28 142 65 179q41 41 108 41q61 0 95 -42l7 37h120zM327 563q0 42 -37 42q-26 0 -40 -14q-21 -19 -35 -93q-8 -40 -8 -65q0 -42 37 -42q26 0 41 15q20 21 34 92q8 40 8 65z" />
    <glyph glyph-name="periodcentered.ss01" horiz-adv-x="293" 
d="M252 295q0 -41 -29.5 -70.5t-70.5 -29.5t-70.5 29.5t-29.5 70.5t29.5 70.5t70.5 29.5t70.5 -29.5t29.5 -70.5z" />
    <glyph glyph-name="cedilla.ss01" horiz-adv-x="500" 
d="M267 -118q0 -54 -42 -85.5t-98 -27.5l15 75q16 -1 26 7.5t10 21.5q0 23 -25 26l15 75q39 -2 69 -26t30 -66z" />
    <glyph glyph-name="questiondown.ss01" horiz-adv-x="511" 
d="M409 23q-18 -106 -85.5 -154.5t-167.5 -48.5q-71 0 -123 45.5t-52 120.5q0 91 76 172l82 87q21 21 27 47l2 9h156l-5 -23q-15 -68 -58 -111l-82 -82q-41 -41 -41 -81q0 -19 11 -31.5t30 -12.5q62 0 74 63h156zM363 451q0 -37 -26.5 -64t-63.5 -27t-63.5 27t-26.5 64
t26.5 63.5t63.5 26.5t63.5 -26.5t26.5 -63.5z" />
    <glyph glyph-name="Adieresis.ss01" horiz-adv-x="622" 
d="M569 0h-169l-10 112h-211l-55 -112h-177l388 712h129zM377 247l-22 210l-108 -210h130zM383 848q0 -32 -22.5 -54t-53.5 -22t-53.5 22t-22.5 54t22.5 54t53.5 22t53.5 -22t22.5 -54zM606 848q0 -32 -22 -54t-54 -22t-54 22t-22 54t22 54t54 22t54 -22t22 -54z" />
    <glyph glyph-name="Ccedilla.ss01" 
d="M559 632l-124 -105q-30 45 -73 45q-42 0 -69 -30q-19 -21 -31.5 -57.5t-31.5 -128.5q-19 -97 -19 -140q0 -76 72 -76q52 0 88 45l95 -117q-76 -74 -189 -74q-114 0 -174 61.5t-60 146.5q0 49 21 154q24 121 46.5 181.5t64.5 102.5q78 78 199 78q64 0 106.5 -20t78.5 -66z
M295 -118q0 -54 -42 -85.5t-98 -27.5l15 75q16 -1 26 7.5t10 21.5q0 23 -25 26l15 75q39 -2 69 -26t30 -66z" />
    <glyph glyph-name="Edieresis.ss01" horiz-adv-x="581" 
d="M617 712l-29 -146h-293l-27 -134h253l-29 -146h-253l-28 -140h299l-29 -146h-466l143 712h459zM356 848q0 -32 -22 -54t-54 -22t-54 22t-22 54t22 54t54 22t54 -22t22 -54zM579 848q0 -32 -22.5 -54t-53.5 -22t-53.5 22t-22.5 54t22.5 54t53.5 22t53.5 -22t22.5 -54z" />
    <glyph glyph-name="Idieresis.ss01" horiz-adv-x="303" 
d="M324 712l-143 -712h-166l143 712h166zM226 848q0 -32 -22 -54t-54 -22t-54 22t-22 54t22 54t54 22t54 -22t22 -54zM449 848q0 -32 -22.5 -54t-53.5 -22t-53.5 22t-22.5 54t22.5 54t53.5 22t53.5 -22t22.5 -54z" />
    <glyph glyph-name="Odieresis.ss01" horiz-adv-x="608" 
d="M599 510q0 -59 -19 -154q-15 -77 -25 -116t-31 -85t-51 -78q-78 -83 -205 -83q-106 0 -165 61t-59 147q0 59 19 154q15 77 25 116t31 85t51 78q78 83 205 83q106 0 165 -61t59 -147zM432 496q0 36 -19.5 56t-50.5 20q-41 0 -71 -33q-31 -34 -61 -183q-19 -95 -19 -140
q0 -36 19.5 -56t50.5 -20q41 0 71 33q31 34 61 183q19 95 19 140zM373 848q0 -32 -22.5 -54t-53.5 -22t-53.5 22t-22.5 54t22.5 54t53.5 22t53.5 -22t22.5 -54zM596 848q0 -32 -22 -54t-54 -22t-54 22t-22 54t22 54t54 22t54 -22t22 -54z" />
    <glyph glyph-name="Udieresis.ss01" horiz-adv-x="627" 
d="M659 712l-93 -463q-26 -131 -105.5 -193t-183.5 -62q-101 0 -164 58.5t-63 149.5q0 34 6 62l90 448h166l-92 -457q-4 -24 -4 -40q0 -32 17.5 -53t53.5 -21q91 0 116 122l90 449h166zM387 848q0 -32 -22.5 -54t-53.5 -22t-53.5 22t-22.5 54t22.5 54t53.5 22t53.5 -22
t22.5 -54zM610 848q0 -32 -22 -54t-54 -22t-54 22t-22 54t22 54t54 22t54 -22t22 -54z" />
    <glyph glyph-name="agrave.ss01" horiz-adv-x="541" 
d="M536 538l-107 -538h-150l9 45q-46 -51 -123 -51q-40 0 -69 14t-44 36t-21.5 44.5t-6.5 44.5q0 45 18 136q19 95 37 146t45 78q51 51 135 51q77 0 118 -52l9 46h150zM338 350q0 53 -47 53q-32 0 -50 -18q-26 -26 -43 -116q-11 -55 -11 -81q0 -53 47 -53q32 0 50 18
q26 26 43 116q11 55 11 81zM382 608h-108l-72 177h142z" />
    <glyph glyph-name="aacute.ss01" horiz-adv-x="541" 
d="M536 538l-107 -538h-150l9 45q-46 -51 -123 -51q-40 0 -69 14t-44 36t-21.5 44.5t-6.5 44.5q0 45 18 136q19 95 37 146t45 78q51 51 135 51q77 0 118 -52l9 46h150zM338 350q0 53 -47 53q-32 0 -50 -18q-26 -26 -43 -116q-11 -55 -11 -81q0 -53 47 -53q32 0 50 18
q26 26 43 116q11 55 11 81zM521 785l-132 -177h-117l106 177h143z" />
    <glyph glyph-name="acircumflex.ss01" horiz-adv-x="541" 
d="M536 538l-107 -538h-150l9 45q-46 -51 -123 -51q-40 0 -69 14t-44 36t-21.5 44.5t-6.5 44.5q0 45 18 136q19 95 37 146t45 78q51 51 135 51q77 0 118 -52l9 46h150zM338 350q0 53 -47 53q-32 0 -50 -18q-26 -26 -43 -116q-11 -55 -11 -81q0 -53 47 -53q32 0 50 18
q26 26 43 116q11 55 11 81zM516 608h-109l-56 87l-93 -87h-120l165 179h120z" />
    <glyph glyph-name="atilde.ss01" horiz-adv-x="541" 
d="M536 538l-107 -538h-150l9 45q-46 -51 -123 -51q-40 0 -69 14t-44 36t-21.5 44.5t-6.5 44.5q0 45 18 136q19 95 37 146t45 78q51 51 135 51q77 0 118 -52l9 46h150zM338 350q0 53 -47 53q-32 0 -50 -18q-26 -26 -43 -116q-11 -55 -11 -81q0 -53 47 -53q32 0 50 18
q26 26 43 116q11 55 11 81zM525 665q-58 -55 -119 -55q-42 0 -82 21q-30 16 -53 16q-33 0 -62 -29l-54 72q58 55 119 55q42 0 82 -21q30 -16 53 -16q33 0 62 29z" />
    <glyph glyph-name="adieresis.ss01" horiz-adv-x="541" 
d="M536 538l-107 -538h-150l9 45q-46 -51 -123 -51q-40 0 -69 14t-44 36t-21.5 44.5t-6.5 44.5q0 45 18 136q19 95 37 146t45 78q51 51 135 51q77 0 118 -52l9 46h150zM338 350q0 53 -47 53q-32 0 -50 -18q-26 -26 -43 -116q-11 -55 -11 -81q0 -53 47 -53q32 0 50 18
q26 26 43 116q11 55 11 81zM303 676q0 -32 -22.5 -54t-53.5 -22t-53.5 22t-22.5 54t22.5 54t53.5 22t53.5 -22t22.5 -54zM526 676q0 -32 -22 -54t-54 -22t-54 22t-22 54t22 54t54 22t54 -22t22 -54z" />
    <glyph glyph-name="aring.ss01" horiz-adv-x="541" 
d="M536 538l-107 -538h-150l9 45q-46 -51 -123 -51q-40 0 -69 14t-44 36t-21.5 44.5t-6.5 44.5q0 45 18 136q19 95 37 146t45 78q51 51 135 51q77 0 118 -52l9 46h150zM338 350q0 53 -47 53q-32 0 -50 -18q-26 -26 -43 -116q-11 -55 -11 -81q0 -53 47 -53q32 0 50 18
q26 26 43 116q11 55 11 81zM480 725q0 -56 -38.5 -94t-93.5 -38t-93.5 38t-38.5 94t38.5 94t93.5 38t93.5 -37.5t38.5 -94.5zM399 725q0 21 -15.5 36t-35.5 15t-35.5 -15t-15.5 -36t15.5 -36t35.5 -15t35.5 15t15.5 36z" />
    <glyph glyph-name="ae.ss01" horiz-adv-x="833" 
d="M805 348q0 -53 -18 -129h-315q-2 -16 -2 -21q0 -33 22.5 -53t61.5 -20q63 0 115 50l78 -102q-82 -79 -209 -79q-88 0 -136 61l-11 -55h-100l10 50q-54 -56 -134 -56q-40 0 -69.5 14t-44.5 37t-22 48t-7 52q0 44 16 124q20 103 39.5 150.5t45.5 73.5q51 51 138 51
q79 0 117 -56l10 50h100l-11 -55q46 61 136 61q26 0 55 -9t61 -29t53 -61.5t21 -96.5zM344 343q0 60 -50 60q-33 0 -53 -20q-29 -29 -45 -114q-9 -45 -9 -74q0 -60 50 -60q36 0 56 23q26 30 42 111q9 45 9 74zM657 348q0 32 -16 50t-47 18q-76 0 -102 -94h162q3 12 3 26z
" />
    <glyph glyph-name="ccedilla.ss01" horiz-adv-x="453" 
d="M470 472l-118 -104q-27 35 -57 35q-31 0 -54 -24q-34 -36 -48 -110q-7 -37 -7 -63q0 -71 54 -71q38 0 74 36l86 -113q-72 -64 -177 -64q-48 0 -90 18t-73 63t-31 110q0 41 8 84q50 275 273 275q101 0 160 -72zM267 -118q0 -54 -42 -85.5t-98 -27.5l15 75q16 -1 26 7.5
t10 21.5q0 23 -25 26l15 75q39 -2 69 -26t30 -66z" />
    <glyph glyph-name="edieresis.ss01" horiz-adv-x="533" 
d="M505 348q0 -53 -18 -129h-310q-2 -14 -2 -22q0 -33 20 -52.5t59 -19.5q63 0 115 50l78 -102q-82 -79 -212 -79q-36 0 -70 9t-66.5 29.5t-52 59.5t-19.5 93q0 98 30.5 178t94.5 130.5t152 50.5t144.5 -52.5t56.5 -143.5zM357 348q0 31 -16 49.5t-46 18.5q-71 0 -98 -94
h157q3 12 3 26zM310 676q0 -32 -22 -54t-54 -22t-54 22t-22 54t22 54t54 22t54 -22t22 -54zM533 676q0 -32 -22.5 -54t-53.5 -22t-53.5 22t-22.5 54t22.5 54t53.5 22t53.5 -22t22.5 -54z" />
    <glyph glyph-name="idieresis.ss01" horiz-adv-x="274" 
d="M264 515l-103 -515h-156l103 515h156zM178 676q0 -32 -22 -54t-54 -22t-54 22t-22 54t22 54t54 22t54 -22t22 -54zM401 676q0 -32 -22.5 -54t-53.5 -22t-53.5 22t-22.5 54t22.5 54t53.5 22t53.5 -22t22.5 -54z" />
    <glyph glyph-name="odieresis.ss01" horiz-adv-x="522" 
d="M491 366q0 -42 -11 -97q-17 -83 -37 -129t-56 -82q-64 -64 -171 -64q-76 0 -131.5 46.5t-55.5 131.5q0 42 11 97q17 83 37 129t56 82q64 64 171 64q76 0 131.5 -46.5t55.5 -131.5zM336 347q0 56 -48 56q-30 0 -48 -18q-27 -26 -45 -116q-11 -55 -11 -78q0 -56 48 -56
q30 0 48 18q27 26 45 116q11 55 11 78zM303 676q0 -32 -22.5 -54t-53.5 -22t-53.5 22t-22.5 54t22.5 54t53.5 22t53.5 -22t22.5 -54zM526 676q0 -32 -22 -54t-54 -22t-54 22t-22 54t22 54t54 22t54 -22t22 -54z" />
    <glyph glyph-name="divide.ss01" 
d="M332 77q0 -41 -29.5 -70.5t-70.5 -29.5t-70 29.5t-29 70.5t29 70.5t70 29.5t70.5 -29.5t29.5 -70.5zM508 368l-29 -146h-447l29 146h447zM408 513q0 -41 -29.5 -70.5t-70.5 -29.5t-70 29.5t-29 70.5t29 70.5t70 29.5t70.5 -29.5t29.5 -70.5z" />
    <glyph glyph-name="udieresis.ss01" horiz-adv-x="550" 
d="M544 538l-107 -538h-149l9 47q-53 -53 -132 -53q-49 0 -90.5 36t-41.5 112q0 30 7 62l67 334h156l-65 -325q-3 -14 -3 -27q0 -25 14 -38t31 -13q67 0 83 78l65 325h156zM316 676q0 -32 -22 -54t-54 -22t-54 22t-22 54t22 54t54 22t54 -22t22 -54zM539 676
q0 -32 -22.5 -54t-53.5 -22t-53.5 22t-22.5 54t22.5 54t53.5 22t53.5 -22t22.5 -54z" />
    <glyph glyph-name="ydieresis.ss01" horiz-adv-x="488" 
d="M546 538l-324 -602q-22 -41 -44 -62q-53 -54 -136 -54h-58l29 142h32q20 0 33.5 11.5t26.5 36.5l23 43l-75 485h154l30 -300l145 300h164zM284 676q0 -32 -22 -54t-54 -22t-54 22t-22 54t22 54t54 22t54 -22t22 -54zM507 676q0 -32 -22.5 -54t-53.5 -22t-53.5 22
t-22.5 54t22.5 54t53.5 22t53.5 -22t22.5 -54z" />
    <glyph glyph-name="amacron.ss01" horiz-adv-x="541" 
d="M536 538l-107 -538h-150l9 45q-46 -51 -123 -51q-40 0 -69 14t-44 36t-21.5 44.5t-6.5 44.5q0 45 18 136q19 95 37 146t45 78q51 51 135 51q77 0 118 -52l9 46h150zM338 350q0 53 -47 53q-32 0 -50 -18q-26 -26 -43 -116q-11 -55 -11 -81q0 -53 47 -53q32 0 50 18
q26 26 43 116q11 55 11 81zM505 722l-20 -99h-310l20 99h310z" />
    <glyph glyph-name="abreve.ss01" horiz-adv-x="541" 
d="M536 538l-107 -538h-150l9 45q-46 -51 -123 -51q-40 0 -69 14t-44 36t-21.5 44.5t-6.5 44.5q0 45 18 136q19 95 37 146t45 78q51 51 135 51q77 0 118 -52l9 46h150zM338 350q0 53 -47 53q-32 0 -50 -18q-26 -26 -43 -116q-11 -55 -11 -81q0 -53 47 -53q32 0 50 18
q26 26 43 116q11 55 11 81zM505 753q-16 -82 -59 -118.5t-116 -36.5q-67 0 -103 34t-36 86q0 18 3 35h99q-1 -9 -1 -14q0 -20 14.5 -29.5t34.5 -9.5q51 0 62 53h102z" />
    <glyph glyph-name="Aogonek.ss01" horiz-adv-x="622" 
d="M569 0h-169l-10 112h-211l-55 -112h-177l388 712h129zM377 247l-22 210l-108 -210h130zM552 -27l-15 -75q-16 1 -26 -7.5t-10 -21.5q0 -23 25 -26l-15 -75q-39 2 -69 26t-30 66q0 51 38 82t91 31h11z" />
    <glyph glyph-name="aogonek.ss01" horiz-adv-x="541" 
d="M536 538l-107 -538h-150l9 45q-46 -51 -123 -51q-40 0 -69 14t-44 36t-21.5 44.5t-6.5 44.5q0 45 18 136q19 95 37 146t45 78q51 51 135 51q77 0 118 -52l9 46h150zM338 350q0 53 -47 53q-32 0 -50 -18q-26 -26 -43 -116q-11 -55 -11 -81q0 -53 47 -53q32 0 50 18
q26 26 43 116q11 55 11 81zM411 -27l-15 -75q-16 1 -26 -7.5t-10 -21.5q0 -23 25 -26l-15 -75q-39 2 -69 26t-30 66q0 51 38 82t91 31h11z" />
    <glyph glyph-name="Cacute.ss01" 
d="M559 632l-124 -105q-30 45 -73 45q-42 0 -69 -30q-19 -21 -31.5 -57.5t-31.5 -128.5q-19 -97 -19 -140q0 -76 72 -76q52 0 88 45l95 -117q-76 -74 -189 -74q-114 0 -174 61.5t-60 146.5q0 49 21 154q24 121 46.5 181.5t64.5 102.5q78 78 199 78q64 0 106.5 -20t78.5 -66z
M583 957l-132 -177h-117l106 177h143z" />
    <glyph glyph-name="Ccircumflex.ss01" 
d="M559 632l-124 -105q-30 45 -73 45q-42 0 -69 -30q-19 -21 -31.5 -57.5t-31.5 -128.5q-19 -97 -19 -140q0 -76 72 -76q52 0 88 45l95 -117q-76 -74 -189 -74q-114 0 -174 61.5t-60 146.5q0 49 21 154q24 121 46.5 181.5t64.5 102.5q78 78 199 78q64 0 106.5 -20t78.5 -66z
M578 780h-109l-56 87l-93 -87h-120l165 179h120z" />
    <glyph glyph-name="Cdotaccent.ss01" 
d="M559 632l-124 -105q-30 45 -73 45q-42 0 -69 -30q-19 -21 -31.5 -57.5t-31.5 -128.5q-19 -97 -19 -140q0 -76 72 -76q52 0 88 45l95 -117q-76 -74 -189 -74q-114 0 -174 61.5t-60 146.5q0 49 21 154q24 121 46.5 181.5t64.5 102.5q78 78 199 78q64 0 106.5 -20t78.5 -66z
M473 852q0 -32 -22.5 -54t-53.5 -22t-53.5 22t-22.5 54t22.5 54t53.5 22t53.5 -22t22.5 -54z" />
    <glyph glyph-name="cdotaccent.ss01" horiz-adv-x="453" 
d="M470 472l-118 -104q-27 35 -57 35q-31 0 -54 -24q-34 -36 -48 -110q-7 -37 -7 -63q0 -71 54 -71q38 0 74 36l86 -113q-72 -64 -177 -64q-48 0 -90 18t-73 63t-31 110q0 41 8 84q50 275 273 275q101 0 160 -72zM415 680q0 -32 -22.5 -54t-53.5 -22t-53.5 22t-22.5 54
t22.5 54t53.5 22t53.5 -22t22.5 -54z" />
    <glyph glyph-name="Ccaron.ss01" 
d="M559 632l-124 -105q-30 45 -73 45q-42 0 -69 -30q-19 -21 -31.5 -57.5t-31.5 -128.5q-19 -97 -19 -140q0 -76 72 -76q52 0 88 45l95 -117q-76 -74 -189 -74q-114 0 -174 61.5t-60 146.5q0 49 21 154q24 121 46.5 181.5t64.5 102.5q78 78 199 78q64 0 106.5 -20t78.5 -66z
M621 959l-165 -179h-120l-94 179h110l56 -87l93 87h120z" />
    <glyph glyph-name="dcaron.ss01" horiz-adv-x="541" 
d="M571 712l-142 -712h-150l9 45q-46 -51 -123 -51q-75 0 -108 44t-33 97q0 47 18 134q19 95 37 146t45 78q51 51 133 51q75 0 115 -49l43 217h156zM338 350q0 53 -47 53q-41 0 -59.5 -30t-33.5 -104q-11 -55 -11 -81q0 -53 47 -53q41 0 59.5 30t33.5 104q11 55 11 81z
M775 762l-23 -117l-152 -98l43 215h132z" />
    <glyph glyph-name="Edotaccent.ss01" horiz-adv-x="581" 
d="M617 712l-29 -146h-293l-27 -134h253l-29 -146h-253l-28 -140h299l-29 -146h-466l143 712h459zM464 852q0 -32 -22 -54t-54 -22t-54 22t-22 54t22 54t54 22t54 -22t22 -54z" />
    <glyph glyph-name="edotaccent.ss01" horiz-adv-x="533" 
d="M505 348q0 -53 -18 -129h-310q-2 -14 -2 -22q0 -33 20 -52.5t59 -19.5q63 0 115 50l78 -102q-82 -79 -212 -79q-36 0 -70 9t-66.5 29.5t-52 59.5t-19.5 93q0 98 30.5 178t94.5 130.5t152 50.5t144.5 -52.5t56.5 -143.5zM357 348q0 31 -16 49.5t-46 18.5q-71 0 -98 -94
h157q3 12 3 26zM418 680q0 -32 -22 -54t-54 -22t-54 22t-22 54t22 54t54 22t54 -22t22 -54z" />
    <glyph glyph-name="Eogonek.ss01" horiz-adv-x="581" 
d="M617 712l-29 -146h-293l-27 -134h253l-29 -146h-253l-28 -140h299l-29 -146h-466l143 712h459zM453 -27l-15 -75q-16 1 -26 -7.5t-10 -21.5q0 -23 25 -26l-15 -75q-39 2 -69 26t-30 66q0 51 38 82t91 31h11z" />
    <glyph glyph-name="eogonek.ss01" horiz-adv-x="533" 
d="M505 348q0 -53 -18 -129h-310q-2 -14 -2 -22q0 -33 20 -52.5t59 -19.5q63 0 115 50l78 -102q-82 -79 -212 -79q-36 0 -70 9t-66.5 29.5t-52 59.5t-19.5 93q0 98 30.5 178t94.5 130.5t152 50.5t144.5 -52.5t56.5 -143.5zM357 348q0 31 -16 49.5t-46 18.5q-71 0 -98 -94
h157q3 12 3 26zM395 -27l-15 -75q-16 1 -26 -7.5t-10 -21.5q0 -23 25 -26l-15 -75q-39 2 -69 26t-30 66q0 51 38 82t91 31h11z" />
    <glyph glyph-name="Gcircumflex.ss01" horiz-adv-x="606" 
d="M576 622l-128 -105q-31 55 -81 55q-44 0 -73 -29q-23 -23 -34.5 -59t-30.5 -128q-19 -93 -19 -141q0 -75 72 -75q43 0 75 31t42 83l3 15h-99l26 138h264l-18 -96q-17 -88 -39 -140t-65 -95q-82 -82 -200 -82q-113 0 -170.5 62.5t-57.5 145.5q0 56 20 154q26 133 46 186
t61 94q82 82 209 82q129 0 197 -96zM578 780h-109l-56 87l-93 -87h-120l165 179h120z" />
    <glyph glyph-name="Gbreve.ss01" horiz-adv-x="606" 
d="M576 622l-128 -105q-31 55 -81 55q-44 0 -73 -29q-23 -23 -34.5 -59t-30.5 -128q-19 -93 -19 -141q0 -75 72 -75q43 0 75 31t42 83l3 15h-99l26 138h264l-18 -96q-17 -88 -39 -140t-65 -95q-82 -82 -200 -82q-113 0 -170.5 62.5t-57.5 145.5q0 56 20 154q26 133 46 186
t61 94q82 82 209 82q129 0 197 -96zM577 925q-16 -82 -59 -118.5t-116 -36.5q-67 0 -103 34t-36 86q0 18 3 35h99q-1 -9 -1 -14q0 -20 14.5 -29.5t34.5 -9.5q51 0 62 53h102z" />
    <glyph glyph-name="Gdotaccent.ss01" horiz-adv-x="606" 
d="M576 622l-128 -105q-31 55 -81 55q-44 0 -73 -29q-23 -23 -34.5 -59t-30.5 -128q-19 -93 -19 -141q0 -75 72 -75q43 0 75 31t42 83l3 15h-99l26 138h264l-18 -96q-17 -88 -39 -140t-65 -95q-82 -82 -200 -82q-113 0 -170.5 62.5t-57.5 145.5q0 56 20 154q26 133 46 186
t61 94q82 82 209 82q129 0 197 -96zM473 852q0 -32 -22.5 -54t-53.5 -22t-53.5 22t-22.5 54t22.5 54t53.5 22t53.5 -22t22.5 -54z" />
    <glyph glyph-name="gdotaccent.ss01" horiz-adv-x="533" 
d="M528 538l-99 -499q-20 -104 -88 -161.5t-174 -57.5q-121 0 -187 74l108 94q34 -36 79 -36q47 0 73.5 26.5t33.5 61.5l8 39q-40 -45 -105 -45q-58 0 -102 37.5t-44 106.5q0 27 15 111q16 86 31.5 130.5t42.5 71.5q53 53 135 53q73 0 114 -53l9 47h150zM331 353
q0 50 -46 50q-34 0 -52 -24t-31 -91q-8 -43 -8 -63q0 -50 46 -50q34 0 52 24t31 91q8 43 8 63zM411 680q0 -32 -22.5 -54t-53.5 -22t-53.5 22t-22.5 54t22.5 54t53.5 22t53.5 -22t22.5 -54z" />
    <glyph glyph-name="Gcommaaccent.ss01" horiz-adv-x="606" 
d="M576 622l-128 -105q-31 55 -81 55q-44 0 -73 -29q-23 -23 -34.5 -59t-30.5 -128q-19 -93 -19 -141q0 -75 72 -75q43 0 75 31t42 83l3 15h-99l26 138h264l-18 -96q-17 -88 -39 -140t-65 -95q-82 -82 -200 -82q-113 0 -170.5 62.5t-57.5 145.5q0 56 20 154q26 133 46 186
t61 94q82 82 209 82q129 0 197 -96zM295 -118q0 -51 -38 -82t-91 -31h-11l15 75q16 -1 26 7.5t10 21.5q0 23 -25 26l15 75q39 -2 69 -26t30 -66z" />
    <glyph glyph-name="gcommaaccent.ss01" horiz-adv-x="533" 
d="M528 538l-99 -499q-20 -104 -88 -161.5t-174 -57.5q-121 0 -187 74l108 94q34 -36 79 -36q47 0 73.5 26.5t33.5 61.5l8 39q-40 -45 -105 -45q-58 0 -102 37.5t-44 106.5q0 27 15 111q16 86 31.5 130.5t42.5 71.5q53 53 135 53q73 0 114 -53l9 47h150zM331 353
q0 50 -46 50q-34 0 -52 -24t-31 -91q-8 -43 -8 -63q0 -50 46 -50q34 0 52 24t31 91q8 43 8 63zM428 798l-15 -75q-16 1 -26 -7.5t-10 -21.5q0 -23 25 -26l-15 -75q-39 2 -69 26t-30 66q0 54 42 85.5t98 27.5z" />
    <glyph glyph-name="Iogonek.ss01" horiz-adv-x="303" 
d="M324 712l-143 -712h-166l143 712h166zM159 -27l-15 -75q-16 1 -26 -7.5t-10 -21.5q0 -23 25 -26l-15 -75q-39 2 -69 26t-30 66q0 51 38 82t91 31h11z" />
    <glyph glyph-name="iogonek.ss01" horiz-adv-x="274" 
d="M264 515l-103 -515h-156l103 515h156zM307 661q0 -39 -28 -67t-67 -28t-67 28t-28 67t28 67t67 28t67 -28t28 -67zM139 -27l-15 -75q-16 1 -26 -7.5t-10 -21.5q0 -23 25 -26l-15 -75q-39 2 -69 26t-30 66q0 51 38 82t91 31h11z" />
    <glyph glyph-name="Idotaccent.ss01" horiz-adv-x="303" 
d="M324 712l-143 -712h-166l143 712h166zM334 852q0 -32 -22 -54t-54 -22t-54 22t-22 54t22 54t54 22t54 -22t22 -54z" />
    <glyph glyph-name="ij.ss01" horiz-adv-x="548" 
d="M264 515l-103 -515h-156l103 515h156zM307 661q0 -39 -28 -67t-67 -28t-67 28t-28 67t28 67t67 28t67 -28t28 -67zM539 515l-107 -536q-15 -73 -61.5 -116t-119.5 -43h-93l27 132h51q16 0 27.5 11t14.5 28l105 524h156zM581 661q0 -39 -28 -67t-67 -28t-67 28t-28 67
t28 67t67 28t67 -28t28 -67z" />
    <glyph glyph-name="Kcommaaccent.ss01" horiz-adv-x="645" 
d="M721 712l-288 -307l163 -405h-182l-116 298l-74 -69l-45 -229h-164l143 712h164l-51 -255l245 255h205zM323 -118q0 -51 -38 -82t-91 -31h-11l15 75q16 -1 26 7.5t10 21.5q0 23 -25 26l15 75q39 -2 69 -26t30 -66z" />
    <glyph glyph-name="kcommaaccent.ss01" horiz-adv-x="547" 
d="M590 538l-232 -232l141 -306h-178l-81 209l-45 -40l-33 -169h-156l142 712h156l-72 -362l176 188h182zM275 -118q0 -51 -38 -82t-91 -31h-11l15 75q16 -1 26 7.5t10 21.5q0 23 -25 26l15 75q39 -2 69 -26t30 -66z" />
    <glyph glyph-name="Lcommaaccent.ss01" horiz-adv-x="552" 
d="M469 146l-29 -146h-456l143 712h166l-113 -566h289zM285 -118q0 -51 -38 -82t-91 -31h-11l15 75q16 -1 26 7.5t10 21.5q0 23 -25 26l15 75q39 -2 69 -26t30 -66z" />
    <glyph glyph-name="lcommaaccent.ss01" horiz-adv-x="327" 
d="M298 712l-108 -542q-2 -12 -2 -15q0 -23 29 -23h57l-27 -132h-77q-65 0 -102.5 35.5t-37.5 89.5q0 24 4 44l108 543h156zM148 -118q0 -51 -38 -82t-91 -31h-11l15 75q16 -1 26 7.5t10 21.5q0 23 -25 26l15 75q39 -2 69 -26t30 -66z" />
    <glyph glyph-name="Lcaron.ss01" horiz-adv-x="552" 
d="M469 146l-29 -146h-456l143 712h166l-113 -566h289zM530 712l-23 -117l-152 -98l43 215h132z" />
    <glyph glyph-name="lcaron.ss01" horiz-adv-x="327" 
d="M298 712l-108 -542q-2 -12 -2 -15q0 -23 29 -23h57l-27 -132h-77q-65 0 -102.5 35.5t-37.5 89.5q0 24 4 44l108 543h156zM505 762l-23 -117l-152 -98l43 215h132z" />
    <glyph glyph-name="Ldot.ss01" horiz-adv-x="552" 
d="M500 146l-29 -146h-456l143 712h166l-113 -566h289zM522 358q0 -32 -22 -54t-54 -22t-54 22t-22 54t22 54t54 22t54 -22t22 -54z" />
    <glyph glyph-name="ldot.ss01" horiz-adv-x="428" 
d="M298 712l-108 -542q-2 -12 -2 -15q0 -23 29 -23h57l-27 -132h-77q-65 0 -102.5 35.5t-37.5 89.5q0 24 4 44l108 543h156zM428 295q0 -31 -22 -53.5t-54 -22.5t-54 22.5t-22 53.5t22 53.5t54 22.5t54 -22.5t22 -53.5z" />
    <glyph glyph-name="Ncommaaccent.ss01" horiz-adv-x="667" 
d="M688 712l-143 -712h-138l-151 370l-75 -370h-166l143 712h138l152 -371l74 371h166zM323 -118q0 -51 -38 -82t-91 -31h-11l15 75q16 -1 26 7.5t10 21.5q0 23 -25 26l15 75q39 -2 69 -26t30 -66z" />
    <glyph glyph-name="ncommaaccent.ss01" horiz-adv-x="550" 
d="M517 396q0 -30 -7 -62l-67 -334h-156l65 325q3 14 3 27q0 25 -14 38t-31 13q-67 0 -83 -78l-65 -325h-156l107 538h149l-9 -47q53 53 132 53q49 0 90.5 -36t41.5 -112zM275 -118q0 -51 -38 -82t-91 -31h-11l15 75q16 -1 26 7.5t10 21.5q0 23 -25 26l15 75q39 -2 69 -26
t30 -66z" />
    <glyph glyph-name="Rcommaaccent.ss01" horiz-adv-x="624" 
d="M615 506q0 -64 -39.5 -124t-114.5 -91l95 -291h-182l-75 270h-63l-55 -270h-166l143 712h253q105 0 154.5 -58t49.5 -148zM448 497q0 67 -65 67h-88l-32 -156h87q52 0 75 29t23 60zM307 -118q0 -51 -38 -82t-91 -31h-11l15 75q16 -1 26 7.5t10 21.5q0 23 -25 26l15 75
q39 -2 69 -26t30 -66z" />
    <glyph glyph-name="rcommaaccent.ss01" horiz-adv-x="449" 
d="M495 493l-136 -121l-6 7q-6 7 -10.5 11t-14 8t-19.5 4q-28 0 -52 -21.5t-31 -58.5l-64 -322h-156l107 538h150l-9 -46q46 52 128 52q71 0 113 -51zM135 -118q0 -51 -38 -82t-91 -31h-11l15 75q16 -1 26 7.5t10 21.5q0 23 -25 26l15 75q39 -2 69 -26t30 -66z" />
    <glyph glyph-name="Scedilla.ss01" horiz-adv-x="565" 
d="M590 629l-116 -102q-37 46 -116 46q-48 0 -77.5 -24.5t-29.5 -53.5q0 -18 10.5 -29.5t20.5 -15t30 -9.5l54 -14q92 -23 129 -68t37 -124q0 -121 -85 -181t-210 -60q-90 0 -148 22.5t-104 75.5l120 105q49 -56 147 -56q48 0 80.5 23t32.5 54q0 27 -14 40t-46 21l-54 14
q-166 43 -166 175q0 115 81 182.5t211 67.5q144 0 213 -89zM292 -118q0 -54 -42 -85.5t-98 -27.5l15 75q16 -1 26 7.5t10 21.5q0 23 -25 26l15 75q39 -2 69 -26t30 -66z" />
    <glyph glyph-name="scedilla.ss01" horiz-adv-x="477" 
d="M473 474l-106 -94q-13 17 -39.5 26.5t-50.5 9.5q-36 0 -54 -11.5t-18 -29.5q0 -23 33 -29l68 -12q130 -23 130 -144q0 -81 -60 -137q-62 -59 -189 -59q-136 0 -212 82l111 98q39 -46 111 -46q39 0 61.5 13t22.5 31q0 26 -37 32l-68 12q-64 11 -95.5 45.5t-31.5 78.5
q0 84 57 141q63 63 184 63q118 0 183 -70zM247 -118q0 -54 -42 -85.5t-98 -27.5l15 75q16 -1 26 7.5t10 21.5q0 23 -25 26l15 75q39 -2 69 -26t30 -66z" />
    <glyph glyph-name="Tcommaaccent.ss01" horiz-adv-x="557" 
d="M616 712l-30 -147h-163l-113 -565h-166l113 565h-170l30 147h499zM264 -118q0 -51 -38 -82t-91 -31h-11l15 75q16 -1 26 7.5t10 21.5q0 23 -25 26l15 75q39 -2 69 -26t30 -66z" />
    <glyph glyph-name="tcommaaccent.ss01" horiz-adv-x="348" 
d="M356 515l-24 -120h-80l-45 -227q-1 -4 -1 -12q0 -25 31 -25h49l-26 -131h-73q-65 0 -102.5 35.5t-37.5 89.5q0 24 4 44l45 226h-47l24 120h47l31 156h156l-31 -156h80zM165 -118q0 -51 -38 -82t-91 -31h-11l15 75q16 -1 26 7.5t10 21.5q0 23 -25 26l15 75q39 -2 69 -26
t30 -66z" />
    <glyph glyph-name="tcaron.ss01" horiz-adv-x="348" 
d="M356 515l-24 -120h-80l-45 -227q-1 -4 -1 -12q0 -25 31 -25h49l-26 -131h-73q-65 0 -102.5 35.5t-37.5 89.5q0 24 4 44l45 226h-47l24 120h47l31 156h156l-31 -156h80zM515 762l-23 -117l-152 -98l43 215h132z" />
    </font>
</defs>
</svg>
