<svg data-name="Слой 1" xmlns="http://www.w3.org/2000/svg" viewBox="0 0 200 94"><path d="M12.74 0v10.06H9.18V5.87A2.36 2.36 0 006.87 3.5h-1A2.37 2.37 0 003.5 5.87v32a2.37 2.37 0 002.37 2.39h1a2.36 2.36 0 002.31-2.37v-4.23h3.56v10.06H9.18v-.46a5.75 5.75 0 01-2.37.5h-.94A5.86 5.86 0 010 37.85v-32A5.86 5.86 0 015.87 0h.94a5.75 5.75 0 012.37.5V0zm29.61 40.26H44v3.5h-6.71v-3.5h1.12L34.1 24.67v15.59h1.62v3.5H29v-3.5h1.62V3.5H29V0h8.43a5.92 5.92 0 015.93 5.87v12.49a5.92 5.92 0 01-5.51 5.9zM34.1 3.5v17.17h3.31a2.32 2.32 0 002.37-2.31V5.87a2.37 2.37 0 00-2.37-2.37zm38.35 2.37v32a5.88 5.88 0 01-5.93 5.87h-.94a5.86 5.86 0 01-5.87-5.87v-32A5.86 5.86 0 0165.58 0h.94a5.88 5.88 0 015.93 5.87zm-3.56 0a2.36 2.36 0 00-2.31-2.37h-1a2.37 2.37 0 00-2.37 2.37v32a2.37 2.37 0 002.37 2.39h1a2.36 2.36 0 002.31-2.37zm35.29-2.37v36.76h1.62v3.5h-5.86l-6.75-30.83v27.33h1.62v3.5h-6.74v-3.5h1.62V3.5h-1.62V0h5.87l6.68 30.73V3.5h-1.56V0h6.74v3.5zM138.23 0v6.75h-3.5V3.5h-3.12v36.76h1.62v3.5h-6.74v-3.5H128V3.5h-3.12v3.25h-3.5V0zm28.42 5.87v32a5.88 5.88 0 01-5.93 5.87h-.94a5.86 5.86 0 01-5.87-5.87v-32A5.86 5.86 0 01159.78 0h.94a5.88 5.88 0 015.93 5.87zm-3.56 0a2.36 2.36 0 00-2.31-2.37h-1a2.37 2.37 0 00-2.37 2.37v32a2.37 2.37 0 002.37 2.39h1a2.36 2.36 0 002.31-2.37zm35.29-2.37v36.76H200v3.5h-5.87l-6.74-30.79v27.29H189v3.5h-6.74v-3.5h1.62V3.5h-1.62V0h5.87l6.68 30.73V3.5h-1.56V0H200v3.5z"/><path d="M64.89 73.98a.84.84 0 01-.23.62 1.71 1.71 0 01-.53.36l-.59.26a1.64 1.64 0 00-.49.33.38.38 0 01.13.26.58.58 0 00.07.26v.07q-.66.46-1.28.82l-1.35.76-.13.26a1.12 1.12 0 01-.46.13 4 4 0 01-.53.07.9.9 0 00-.53.3c-.13.15-.28.32-.46.49l-1 .72a10.31 10.31 0 00-1.38.75q-.66.43-1.31.89l-1.05.33q-.79.33-1.64.62c-.57.2-1.16.38-1.77.56a6.57 6.57 0 01-2.79.17 10.43 10.43 0 01-2.66-1 3.11 3.11 0 01-1.58-1.28 11.12 11.12 0 01-.72-1.81 2 2 0 01-.2-.36 3.48 3.48 0 01-.13-.43.45.45 0 01-.13-.33.47.47 0 00.1-.66 3.3 3.3 0 01-.36-.66.6.6 0 01.26-.92l-.43-.56a.7.7 0 01-.1-.69.15.15 0 000-.17v-.1c.31-.09.45-.2.43-.33a.77.77 0 01.1-.46q.13-.39-.33-.59c-.22-.09-.31-.19-.26-.3a.92.92 0 01.2-.3c.22-.22.2-.46-.07-.72-.09 0-.11-.15-.07-.33a.84.84 0 01.2-.39 1.54 1.54 0 00.43-.72 8.37 8.37 0 00.16-.85 2.64 2.64 0 00.2-1.05.37.37 0 00.07-.46 1.52 1.52 0 01-.07-1.15 6.6 6.6 0 01.53-1 2.56 2.56 0 01.23-.72.91.91 0 000-.72.44.44 0 01.1-.26 1.57 1.57 0 00.16-.26 1.11 1.11 0 00.23-.46c0-.13-.08-.24-.3-.33a4.64 4.64 0 01.43-.49 1.64 1.64 0 00.36-.56 2.36 2.36 0 00.16-.66c0-.22.06-.44.1-.66a1.58 1.58 0 00.1-.23.69.69 0 01.16-.23 1.61 1.61 0 00.53-.92l.13-.53a.59.59 0 01.33-.39.54.54 0 00.2-.33.32.32 0 01.2-.39l.53-.26a1.14 1.14 0 01.33-1 1.12 1.12 0 00.16-.69 1.11 1.11 0 01.16-.69.87.87 0 00.2-.3.67.67 0 01.26-.3 1.14 1.14 0 00.13-.33 2.26 2.26 0 01.46-.92l.66-.79a1.43 1.43 0 01.53-1.12 1.33 1.33 0 00.46-1.18v-.2a.82.82 0 00.49-.26 4.75 4.75 0 00.3-.39 2.37 2.37 0 01.3-.36.94.94 0 01.49-.23 1.29 1.29 0 01.33-1.12 5.12 5.12 0 01.79-.85 1.43 1.43 0 01.62-.56q.3-.1.16-.69l.85-.59a1.62 1.62 0 00.43-.53c.15-.26.27-.46.36-.59a3.43 3.43 0 01.62-.72l.76-.72a.85.85 0 00.39-.53 1.06 1.06 0 00.13-.16.49.49 0 01.2-.17l1.08-.85a4.45 4.45 0 00.89-1 .23.23 0 01.16-.07.22.22 0 00.16-.06l.33-.26a.72.72 0 01.53-.72 3.15 3.15 0 00.92-.53 2.64 2.64 0 00.57-.25 2.85 2.85 0 01.43-.56 2.39 2.39 0 01.62-.43.72.72 0 01.4 0c.17 0 .26 0 .26-.1q.13-.46.85-.46a.14.14 0 00.1 0 .13.13 0 01.1 0 .81.81 0 01.56-.46 2.26 2.26 0 00.76-.39 4.79 4.79 0 011.45-.53 3.63 3.63 0 00.92-.43c.13-.11.48-.12 1.05 0a5.18 5.18 0 012.76 1 2.17 2.17 0 01.74.92 9.41 9.41 0 01.2 1.28 9.67 9.67 0 01.13 1.58 4.42 4.42 0 01-.33 1.51c-.09.39-.16.8-.23 1.22s-.14.82-.23 1.22a5 5 0 01-.33.85 5.94 5.94 0 00-.33.79 8.68 8.68 0 01-.46 1 4.44 4.44 0 00-.4 1 1.3 1.3 0 01-.3.66 2 2 0 00-.36.59q-.39.72-.79 1.38a8 8 0 00-.57 1.41.71.71 0 01-.26.33 2.52 2.52 0 00-.36.46 3.67 3.67 0 00-.3.59l-.59 1.18q-.2.33-.4.69a3 3 0 01-.53.69l-.82 1.25a10.7 10.7 0 01-1 1.32A2.88 2.88 0 0163.36 58c-.22.09-.32.11-.3.06s-.08-.09-.3-.13-.39-.33-.26-.59a1.5 1.5 0 00.23-.3c.07-.11.12-.21.16-.3a12.28 12.28 0 001.48-1.94l1.28-2.07c.35-.53.68-1 1-1.55s.63-1 1-1.54.62-1.32 1-2a18.67 18.67 0 011.08-1.94 1.46 1.46 0 01.27-.44.51.51 0 00.16-.53.06.06 0 01.07-.06.06.06 0 00.07-.07.48.48 0 01.13-.59 1.67 1.67 0 01.79-.26q-.33-.2-.36-.39a1.94 1.94 0 010-.33 10.24 10.24 0 00.43-1.31q.16-.66.3-1.32l.33-3.42a3 3 0 00-.2-1.05 1.74 1.74 0 00-1.77-.92 5.48 5.48 0 00-1.08.1 9 9 0 00-1.08.3q-1 .39-1.94.89a6.69 6.69 0 00-1.68 1.22q-.85.66-1.61 1.28L61 39.99a1.93 1.93 0 00-.43.43 1.15 1.15 0 01-.43.36 14.89 14.89 0 01-1.28 1.38q-.69.66-1.35 1.38t-1.22 1.41q-.56.69-1.08 1.48a4.27 4.27 0 00-.79.89c-.22.33-.46.67-.72 1a4.45 4.45 0 00-.7 1.14l-1.77 2.56a20.23 20.23 0 01-1.91 3.35l-1.64 3.42q-.2.46-.33.85t-.26.92q-.33.72-.62 1.41a10.87 10.87 0 00-.47 1.42l-.57 1.87-.26.92a6.72 6.72 0 00-.2 1 2.62 2.62 0 00-.16.76 4.43 4.43 0 01-.16.89q-.2 1.05-.43 2.1a8 8 0 00-.16 2.17v1.58a10 10 0 00.13 1.58 19.26 19.26 0 00.81 3.37 3 3 0 00.72 1.05 4.53 4.53 0 001.18.85h.66a8.85 8.85 0 002.89-.2l1.84-.66q.92-.33 1.84-.72a2.51 2.51 0 00.43-.2l.49-.26c.09 0 .13-.08.13-.1s0-.05.07-.1a6.2 6.2 0 001.71-.85 7.51 7.51 0 011.51-.85 4.78 4.78 0 00.85-.53 1.62 1.62 0 01.79-.33c.09 0 .13 0 .13-.1a.22.22 0 01.07-.17 1.65 1.65 0 00.43-.3 2.29 2.29 0 01.36-.3 4.15 4.15 0 01.62-.53c.2-.13.4-.28.62-.46a4.11 4.11 0 012.3-1 .31.31 0 01.13 0 .27.27 0 00.12.11zm-2.17 1.28h-.2a.06.06 0 00-.07.07v.2h.07a.26.26 0 00.2-.27zm2.63-1.51l-.26-.26c-.13-.09-.17-.19-.13-.3s.15-.16.33-.16l.53-.26h-.72l.4-.46a4.22 4.22 0 01.79.26c-.09.22-.19.44-.3.66a1.17 1.17 0 01-.64.48zm1.51-1.77l-.26.28h-.07c-.09 0-.13 0-.13-.06V72h.2a.26.26 0 00.16 0 .13.13 0 01.1-.06zm0-.26a1.27 1.27 0 00-.39.07q.59-.52 1-.79t1-.79l.2.2a7.18 7.18 0 01-.66.69c-.18.15-.39.36-.66.62zm24.59-12.01a2.36 2.36 0 01-.53.85 2.27 2.27 0 00-.46.46l-.39.53a2 2 0 01-.43.43 3.49 3.49 0 00-.43.36 4 4 0 00-.43.49l-.36.49a3 3 0 00-.43.53 1.44 1.44 0 01-.49.46l-.66.66-.66.66a17.52 17.52 0 01-1.61 1.31 12.81 12.81 0 01-1.74 1.05 3.17 3.17 0 01-2.37 0 2.31 2.31 0 01-1.25-1.09 5.57 5.57 0 01-.45-1.64 3 3 0 01-.06-1q.07-.56.13-1.09a.8.8 0 01.2-.59 3.54 3.54 0 00.43-.72 1.35 1.35 0 00.23-.79l-.92.79-1.18 1.18a1.63 1.63 0 01-.23.2 1.67 1.67 0 00-.23.2 5.74 5.74 0 01-.92.85l-1.05.79a.66.66 0 01-.36.13.67.67 0 00-.36.13 1.09 1.09 0 01-.92-.23q-.59-.36-.66-.69a1.84 1.84 0 01-.07-.79 5.77 5.77 0 01.66-1.91 4.74 4.74 0 00.79-1.31.19.19 0 00.07-.13s0-.06.13-.06l1.18-1.25v-.13a2.25 2.25 0 01.76-.69 5 5 0 00.76-.49l.13-.13a1.18 1.18 0 01.82-.53 2.32 2.32 0 011 .06 1.45 1.45 0 011.38 1.12l.2.39q.33.07.59-.33a2.29 2.29 0 00.23-.26l.23-.33a.48.48 0 01.72 0 1.77 1.77 0 01.33.46.43.43 0 010 .46 3.81 3.81 0 01-.3.49 3.54 3.54 0 00-.3.49q-.39.79-1 2a18.75 18.75 0 00-.89 2.37 4.59 4.59 0 00-.07 2.76c.09.26.21.41.36.43a4 4 0 00.56 0 5.19 5.19 0 00.85-.17 3.88 3.88 0 00.79-.36 3.72 3.72 0 00.59-.3c.17-.11.35-.23.53-.36l.39-.2a.84.84 0 00.53-.39l.07-.07a1.48 1.48 0 00.69-.49 2.13 2.13 0 01.69-.56 2.09 2.09 0 00.66-.72l.46-.53a2.45 2.45 0 001-.79 1.46 1.46 0 01.3-.33l.3-.26a1 1 0 01.59-.53.56.56 0 01.13-.1.35.35 0 00.13-.16c.22-.26.44-.51.66-.76s.44-.49.66-.76l.13.13c.14.05.21.14.17.31zm-16.76 3.75a1.51 1.51 0 00.79-.2l.33-.26a1 1 0 00.46-.26l.72-.66a3 3 0 00.53-.53s.13-.07.26-.2l.3-.3a2.33 2.33 0 01.36-.3l.33-.39.2-.26a1.19 1.19 0 00.53-.39 2.3 2.3 0 01.46-.46l-.66-.59a.8.8 0 00-.59-.2l-.53.2a1.47 1.47 0 00-.46.36 1.46 1.46 0 01-.46.36q-.39.39-.79.76a5.25 5.25 0 00-.72.82l-.4.79a3.69 3.69 0 00-.66 1.51zm16.43-4.2v.06l.07-.06z"/><path d="M83.43 67.53l.72-.85a.06.06 0 00.07.07 1 1 0 010 .26 1.12 1.12 0 000 .26.9.9 0 00.39 0 .77.77 0 00.2-.3c0-.18.11-.26.33-.26a1.74 1.74 0 01.36-.26l.43-.26c.35-.26.35-.44 0-.53a.2.2 0 01-.2-.2.27.27 0 00-.07-.2c-.26 0-.39.11-.39.33a.56.56 0 01-.59.39v-.22l.92-.92c.09-.09.15-.13.2-.13a.65.65 0 00.53 0 2.14 2.14 0 01.46-.16l1-.53a.06.06 0 01.07.07.44.44 0 00-.1.16.62.62 0 01-.16.23l-.79.92-1 1.32a3 3 0 01-.46.59 1.19 1.19 0 00-.33.66 7.59 7.59 0 00-1.22 1.58 15.33 15.33 0 01-1.23 1.71 4.3 4.3 0 00-.72 1.15 7.14 7.14 0 01-.66 1.22l-.07.13a1.25 1.25 0 00-.43.56c-.07.2-.14.41-.23.62a10.37 10.37 0 01-.76 1.38 10.59 10.59 0 00-.7 1.4l-1.58 2.83-1.68 3.61a13.73 13.73 0 00-.53 1.31 9.59 9.59 0 01-.53 1.25 3.53 3.53 0 00-.46 1.15c-.09.42-.17.8-.26 1.15l-.13.53a1.18 1.18 0 00-.26.85 5.4 5.4 0 01-.13.59c0 .18-.09.37-.13.59a1.14 1.14 0 00.07.66l.07.07a.19.19 0 00.07.13 1.22 1.22 0 00.49-.33l.3-.33q.66-.72 1.25-1.45a14.69 14.69 0 001.12-1.58 15.58 15.58 0 001-1.48q.43-.76.89-1.48c.35-.53.68-1 1-1.55s.64-1 1-1.48l1.15-2.5a3.81 3.81 0 01.3-.49l.3-.43q.39-.92.82-1.74t.86-1.65a9.47 9.47 0 00.69-1.22q.3-.62.62-1.22a.84.84 0 01.13-.2.68.68 0 00.13-.2c.09-.17.15-.3.2-.36s.18-.05.4 0 .14.06.16 0 .08 0 .16 0a.92.92 0 01.07-.39.58.58 0 00.07-.26 1.49 1.49 0 01-.46.06l-.07-.06a13.807 13.807 0 01.66-1.58L88 67.86l.23-.59.23-.59 1.58-3.81.07-.13a.26.26 0 010 .33.32.32 0 00.1.39.86.86 0 00.39-.85l-.53.13a4.89 4.89 0 01.16-.53l.23-.59a1.43 1.43 0 00.07-.46l-.66.39a1.08 1.08 0 00-.46.53.45.45 0 01-.13.33l-.26.26a2.79 2.79 0 01-.43.46l-.56.46c.09-.17.15-.32.2-.43s0-.25-.2-.43q-.72 0-.72.79c-.22-.13-.38-.14-.49 0a1.44 1.44 0 01-.49.3.14.14 0 010-.1.13.13 0 000-.1v-.07q.33-.33.56-.59a3.28 3.28 0 01.49-.46.43.43 0 01.39-.06l.4.13a2.19 2.19 0 00.79-.46.41.41 0 00.33-.26.22.22 0 00.07-.16.55.55 0 01.07-.23 3.51 3.51 0 01.2-.33.41.41 0 01.46-.13q-.13-.52.46-.53c.09 0 .16-.06.23-.2a.37.37 0 000-.39c-.09-.17-.22-.13-.39.13q-.66-.2-1 .72l-.2-.3c0-.07 0-.14.13-.23.31-.31.6-.59.89-.85a10.14 10.14 0 00.82-.85 3.3 3.3 0 001.05-1.84 2.43 2.43 0 01.07-.59l.13-.53q.42-1.15.72-2.28t.46-2.24a11.93 11.93 0 00.4-1.74 6.29 6.29 0 000-1.81 3.72 3.72 0 00-.13-1c-.09-.33-.18-.65-.26-1a.7.7 0 00-.23-.49 1.17 1.17 0 00-.56-.1h-1a1.19 1.19 0 01-.85-.2.41.41 0 01-.13-.3q0-.16.2-.23.52-.13 1-.2a2 2 0 011 .13 7 7 0 011.05.66 2.38 2.38 0 01.79 1.12 2.7 2.7 0 01.39 1.15 13 13 0 01.07 1.35 10.67 10.67 0 01-.1 1.45 5 5 0 000 1.51 1.24 1.24 0 01-.13.66 3.62 3.62 0 00-.23.39 2.3 2.3 0 00-.16.46l-.39 2.24a.37.37 0 000 .26 1.73 1.73 0 010 .39 1.48 1.48 0 01.3-.16.65.65 0 00.23-.17 7.08 7.08 0 011.48-.72l1.43-.41a2.3 2.3 0 012 .4 1.48 1.48 0 01.46.36 5 5 0 01.33.43 3 3 0 01.66 2.43l-.17 1.38c-.09.35-.19.71-.3 1.08a6.58 6.58 0 01-.43 1.09 9.72 9.72 0 01-1.25 2 13.21 13.21 0 01-1.64 1.68 1.49 1.49 0 01-.59.33q-.53.26-1 .56a2.76 2.76 0 01-1.15.36 3.69 3.69 0 01-2.37-.72l-.47-.38-.2-.39q.13.13.2.07s.09 0 .13.06a1.91 1.91 0 001.41.33 6.18 6.18 0 001.41-.46 5.14 5.14 0 001.28-.82l1.15-1a19.06 19.06 0 001.22-1.48 7.74 7.74 0 001-1.74 9.46 9.46 0 00.46-1.84 5.16 5.16 0 00-.13-2 1.22 1.22 0 00-.33-.72 1.33 1.33 0 00-.85 0 5.06 5.06 0 00-1.05.39 7 7 0 00-1.08.53l-1.08.66a4.77 4.77 0 00-.85.62l-.72.69a.62.62 0 00-.33.4 8 8 0 01-.3.85 3.48 3.48 0 00-.23.85 3.05 3.05 0 01-.23.76c-.11.24-.21.47-.3.69s-.16.52-.23.76a6.37 6.37 0 01-.23.69 6.26 6.26 0 01-.46 1.12q-.33.79-.59 1.58a12 12 0 01-.66 1.58 4.4 4.4 0 01-.36.89l-.43.82-.33.53a17.78 17.78 0 01-2 4.27 7.29 7.29 0 00-.33.76 3.93 3.93 0 01-.33.69q-.39.72-.76 1.51l-.69 1.51a10.783 10.783 0 00-1.05 1.77 3.14 3.14 0 00-.46.85l-1.51 2.63q-.2.39-.43.79t-.49.79a.26.26 0 01-.13.26 1 1 0 00-.43.46c-.11.22-.23.44-.36.66L78.5 88.9a4.11 4.11 0 00-.53.79 7.25 7.25 0 01-.46.79c-.09.09-.13.15-.13.2s0 .09-.13.13a8.12 8.12 0 00-1.12 1.22A6.17 6.17 0 0175 93.17l-.72.46a.73.73 0 01-.72.26 5.91 5.91 0 01-1.12-.13 1.53 1.53 0 01-.46-.39c0-.22-.08-.41-.1-.56a4 4 0 010-.56 3.45 3.45 0 010-.49 4 4 0 000-.56q.2-.59.36-1.28t.3-1.35L74 84.69c.13-.35.3-.73.49-1.15s.38-.82.56-1.22c0-.09 0-.13.07-.13a2.39 2.39 0 00.53-1 3.63 3.63 0 01.46-1.08c.09-.26.29-.35.59-.26 0 0 .08-.07.1-.07s.06 0 .1-.13a.19.19 0 01.1-.09.52.52 0 00.2-.07 3.42 3.42 0 010-.53 3.19 3.19 0 000-.53 1.34 1.34 0 01.53-.59 1.62 1.62 0 01.27-.38v-.26a.28.28 0 01.07-.2.26.26 0 00.07-.2h-.26a1.4 1.4 0 01-.2.23 6.66 6.66 0 01.32-.77 2.23 2.23 0 01.46-.76c.13.09.15.18.07.26a.22.22 0 00-.07.26 3.67 3.67 0 01.72.13v-.66a1.18 1.18 0 01.23-.59.43.43 0 01.2-.26 1.29 1.29 0 01.33-.1.58.58 0 00.33-.16 2 2 0 00.39-.53 2.16 2.16 0 01-.07-.53v-.46s0-.06.13-.06c0-.26 0-.42.13-.46a.31.31 0 01.23-.16.45.45 0 01.3 0c.18 0 .27 0 .3-.13a.6.6 0 01.16-.26 1.26 1.26 0 01-.23-.33 1.24 1.24 0 00-.23-.33l-.59.2a1.34 1.34 0 01.39-.66.27.27 0 01.2-.06 1.52 1.52 0 001.39-.35h.07l-.46-.66a.27.27 0 00-.26.13l-.12-.09a4.71 4.71 0 00.33-.49c.09-.15.17-.32.26-.49s.26-.24.26-.2a1.44 1.44 0 01.39.2 1.49 1.49 0 00-.53.53.82.82 0 01.2.33q.33-.33.62-.59a4.12 4.12 0 01.62-.46.72.72 0 00.2-.85c0-.09-.09-.13-.26-.13a1.22 1.22 0 00-.66.04zm-8.88 17.95a.06.06 0 00-.07.07l.13.13.07-.07zm.46-2l.07.06a.26.26 0 010-.16.13.13 0 000-.1h-.07s-.01.1-.01.23zm1.58-2.22c-.66 0-1 .15-.92.59q.2-.13.39-.3a2 2 0 01.53-.29zm-.2-.33v.13c0-.13.09-.2.13-.2l-.07-.07a.19.19 0 00-.06.15zm7.3-3.35c-.13.13-.15.24-.07.33a.75.75 0 01.07-.32zm0 0a.77.77 0 01.23 0c.07 0 .14 0 .23-.1-.22-.04-.37-.02-.46.11zm.33-.59a.2.2 0 00-.07.13v.07a.06.06 0 00.05.07.19.19 0 00.13-.06h-.07a.06.06 0 01-.07-.07zm1.71-3.35a1.47 1.47 0 00-.2.39s.09.13.26.26c.21-.16.21-.38-.06-.64zm1.64-2.89a.18.18 0 00.13-.06l-.26-.13h-.07v.06a.11.11 0 01.1.07.1.1 0 00.1.06zm.33-1.58a3.1 3.1 0 01-.13.43c0 .11-.09.21-.13.3.31.09.46 0 .46-.26s.02-.46-.2-.46zm.79-1.32h-.07q-.2.13-.13.53a1.58 1.58 0 00.2-.52zm1.45-3.29h-.2a2.49 2.49 0 01-.26.72 1.83 1.83 0 00.36 0l.36-.1a.41.41 0 01-.13-.3.41.41 0 00-.13-.3zm4.34-8l.07.13a.06.06 0 00.07.07v-.2zm18 6.9l2.53-1.68 2.53-1.68a12.34 12.34 0 011.51-.92c-.09.22-.09.29 0 .2s.09 0 0 .26l-4.73 3.75-.26.26-.26.26-2.37 1.25a2.8 2.8 0 00-.82.69 2.81 2.81 0 01-.82.69l-1.71.72a1.37 1.37 0 01-.53.06.37.37 0 01-.26 0 .37.37 0 00-.26 0 1.68 1.68 0 01-1.38-.53l-.2-.2a2.46 2.46 0 01-.72-1.31 4 4 0 010-1.45l.26-.72a.9.9 0 00.07-.39h-.07a1.84 1.84 0 01.46-.92c.09 0 .12-.1.1-.16a.3.3 0 010-.23l.66-1.12a1.3 1.3 0 01.46-.33s0-.11.13-.2l2.23-2.89q.26-.39.59-.07a1.39 1.39 0 01.53.79.67.67 0 01-.13.53 4.89 4.89 0 00-.46.53 7.09 7.09 0 00-.39.59l-.82 1.09q-.43.56-.82 1.15c-.22.39-.43.8-.62 1.22s-.4.82-.62 1.22a1.75 1.75 0 00-.3.85c0 .31-.05.61-.1.92a.41.41 0 00.46.46 2.52 2.52 0 001.31-.26 27 27 0 003.29-1.51q.35-.12 1.53-.92zm-.39-10.2c.13.31.31.31.53 0s.44-.45.66-.69a3.22 3.22 0 01.79-.62l.92-.66a.47.47 0 00.2-.72l-.59-.72a.32.32 0 00-.46 0l-.66.53c-.13.13-.26.27-.39.43a2.09 2.09 0 01-.53.43 1.12 1.12 0 00-.49.62l-.23.82a2.54 2.54 0 00.25.58z"/><path d="M106.89 48.67a3.77 3.77 0 01-1.64 0 1.06 1.06 0 01-.4-.43 1.48 1.48 0 000-.62 1.54 1.54 0 010-.62c.13-.26.27-.53.43-.79a2.36 2.36 0 01.56-.66l1.05-.66q.53-.33 1.05-.59l.07-.07.13-.13a1.37 1.37 0 011.05-.13.68.68 0 00.26-.46c.22-.09.44-.19.66-.3a1.25 1.25 0 01.85 0c-.09-.09-.11-.15-.07-.2s.17 0 .26.2.24.22.46.13l-.07-.06a.58.58 0 00.07-.26v-.2a1.29 1.29 0 01.66-.26.15.15 0 01.16 0 .3.3 0 00.23 0c.09.09.15.13.2.13l.07.07a1 1 0 01.39-.13q.39-.26.39-.39a1.56 1.56 0 01.66-.2 1.5 1.5 0 01.46-.06.27.27 0 00.26.13l.13.06a.47.47 0 00.53.07l.13-.26q.2.26.43.16l.43-.16.13-.33a.55.55 0 00.53 0 .29.29 0 01.46-.06.39.39 0 00.26.06 1 1 0 00.16-.2.34.34 0 01.16-.13l-.13-.33a.8.8 0 00.46-.13l-.13.33c.09 0 .2.11.33.33a2 2 0 01.13-.23 1.55 1.55 0 01.2-.23v-.26a.3.3 0 01.33.2.37.37 0 00.46.2.27.27 0 01.26-.1.37.37 0 00.26 0 .44.44 0 00.3 0 1.5 1.5 0 01.3 0l.13-.33a.22.22 0 01-.07-.16.55.55 0 00-.07-.23.44.44 0 01.59.26c.09.18.17.24.26.2a.83.83 0 01.49-.1.59.59 0 00.43-.1c.39.09.61 0 .66-.33l.2-.13h-.07l2-.72.26.06a.14.14 0 010-.1.26.26 0 000-.16c0-.13.09-.24.26-.33a2.62 2.62 0 01.3-.56 3.81 3.81 0 00.3-.49 3.8 3.8 0 011.18-1.62 1 1 0 00.2-.26 1 1 0 01.2-.26 1.43 1.43 0 01.26-.59 4.42 4.42 0 01.39-.46 2.37 2.37 0 00.23-.26.53.53 0 00.1-.33l.26-.26a4.62 4.62 0 01.36-.33.71.71 0 00.23-.39l.2-.26a1.81 1.81 0 00.51-.6 2.79 2.79 0 011.35-1 1.57 1.57 0 011.54.49 1.47 1.47 0 01.46.59 3.57 3.57 0 01.2.72 3.86 3.86 0 010 1.41 9.48 9.48 0 01-.39 1.41l-.85 2.17-.58 1.21a.69.69 0 00.39.06.08.08 0 01.13 0h.07c.13-.26.37-.31.72-.13a1 1 0 00.53-.1c.09-.06.11-.23.07-.49h.13l.33.46c.13 0 .26 0 .39-.26a1.57 1.57 0 01.26.39c.26 0 .42-.2.46-.59l-.92-.06a.19.19 0 00.07-.13 1.34 1.34 0 01.92.06l.2.2a.31.31 0 00.33.26.38.38 0 01.16.13.46.46 0 00.1.13 1 1 0 000-.72.59.59 0 01.43-.1 3 3 0 00.43 0v.26s.07.09.2.13a4.74 4.74 0 01.46.26.88.88 0 01.3-.2c.11 0 .1-.17 0-.39a.9.9 0 01.59.39.62.62 0 00.53.26l.2-.2h.33a.4.4 0 00.36.1.4.4 0 01.36.1h.13l.59-.2v-.46h.36a.55.55 0 01.36.2l-.33.2c0 .09-.09.19-.13.3s0 .19.2.23.28 0 .33 0l.33-.33a.71.71 0 00.76.2 1.51 1.51 0 01.89 0c0 .09.09.17.26.26h.92a.38.38 0 01-.13-.26.21.21 0 00-.13-.2v-.26h.2a.37.37 0 01.26 0 1.06 1.06 0 00.26 0 .14.14 0 01.1 0h.16a1.25 1.25 0 00-.1.26c0 .09 0 .18.16.26a.17.17 0 00.2.2 5.4 5.4 0 011 .07.38.38 0 00.26-.13.16.16 0 000-.26.12.12 0 00-.13-.13c-.31-.09-.53 0-.66.13v.06l-.33-.39a1.35 1.35 0 01.72.06l.72.13a.75.75 0 00.26.4.81.81 0 00.46 0l-.39-.33a.53.53 0 01.53-.1l.59.23-.33.13a1.88 1.88 0 00.13.23.41.41 0 01.07.23h.59l-.2-.53a1 1 0 01.39-.13l1.12.13c.09.09.15.13.2.13a3.89 3.89 0 011 .13c.33.09.67.2 1 .33l1.18.2a3.54 3.54 0 011.12.2q.46.13.79.26l.66.26.43.13a2.14 2.14 0 01.36.2 4.88 4.88 0 01.33.49.79.79 0 01.07.56 2.1 2.1 0 01-.39.72 1.6 1.6 0 01-.72.33l-.66.13-.49.13a.93.93 0 01-.49 0 .6.6 0 00-.39 0 1.66 1.66 0 01-.53.16 4.77 4.77 0 01-.59 0l-.33-.2c-.09 0-.14 0-.16-.07s-.06 0-.1.07a.49.49 0 01-.43.16.94.94 0 00-.43 0 .38.38 0 00-.07-.26l-.26.07a.34.34 0 00-.3 0 .51.51 0 01-.36 0c-.13-.09-.24 0-.33.13a.53.53 0 01-.39.26h-.33a.52.52 0 00-.33 0l-.13-.26h-.13q-.72.26-1-.07a.39.39 0 00-.26-.06l.07.39-.39-.2c0-.22-.2-.31-.46-.26l-1.12.39a.81.81 0 01-.2-.33c0-.13-.15-.15-.33-.07a2.56 2.56 0 00-.39 0 .48.48 0 00-.33.3.26.26 0 01-.2-.07.27.27 0 00-.2-.06 1.22 1.22 0 00-.79 0 1.24 1.24 0 01-.56.13.59.59 0 01-.49-.26 1.07 1.07 0 00-.46-.13h-.46a.26.26 0 01-.2.26 1.06 1.06 0 00-.26 0 .16.16 0 01-.2-.1h-.46a.39.39 0 01-.33-.2.06.06 0 01-.07.06l.13.2a.19.19 0 00-.13.06q-.39.26-.66-.2c-.09-.09-.13-.09-.13 0s-.13.09-.13.13 0 .06.13.06a.06.06 0 00.07.07c-.18.22-.29.33-.33.33s-.13-.06-.26-.2a.75.75 0 00-.79-.26 1.33 1.33 0 01-.59 0 1.91 1.91 0 00-.46-.07l-1.18-.2-1.18-.13-.26-.13a.77.77 0 01-.72 0l-.66-.3-.33-.13a.63.63 0 01-.33-.26l-.26-.39c-.09-.09-.1-.16 0-.23s.14-.05.23 0c.09-.09.13-.07.13.06a7.28 7.28 0 001.81.53q.89.13 1.81.2a1.91 1.91 0 00.72.13 3.79 3.79 0 01.72.06l2.1.13a2 2 0 00.59.06 3.46 3.46 0 00.49 0 .94.94 0 01.43 0l.79.07h.92a5.12 5.12 0 001 0 1.27 1.27 0 01.69.06 1.3 1.3 0 00.82 0 1.38 1.38 0 01.59 0 4.43 4.43 0 001.08 0 10.1 10.1 0 011.15-.06h.2a1.1 1.1 0 00.56.1l.49-.1a.51.51 0 00.33-.07l1.64-.06 2-.13h.72a6.3 6.3 0 00.66-.1q.33-.06.66-.1a2.4 2.4 0 00.66-.17 2.1 2.1 0 00.53-.13.6.6 0 00-.39-.39 7.35 7.35 0 00-1.38-.39l-2.17-.53a3 3 0 00-.56-.07 1.09 1.09 0 01-.49-.13 1.68 1.68 0 00-.76-.1 2 2 0 01-.82-.1 2.78 2.78 0 00-1-.07 1.05 1.05 0 01-.66-.13 1.86 1.86 0 00-.69-.13h-.69a1.21 1.21 0 00-.59-.1l-.59.1-3.09-.2h-.2l-1.18-.13a3.44 3.44 0 00-.82 0h-1.89a8.19 8.19 0 00-1 .06h-.2a.82.82 0 01-.49.1 3 3 0 00-.43 0 .94.94 0 00-.85-.13 1.16 1.16 0 00-.46 0 2.62 2.62 0 01-.46 0h-.66l-.56.1a3.46 3.46 0 01-.49 0l.13-.13-.46-.33s-.07.13-.2.26c.13 0 .26 0 .4.26a4.71 4.71 0 01-1.17.35 3.55 3.55 0 00-.79.07l-1.05 1.84q-.53.92-1.12 1.84a.39.39 0 01-.26.26 3.94 3.94 0 01-.39.56.93.93 0 00-.2.62l-.07.13v.07a.75.75 0 00-.33.59l-.2.46a1.23 1.23 0 00-.49.56 1.13 1.13 0 01-.62.56.58.58 0 01-.16.43 2.37 2.37 0 00-.3.36l-.39.92a11.73 11.73 0 01-1.38 2.1c-.13.18-.26.34-.39.49a2 2 0 00-.33.56 20.57 20.57 0 01-2.56 3.42.59.59 0 00-.07.26.21.21 0 01-.13.2l-1.12 1.58s0 .09-.1.13a.49.49 0 00-.16.2 1 1 0 01-1.18.66 1.74 1.74 0 00-.3.49 2.93 2.93 0 00-.23.76 1.57 1.57 0 00-.16.53c0 .18-.06.37-.1.59l-.26 1.05-.2 1.05-.2 1.31a2.13 2.13 0 01-.16.56 3.55 3.55 0 00-.16 1.22 5 5 0 01-.07.76 5.09 5.09 0 00-.07.76 3.41 3.41 0 01-.1.76 3.42 3.42 0 00-.1.76 1.48 1.48 0 01-.1.53 1.49 1.49 0 00-.1.53v1.18a1.13 1.13 0 01-.07.46.74.74 0 00-.07.33v1.25a.61.61 0 000 .39 2.25 2.25 0 010 .79 1 1 0 00.07.62 1.52 1.52 0 01.13.62 2.05 2.05 0 00.1.79 1.18 1.18 0 01.1.53.15.15 0 00.13.16.3.3 0 01.2.17 2.63 2.63 0 001.58-.59 2.46 2.46 0 00.49-.33 2.94 2.94 0 00.49-.59.55.55 0 01.26-.23.86.86 0 00.33-.3.65.65 0 00.23-.2l.23-.33a1.15 1.15 0 01.33-.13c.09 0 .13 0 .13-.06a.72.72 0 01.33-.49 1 1 0 00.39-.49 6.41 6.41 0 00.43-.59 3.52 3.52 0 01.49-.59c.22-.22.46-.44.72-.66a1.66 1.66 0 00.53-1 1.93 1.93 0 01.66-.85l.26-.2.46-.72.07-.46.85-.92 1.38-2.17.79-1.18 2.3-3.48a2.42 2.42 0 00.13.33.54.54 0 01.07.23l-.53.53-1 2-.33.13-.07.39-1.18 1.77-.79 1.64-.33.2-1.58 2.76-.85 1.38-.72 1-.79 1.05-1.18 1.51-.85 1a7.14 7.14 0 01-2.1 1.51 2.28 2.28 0 01-1.25.39 4.79 4.79 0 01-.82-.26 1.65 1.65 0 01-.82-.92 4.93 4.93 0 00-.26-.66 3.7 3.7 0 01-.2-.46l-.39-1.45a2.91 2.91 0 00-.13-.49 1.4 1.4 0 01-.07-.49.33.33 0 000-.39.43.43 0 01-.07-.39v-3.27a2.16 2.16 0 01.07-.53 2.19 2.19 0 00.07-.53v-1.18a5.44 5.44 0 01.07-.82 5 5 0 00.07-.76 5.07 5.07 0 01.1-1.05 1.58 1.58 0 01.16-.53 1.82 1.82 0 01.07-.49 1.75 1.75 0 00.07-.49 7 7 0 01.33-1.45l.33-1.25.13-.66a6.69 6.69 0 01.33-1 2.12 2.12 0 01.33-.59.14.14 0 010-.1.13.13 0 000-.1 2.77 2.77 0 01.26-1.25 1.16 1.16 0 00.13-.53v-.39a3.64 3.64 0 01.33-.72 4.54 4.54 0 00.33-.66 2.5 2.5 0 01.13-.33.6.6 0 000-.39.54.54 0 01.13-.4 3.23 3.23 0 00.59-.85 1.83 1.83 0 000-.36.48.48 0 01.1-.36l.23-.59.23-.59a7.1 7.1 0 00.43-1.05 10.1 10.1 0 01.36-1c.09-.22.15-.33.2-.33a4 4 0 00.46-.72 5 5 0 00.33-.85 2.87 2.87 0 01.46-1 7.24 7.24 0 00.59-1 2 2 0 01.13-.23.41.41 0 00.07-.23c0-.18 0-.26.07-.26a1.21 1.21 0 00.43-.69 1.55 1.55 0 01.43-.76.71.71 0 01.2-.66 1.14 1.14 0 00.33-.59q.33-.13.33-.39a.88.88 0 01.2-.53l.13-.13a5 5 0 01-.82.2l-.82.13-1.22.23-1.15.23-3.16.79q-.79.13-1.58.33a8.9 8.9 0 00-1.51.53 9.84 9.84 0 00-1.48.36l-1.41.49-1.77.66a11.58 11.58 0 00-1.64.79l-1.15.66a3.76 3.76 0 00-1 .79q-.39.46-.33.56a2.06 2.06 0 00.46.36 2.29 2.29 0 00.62.37zm19.33-6.57a1.57 1.57 0 00-.26.39l-.26.53-1.25 2.63-1.84 3.88q-.4.92-.79 1.81t-.72 1.87a9.67 9.67 0 00-.33 1.05 5.24 5.24 0 01-.4 1.05s-.07 0-.07.13a1.49 1.49 0 00-.2.43 2.8 2.8 0 01-.2.49c0 .09 0 .26-.2.53l.13.07.66-.72a.58.58 0 00.16-.26.58.58 0 01.16-.26 4.05 4.05 0 00.66-.85 2.9 2.9 0 01.66-.79c.26-.35.53-.72.79-1.12a.38.38 0 01.13-.26c.17 0 .27-.05.3-.16a1 1 0 01.16-.36l.13-.26a1.42 1.42 0 00.56-.72 1.12 1.12 0 01.56-.66.06.06 0 01.07-.07 2.09 2.09 0 00.2-.36.43.43 0 01.33-.23.22.22 0 00.2-.1.49.49 0 01.2-.16 1.09 1.09 0 010-.79.53.53 0 01.49-.4c.22 0 .35-.13.39-.26a.8.8 0 01.2-.33.27.27 0 00.1-.26.27.27 0 01.1-.26 4.55 4.55 0 01.33-.66 2.23 2.23 0 01.53-.59 1.66 1.66 0 00.79-.92 1.65 1.65 0 01.2-.85.83.83 0 00.33-.46.64.64 0 01.26-.39q.26-.33.53-.62a.8.8 0 00.2-.69c0-.09 0-.24.13-.46s.26-.36.39-.56a3.46 3.46 0 00.33-.62h-1.45c-.18 0-.26 0-.26.06a1.1 1.1 0 01-.49.13 1.37 1.37 0 00-.43.07l-1.64.26zm-3.94-2.24h.07l-.26-.13-.26.07c.17.13.36.15.44.06zm.85-.26c.09.09.26.11.53.07a1.07 1.07 0 00.59-.26c-.09-.09-.27-.1-.56 0a1.24 1.24 0 00-.56.19zm9.53-2.34a.67.67 0 01.13-.53 4.24 4.24 0 01.26-.46.71.71 0 00.13-.39 3 3 0 01.07-1.09q.13-.56.26-1.08a1 1 0 000-.72c-.09-.35-.31-.46-.66-.33l-.49.36a2 2 0 00-.43.43l-1.64 2.1-.36.62a2.51 2.51 0 01-.43.56 9.3 9.3 0 00-.92 1.22c-.26.42-.5.84-.72 1.28l.2.33a2 2 0 01.85.13 2.85 2.85 0 00.23-.26c.07-.09.19-.11.36-.07a.35.35 0 00-.39-.26.38.38 0 00-.26 0 1.08 1.08 0 01-.26 0c0-.09.15-.13.33-.13a.81.81 0 00.3-.07.36.36 0 01.3 0 .91.91 0 01.53-.1 4.75 4.75 0 00.59 0c.22 0 .31.06.26.33v.13c0 .09.09.13.13.13a.19.19 0 01.13.06h.46a2 2 0 00.26-.85.19.19 0 00.07-.13.57.57 0 00.16-.26.58.58 0 01.16-.26zm1.51 3l.07-.06h-.14zm1.05.59l.07-.13a.9.9 0 01-.39-.07v.07a.45.45 0 01.32.13zm7.23 2.83l.26.07c-.13-.23-.21-.25-.26-.08z"/><path d="M149 59.71a2.36 2.36 0 01-.53.85 2.27 2.27 0 00-.46.46l-.39.53a2 2 0 01-.43.43 3.49 3.49 0 00-.43.36 4 4 0 00-.43.49l-.36.49a3 3 0 00-.43.53 1.44 1.44 0 01-.49.46l-.66.66-.66.66a17.52 17.52 0 01-1.61 1.31 12.81 12.81 0 01-1.74 1.05 3.17 3.17 0 01-2.37 0 2.31 2.31 0 01-1.25-1.09 5.57 5.57 0 01-.46-1.61 3 3 0 01-.07-1.08q.07-.56.13-1.09a.8.8 0 01.2-.59 3.54 3.54 0 00.43-.72 1.35 1.35 0 00.23-.79l-.92.79-1.18 1.18a1.63 1.63 0 01-.23.2 1.67 1.67 0 00-.23.2 5.74 5.74 0 01-.92.85l-1.05.79a.66.66 0 01-.36.13.67.67 0 00-.36.13 1.09 1.09 0 01-.92-.23q-.59-.36-.66-.69a1.84 1.84 0 01-.07-.79 5.77 5.77 0 01.66-1.91 4.74 4.74 0 00.79-1.31.19.19 0 00.07-.13s0-.06.13-.06l1.18-1.25v-.13a2.25 2.25 0 01.76-.69 5 5 0 00.76-.49l.13-.13a1.18 1.18 0 01.82-.53 2.32 2.32 0 011 .06 1.45 1.45 0 011.38 1.12l.2.39q.33.07.59-.33a2.29 2.29 0 00.23-.26l.23-.33a.48.48 0 01.72 0 1.77 1.77 0 01.33.46.43.43 0 010 .46 3.81 3.81 0 01-.3.49 3.54 3.54 0 00-.3.49q-.39.79-1 2a18.75 18.75 0 00-.89 2.37 4.59 4.59 0 00-.07 2.76c.09.26.21.41.36.43a4 4 0 00.56 0 5.19 5.19 0 00.85-.17 3.88 3.88 0 00.79-.36 3.72 3.72 0 00.59-.3c.17-.11.35-.23.53-.36l.39-.2a.84.84 0 00.53-.39l.07-.07a1.48 1.48 0 00.69-.49 2.13 2.13 0 01.69-.56 2.09 2.09 0 00.66-.72l.46-.53a2.45 2.45 0 001-.79 1.46 1.46 0 01.3-.33l.3-.26a1 1 0 01.59-.53.56.56 0 01.13-.1.35.35 0 00.13-.16c.22-.26.44-.51.66-.76s.44-.49.66-.76l.13.13c.13.1.19.19.19.36zm-16.8 3.75a1.51 1.51 0 00.8-.2l.33-.26a1 1 0 00.46-.26l.72-.66a3 3 0 00.53-.53s.13-.07.26-.2l.3-.3a2.33 2.33 0 01.36-.3l.33-.39.2-.26a1.19 1.19 0 00.53-.39 2.3 2.3 0 01.46-.46l-.66-.59a.8.8 0 00-.59-.2l-.53.2a1.47 1.47 0 00-.46.36 1.46 1.46 0 01-.46.36q-.39.39-.79.76a5.25 5.25 0 00-.72.82l-.4.79a3.69 3.69 0 00-.67 1.51zm16.43-4.2v.06l.07-.06z"/><path d="M167.17 62.21h-.14a.27.27 0 01-.13.26 1 1 0 00-.26.2 2.59 2.59 0 00-.33.39 1.68 1.68 0 01-.39.39l.46.39a.5.5 0 00.2-.06l.26-.13a1 1 0 01-.3.59.92.92 0 00-.3.39l-.23-.23-.23-.23a2.07 2.07 0 01-.33.26 1 1 0 00-.2.26c0 .09-.15.11-.33.07q-.72 0-.2.53c.22.22.28.43.2.62a1.5 1.5 0 00-.13.62c0 .26-.15.35-.46.26a1 1 0 00-.33-.53.72.72 0 01-.33-.07 2.36 2.36 0 00-.13.76.61.61 0 00.39.56l-.66.92c-.22 0-.35-.11-.39-.2h.12q.52-.13.33-.46a.44.44 0 00-.2 0 .46.46 0 01-.2 0 .61.61 0 01-.33.33l-.33.23c-.09.07-.09.21 0 .43a3.53 3.53 0 01.07.79l-.53-.39-.49.13a1.22 1.22 0 00-.49.33l.46.13.39.13a1 1 0 01-.26.72 5.8 5.8 0 00-.59.69 5.27 5.27 0 00-.46.76 4.48 4.48 0 00-1 1.05c-.22.22-.46.45-.72.69a3.41 3.41 0 00-.66.82l-1.25 1.31a1.58 1.58 0 01-.66.66s0 .09-.1.13-.1.09-.1.13a1.21 1.21 0 00-.66.39l-.46.59a1.21 1.21 0 01-.33.49l-.46.36-1.12.85a3.81 3.81 0 00-1 .66 4.3 4.3 0 01-1 .53l-1.05.39a4.44 4.44 0 01-3.81-.66 3.31 3.31 0 01-.72-.49l-.66-.62a.31.31 0 01-.16-.23.57.57 0 00-.16-.3 9.18 9.18 0 01-.59-2.89 6.89 6.89 0 010-1.15v-1.15a15.47 15.47 0 01.23-1.71q.17-.85.3-1.64a2 2 0 01.13-.69c.09-.24.18-.47.26-.69v-.13a1.6 1.6 0 01.13-.92 2.73 2.73 0 00.26-.85 5.58 5.58 0 01.33-1 5.27 5.27 0 00.33-1 1 1 0 00.16-.43 2.6 2.6 0 01.17-.29l.53-1.25c0-.09.09-.19.13-.3a1 1 0 00.07-.36.54.54 0 01.07-.3 1.88 1.88 0 00.13-.23 8 8 0 01.33-.92 2.51 2.51 0 01.53-.79c.09-.26.18-.57.26-.92s.22-.39.39-.39l-.13.85c0 .09-.07.13-.2.13v.2a.75.75 0 00.13.2.76.76 0 01.13.2H148q.26.39.46.06a1.62 1.62 0 01.36-.56.68.68 0 00.18-.62.13.13 0 010-.1.14.14 0 000-.1 5.89 5.89 0 00.33-.62c.09-.2.17-.4.26-.62a.37.37 0 00-.23-.13c-.07 0-.12 0-.16-.13a1.29 1.29 0 00-.3.46.83.83 0 00.1.66c-.22-.17-.36-.22-.43-.13a2.37 2.37 0 01-.23.26 2.92 2.92 0 01.36-1.12 6.33 6.33 0 01.76-1.05c0-.22.09-.43.13-.62a1 1 0 01.39-.56.94.94 0 01.53.13.27.27 0 00.26-.13q.2-.07.4-.46a1.13 1.13 0 00.13-.72 2.24 2.24 0 00-1 .59v-.06a.06.06 0 01.07-.07 4.71 4.71 0 00.43-.79 4.53 4.53 0 01.43-.79.89.89 0 00.2-.3.87.87 0 01.2-.3v-.2a2.51 2.51 0 00.69-1 2.9 2.9 0 01.62-1 1 1 0 01.79-.39.44.44 0 00.3 0 1.51 1.51 0 01.3 0q.33-.13.33-.39c0-.17-.13-.26-.39-.26a1.67 1.67 0 00-.59-.06c.09-.18.16-.32.23-.43a1.56 1.56 0 01.23-.3.42.42 0 01.23.06.4.4 0 00.23.07.52.52 0 00-.07-.72 2.57 2.57 0 01.36-.62 1.48 1.48 0 01.49-.43c.09-.17.16-.32.23-.43a1.85 1.85 0 00.16-.36.9.9 0 01.53-.33 1 1 0 00.46-.13v-.13c-.13-.22-.19-.37-.16-.46a1.41 1.41 0 01.36-.46.57.57 0 00.46-.59l.07-.06s.11 0 .2-.13a.13.13 0 010-.1.13.13 0 000-.1c.22.09.35.07.39-.06a.38.38 0 01-.26.06.67.67 0 01.16-.49 4.08 4.08 0 01.43-.36l.07-.06c.09 0 .13 0 .13-.07l.26-.79a2.36 2.36 0 00.23-.26 1.23 1.23 0 01.3-.26 3.77 3.77 0 01.59-.59l.43-.56a3.21 3.21 0 01.36-.43q.72-.92 1.48-1.77a16.81 16.81 0 011.74-1.59l1.38-1.38a5.47 5.47 0 01.76-.62l.89-.62a4.32 4.32 0 00.46-.36 2.09 2.09 0 01.59-.36 2.76 2.76 0 011.45-.39 1.09 1.09 0 011 .53l.39.56c0 .06-.07.3-.33.69a1.17 1.17 0 00-.33.53 6.09 6.09 0 01-.33.89c-.13.29-.26.56-.39.82a3.59 3.59 0 00-.33.72l-.72 1.45a.39.39 0 00-.26.26 1.65 1.65 0 01-.3.82l-.49.62a.77.77 0 01-.13.2.26.26 0 00-.07.2 1.07 1.07 0 01-.3.56 1.87 1.87 0 00-.36.49 5.05 5.05 0 00-.46.53 4.22 4.22 0 01-.39.46 4 4 0 00-.49.89 2.13 2.13 0 01-.49.76.79.79 0 00-.3.4 5.59 5.59 0 01-.23.53q-.33.52-.72 1.12a10.56 10.56 0 01-.85 1.12h-.07a1.5 1.5 0 01-.49.82 3.81 3.81 0 00-.69.76.71.71 0 00-.2.66c.09.18.08.3 0 .36a1.47 1.47 0 00-.3.23 1.88 1.88 0 00-.79.69 7.18 7.18 0 01-.59.82 2.23 2.23 0 00-.49.72 1.63 1.63 0 01-.49.66 7.35 7.35 0 01-.56.62l-.62.62-.13.13a6 6 0 01-1.28 1.58l-1.54 1.32a2 2 0 01-.36.39c-.15.13-.3.26-.43.39l-.72.46a.49.49 0 01-.59 0q-.39-.39 0-.72a17.07 17.07 0 001.45-1.18l1.45-1.32a7.09 7.09 0 01.39-.59 2.26 2.26 0 01.46-.46 5.8 5.8 0 011-1.25q.33-.52.76-1.08l.82-1.09a7.92 7.92 0 00.49-.69 4 4 0 01.56-.69l.13-.26a1.72 1.72 0 01.43-.82 2.65 2.65 0 00.49-.69 6.22 6.22 0 01.56-.72 9.39 9.39 0 00.62-.79 34.69 34.69 0 012-3c.22-.31.44-.62.66-1s.44-.65.66-1l.2-.39a3.38 3.38 0 00.76-.92 10.75 10.75 0 01.62-1 4 4 0 01.85-1.18.77.77 0 01.13-.2.19.19 0 00.07-.13 2.33 2.33 0 01.3-.85q.23-.39.49-.79a3.69 3.69 0 01.36-.85 4.33 4.33 0 00.36-.79 1.8 1.8 0 01.2-.53h-.13v-.06a.58.58 0 01-.26.06.38.38 0 00-.26.13 8.4 8.4 0 01-1.08.92 13.7 13.7 0 00-1.08.85 1.14 1.14 0 00-.43.36l-.3.43a3.69 3.69 0 00-.26.3.7.7 0 01-.33.23.47.47 0 00-.2.16 1.79 1.79 0 01-.2.23 3.76 3.76 0 00-.69.76l-.56.82a13.37 13.37 0 01-1.18 1.28 9.27 9.27 0 00-1.12 1.28 2.83 2.83 0 00-.53.66q-.92 1.12-1.74 2.27T157.55 47q-.26.33-.49.66a2.62 2.62 0 00-.36.79l-.39.53a4.42 4.42 0 00-.66 1.38.31.31 0 01-.1.23l-.16.17c-.22.22-.41.42-.56.59a4.08 4.08 0 00-.43.59 1.86 1.86 0 00-.39.56c-.09.2-.18.41-.26.62a4.11 4.11 0 00-.53.79c-.13.26-.28.55-.46.85a.11.11 0 01-.07.1.35.35 0 00-.13.16 6.06 6.06 0 01-.33.79l-.39.79a6.75 6.75 0 00-.36.69 3.3 3.3 0 01-.43.69 2.81 2.81 0 01-.36.72 3.23 3.23 0 00-.36.66l-.92 2.1-1.41 3.38c-.13.48-.27 1-.43 1.41s-.32.93-.49 1.41l-.36 1.6-.52 2a1.76 1.76 0 010 .36 1.88 1.88 0 000 .36v.53q-.13.59-.26 1.25a13 13 0 00-.2 1.38 4.8 4.8 0 000 1.12 8.69 8.69 0 00.2 1.05 5.24 5.24 0 00.07.85 8 8 0 00.2.85 1.55 1.55 0 00.43.76 1.86 1.86 0 00.82.23 8.68 8.68 0 001.05-.07 2.61 2.61 0 001.05-.39q.72-.39 1.35-.79a14.48 14.48 0 001.28-.92 8.24 8.24 0 01.82-.72 8.44 8.44 0 00.82-.72 3.13 3.13 0 00.59-.46 2.08 2.08 0 01.53-.4h.05a1 1 0 01.33-.62l.46-.43a14.65 14.65 0 011.84-1.91 3.82 3.82 0 00.72-.82 2.79 2.79 0 01.85-.82s.11 0 .2-.13a10.47 10.47 0 011.15-1.54l1.28-1.41a8.38 8.38 0 011.05-1.25 2.22 2.22 0 00.26-.33 2.12 2.12 0 01.26-.33 11.75 11.75 0 001.05-1.45c.17-.22.35-.45.53-.69a5.7 5.7 0 01.59-.69 4 4 0 00.72-1.05l2-3h.71zm-21 3.68h-.33q0 .33-.13.39.33.07.36 0a2.11 2.11 0 00.13-.39zm.39-1.31a.86.86 0 01-.3.2.91.91 0 00-.3.2q.33.39.53.06c.26-.14.28-.29.1-.46zm-.2-.79a3.53 3.53 0 01.26.3.48.48 0 00.39.16c0-.13.08-.24.1-.33a1.16 1.16 0 01.16-.33 2 2 0 00-.87.2zm.59-.85l.13.13.2.2a.85.85 0 01.2-.39 1.36 1.36 0 00-.48.05zm.53-.46h.07c0-.17 0-.31-.26-.39a.83.83 0 00.22.38zm.26-.46c.26-.17.41-.3.43-.36s0-.21-.16-.43a.5.5 0 01-.36.23c-.15 0-.25.14-.3.36zm2.3-6.18h.33l-.07-.07h-.07a.13.13 0 00-.1 0 .13.13 0 01-.05.06zm1.38-2.1h-.13l-.07.07s0 .06.07.06zm.2-.2l.13-.07-.13-.26-.13.07a.06.06 0 00-.07.06c.04.08.1.15.23.19zm.72-.53a.52.52 0 00-.39-.53c-.09.22-.08.34 0 .36a1.06 1.06 0 01.43.17zm.53-1.05a1.12 1.12 0 00-.43-.26c-.07 0-.12 0-.16.13s0 .31.39.53zm2.7-4.21a1.91 1.91 0 00-.39-.13s-.09.11-.13.33l.26-.13a.57.57 0 01.29-.07zm.2 27.74a.06.06 0 00-.07-.06l-.07.06.07.07a.061.061 0 00.1-.07zM157 45.18h-.26a.19.19 0 01.07.13zm.59 28.59v.13a.63.63 0 00.33-.13zm.79-1.31v.06a.47.47 0 00.53-.06zm1.62-1.11a.06.06 0 01-.07-.07l-.2.2s0 .06.07.06h.07a.06.06 0 00.07-.06.19.19 0 01.06-.13z"/></svg>