<svg xmlns="http://www.w3.org/2000/svg" viewBox="0 0 118 56"><path d="M8.619 1.253v5.754H6.582V4.613c0-.75-.607-1.357-1.322-1.357h-.572c-.75 0-1.358.607-1.358 1.357V22.91c0 .75.607 1.357 1.358 1.357h.572c.715 0 1.322-.607 1.322-1.357v-2.395h2.037v5.754H6.582v-.287c-.393.18-.857.287-1.358.287h-.536a3.356 3.356 0 01-3.359-3.359V4.613a3.355 3.355 0 013.359-3.359h.536c.5 0 .965.107 1.358.285v-.286h2.037zm16.942 23.014h.965v2.002h-3.859v-2.002h.643l-2.466-8.898v8.898h.929v2.002h-3.859v-2.002h.929V3.255h-.929V1.253h4.824c1.858 0 3.395 1.5 3.395 3.359v7.146c0 1.787-1.394 3.217-3.145 3.359l2.573 9.15zM20.843 3.255v9.826h1.894c.75 0 1.358-.572 1.358-1.322V4.613c0-.75-.607-1.357-1.358-1.357h-1.894zm21.946 1.358V22.91c0 1.857-1.501 3.359-3.395 3.359h-.536a3.356 3.356 0 01-3.359-3.359V4.613a3.355 3.355 0 013.359-3.359h.536c1.894-.001 3.395 1.499 3.395 3.359zm-2.037 0c0-.75-.607-1.357-1.322-1.357h-.572c-.75 0-1.358.607-1.358 1.357V22.91c0 .75.607 1.357 1.358 1.357h.572c.715 0 1.322-.607 1.322-1.357V4.613zm20.194-1.358v21.012h.929v2.002h-3.359L54.656 8.65v15.617h.929v2.002h-3.859v-2.002h.929V3.255h-.929V1.253h3.359l3.824 17.582V3.255h-.893V1.253h3.859v2.002h-.929zm19.48-2.002v3.859h-2.001V3.255h-1.787v21.012h.929v2.002h-3.859v-2.002h.894V3.255h-1.787v1.857h-2.001V1.253h9.612zm16.264 3.36V22.91c0 1.857-1.501 3.359-3.395 3.359h-.536A3.356 3.356 0 0189.4 22.91V4.613a3.355 3.355 0 013.359-3.359h.536c1.894-.001 3.395 1.499 3.395 3.359zm-2.037 0c0-.75-.607-1.357-1.322-1.357h-.572c-.75 0-1.358.607-1.358 1.357V22.91c0 .75.607 1.357 1.358 1.357h.572c.715 0 1.322-.607 1.322-1.357V4.613zm20.194-1.358v21.012h.929v2.002h-3.359l-3.86-17.619v15.617h.929v2.002h-3.859v-2.002h.929V3.255h-.929V1.253h3.359l3.824 17.582V3.255h-.893V1.253h3.859v2.002h-.929z"/><path d="M38.462 43.583c0 .15-.044.27-.131.355a.937.937 0 01-.301.207c-.113.051-.226.102-.338.15a.923.923 0 00-.282.189c.05.051.075.1.075.15s.013.1.038.15v.037c-.251.176-.495.332-.733.471s-.495.281-.771.432l-.075.15c-.025.025-.113.051-.263.076s-.251.037-.301.037c-.125.025-.226.082-.301.17s-.163.182-.263.281l-.564.414c-.276.125-.54.27-.79.432-.251.164-.502.334-.752.508l-.602.189a17.074 17.074 0 01-1.956.675c-.602.15-1.135.182-1.599.096-.464-.09-.972-.271-1.523-.547-.452-.201-.752-.445-.903-.732a6.508 6.508 0 01-.414-1.035c-.05-.074-.088-.145-.113-.207s-.05-.143-.076-.244a.254.254 0 01-.075-.188c.126-.125.145-.25.057-.377a1.945 1.945 0 01-.207-.375c-.125-.227-.075-.402.15-.527a21.96 21.96 0 00-.244-.32c-.088-.111-.106-.244-.057-.395.025-.025.032-.057.019-.094s-.006-.057.019-.057c.176-.051.257-.113.245-.188a.442.442 0 01.056-.264c.051-.15-.012-.264-.188-.338-.125-.051-.175-.107-.15-.17a.51.51 0 01.113-.17c.126-.125.113-.264-.038-.414-.05-.023-.062-.086-.038-.188a.471.471 0 01.113-.225c.126-.125.207-.264.245-.414s.069-.314.094-.49a1.51 1.51 0 00.113-.602c.075-.074.088-.162.038-.264-.1-.25-.113-.469-.038-.658.075-.188.176-.381.301-.582.025-.15.069-.289.132-.414s.069-.264.019-.414c0-.049.019-.1.057-.15a.906.906 0 00.094-.15c.075-.1.12-.188.132-.264.013-.074-.043-.137-.169-.188.075-.1.157-.193.245-.281.088-.088.157-.195.207-.32s.082-.25.094-.377c.013-.125.032-.25.057-.375a.942.942 0 00.056-.133.39.39 0 01.094-.131.926.926 0 00.301-.527l.075-.301a.339.339 0 01.188-.225c.075-.076.113-.139.113-.189-.025-.1.012-.174.113-.225.1-.051.2-.1.301-.15a.654.654 0 01.188-.564.645.645 0 00.094-.395.635.635 0 01.094-.395c.05-.051.088-.107.113-.17s.075-.119.15-.17c.05-.1.076-.162.076-.188a1.29 1.29 0 01.263-.527l.376-.451c0-.25.1-.463.301-.639s.288-.4.264-.678v-.113a.46.46 0 00.282-.15c.063-.074.119-.15.169-.225.05-.076.106-.145.169-.207a.54.54 0 01.282-.133c-.05-.199.013-.412.188-.639.175-.227.325-.389.451-.488.125-.176.245-.283.357-.32s.144-.17.094-.395l.489-.34c.075-.049.156-.15.245-.301.087-.15.156-.262.207-.338.075-.125.194-.264.357-.414s.307-.287.433-.414c.1-.049.175-.15.226-.301.025-.023.05-.057.075-.094s.063-.068.113-.094c.25-.201.458-.363.621-.488s.333-.314.508-.564c.025-.025.057-.039.094-.039s.069-.012.094-.037l.188-.15c0-.199.1-.338.301-.414.2-.074.376-.174.527-.301.125-.074.212-.137.263-.188.075-.125.156-.232.244-.32s.207-.168.357-.244a.423.423 0 01.226-.02c.1.014.15-.006.15-.055.05-.176.212-.264.489-.264.025 0 .043-.006.057-.02.012-.012.031-.018.056-.018.05-.127.156-.213.32-.264a1.29 1.29 0 00.433-.227c.275-.15.551-.25.828-.301.275-.1.451-.182.526-.244s.276-.068.602-.02c.551.025 1.078.215 1.58.564.226.201.363.408.414.621s.088.457.113.732c.05.303.075.604.075.904s-.051.59-.15.865c-.051.225-.094.457-.132.695s-.082.471-.132.695c-.05.176-.113.34-.188.49s-.138.301-.188.451a4.925 4.925 0 01-.263.582 2.511 2.511 0 00-.226.584.745.745 0 01-.169.375 1.17 1.17 0 00-.207.34c-.15.275-.301.539-.451.789-.15.252-.276.514-.376.789-.05.102-.1.164-.15.189a1.368 1.368 0 00-.207.264c-.063.1-.12.213-.169.338l-.338.678a9.927 9.927 0 00-.226.395c-.075.137-.176.27-.301.395-.15.227-.307.465-.47.715s-.357.502-.583.752c-.15.275-.414.502-.79.678-.125.051-.182.063-.169.037.012-.025-.044-.051-.169-.076-.176-.074-.226-.188-.15-.338a.804.804 0 00.132-.17c.038-.061.068-.117.094-.168.326-.352.608-.721.846-1.109s.483-.783.734-1.186c.2-.301.388-.596.564-.885.175-.287.363-.582.564-.883.175-.377.357-.758.545-1.148.188-.387.395-.758.621-1.109.05-.1.119-.188.207-.262.088-.076.119-.176.094-.303 0-.023.012-.037.038-.037.025 0 .038-.012.038-.037-.05-.15-.025-.264.075-.338.1-.076.25-.125.452-.15-.126-.076-.195-.15-.207-.227a1.112 1.112 0 01-.019-.188c.1-.25.182-.502.245-.752.063-.252.119-.502.169-.754l.188-1.955c0-.201-.038-.4-.113-.602-.201-.377-.54-.551-1.016-.527-.226 0-.433.02-.621.057s-.395.094-.621.17c-.376.15-.747.318-1.11.508-.364.188-.684.42-.959.695-.326.252-.634.496-.921.734l-.847.695a1.065 1.065 0 00-.244.244.667.667 0 01-.245.207 8.77 8.77 0 01-.733.789 17.544 17.544 0 00-1.467 1.6c-.213.264-.42.545-.621.846a2.44 2.44 0 00-.451.508c-.126.188-.263.383-.414.584a2.584 2.584 0 00-.414.639l-1.016 1.467a11.472 11.472 0 01-1.091 1.918l-.94 1.957a6.508 6.508 0 00-.188.488c-.05.15-.101.326-.15.527-.126.275-.245.545-.357.809s-.207.533-.282.809l-.301 1.053-.15.527a3.99 3.99 0 00-.113.564c-.05.125-.081.27-.094.432a2.465 2.465 0 01-.094.508 35.59 35.59 0 01-.245 1.203 4.577 4.577 0 00-.094 1.242v.902c0 .326.025.641.075.941.076.576.226 1.215.452 1.918.075.199.213.4.414.602s.426.363.677.488h.376a5.001 5.001 0 001.655-.113l1.053-.375c.351-.125.702-.264 1.053-.414.075-.025.156-.063.244-.113s.182-.1.282-.15c.05-.023.075-.043.075-.057 0-.012.012-.031.038-.057a3.55 3.55 0 00.978-.488c.276-.199.564-.363.865-.488.2-.1.363-.201.489-.301s.276-.164.452-.189c.05 0 .075-.018.075-.055 0-.039.012-.07.038-.096a.91.91 0 00.245-.168 1.32 1.32 0 01.207-.17c.125-.125.245-.227.357-.301a4.98 4.98 0 00.357-.264c.326-.301.765-.488 1.316-.564.025 0 .05.008.075.02.017.024.042.03.067.03zm-1.241.713h-.113c-.025 0-.038.014-.038.039v.111h.038c.075-.023.113-.074.113-.15zm1.505-.865l-.151-.15c-.075-.049-.1-.105-.075-.168s.088-.094.188-.094l.301-.15h-.414l.226-.264c.2.051.351.1.451.15-.051.125-.107.25-.169.375-.063.127-.182.227-.357.301zm.864-1.014l-.15.188h-.038c-.05 0-.075-.014-.075-.037v-.113h.113c.05 0 .081-.006.094-.02.013-.012.032-.018.056-.018zm0-.152a.721.721 0 00-.226.039c.226-.201.407-.352.545-.451.138-.102.332-.252.583-.451l.113.111c-.15.176-.276.309-.376.396a7.692 7.692 0 00-.376.355h-.263zm14.068-6.846a1.35 1.35 0 01-.301.49 1.247 1.247 0 00-.264.264l-.226.301c-.076.1-.157.182-.245.244s-.169.131-.244.207c-.101.1-.182.193-.245.281-.063.088-.132.182-.207.283-.101.1-.182.201-.244.301a.84.84 0 01-.282.264l-.376.375c-.125.127-.251.252-.376.377-.301.275-.608.525-.921.752a7.415 7.415 0 01-.997.602c-.427.176-.878.176-1.354 0-.352-.15-.589-.357-.715-.621s-.213-.57-.263-.922a1.707 1.707 0 01-.038-.619l.075-.621c0-.15.038-.264.113-.338.05-.051.132-.189.245-.414.113-.227.156-.377.132-.451l-.527.451-.676.675c-.051.051-.094.088-.132.113s-.082.063-.132.113c-.15.176-.326.338-.526.488l-.602.451a.378.378 0 01-.207.076.387.387 0 00-.207.074c-.125.051-.301.008-.527-.131-.226-.137-.351-.27-.376-.395-.05-.227-.062-.377-.038-.451.075-.426.201-.791.376-1.092a2.7 2.7 0 00.452-.752c.025-.025.038-.051.038-.076 0-.023.025-.037.075-.037l.677-.715v-.074c.125-.176.269-.307.432-.395s.307-.182.433-.283l.075-.074a.677.677 0 01.47-.301 1.31 1.31 0 01.545.037c.401.025.664.238.79.639l.113.227c.125.025.238-.037.338-.189.05-.049.094-.1.132-.15.038-.049.081-.111.132-.188.125-.125.263-.125.414 0 .075.076.138.164.188.264s.05.188 0 .264c-.05.1-.107.193-.169.281-.063.088-.12.182-.169.283-.15.301-.333.689-.545 1.166-.213.477-.383.928-.508 1.354-.176.576-.188 1.104-.038 1.58.05.15.119.232.207.244.087.014.194.02.319.02.201-.025.363-.057.489-.096.125-.037.275-.105.451-.205.125-.051.238-.107.339-.17.1-.063.2-.131.301-.207l.226-.113c.15-.049.25-.125.301-.225l.038-.039a.845.845 0 00.395-.281c.113-.137.245-.244.395-.32.15-.1.276-.238.376-.414l.264-.301a1.4 1.4 0 00.564-.451.855.855 0 01.169-.188c.062-.051.119-.1.169-.15.05-.125.163-.227.338-.301a.317.317 0 01.075-.057c.024-.012.05-.043.075-.094.125-.15.25-.295.376-.434.125-.137.25-.281.376-.432l.075.074c.101.002.139.053.114.152zm-9.591 2.145a.86.86 0 00.452-.113l.188-.15a.534.534 0 00.263-.15l.414-.375c.1-.076.201-.176.301-.301.024 0 .075-.039.15-.113l.169-.17c.063-.063.132-.119.207-.168l.188-.227.113-.15a.682.682 0 00.301-.227c.075-.1.163-.188.263-.262l-.376-.34c-.075-.074-.188-.111-.338-.111l-.301.111c-.101.051-.188.119-.263.207s-.164.158-.264.207c-.15.15-.301.295-.451.434-.15.137-.289.295-.414.469l-.226.451a2.132 2.132 0 00-.376.865v.113zm9.403-2.407v.037l.038-.037h-.038z"/><path d="M49.069 39.896l.414-.488c0 .025.013.037.038.037a.577.577 0 01-.019.15.663.663 0 00-.019.15c.125.025.201.031.226.02.025-.014.063-.068.113-.17 0-.1.063-.15.188-.15.051-.049.119-.1.207-.15s.169-.1.244-.15c.201-.15.201-.25 0-.301-.075-.025-.113-.063-.113-.113 0-.049-.012-.088-.038-.113-.15 0-.226.064-.226.189-.05.15-.163.225-.338.225v-.15l.526-.525c.051-.051.088-.076.113-.076.126.051.226.057.301.02.075-.039.163-.07.263-.094l.564-.303c.025 0 .038.014.038.039a.259.259 0 00-.056.094.348.348 0 01-.094.131l-.451.527-.564.752a1.75 1.75 0 01-.263.338.685.685 0 00-.188.377 4.362 4.362 0 00-.696.902 8.97 8.97 0 01-.658.979c-.175.201-.313.42-.414.658a4.12 4.12 0 01-.376.695l-.038.076a.72.72 0 00-.245.318 6.754 6.754 0 01-.131.357c-.125.277-.27.541-.433.791s-.307.514-.433.789l-.903 1.617-.94 2.07a7.63 7.63 0 00-.301.752 5.488 5.488 0 01-.301.715 2.03 2.03 0 00-.264.658c-.05.238-.1.457-.15.658l-.075.301c-.1.1-.15.264-.15.488 0 .025-.025.139-.075.338-.025.102-.05.213-.075.34a.649.649 0 00.038.375l.038.039c0 .023.013.049.038.074a.695.695 0 00.282-.188 22.648 22.648 0 00.884-1.016c.226-.277.439-.578.64-.902.201-.277.382-.559.545-.848.163-.287.333-.57.508-.846.201-.301.389-.596.564-.885.176-.287.364-.57.564-.846l.714-1.43c.051-.1.107-.193.169-.281.063-.088.119-.17.169-.244.15-.352.307-.684.47-.998.163-.313.319-.633.47-.959.151-.225.282-.457.395-.695s.232-.471.357-.695a.448.448 0 01.075-.113.416.416 0 00.075-.113c.051-.1.088-.168.113-.207.025-.037.101-.031.226.02.05.025.082.031.094.02.013-.014.044-.008.094.018 0-.1.013-.176.038-.225a.343.343 0 00.038-.15.897.897 0 01-.263.037l-.038-.037a6.933 6.933 0 01.376-.904l.752-1.58c.05-.125.094-.236.131-.338.038-.1.082-.213.132-.338l.903-2.182.038-.076c.05.051.056.113.019.189-.038.074-.019.15.057.225.176-.125.251-.287.226-.488l-.301.074c.025-.1.056-.199.094-.301.038-.1.082-.213.132-.338a.836.836 0 00.038-.264l-.376.227a.615.615 0 00-.264.301.255.255 0 01-.075.188l-.15.15a1.552 1.552 0 01-.245.264c-.087.074-.194.164-.319.264.05-.1.088-.182.113-.246.025-.061-.013-.143-.113-.244-.276 0-.414.15-.414.451-.125-.074-.219-.08-.282-.018a.801.801 0 01-.282.168c0-.023.006-.043.019-.055.013-.014.019-.031.019-.057v-.039c.125-.125.232-.236.32-.338.088-.1.182-.188.282-.264.075-.049.15-.063.226-.037l.226.076c.201-.076.351-.164.451-.264.101-.025.164-.076.188-.15a.129.129 0 00.038-.094c0-.039.013-.082.038-.133a1.97 1.97 0 01.113-.188c.051-.076.138-.1.264-.076-.05-.199.038-.301.263-.301.05 0 .094-.037.132-.113.038-.074.031-.15-.019-.225-.05-.1-.125-.076-.226.074-.25-.074-.438.064-.564.414l-.113-.168c-.024-.039 0-.082.075-.133.176-.174.345-.338.508-.488.164-.15.32-.314.47-.488.326-.303.527-.652.602-1.055 0-.125.012-.238.038-.338l.075-.301a23.887 23.887 0 00.601-2.558c.1-.324.175-.658.226-.996a3.59 3.59 0 000-1.035c0-.174-.025-.357-.075-.545a47.574 47.574 0 00-.151-.545c-.025-.15-.069-.244-.131-.283-.063-.037-.169-.055-.32-.055h-.564a.699.699 0 01-.489-.113c-.05-.051-.075-.107-.075-.17s.038-.105.113-.131c.2-.051.389-.088.564-.113.175-.025.363 0 .564.074.201.102.401.227.602.377.2.15.351.363.451.639.125.201.2.422.226.658.025.24.038.496.038.771 0 .277-.019.553-.056.828s-.032.564.019.865c0 .176-.025.301-.075.375-.05.076-.094.15-.131.227s-.069.164-.094.264l-.232 1.279a.208.208 0 00-.019.15.962.962 0 01.019.225.955.955 0 01.169-.094.35.35 0 00.132-.094c.276-.176.558-.314.846-.414.288-.1.57-.201.847-.301.4-.1.777-.025 1.128.227a.84.84 0 01.263.205c.075.09.137.17.188.246.326.4.451.865.376 1.391l-.075.791c-.05.201-.107.406-.169.619a3.695 3.695 0 01-.245.621 5.526 5.526 0 01-.715 1.148 7.578 7.578 0 01-.94.959.883.883 0 01-.338.188c-.201.1-.395.207-.583.32a1.593 1.593 0 01-.658.207c-.477.023-.928-.113-1.354-.414l-.264-.189-.113-.225c.05.051.088.063.113.037s.05-.012.076.037c.275.176.545.24.809.189s.532-.139.809-.264c.276-.125.52-.283.733-.471.213-.188.433-.381.658-.582.25-.277.482-.559.696-.848.213-.287.395-.619.545-.996.125-.352.213-.701.264-1.053.05-.352.024-.729-.075-1.129-.051-.227-.113-.363-.188-.414-.075-.049-.238-.049-.489 0a2.9 2.9 0 00-.602.227 3.907 3.907 0 00-.621.301c-.213.125-.42.25-.621.375a2.903 2.903 0 00-.489.357c-.15.139-.289.27-.414.395-.075.025-.138.102-.188.227-.05.176-.107.338-.169.488-.063.15-.107.314-.132.49-.025.15-.069.295-.132.432-.063.139-.119.27-.169.395-.051.15-.094.295-.132.434s-.082.27-.131.395c-.101.301-.188.514-.264.641-.125.301-.238.602-.338.902s-.226.602-.376.902c-.05.176-.119.346-.207.508-.087.164-.169.32-.245.471l-.188.301c-.25.826-.626 1.643-1.128 2.445a4.17 4.17 0 00-.188.432c-.05.139-.113.27-.188.395-.15.277-.294.564-.433.865l-.395.865a7.146 7.146 0 00-.32.488 10.18 10.18 0 00-.282.527c-.1.125-.188.289-.263.488l-.865 1.506c-.075.15-.156.301-.244.451s-.182.301-.282.451c0 .076-.025.125-.075.15a.561.561 0 00-.245.264c-.063.125-.132.25-.207.375l-.865 1.279c-.125.15-.226.301-.301.451s-.163.301-.263.451c-.05.051-.075.088-.075.113s-.025.051-.075.076c-.25.225-.464.457-.64.695a3.506 3.506 0 01-.639.658l-.414.264c-.1.125-.238.176-.414.15a3.3 3.3 0 01-.64-.076c-.15-.1-.238-.176-.263-.225-.024-.127-.043-.232-.056-.32s-.019-.193-.019-.32c0-.1.006-.193.019-.281s.019-.195.019-.32c.075-.225.145-.469.207-.732.063-.264.119-.521.169-.771l.79-2.219c.075-.201.169-.42.282-.658.113-.24.22-.471.32-.697 0-.051.013-.074.038-.074.15-.176.251-.371.301-.584.051-.213.138-.42.263-.619.051-.15.164-.201.339-.15.025-.025.044-.039.056-.039.013 0 .032-.025.057-.074.025-.025.05-.037.075-.037a.299.299 0 00.113-.039c0-.125.006-.225.019-.301a1.83 1.83 0 00.019-.301.754.754 0 01.301-.338.965.965 0 01.15-.227v-.15c0-.049.013-.088.038-.113.025-.023.038-.061.038-.111-.075-.025-.125-.02-.15.018a.785.785 0 01-.113.133c.025-.1.075-.244.15-.434.075-.188.164-.332.264-.432.075.051.088.1.038.15s-.063.1-.038.15c.075 0 .213.025.414.074 0-.125.006-.25.019-.375a.683.683 0 01.132-.34c.025-.074.063-.125.113-.15a.824.824 0 01.188-.057.328.328 0 00.188-.094c.1-.1.175-.199.226-.301a1.23 1.23 0 01-.038-.301v-.262c0-.023.025-.037.075-.037 0-.15.025-.238.075-.264a.182.182 0 01.131-.094.252.252 0 01.169.02c.101 0 .157-.025.169-.076a.342.342 0 01.094-.15.689.689 0 01-.131-.188.707.707 0 00-.132-.188l-.338.111a.757.757 0 01.226-.375c.025-.025.063-.037.113-.037.326.049.589-.025.79-.227h.038l-.263-.377c-.075 0-.125.025-.151.076l-.075-.076c.075-.1.138-.193.188-.281s.1-.182.15-.281c.101-.102.15-.139.15-.113.025 0 .101.037.226.113-.1.049-.2.15-.301.301.05.051.088.111.113.188.125-.125.245-.238.357-.338.113-.102.232-.189.357-.264.15-.15.188-.314.113-.49 0-.049-.05-.074-.15-.074a.695.695 0 00-.379.037zm-5.078 10.269c-.025 0-.038.012-.038.037l.075.076.038-.039-.075-.074zm.264-1.129l.038.037c0-.051.006-.082.019-.094.013-.012.019-.031.019-.057h-.038c-.026.001-.038.04-.038.114zm.902-1.279c-.376-.025-.551.088-.527.34.075-.051.15-.107.226-.17s.176-.119.301-.17zm-.112-.187v.074c.025-.074.05-.111.075-.111l-.038-.039c-.025.025-.037.05-.037.076zm4.174-1.918c-.075.074-.087.137-.038.188a.448.448 0 01.038-.188zm0 0c.051 0 .094.006.132.018.038.014.082-.006.132-.057-.125-.049-.213-.038-.264.039zm.188-.34c-.024.025-.038.051-.038.076v.037c0 .025.013.037.038.037s.051-.012.076-.037h-.038c-.025 0-.038-.012-.038-.037v-.076zm.978-1.918c-.075.127-.113.201-.113.227s.051.074.15.15c.127-.1.114-.227-.037-.377zm.941-1.655a.105.105 0 00.075-.037l-.15-.076h-.038v.037c.025 0 .044.014.057.039s.031.037.056.037zm.188-.902a1.774 1.774 0 01-.15.414c.176.049.263 0 .263-.152.05-.174.013-.262-.113-.262zm.451-.754h-.038c-.075.051-.1.152-.075.303.076-.15.113-.252.113-.303zm.828-1.879h-.113c-.05.199-.1.338-.15.412a1.1 1.1 0 00.414-.075c-.05-.051-.075-.107-.075-.17s-.026-.118-.076-.167zm2.483-4.552l.038.076c0 .025.012.037.038.037v-.113h-.076zm10.305 3.912c.451-.301.934-.621 1.448-.959.514-.338.997-.658 1.448-.959.452-.301.74-.477.865-.527-.05.127-.05.164 0 .113.05-.049.05 0 0 .15l-2.708 2.145-.15.15-.15.15-1.354.715c-.15.074-.307.207-.47.395s-.319.32-.47.395l-.978.414c-.051.025-.151.037-.301.037a.21.21 0 01-.15.02.209.209 0 00-.15.02.964.964 0 01-.79-.301l-.113-.113c-.226-.227-.363-.477-.414-.752s-.05-.553 0-.828l.15-.414a.518.518 0 00.038-.225h-.038c.025-.176.113-.352.263-.527.051-.025.069-.057.057-.094s-.006-.082.019-.133l.376-.639c.1-.1.188-.162.263-.188 0-.025.025-.063.075-.113l1.279-1.654c.1-.15.213-.164.338-.039.125.076.226.227.301.451.024.076 0 .176-.075.301a2.857 2.857 0 00-.264.303c-.075.1-.15.213-.226.338-.15.201-.307.408-.47.621s-.32.432-.47.658a12.25 12.25 0 00-.357.695c-.113.238-.231.471-.357.695a.994.994 0 00-.169.49 6.53 6.53 0 01-.057.525c0 .176.088.264.264.264.226.025.476-.025.752-.15a15.567 15.567 0 001.881-.865c.124-.075.413-.265.864-.565zm-.225-5.83c.075.176.175.176.301 0 .125-.125.25-.256.376-.395s.276-.258.452-.357l.526-.377c.175-.1.213-.238.113-.414l-.338-.412c-.075-.076-.164-.076-.263 0l-.376.301c-.075.074-.15.156-.226.244s-.176.17-.301.244c-.15.102-.245.221-.282.357l-.132.471c.049.15.099.263.15.338z"/><path d="M62.496 29.101c-.526.051-.84.045-.94-.02a.608.608 0 01-.226-.244.859.859 0 000-.357.893.893 0 010-.357c.075-.15.157-.301.245-.451.088-.15.194-.275.32-.375l.602-.377c.201-.125.402-.238.602-.338l.038-.039.075-.074c.15-.1.352-.125.602-.076.075-.049.125-.137.15-.262.125-.051.251-.107.376-.17.126-.063.289-.068.489-.02-.05-.049-.063-.088-.038-.113.05-.023.1.014.15.113.05.102.138.127.263.076l-.038-.037a.345.345 0 00.038-.152v-.111c.15-.1.276-.15.376-.15.025-.025.057-.031.094-.02.038.014.082.006.131-.02.051.051.088.076.113.076l.038.037a.585.585 0 01.226-.074c.15-.1.226-.176.226-.227a.905.905 0 01.376-.113.904.904 0 01.264-.037c.025.051.075.076.15.076l.075.037c.101.074.201.088.301.037l.075-.15c.075.102.157.133.245.094.088-.037.169-.068.245-.094l.075-.188c.125.051.226.051.301 0 .075-.1.163-.113.263-.037.025.023.075.037.15.037a.582.582 0 00.094-.113c.012-.025.043-.051.094-.074l-.075-.189a.46.46 0 00.264-.074l-.075.188c.05 0 .113.063.188.188a.871.871 0 01.188-.264v-.15c.1 0 .163.039.188.113.05.102.138.139.263.113.05-.051.1-.068.15-.057.05.014.1.006.151-.02.05.025.106.033.169.02a.927.927 0 01.169-.02l.075-.188c-.025-.023-.038-.057-.038-.094s-.013-.08-.038-.131c.15-.051.263 0 .338.15.05.1.1.137.15.111a.48.48 0 01.282-.055.342.342 0 00.245-.057c.226.051.351-.014.376-.189l.113-.074h-.038l1.128-.414.15.037c0-.023.006-.043.019-.057.012-.012.019-.043.019-.094 0-.074.05-.137.151-.188.05-.125.106-.232.169-.32.063-.088.119-.182.169-.281.125-.301.338-.576.639-.828.05-.049.088-.1.113-.15a.562.562 0 01.113-.15c.024-.125.075-.238.15-.338s.15-.189.226-.264c.05-.051.094-.1.132-.15s.056-.113.056-.188l.15-.15c.075-.076.144-.139.207-.189a.402.402 0 00.132-.225l.116-.15c.1-.076.188-.176.263-.301.226-.277.482-.459.771-.547.288-.086.583.008.884.283.125.1.213.213.264.338.05.127.087.264.113.414a2.2 2.2 0 010 .809 5.355 5.355 0 01-.226.809l-.489 1.242-.301.639c.024.025.1.037.226.037.025-.023.05-.023.075 0 .025.025.038.025.038 0 .075-.15.213-.174.414-.074.15 0 .25-.02.301-.057.05-.037.062-.133.038-.283h.075l.188.264c.075.025.15-.023.226-.15.05.051.1.127.15.227.151 0 .238-.113.264-.34l-.527-.037c.025-.023.038-.049.038-.074a.758.758 0 01.527.037l.113.113c.024.1.087.15.188.15a.22.22 0 01.094.074.285.285 0 00.056.076c.05-.076.05-.213 0-.414a.344.344 0 01.245-.057c.087.014.169.02.245.02v.15c0 .025.038.051.113.074.1.051.188.102.263.15a.512.512 0 01.169-.113c.062-.023.056-.1-.019-.225.175.051.288.125.338.225.075.102.175.15.301.15l.113-.111c.024-.025.087-.025.188 0 .05.051.119.068.207.057.087-.014.156.006.207.055h.075l.339-.111v-.264h.207c.063 0 .132.037.207.113l-.188.111a1.996 1.996 0 00-.075.17c-.025.063.012.107.113.133.1.023.163.023.188 0l.188-.189c.125.127.27.164.433.113s.332-.051.508 0c0 .051.05.1.15.15h.527c-.051-.051-.075-.1-.075-.15s-.025-.088-.075-.113v-.15h.113a.22.22 0 01.15-.018c.05.012.1.018.15.018.025 0 .043.008.057.02.012.012.043.018.094.018a.769.769 0 00-.056.15c-.013.051.019.102.094.152 0 .074.038.111.113.111.25 0 .438.014.564.039.05 0 .1-.025.15-.076.05-.051.05-.1 0-.15 0-.051-.025-.076-.075-.076-.176-.049-.301-.023-.376.076v.037l-.188-.225a.754.754 0 01.414.037l.414.074c.05.127.1.201.15.227.05.025.138.025.263 0l-.226-.188c.1-.076.201-.094.301-.057s.213.082.339.131l-.188.076c.024.051.05.094.075.131a.242.242 0 01.038.133h.338l-.113-.301a.563.563 0 01.226-.076l.64.076c.05.049.087.074.113.074.2 0 .395.025.583.076.188.049.382.111.583.188l.677.113c.2 0 .414.037.639.111.175.051.326.102.451.15.125.051.25.102.376.15a1.213 1.213 0 01.452.189c.075.1.138.193.188.281s.063.195.038.32c-.075.201-.15.338-.226.414-.075.074-.213.137-.414.188l-.376.076a7.964 7.964 0 00-.282.074.539.539 0 01-.282 0 .35.35 0 00-.226 0 .904.904 0 01-.301.094c-.101.014-.213.02-.339.02l-.188-.113c-.05 0-.082-.012-.094-.037s-.032-.012-.056.037c-.075.076-.157.107-.245.094a.525.525 0 00-.245.02c0-.076-.013-.125-.038-.15l-.15.037a.2.2 0 00-.169 0 .295.295 0 01-.207 0c-.075-.049-.138-.025-.188.076-.075.1-.15.15-.226.15-.051 0-.113-.006-.188-.02a.3.3 0 00-.188.02l-.075-.15h-.075c-.276.1-.464.088-.564-.039-.025-.023-.075-.037-.151-.037l.038.227-.226-.113c-.025-.125-.113-.176-.263-.15l-.64.225a.453.453 0 01-.113-.188c-.025-.074-.088-.088-.188-.037-.075 0-.15.006-.226.018-.075.014-.138.07-.188.17-.051 0-.088-.012-.113-.037-.025-.025-.063-.037-.113-.037-.176-.051-.326-.051-.452 0a.722.722 0 01-.32.074.338.338 0 01-.282-.15.621.621 0 00-.264-.074h-.263c0 .074-.038.125-.113.15a.634.634 0 00-.15.018c-.051.014-.088-.006-.113-.057h-.263c-.075 0-.138-.037-.188-.111 0 .025-.013.037-.038.037l.075.113c-.025 0-.05.012-.075.037-.15.1-.276.063-.376-.113-.05-.049-.075-.049-.075 0-.051.025-.075.051-.075.076s.024.037.075.037c0 .025.012.037.038.037-.101.127-.164.188-.188.188-.025 0-.075-.037-.15-.111-.15-.15-.301-.201-.452-.15a.769.769 0 01-.338 0 1.123 1.123 0 00-.263-.039l-.677-.111-.677-.076-.151-.074c-.15.074-.289.08-.414.018a5.395 5.395 0 00-.376-.17l-.188-.074a.367.367 0 01-.188-.15c-.05-.076-.101-.15-.15-.227-.05-.049-.056-.094-.019-.131s.081-.031.131.02c.05-.051.075-.039.075.037.351.15.696.25 1.035.301.338.051.683.088 1.034.113.125.051.263.074.414.074.15 0 .288.014.414.037l1.204.076c.075.025.188.037.338.037.1 0 .194-.006.282-.018a.527.527 0 01.245.018l.451.039c.175 0 .351.006.527.018.175.014.363.006.564-.018a.718.718 0 01.395.037.739.739 0 00.47 0 .769.769 0 01.338 0c.201.025.407.025.621 0 .213-.025.433-.037.659-.037h.113a.64.64 0 00.319.055 2.9 2.9 0 00.282-.055c.1 0 .163-.014.188-.039l.94-.037 1.128-.076a3.523 3.523 0 00.79-.075c.125-.025.25-.043.376-.057.125-.012.25-.043.376-.094.05 0 .15-.025.301-.076-.025-.1-.101-.174-.226-.225a4.202 4.202 0 00-.79-.227l-1.241-.301a1.858 1.858 0 00-.32-.037.623.623 0 01-.282-.076.968.968 0 00-.433-.055 1.18 1.18 0 01-.47-.057c-.25-.051-.439-.063-.564-.039-.075.025-.201 0-.376-.074a1.044 1.044 0 00-.395-.076h-.395a.694.694 0 00-.338-.055 4.998 4.998 0 00-.339.055l-1.768-.111h-.113l-.677-.076a2.029 2.029 0 00-.47-.02c-.164.014-.333.02-.508.02h-.564a4.98 4.98 0 00-.564.037h-.113a.468.468 0 01-.282.057 1.813 1.813 0 00-.245-.018c-.125-.102-.289-.125-.489-.076a.685.685 0 00-.263-.02c-.075.014-.164.02-.263.02h-.376a5.538 5.538 0 01-.32.057 1.8 1.8 0 01-.282.02l.075-.076-.264-.188c0 .025-.038.074-.113.15.075-.025.151.025.226.15a2.738 2.738 0 01-.64 0 2.13 2.13 0 00-.451.037l-.602 1.053c-.201.352-.414.703-.64 1.055a.227.227 0 01-.15.15c-.075.125-.15.232-.226.318a.536.536 0 00-.113.357l-.038.076v.037c-.126.102-.188.213-.188.338l-.113.264a.708.708 0 00-.282.32c-.063.139-.182.244-.357.32 0 .1-.032.182-.094.244-.063.063-.12.131-.169.207l-.226.525a6.724 6.724 0 01-.79 1.205c-.075.1-.15.193-.226.281s-.138.195-.188.32a11.84 11.84 0 01-1.467 1.955.343.343 0 00-.038.15c0 .051-.025.088-.075.113l-.639.902c0 .025-.019.051-.057.076s-.069.063-.094.113c-.15.301-.376.426-.677.375a1.003 1.003 0 00-.169.283 1.65 1.65 0 00-.131.432.897.897 0 00-.094.301 4.878 4.878 0 01-.057.338l-.15.604-.113.602-.113.752c0 .051-.032.156-.094.32-.062.162-.094.395-.094.695 0 .125-.012.27-.038.432-.025.164-.038.309-.038.434s-.019.27-.057.432a1.948 1.948 0 00-.056.434c0 .1-.019.201-.057.301s-.056.201-.056.301v.678a.636.636 0 01-.038.262.424.424 0 00-.038.189c0 .1.006.238.019.412.013.176.006.277-.019.303a.347.347 0 000 .225c.025.076.025.227 0 .451-.025.127-.013.244.038.357s.075.232.075.357c0 .227.019.377.056.451a.676.676 0 01.057.301c0 .051.025.082.075.094.05.014.088.045.113.096.301 0 .602-.113.903-.34.1-.049.194-.113.282-.188.087-.076.181-.188.282-.338.025-.051.075-.096.15-.133s.138-.094.188-.168c.05-.025.094-.063.131-.113s.081-.113.132-.189a.675.675 0 01.188-.074c.05 0 .075-.012.075-.037a.41.41 0 01.188-.283.576.576 0 00.226-.281c.1-.125.182-.238.245-.34.063-.1.156-.211.282-.338.125-.125.263-.25.414-.375.15-.127.25-.314.301-.564.1-.227.226-.389.376-.49l.15-.111.263-.414.038-.264.489-.527.79-1.24.452-.678 1.316-1.994c.025.076.05.139.075.189a.308.308 0 01.038.131v.02l-.301.301-.564 1.166-.188.074-.038.227-.677 1.016-.452.939-.188.113-.903 1.58-.489.789-.414.564-.451.602-.677.865-.489.564c-.075.102-.263.264-.564.49-.201.15-.414.275-.639.375-.326.176-.564.252-.715.227a2.915 2.915 0 01-.47-.15c-.188-.076-.344-.25-.47-.527-.05-.15-.1-.275-.15-.377-.05-.1-.087-.188-.113-.262l-.226-.828a1.696 1.696 0 00-.075-.281.802.802 0 01-.038-.283.187.187 0 000-.225.252.252 0 01-.038-.227 7.755 7.755 0 01-.038-.865v-1.016c0-.1.013-.201.038-.301s.038-.201.038-.301v-.678c0-.15.013-.307.038-.469.025-.164.038-.309.038-.434 0-.225.019-.426.056-.602s.069-.275.094-.301c0-.1.013-.193.038-.283.025-.086.038-.182.038-.281 0-.125.063-.4.188-.828l.188-.715.075-.375c.051-.201.113-.389.188-.564s.138-.289.188-.338c0-.025.006-.045.019-.057.013-.014.019-.031.019-.057 0-.275.05-.514.15-.715a.67.67 0 00.075-.301v-.227c.05-.15.113-.287.188-.414.075-.125.138-.25.188-.375.025-.076.05-.139.075-.188.025-.051.025-.127 0-.227 0-.1.025-.176.075-.227a1.87 1.87 0 00.339-.488c0-.074-.006-.145-.019-.207s.006-.131.057-.207c.05-.125.094-.238.131-.338s.082-.213.132-.338c.1-.201.182-.402.245-.604.062-.199.131-.387.207-.563.05-.125.088-.189.113-.189.1-.125.188-.262.263-.414a2.91 2.91 0 00.188-.488 1.65 1.65 0 01.263-.564c.125-.174.238-.363.339-.564a1.11 1.11 0 01.075-.131.24.24 0 00.038-.131c0-.102.012-.15.038-.15a.691.691 0 00.244-.396.885.885 0 01.245-.432.41.41 0 01.113-.377c.1-.1.163-.213.188-.338.125-.051.188-.125.188-.227 0-.1.038-.199.113-.301l.075-.074c-.15.051-.308.088-.47.113-.164.023-.32.049-.47.074-.251.051-.483.094-.696.131-.213.039-.433.082-.658.133l-1.806.451c-.301.051-.602.113-.903.188a5.141 5.141 0 00-.865.301c-.301.051-.583.119-.846.207s-.532.184-.809.283c-.351.125-.689.25-1.016.375-.326.127-.64.277-.94.451-.226.127-.445.252-.658.377-.213.125-.395.275-.545.451s-.213.283-.188.32c.025.037.113.107.263.207.102.077.227.139.377.19zm11.059-3.762a.907.907 0 00-.15.227l-.15.301-.715 1.503-1.053 2.219c-.151.352-.301.697-.452 1.035s-.289.695-.414 1.072c-.075.201-.138.4-.188.602-.051.201-.126.4-.226.602-.025 0-.038.025-.038.076-.05.074-.088.156-.113.244s-.063.182-.113.281c.025.051-.013.15-.113.301l.075.039.376-.414c.05-.051.081-.1.094-.15a.315.315 0 01.094-.15c.15-.15.275-.314.376-.49.1-.174.226-.324.376-.451.15-.199.301-.414.452-.639 0-.051.024-.1.075-.15.1 0 .156-.031.169-.094s.044-.133.094-.207l.075-.15c.15-.1.257-.238.32-.414a.643.643 0 01.32-.377c0-.023.012-.037.038-.037.05-.076.087-.145.113-.207.024-.063.087-.105.188-.131a.13.13 0 00.113-.057.281.281 0 01.113-.094.623.623 0 01.019-.451c.062-.152.156-.227.282-.227.125-.025.2-.076.226-.15a.452.452 0 01.113-.188c.05-.051.069-.102.056-.15-.013-.051.006-.102.057-.15.05-.127.113-.252.188-.377s.175-.238.301-.338c.201-.102.351-.275.452-.527 0-.201.038-.363.113-.488a.48.48 0 00.188-.264.371.371 0 01.15-.227c.1-.125.201-.244.301-.357a.453.453 0 00.113-.395c-.025-.049 0-.137.075-.264.075-.1.15-.207.226-.318.075-.113.137-.232.188-.357h-.827c-.101 0-.15.012-.15.037-.101.051-.194.074-.282.074s-.169.014-.244.039l-.94.15-.341.638zm-2.257-1.279h.038l-.15-.074-.15.037c.124.076.212.088.262.037zm.489-.151c.05.051.15.064.301.039s.263-.076.338-.15c-.05-.051-.157-.057-.319-.02-.164.038-.27.083-.32.131zm5.454-1.353c-.025-.076 0-.176.075-.301.05-.1.1-.188.15-.264a.4.4 0 00.075-.225 1.73 1.73 0 01.038-.621c.05-.213.1-.42.15-.621a.589.589 0 000-.414c-.05-.199-.176-.264-.376-.188-.101.074-.194.145-.282.207s-.169.145-.245.244l-.94 1.203c-.075.127-.145.244-.207.357a1.435 1.435 0 01-.245.32c-.201.225-.376.457-.526.695s-.289.484-.414.734l.113.188c.226 0 .389.025.489.076.05-.051.094-.102.132-.15.038-.051.106-.063.207-.039-.025-.1-.101-.15-.226-.15a.22.22 0 00-.15-.018.654.654 0 01-.15.018c.024-.049.087-.074.188-.074.05 0 .106-.014.169-.039a.215.215 0 01.169 0 .523.523 0 01.301-.055c.1.012.213.018.339.018.125-.023.175.037.15.188v.076c.024.051.05.076.075.076.025 0 .05.012.075.037h.263c.1-.201.15-.363.15-.49.025-.023.038-.049.038-.074.05-.051.082-.1.094-.15a.315.315 0 01.094-.15l.227-.414zm.866 1.73l.038-.037c-.025 0-.038.006-.038.018 0 .014-.013.02-.038.02h.038zm.601.338l.038-.074a.521.521 0 01-.226-.039c-.025.025-.025.039 0 .039.075 0 .138.025.188.074zm4.138 1.617l.15.039c-.075-.124-.126-.138-.15-.039z"/><path d="M86.569 35.419a1.35 1.35 0 01-.301.49 1.247 1.247 0 00-.264.264l-.226.301c-.076.1-.157.182-.245.244s-.169.131-.244.207c-.101.1-.182.193-.245.281-.063.088-.132.182-.207.283-.101.1-.182.201-.244.301a.84.84 0 01-.282.264l-.376.375c-.125.127-.251.252-.376.377-.301.275-.608.525-.921.752a7.415 7.415 0 01-.997.602c-.427.176-.878.176-1.354 0-.352-.15-.589-.357-.715-.621s-.213-.57-.263-.922a1.707 1.707 0 01-.038-.619l.075-.621c0-.15.038-.264.113-.338.05-.051.132-.189.245-.414.113-.227.156-.377.132-.451l-.527.451-.676.675c-.051.051-.094.088-.132.113s-.082.063-.132.113c-.15.176-.326.338-.526.488l-.602.451a.378.378 0 01-.207.076.387.387 0 00-.207.074c-.125.051-.301.008-.527-.131-.226-.137-.351-.27-.376-.395-.05-.227-.062-.377-.038-.451.075-.426.201-.791.376-1.092a2.7 2.7 0 00.452-.752c.025-.025.038-.051.038-.076 0-.023.025-.037.075-.037l.677-.715v-.074c.125-.176.269-.307.432-.395s.307-.182.433-.283l.075-.074a.677.677 0 01.47-.301 1.31 1.31 0 01.545.037c.401.025.664.238.79.639l.113.227c.125.025.238-.037.338-.189.05-.049.094-.1.132-.15.038-.049.081-.111.132-.188.125-.125.263-.125.414 0 .075.076.138.164.188.264s.05.188 0 .264c-.05.1-.107.193-.169.281-.063.088-.12.182-.169.283-.15.301-.333.689-.545 1.166-.213.477-.383.928-.508 1.354-.176.576-.188 1.104-.038 1.58.05.15.119.232.207.244.087.014.194.02.319.02.201-.025.363-.057.489-.096.125-.037.275-.105.451-.205.125-.051.238-.107.339-.17.1-.063.2-.131.301-.207l.226-.113c.15-.049.25-.125.301-.225l.038-.039a.845.845 0 00.395-.281c.113-.137.245-.244.395-.32.15-.1.276-.238.376-.414l.264-.301a1.4 1.4 0 00.564-.451.855.855 0 01.169-.188c.062-.051.119-.1.169-.15.05-.125.163-.227.338-.301a.317.317 0 01.075-.057c.024-.012.05-.043.075-.094.125-.15.25-.295.376-.434.125-.137.25-.281.376-.432l.075.074c.101.002.139.053.114.152zm-9.591 2.145a.86.86 0 00.452-.113l.188-.15a.534.534 0 00.263-.15l.414-.375c.1-.076.201-.176.301-.301.024 0 .075-.039.15-.113l.169-.17c.063-.063.132-.119.207-.168l.188-.227.113-.15a.682.682 0 00.301-.227c.075-.1.163-.188.263-.262l-.376-.34c-.075-.074-.188-.111-.338-.111l-.301.111c-.101.051-.188.119-.263.207s-.164.158-.264.207c-.15.15-.301.295-.451.434-.15.137-.289.295-.414.469l-.226.451a2.132 2.132 0 00-.376.865v.113zm9.403-2.407v.037l.038-.037h-.038z"/><path d="M96.988 36.849c-.025 0-.038-.006-.038-.018 0-.014-.013-.02-.038-.02 0 .076-.025.125-.075.15a.558.558 0 00-.15.113c-.076.074-.138.15-.188.225a.965.965 0 01-.226.227l.263.225a.286.286 0 00.113-.037c.05-.023.1-.049.15-.074a.551.551 0 01-.169.338.519.519 0 00-.169.227l-.131-.133-.132-.131c-.05.051-.113.1-.188.15a.584.584 0 00-.113.15c-.025.051-.088.063-.188.037-.276 0-.314.102-.113.301.125.127.163.244.113.357a.857.857 0 00-.075.357c0 .15-.088.201-.264.15-.05-.15-.113-.25-.188-.301a.42.42 0 01-.188-.037c-.051.15-.075.295-.075.432 0 .139.075.244.226.32l-.376.527c-.126-.025-.201-.063-.226-.113h.038c.2-.051.263-.139.188-.264a.238.238 0 00-.113.02.273.273 0 01-.113.018c-.025.076-.088.139-.188.189-.075.049-.138.094-.188.131s-.05.119 0 .244c.025.102.038.252.038.451l-.301-.225c-.101.025-.194.051-.282.074a.689.689 0 00-.282.188c.1.025.188.051.264.076l.226.076a.56.56 0 01-.15.412 3.371 3.371 0 00-.339.396c-.1.137-.188.281-.263.432a2.566 2.566 0 00-.564.602 10.88 10.88 0 01-.414.395 1.96 1.96 0 00-.376.471l-.715.752a.908.908 0 01-.376.377c0 .025-.019.051-.057.074-.038.025-.056.051-.056.076-.176.051-.301.125-.376.225-.075.102-.164.215-.264.34-.05.125-.113.219-.188.281s-.163.133-.263.207l-.64.49a2.132 2.132 0 00-.564.375 2.43 2.43 0 01-.564.301c-.201.076-.401.15-.602.227-.828.199-1.555.074-2.182-.377a1.9 1.9 0 01-.414-.281c-.125-.113-.25-.232-.376-.357-.05-.025-.081-.068-.094-.133a.317.317 0 00-.094-.168 5.247 5.247 0 01-.338-1.656 3.948 3.948 0 01-.019-.658c.013-.213.019-.432.019-.658.025-.324.069-.65.131-.977.063-.326.12-.641.169-.941 0-.125.025-.256.075-.395.05-.139.101-.27.15-.395 0-.025.006-.039.019-.039s.019-.012.019-.037a.918.918 0 01.075-.527 1.56 1.56 0 00.15-.488c.051-.199.113-.381.188-.545.076-.162.138-.344.188-.545a.578.578 0 00.094-.246c.013-.086.032-.168.057-.244l.301-.715c.025-.049.051-.105.075-.168a.56.56 0 00.038-.207c0-.076.013-.133.038-.17a.969.969 0 00.075-.131c.051-.176.113-.352.188-.527.076-.176.176-.326.301-.451.05-.15.101-.326.15-.527.05-.15.125-.225.226-.225l-.075.488c0 .051-.038.076-.113.076v.111c.025.051.05.09.075.113a.44.44 0 01.075.113h-.226c.101.15.188.164.263.037a.932.932 0 01.207-.318c.087-.088.119-.207.094-.357 0-.025.006-.045.019-.057a.081.081 0 00.019-.057 3.28 3.28 0 00.188-.357c.05-.113.1-.232.15-.357-.051-.051-.094-.076-.132-.076s-.069-.023-.094-.074c-.075.074-.131.164-.169.264s-.019.225.056.375c-.125-.1-.207-.125-.244-.074s-.082.1-.132.15c.025-.227.094-.439.207-.641.113-.199.257-.4.433-.602.024-.125.05-.244.075-.357a.575.575 0 01.226-.318c.125 0 .226.025.301.074.075 0 .125-.025.15-.074.075-.025.15-.113.226-.264.075-.15.1-.289.075-.414-.276.1-.464.213-.564.338v-.037c0-.025.012-.037.038-.037.1-.15.182-.301.245-.451.062-.15.144-.301.245-.451a.526.526 0 00.113-.17.482.482 0 01.113-.17v-.113c.175-.15.307-.332.395-.545.087-.213.207-.395.357-.545a.572.572 0 01.452-.227c.05.025.106.033.169.02a.927.927 0 01.169-.02c.125-.049.188-.125.188-.225s-.075-.15-.226-.15c-.05-.025-.164-.037-.338-.037a4.01 4.01 0 01.131-.246.906.906 0 01.132-.168c.05 0 .094.012.132.037s.081.037.131.037c.1-.15.088-.287-.038-.414.05-.125.119-.244.207-.357a.867.867 0 01.282-.244c.05-.1.094-.182.131-.244s.069-.131.094-.207c.125-.125.226-.188.301-.188s.163-.025.263-.076v-.074c-.075-.125-.107-.213-.094-.264.012-.051.081-.137.207-.264.175-.049.263-.162.263-.338l.038-.037c.024 0 .062-.025.113-.076 0-.025.006-.043.019-.057.013-.012.019-.031.019-.057.125.051.2.039.226-.037-.025.025-.075.037-.15.037 0-.125.031-.219.094-.281.062-.063.144-.133.244-.207l.038-.037c.05 0 .075-.014.075-.039l.151-.451c.05-.049.094-.1.131-.15a.713.713 0 01.169-.15c.1-.125.213-.238.338-.338.1-.125.182-.232.245-.32.062-.088.131-.168.207-.244.275-.352.558-.689.846-1.016.288-.326.607-.639.959-.939l.79-.791c.125-.125.269-.244.433-.357.163-.113.332-.23.508-.357.075-.049.163-.117.263-.207.1-.086.213-.156.338-.207.25-.15.527-.225.828-.225.25 0 .438.1.564.301.125.176.2.281.226.32.024.037-.038.168-.188.395a.65.65 0 00-.188.301 3.46 3.46 0 01-.188.508c-.075.164-.15.32-.226.471a2.036 2.036 0 00-.188.414l-.414.826a.227.227 0 00-.151.15.96.96 0 01-.169.471l-.282.357a.448.448 0 01-.075.113c-.025.025-.038.063-.038.111-.025.127-.082.232-.169.32s-.157.182-.207.283c-.101.1-.188.201-.264.301s-.15.188-.226.262c-.126.176-.22.346-.282.508a1.233 1.233 0 01-.282.434.443.443 0 00-.169.227c-.038.1-.082.199-.132.301-.125.199-.263.412-.414.639s-.314.439-.489.639h-.038a.863.863 0 01-.282.471c-.138.113-.27.258-.395.434a.404.404 0 00-.113.375c.05.102.043.17-.019.207a.877.877 0 00-.169.131 1.083 1.083 0 00-.452.396 4.306 4.306 0 01-.338.469c-.126.127-.22.264-.282.414a.943.943 0 01-.282.377 4.72 4.72 0 01-.319.357l-.357.357-.075.074a3.443 3.443 0 01-.734.902c-.289.252-.583.502-.884.754-.05.074-.119.15-.207.225-.088.076-.169.15-.244.227l-.414.264c-.1.074-.213.074-.338 0-.15-.15-.15-.289 0-.414.276-.201.551-.426.828-.678.275-.25.551-.502.828-.752a3.74 3.74 0 01.226-.338c.075-.102.163-.189.263-.264a3.26 3.26 0 01.564-.715c.125-.201.269-.408.432-.621s.32-.42.47-.621c.1-.125.194-.256.282-.395.087-.137.194-.27.32-.395l.075-.15c.05-.201.132-.357.245-.471s.207-.244.282-.395c.1-.15.207-.289.32-.414s.231-.275.357-.451a20.21 20.21 0 011.128-1.693c.125-.174.25-.357.376-.545s.25-.369.376-.545l.113-.227c.175-.15.32-.324.433-.525s.231-.389.357-.564c.1-.227.263-.451.489-.678a.459.459 0 01.075-.113c.025-.023.038-.049.038-.074.025-.176.081-.338.169-.49.087-.15.182-.301.282-.451.05-.174.119-.338.207-.488s.156-.301.207-.451c.05-.176.087-.275.113-.301h-.075v-.037a.338.338 0 01-.15.037c-.051 0-.101.025-.15.074a4.747 4.747 0 01-.621.527c-.213.15-.42.314-.621.488a.652.652 0 00-.245.207c-.063.088-.12.17-.169.244-.05.051-.101.107-.15.17a.404.404 0 01-.188.133.254.254 0 00-.113.094c-.025.037-.063.08-.113.131-.15.125-.282.27-.395.434-.113.162-.22.318-.32.469a7.658 7.658 0 01-.677.734 5.223 5.223 0 00-.639.732 1.62 1.62 0 00-.301.377c-.352.426-.684.859-.997 1.297-.314.439-.633.873-.959 1.299a6.56 6.56 0 00-.282.375 1.524 1.524 0 00-.207.451l-.226.303c-.176.25-.301.514-.376.789a.176.176 0 01-.057.131l-.094.096a6.906 6.906 0 00-.32.338c-.088.1-.169.213-.245.338a1.073 1.073 0 00-.226.32 7.697 7.697 0 00-.15.357c-.126.15-.226.301-.301.451-.075.15-.163.314-.263.488 0 .025-.013.045-.038.057-.025.014-.05.045-.075.094-.05.15-.113.301-.188.451l-.226.453a3.683 3.683 0 00-.207.395c-.063.137-.145.27-.245.395a1.59 1.59 0 01-.207.414c-.088.125-.157.25-.207.375l-.526 1.205-.715 1.881c-.075.275-.156.545-.245.809-.087.262-.182.533-.282.809l-.226.939-.301 1.092c0 .074-.006.145-.019.207a1.097 1.097 0 00-.019.207v.301c-.05.225-.1.463-.15.713-.05.252-.088.516-.113.791a2.73 2.73 0 000 .639c.025.201.063.402.113.602 0 .176.013.34.038.49.025.15.063.314.113.488.075.227.157.369.245.434.088.063.244.105.47.131.201 0 .401-.014.602-.037a1.49 1.49 0 00.602-.227c.275-.15.532-.301.771-.451.238-.15.482-.326.733-.525.15-.152.307-.289.47-.414.163-.125.32-.264.47-.414.125-.076.238-.164.338-.264.1-.1.201-.176.301-.227h.075a.579.579 0 01.188-.355c.1-.088.188-.17.263-.246.275-.35.626-.715 1.053-1.09.15-.125.288-.283.414-.471s.288-.344.489-.471c.024 0 .062-.023.113-.074.2-.326.419-.621.658-.885l.733-.809c.15-.225.351-.463.602-.715.05-.049.1-.111.15-.188.05-.074.1-.137.15-.188a6.79 6.79 0 00.602-.828c.1-.125.201-.256.301-.395.1-.139.212-.27.338-.395.15-.15.288-.352.414-.604l1.128-1.691h.414l-1.048 1.802zm-11.999 2.107h-.188c0 .125-.025.201-.075.225.125.025.194.025.207 0 .012-.024.031-.1.056-.225zm.225-.752a.477.477 0 01-.169.111.522.522 0 00-.169.113c.125.15.226.164.301.037.126-.073.138-.161.037-.261zm-.112-.453c.051.051.101.107.15.17.051.063.126.094.226.094a2.65 2.65 0 00.057-.188.65.65 0 01.094-.188 1.193 1.193 0 00-.527.112zm.338-.488l.075.076.113.111a.48.48 0 01.113-.225c-.151.001-.25.013-.301.038zm.301-.264h.038c.025-.1-.025-.174-.151-.225.025.1.063.176.113.225zm.151-.263c.15-.1.232-.168.244-.205.013-.039-.019-.119-.094-.246a.291.291 0 01-.207.133c-.087.012-.144.082-.169.207l.226.111zm1.316-3.536h.188l-.038-.037h-.038c-.025 0-.044.006-.057.02-.011.012-.03.017-.055.017zm.79-1.203h-.075l-.038.037c0 .025.012.037.038.037l.075-.074zm.113-.113l.075-.037-.075-.15-.075.037c-.025 0-.038.014-.038.037 0 .051.038.088.113.113zm.414-.301c0-.15-.075-.25-.226-.301-.051.125-.044.195.019.207a.618.618 0 01.207.094zm.3-.601c-.125-.1-.207-.15-.244-.15s-.069.025-.094.074c-.05.076.025.176.226.301l.112-.225zm1.543-2.409a1.096 1.096 0 00-.226-.074c-.025 0-.051.063-.075.188.05-.023.1-.049.15-.074.05-.026.1-.04.151-.04zm.113 15.874c0-.023-.013-.037-.038-.037l-.038.037.038.039c.024 0 .038-.014.038-.039zm.714-17.34h-.151c.025.025.038.051.038.076l.113-.076zm.339 16.363v.074c.05 0 .113-.023.188-.074h-.188zm.451-.752v.037c.1.051.201.037.301-.037h-.301zm.903-.641c-.025 0-.038-.012-.038-.037l-.113.113c0 .025.012.037.038.037h.038c.025 0 .038-.012.038-.037s.011-.05.037-.076z"/></svg>